<?xml version="1.0" encoding="utf-8"?>
<!-- Generator: Adobe Illustrator 19.2.0, SVG Export Plug-In . SVG Version: 6.00 Build 0)  -->
<svg version="1.1" id="Ebene_1" xmlns="http://www.w3.org/2000/svg" xmlns:xlink="http://www.w3.org/1999/xlink" x="0px" y="0px"
	 viewBox="0 0 100 100" style="enable-background:new 0 0 100 100;" xml:space="preserve">
<style type="text/css">
	.st0{fill:#AD9E6E;}
	.st1{fill:#4E2B85;}
	.st2{fill:#FFFFFF;}
	.st3{fill:#EE3124;}
</style>
<g>
	<polygon class="st0" points="50.1,2.2 82.2,37.2 50.1,98.2 17.7,37.2 	"/>
	<polygon class="st1" points="24.5,43.8 50.1,65.3 75.7,43.8 50.1,91.9 	"/>
	<path class="st2" d="M46.6,71.3h-2.3L44,72.4h-2.1l2.5-6.5h2.2l2.5,6.5H47L46.6,71.3z M46.2,69.9l-0.7-2.3l-0.7,2.3H46.2z"/>
	<polygon class="st2" points="21.6,37.2 50.1,61.7 78.6,37.2 50.1,6.3 	"/>
	<path class="st3" d="M50.2,55.7c0.4,0,2.4,0,2.5-3.6c0-0.1,2.4,0,2.4,0s-2.2-2.9-2.2-3.9c0,0,2.6,0,2.6,0v-1.2h-2.6
		c0,0,0.1-4.1,3-7c2.4-2.4,4-2.7,4.7-2.1c1.3,1.1-0.5,1.6-1.1,2.3c-1.1,1.3-0.8,3.4,0.2,3.4c0.1,0,0.1-1.1,1.4-1.7
		c1-0.5,2.1-0.6,3.6-0.4c2.2,0.2,4.2-2.2,3.9-5.6c-0.4-3-2.3-3.9-3.8-4.2c-2-0.5-5.8-0.4-8.1,2.8c-1.7,2.4-1.4,2-3.3,5
		c-0.8,1.2,1.9-5.9,3.6-8.1c1.6-2,1.4-2,2.4-3.2l1.8-0.4v-2.3l-2.2,0.4l-0.4,1.6c0,0-1.4,1.5-2.8,3.5c-1.4,1.9-3.1,5.8-3.1,5.8
		s3.5-10,3.1-14.5c-0.3-3.6-1.8-6.7-5.4-9.7c-3.6,3-5.1,6.1-5.4,9.7c-0.3,4.5,3.1,14.5,3.1,14.5s-1.8-3.9-3.1-5.8
		c-1.4-2-2.8-3.5-2.8-3.5l-0.4-1.6l-2.2-0.4v2.3l1.8,0.4c1.1,1.2,0.8,1.1,2.4,3.2c1.7,2.2,4.4,9.3,3.6,8.1c-1.9-3-1.7-2.7-3.3-5
		c-2.3-3.2-6.1-3.3-8.1-2.8c-1.6,0.3-3.5,1.2-3.8,4.2c-0.4,3.4,1.7,5.8,3.9,5.6c1.4-0.2,2.6-0.1,3.6,0.4c1.3,0.6,1.2,1.7,1.4,1.7
		c1,0,1.3-2.1,0.2-3.4c-0.6-0.7-2.4-1.3-1.1-2.3c0.7-0.5,2.2-0.3,4.7,2.1c2.9,2.8,3,7,3,7h-2.6v1.2c0,0,2.6,0,2.6,0
		c0,1.1-2.2,3.9-2.2,3.9s2.3-0.1,2.3,0C47.7,55.7,49.8,55.7,50.2,55.7L50.2,55.7z"/>
	<polygon class="st3" points="48,75 53,75 53,76.4 50,76.4 50,77.5 52.5,77.5 52.5,78.8 50,78.8 50,81.4 48,81.4 	"/>
	<path class="st2" d="M56.7,69.8l1.7,0.5c-0.1,0.5-0.3,0.9-0.5,1.2c-0.2,0.3-0.6,0.6-0.9,0.8c-0.4,0.2-0.8,0.3-1.4,0.3
		c-0.7,0-1.3-0.1-1.7-0.3c-0.5-0.2-0.8-0.6-1.1-1.1c-0.3-0.5-0.5-1.2-0.5-2c0-1.1,0.3-1.9,0.8-2.4c0.5-0.6,1.4-0.9,2.4-0.9
		c0.8,0,1.4,0.2,1.9,0.5c0.5,0.3,0.8,0.8,1.1,1.5l-1.7,0.4c-0.1-0.2-0.1-0.3-0.2-0.4c-0.1-0.2-0.2-0.3-0.4-0.3
		c-0.2-0.1-0.4-0.1-0.5-0.1c-0.5,0-0.8,0.2-1.1,0.5c-0.2,0.3-0.3,0.7-0.3,1.3c0,0.7,0.1,1.2,0.3,1.5c0.2,0.3,0.5,0.4,0.9,0.4
		c0.4,0,0.7-0.1,0.9-0.3C56.4,70.5,56.6,70.2,56.7,69.8"/>
</g>
</svg>
