<?xml version="1.0" encoding="utf-8"?>
<!-- Generator: Adobe Illustrator 19.1.0, SVG Export Plug-In . SVG Version: 6.00 Build 0)  -->
<svg version="1.1" id="Ebene_1" xmlns="http://www.w3.org/2000/svg" xmlns:xlink="http://www.w3.org/1999/xlink" x="0px" y="0px"
	 viewBox="15 -27 170 85" style="enable-background:new 15 -27 170 85;" xml:space="preserve">
<style type="text/css">
	.st0{fill:#4F4F4F;}
	.st1{fill:none;}
</style>
<g>
	<g>
		<polygon class="st0" points="144.3,28.8 112.1,-27 93.5,-16.4 119.4,28.8 		"/>
		<polygon class="st0" points="78.8,28.8 69,11.6 50.3,22.4 54,28.8 		"/>
		<rect x="86.9" y="36" class="st0" width="5.3" height="21.4"/>
		<path class="st0" d="M157.6,44.8c-3.5-0.9-7.9-0.8-7.9-3c0.1-1.5,1.5-1.9,3.7-1.9c3.2,0,3.4,1.8,3.5,2.9h5.4c-0.4-4.2-3.8-7-9.1-7
			c-5.5,0-8.9,3-8.9,6.9c0,2.2,1.2,4.2,3,5.1c1.4,0.7,3.3,1.1,5.6,1.5s4.4,0.5,4.5,2.2c0,1.1-1.2,2.5-3.6,2.5
			c-3.6-0.1-4.5-2-4.5-3.4h-5.6c0.2,4.3,3.8,7.4,9.7,7.4c5.3,0,9.6-2,9.7-7.4C163,47.8,160.9,45.7,157.6,44.8z"/>
		<polygon class="st0" points="90.8,-7.4 72.2,3.2 86.9,28.8 86.9,34 92.2,34 92.2,28.8 111.7,28.8 		"/>
		<path class="st0" d="M79,37.8c-1.9-1.3-4-1.9-6.3-1.9c-6.2,0-11.2,4.9-11.2,11S66.5,58,72.7,58c2.3,0,4.4-0.7,6.3-1.9v1.4h5.3
			V28.8H79V37.8z M72.8,53c-3.4,0-6.2-2.8-6.2-6.1s2.8-6.2,6.2-6.2c3.3,0,6.2,2.8,6.2,6.2S76.1,53,72.8,53z"/>
		<path class="st0" d="M111.8,37.8c-1.9-1.3-4-1.9-6.4-1.9c-6.1,0-11.1,4.9-11.1,11s5,11.1,11.1,11.1c2.4,0,4.6-0.7,6.4-1.9v1.4h5.2
			V28.8h-5.2V37.8z M105.6,53c-3.3,0-6.1-2.8-6.1-6.1s2.8-6.2,6.1-6.2c3.4,0,6.2,2.8,6.2,6.2S109,53,105.6,53z"/>
		<path class="st0" d="M136.3,37.8c-1.8-1.3-4-1.9-6.3-1.9c-6.1,0-11.1,4.9-11.1,11S123.9,58,130,58c2.4,0,4.5-0.7,6.3-1.9v1.4h5.3
			V36h-5.3V37.8z M130.2,53c-3.3,0-6.2-2.8-6.2-6.1s2.8-6.2,6.2-6.2c3.3,0,6.1,2.8,6.1,6.2S133.5,53,130.2,53z"/>
		<path class="st0" d="M54.4,37.8c-1.9-1.3-4.1-1.9-6.4-1.9c-6.1,0-11.1,4.9-11.1,11S41.9,58,48,58c2.4,0,4.6-0.7,6.4-1.9v1.4h5.2
			V36h-5.2V37.8z M48.2,53c-3.3,0-6.2-2.8-6.2-6.1s2.8-6.2,6.2-6.2s6.2,2.8,6.2,6.2S51.6,53,48.2,53z"/>
	</g>
	<rect x="15" y="-27" class="st1" width="170" height="85"/>
</g>
</svg>
