<?xml version="1.0" encoding="iso-8859-1"?>
<!-- Generator: Adobe Illustrator 19.0.0, SVG Export Plug-In . SVG Version: 6.00 Build 0)  -->
<svg version="1.1" id="Layer_1" xmlns="http://www.w3.org/2000/svg" xmlns:xlink="http://www.w3.org/1999/xlink" x="0px" y="0px"
	 viewBox="0 0 50 50" style="enable-background:new 0 0 50 50;" xml:space="preserve">
<g id="XMLID_1_">
	<g>
		<defs>
			<polygon id="XMLID_103_" points="5.917,49.865 44.083,49.865 44.083,0.135 5.917,0.135 5.917,49.865 			"/>
		</defs>
		<clipPath id="XMLID_106_">
			<use xlink:href="#XMLID_103_"  style="overflow:visible;"/>
		</clipPath>
		<path id="XMLID_104_" style="clip-path:url(#XMLID_106_);fill:#FFFFFF;" d="M24.118,49.125
			c-4.513-2.694-8.324-6.156-11.323-10.287c-2.588-3.566-4.479-7.502-5.621-11.698l-0.091-0.336L6.942,26.27l-0.585-2.907
			l-0.075-0.521c-0.561-3.88-0.477-7.827,0.25-11.731l0.212-1.137l1.131-0.234c0.044-0.009,4.459-0.939,8.369-3.123
			c5.311-2.973,7.283-4.898,7.489-5.108l1.268-1.375l1.277,1.391l0.013,0.011c0.071,0.073,2.066,2.058,7.463,5.081
			c3.882,2.169,8.323,3.113,8.367,3.122l1.132,0.233l0.212,1.135c0.727,3.904,0.812,7.851,0.25,11.733l-0.075,0.521l-0.254,1.428
			l-0.471,2.013l-0.092,0.336c-1.141,4.198-3.033,8.133-5.62,11.698c-2.999,4.131-6.808,7.592-11.322,10.288L25,49.653
			L24.118,49.125L24.118,49.125z"/>
	</g>
	<path id="XMLID_102_" style="fill:#131921;" d="M24.47,48.535c-4.42-2.651-8.15-6.055-11.085-10.117
		c-2.705-3.745-4.627-7.893-5.713-12.333l-0.096-0.392l-0.346-1.686c-0.773-4.234-0.762-8.547,0.032-12.829l0.127-0.686l0.68-0.141
		c0.047-0.009,4.543-0.958,8.537-3.2c5.692-3.201,7.616-5.229,7.635-5.249l0.761-0.83l0.761,0.833
		c0.016,0.018,1.936,2.041,7.632,5.246c3.998,2.243,8.49,3.19,8.534,3.199l0.682,0.141l0.127,0.685
		c0.795,4.283,0.805,8.595,0.032,12.829l-0.108,0.607l-0.334,1.471c-1.086,4.441-3.008,8.59-5.714,12.333
		c-2.935,4.062-6.664,7.466-11.085,10.117L25,48.854L24.47,48.535L24.47,48.535z"/>
	<path id="XMLID_101_" style="fill:#F58220;" d="M41.858,11.193c0,0-4.691-0.968-8.904-3.322C26.901,4.482,25,2.402,25,2.402
		s-1.901,2.08-7.954,5.47c-4.213,2.353-8.903,3.322-8.903,3.322c-0.865,4.643-0.764,9.295,0.215,13.726h33.285
		C42.621,20.488,42.723,15.837,41.858,11.193"/>
	<path id="XMLID_100_" style="fill:#A51D36;" d="M24.995,47.947c8.764-5.234,14.532-13.422,16.548-22.547H8.447
		C10.464,34.526,16.231,42.714,24.995,47.947"/>
	<path style="fill:#131921;" d="M13.114,31.261c0-1.127,0-1.335-0.014-1.573c-0.014-0.252-0.075-0.371-0.319-0.423
		c-0.059-0.015-0.185-0.022-0.289-0.022c-0.082,0-0.127-0.015-0.127-0.067c0-0.052,0.053-0.067,0.164-0.067
		c0.393,0,0.86,0.022,1.017,0.022c0.252,0,0.816-0.022,1.045-0.022c0.467,0,0.965,0.045,1.365,0.319
		c0.208,0.141,0.504,0.519,0.504,1.016c0,0.549-0.23,1.053-0.979,1.661c0.66,0.831,1.172,1.491,1.609,1.951
		c0.416,0.43,0.719,0.483,0.831,0.504c0.082,0.015,0.148,0.023,0.208,0.023c0.06,0,0.088,0.022,0.088,0.059
		c0,0.059-0.052,0.074-0.14,0.074h-0.705c-0.415,0-0.601-0.037-0.794-0.141c-0.319-0.171-0.601-0.519-1.016-1.09
		c-0.297-0.408-0.638-0.913-0.734-1.023c-0.037-0.045-0.082-0.052-0.134-0.052l-0.645-0.015c-0.038,0-0.06,0.015-0.06,0.06v0.104
		c0,0.69,0,1.276,0.037,1.587c0.023,0.216,0.067,0.379,0.289,0.409c0.111,0.014,0.275,0.03,0.364,0.03
		c0.06,0,0.089,0.022,0.089,0.059c0,0.052-0.052,0.074-0.148,0.074c-0.431,0-0.98-0.022-1.091-0.022
		c-0.141,0-0.608,0.022-0.905,0.022c-0.096,0-0.148-0.022-0.148-0.074c0-0.037,0.03-0.059,0.119-0.059c0.112,0,0.2-0.015,0.267-0.03
		c0.148-0.03,0.185-0.193,0.215-0.409c0.037-0.311,0.037-0.897,0.037-1.58V31.261L13.114,31.261z M13.99,31.847
		c0,0.082,0.015,0.111,0.067,0.134c0.156,0.052,0.378,0.074,0.564,0.074c0.296,0,0.393-0.029,0.526-0.126
		c0.223-0.163,0.438-0.504,0.438-1.112c0-1.054-0.697-1.358-1.135-1.358c-0.185,0-0.319,0.008-0.393,0.03
		c-0.052,0.015-0.067,0.045-0.067,0.104V31.847L13.99,31.847z"/>
	<path style="fill:#131921;" d="M17.906,31.914c0-1.268,0.839-2.908,3.064-2.908c1.847,0,2.997,1.076,2.997,2.774
		c0,1.699-1.187,3.042-3.071,3.042C18.766,34.822,17.906,33.226,17.906,31.914 M22.928,32.054c0-1.662-0.957-2.693-2.173-2.693
		c-0.853,0-1.824,0.475-1.824,2.322c0,1.542,0.852,2.766,2.277,2.766C21.726,34.45,22.928,34.198,22.928,32.054"/>
	<path id="XMLID_95_" style="fill:#131921;" d="M25.123,29.199c0.022-0.126,0.067-0.193,0.126-0.193c0.059,0,0.104,0.037,0.2,0.23
		l2.026,4.124l2.017-4.176c0.06-0.119,0.097-0.178,0.163-0.178c0.067,0,0.111,0.074,0.134,0.23l0.674,4.54
		c0.066,0.467,0.141,0.682,0.363,0.749c0.216,0.067,0.364,0.074,0.46,0.074c0.067,0,0.119,0.007,0.119,0.052
		c0,0.06-0.089,0.082-0.193,0.082c-0.185,0-1.209-0.015-1.506-0.037c-0.171-0.015-0.215-0.037-0.215-0.082
		c0-0.037,0.03-0.059,0.082-0.081c0.045-0.015,0.067-0.111,0.037-0.319l-0.445-3.226h-0.03l-1.616,3.308
		c-0.171,0.349-0.209,0.415-0.275,0.415c-0.067,0-0.142-0.149-0.26-0.371c-0.178-0.341-0.764-1.476-0.853-1.683
		c-0.067-0.156-0.512-1.032-0.771-1.587h-0.03l-0.386,2.893c-0.015,0.133-0.023,0.23-0.023,0.348c0,0.141,0.096,0.208,0.223,0.237
		c0.134,0.03,0.237,0.037,0.312,0.037c0.059,0,0.112,0.015,0.112,0.052c0,0.066-0.068,0.081-0.179,0.081
		c-0.311,0-0.646-0.022-0.779-0.022c-0.141,0-0.497,0.022-0.735,0.022c-0.073,0-0.133-0.015-0.133-0.081
		c0-0.038,0.044-0.052,0.119-0.052c0.059,0,0.111,0,0.223-0.023c0.208-0.044,0.267-0.334,0.303-0.586L25.123,29.199L25.123,29.199z"
		/>
	<path style="fill:#131921;" d="M33.252,32.826c-0.037,0-0.052,0.015-0.066,0.059l-0.401,1.017
		c-0.074,0.185-0.112,0.364-0.112,0.452c0,0.134,0.067,0.23,0.297,0.23h0.112c0.089,0,0.111,0.015,0.111,0.059
		c0,0.059-0.044,0.074-0.126,0.074c-0.238,0-0.556-0.022-0.787-0.022c-0.082,0-0.489,0.022-0.876,0.022
		c-0.096,0-0.141-0.015-0.141-0.074c0-0.045,0.029-0.059,0.089-0.059c0.066,0,0.171-0.008,0.23-0.015
		c0.341-0.044,0.482-0.297,0.631-0.667l1.862-4.599c0.089-0.216,0.133-0.297,0.208-0.297c0.066,0,0.111,0.067,0.185,0.238
		c0.178,0.408,1.365,3.375,1.84,4.502c0.282,0.668,0.497,0.771,0.652,0.809c0.111,0.022,0.224,0.03,0.312,0.03
		c0.06,0,0.097,0.007,0.097,0.059c0,0.059-0.067,0.074-0.341,0.074c-0.267,0-0.809,0-1.402-0.015
		c-0.134-0.007-0.222-0.007-0.222-0.059c0-0.045,0.029-0.059,0.104-0.067c0.052-0.015,0.103-0.082,0.067-0.171l-0.594-1.528
		c-0.014-0.036-0.037-0.052-0.074-0.052H33.252L33.252,32.826z M34.765,32.455c0.037,0,0.045-0.023,0.037-0.044l-0.667-1.825
		c-0.007-0.03-0.015-0.068-0.037-0.068c-0.023,0-0.038,0.037-0.045,0.068l-0.683,1.817c-0.007,0.029,0,0.052,0.03,0.052H34.765
		L34.765,32.455z"/>
	<path style="fill:#F58220;" d="M13.309,31.096c0-1.128,0-1.335-0.014-1.573c-0.015-0.252-0.074-0.371-0.319-0.423
		c-0.06-0.015-0.185-0.022-0.289-0.022c-0.083,0-0.127-0.015-0.127-0.067c0-0.052,0.052-0.067,0.164-0.067
		c0.393,0,0.861,0.023,1.017,0.023c0.252,0,0.815-0.023,1.045-0.023c0.467,0,0.965,0.045,1.365,0.319
		c0.208,0.141,0.505,0.519,0.505,1.016c0,0.549-0.23,1.053-0.979,1.661c0.66,0.83,1.172,1.491,1.609,1.951
		c0.415,0.43,0.72,0.483,0.831,0.504c0.082,0.015,0.148,0.023,0.208,0.023c0.06,0,0.089,0.022,0.089,0.059
		c0,0.059-0.052,0.074-0.141,0.074h-0.705c-0.415,0-0.6-0.037-0.794-0.141c-0.318-0.17-0.601-0.52-1.016-1.091
		c-0.297-0.407-0.638-0.912-0.734-1.023c-0.038-0.045-0.082-0.052-0.134-0.052l-0.645-0.015c-0.037,0-0.059,0.015-0.059,0.059v0.104
		c0,0.69,0,1.276,0.037,1.587c0.022,0.215,0.067,0.379,0.29,0.408c0.111,0.015,0.274,0.03,0.363,0.03
		c0.059,0,0.088,0.022,0.088,0.059c0,0.052-0.052,0.074-0.148,0.074c-0.431,0-0.979-0.022-1.091-0.022
		c-0.14,0-0.608,0.022-0.905,0.022c-0.096,0-0.149-0.022-0.149-0.074c0-0.037,0.03-0.059,0.119-0.059c0.111,0,0.2-0.015,0.267-0.03
		c0.149-0.03,0.185-0.193,0.215-0.408c0.037-0.311,0.037-0.898,0.037-1.58V31.096L13.309,31.096z M14.185,31.681
		c0,0.082,0.015,0.111,0.067,0.134c0.156,0.052,0.379,0.074,0.564,0.074c0.297,0,0.393-0.03,0.526-0.126
		c0.223-0.163,0.438-0.504,0.438-1.112c0-1.054-0.697-1.358-1.136-1.358c-0.185,0-0.319,0.008-0.393,0.029
		c-0.052,0.015-0.067,0.045-0.067,0.105V31.681L14.185,31.681z"/>
	<path style="fill:#F58220;" d="M18.101,31.748c0-1.269,0.839-2.908,3.063-2.908c1.847,0,2.997,1.076,2.997,2.774
		c0,1.7-1.187,3.042-3.071,3.042C18.962,34.656,18.101,33.061,18.101,31.748 M23.123,31.889c0-1.661-0.957-2.692-2.173-2.692
		c-0.853,0-1.825,0.474-1.825,2.321c0,1.542,0.852,2.767,2.277,2.767C21.921,34.285,23.123,34.033,23.123,31.889"/>
	<path id="XMLID_88_" style="fill:#F58220;" d="M25.318,29.033c0.022-0.126,0.067-0.193,0.126-0.193c0.059,0,0.103,0.037,0.2,0.23
		l2.025,4.124l2.018-4.176c0.06-0.119,0.096-0.178,0.163-0.178c0.067,0,0.111,0.074,0.134,0.23l0.674,4.54
		c0.067,0.467,0.141,0.683,0.364,0.749c0.215,0.066,0.364,0.074,0.459,0.074c0.066,0,0.12,0.008,0.12,0.052
		c0,0.059-0.089,0.081-0.193,0.081c-0.186,0-1.21-0.015-1.506-0.037c-0.171-0.015-0.216-0.037-0.216-0.082
		c0-0.037,0.03-0.059,0.082-0.081c0.044-0.015,0.067-0.111,0.037-0.319l-0.445-3.226h-0.03l-1.617,3.308
		c-0.171,0.349-0.208,0.415-0.274,0.415c-0.066,0-0.141-0.149-0.259-0.371c-0.179-0.341-0.764-1.476-0.853-1.684
		c-0.067-0.156-0.512-1.031-0.771-1.588h-0.03l-0.386,2.893c-0.015,0.133-0.022,0.229-0.022,0.348c0,0.141,0.096,0.208,0.223,0.238
		c0.134,0.029,0.238,0.037,0.312,0.037c0.059,0,0.111,0.014,0.111,0.052c0,0.066-0.067,0.081-0.178,0.081
		c-0.312,0-0.646-0.022-0.779-0.022c-0.141,0-0.497,0.022-0.734,0.022c-0.074,0-0.133-0.015-0.133-0.081
		c0-0.038,0.044-0.052,0.118-0.052c0.059,0,0.111,0,0.223-0.023c0.208-0.044,0.267-0.334,0.304-0.586L25.318,29.033L25.318,29.033z"
		/>
	<path style="fill:#F58220;" d="M33.448,32.661c-0.038,0-0.052,0.015-0.067,0.059l-0.401,1.016
		c-0.073,0.186-0.111,0.363-0.111,0.453c0,0.133,0.067,0.23,0.296,0.23h0.111c0.089,0,0.112,0.014,0.112,0.059
		c0,0.058-0.044,0.074-0.126,0.074c-0.238,0-0.557-0.022-0.786-0.022c-0.082,0-0.49,0.022-0.875,0.022
		c-0.097,0-0.141-0.015-0.141-0.074c0-0.045,0.03-0.059,0.089-0.059c0.068,0,0.171-0.008,0.23-0.015
		c0.341-0.045,0.482-0.297,0.631-0.668l1.862-4.599c0.089-0.215,0.134-0.297,0.208-0.297c0.066,0,0.111,0.067,0.185,0.237
		c0.178,0.408,1.365,3.375,1.841,4.502c0.281,0.668,0.496,0.772,0.652,0.809c0.111,0.022,0.223,0.03,0.311,0.03
		c0.059,0,0.096,0.007,0.096,0.059c0,0.058-0.067,0.074-0.341,0.074c-0.267,0-0.808,0-1.402-0.015
		c-0.134-0.007-0.222-0.007-0.222-0.058c0-0.045,0.029-0.059,0.103-0.067c0.052-0.015,0.104-0.082,0.067-0.17l-0.594-1.528
		c-0.015-0.037-0.037-0.052-0.075-0.052H33.448L33.448,32.661z M34.961,32.289c0.037,0,0.045-0.022,0.037-0.044l-0.667-1.825
		c-0.008-0.03-0.015-0.067-0.037-0.067c-0.023,0-0.037,0.037-0.045,0.067l-0.682,1.817c-0.008,0.029,0,0.052,0.03,0.052H34.961
		L34.961,32.289z"/>
	<polygon id="XMLID_85_" style="fill:#FFFFFF;" points="27.724,48.979 27.481,48.979 27.481,48.841 28.127,48.841 28.127,48.979 
		27.888,48.979 27.888,49.865 27.724,49.865 27.724,48.979 	"/>
	<polygon id="XMLID_84_" style="fill:#FFFFFF;" points="28.221,48.841 28.476,48.841 28.657,49.6 28.659,49.6 28.837,48.841 
		29.086,48.841 29.086,49.865 28.932,49.865 28.932,49.014 28.929,49.014 28.722,49.865 28.584,49.865 28.378,49.014 28.376,49.014 
		28.376,49.865 28.221,49.865 28.221,48.841 	"/>
	<path id="XMLID_83_" style="fill:#131921;" d="M22.359,39.029c0,0.342,0.242,0.785,0.822,0.785c0.206,0,0.415-0.06,0.531-0.187
		c0.008-0.008,0.021-0.033,0.021-0.044c0-0.021-0.016-0.037-0.032-0.037c-0.016,0-0.037,0.02-0.082,0.045
		c-0.051,0.024-0.132,0.049-0.273,0.049c-0.137,0-0.536-0.146-0.536-0.769c0-0.346,0.194-0.606,0.484-0.606
		c0.311,0,0.612,0.317,0.612,1.038c0,0.96-0.629,1.628-1.047,1.884c-0.02,0.016-0.048,0.041-0.048,0.069
		c0,0.021,0.02,0.041,0.036,0.041c0.032,0,0.053-0.004,0.072-0.017c0.5-0.235,1.487-0.952,1.487-2.091
		c0-0.619-0.359-1.107-1.015-1.107C22.77,38.081,22.359,38.48,22.359,39.029"/>
	<path id="XMLID_82_" style="fill:#131921;" d="M20.189,38.818c0,0.025,0.02,0.045,0.033,0.045c0.015,0,0.036-0.008,0.056-0.016
		c0.088-0.037,0.391-0.195,0.468-0.195c0.06,0,0.06,0.049,0.06,0.146v0.534l0.004,0.647c0.004,0.391-0.004,0.736-0.02,0.915
		c-0.012,0.13-0.033,0.187-0.162,0.216c-0.073,0.016-0.279,0.028-0.323,0.028c-0.016,0-0.032,0.012-0.032,0.041
		c0,0.028,0.024,0.037,0.068,0.037c0.258,0,0.596-0.013,0.689-0.013c0.109,0,0.366,0.013,0.673,0.013
		c0.043,0,0.064-0.009,0.064-0.037c0-0.029-0.021-0.041-0.036-0.041c-0.033,0-0.206-0.011-0.266-0.024
		c-0.129-0.028-0.149-0.089-0.161-0.22c-0.016-0.179-0.016-0.525-0.016-0.915v-0.753c0-0.623,0.024-1.026,0.024-1.058
		c0-0.04-0.012-0.086-0.048-0.086c-0.032,0-0.069,0.028-0.105,0.053c-0.141,0.106-0.915,0.618-0.931,0.626
		C20.209,38.774,20.189,38.793,20.189,38.818"/>
	<path id="XMLID_81_" style="fill:#131921;" d="M24.766,41.146c0,0.032,0.028,0.057,0.056,0.057h1.579
		c0.255,0,0.319-0.012,0.351-0.122c0.04-0.139,0.117-0.517,0.117-0.582c0-0.041-0.003-0.077-0.032-0.077
		c-0.024,0-0.036,0.016-0.048,0.065c-0.048,0.191-0.181,0.329-0.459,0.362c-0.149,0.02-0.624,0.025-0.693,0.025h-0.274
		c-0.021,0-0.028-0.013-0.008-0.029c0.52-0.42,1.386-1.107,1.386-1.897c0-0.477-0.302-0.867-1.011-0.867
		c-0.355,0-0.573,0.073-0.729,0.155c-0.044,0.028-0.048,0.045-0.048,0.081c0,0.118,0.02,0.456,0.024,0.492
		c0.004,0.049,0.016,0.077,0.036,0.077c0.04,0,0.052-0.037,0.052-0.077c0-0.106,0.072-0.297,0.169-0.39
		c0.121-0.114,0.254-0.147,0.428-0.147c0.201,0,0.551,0.13,0.551,0.774c0,0.858-0.802,1.493-1.366,1.994
		C24.805,41.077,24.766,41.113,24.766,41.146"/>
	<path id="XMLID_80_" style="fill:#131921;" d="M27.309,38.834c0,0.041,0.003,0.061,0.032,0.061c0.025,0,0.036-0.02,0.041-0.053
		c0.008-0.065,0.06-0.196,0.133-0.245c0.097-0.065,0.266-0.073,0.379-0.073h1.044c-0.557,0.94-1.072,2.14-1.184,2.531
		c-0.02,0.065-0.028,0.126-0.028,0.167c0,0.036,0.012,0.049,0.056,0.049c0.182,0,0.508-0.167,0.508-0.248
		c0-0.053-0.008-0.082,0-0.151c0.06-0.521,0.689-2.137,1.024-2.617c0.012-0.016,0.028-0.048,0.028-0.073
		c0-0.02-0.02-0.032-0.097-0.032h-1.289c-0.427,0-0.52-0.041-0.545-0.041c-0.023,0-0.04,0.017-0.04,0.057
		C27.37,38.208,27.309,38.684,27.309,38.834"/>
	<path id="XMLID_79_" style="fill:#BEBBBA;" d="M22.485,38.912c0,0.343,0.242,0.785,0.822,0.785c0.206,0,0.416-0.061,0.532-0.187
		c0.008-0.008,0.021-0.032,0.021-0.044c0-0.02-0.016-0.037-0.032-0.037c-0.016,0-0.037,0.021-0.082,0.045
		c-0.051,0.024-0.132,0.048-0.273,0.048c-0.137,0-0.536-0.146-0.536-0.769c0-0.346,0.194-0.606,0.484-0.606
		c0.311,0,0.612,0.317,0.612,1.038c0,0.961-0.629,1.628-1.047,1.884c-0.02,0.017-0.048,0.041-0.048,0.07
		c0,0.021,0.02,0.041,0.036,0.041c0.032,0,0.053-0.004,0.072-0.017c0.5-0.236,1.487-0.952,1.487-2.091
		c0-0.619-0.359-1.107-1.015-1.107C22.897,37.963,22.485,38.362,22.485,38.912"/>
	<path id="XMLID_78_" style="fill:#BEBBBA;" d="M20.316,38.7c0,0.025,0.02,0.045,0.033,0.045c0.015,0,0.036-0.008,0.056-0.016
		c0.088-0.037,0.391-0.195,0.468-0.195c0.06,0,0.06,0.048,0.06,0.146v0.534l0.004,0.647c0.004,0.39-0.004,0.736-0.02,0.915
		c-0.012,0.13-0.033,0.187-0.162,0.216c-0.073,0.016-0.279,0.028-0.323,0.028c-0.016,0-0.032,0.012-0.032,0.041
		c0,0.028,0.024,0.037,0.068,0.037c0.258,0,0.596-0.012,0.689-0.012c0.109,0,0.366,0.012,0.674,0.012
		c0.043,0,0.064-0.009,0.064-0.037c0-0.029-0.021-0.041-0.036-0.041c-0.033,0-0.206-0.011-0.266-0.024
		c-0.129-0.029-0.149-0.089-0.161-0.22c-0.016-0.179-0.016-0.525-0.016-0.915v-0.753c0-0.623,0.024-1.026,0.024-1.058
		c0-0.041-0.012-0.086-0.048-0.086c-0.032,0-0.069,0.028-0.105,0.053c-0.141,0.106-0.915,0.618-0.931,0.626
		C20.336,38.656,20.316,38.676,20.316,38.7"/>
	<path id="XMLID_77_" style="fill:#BEBBBA;" d="M24.892,41.028c0,0.032,0.028,0.057,0.056,0.057h1.579
		c0.255,0,0.319-0.012,0.351-0.122c0.04-0.139,0.117-0.517,0.117-0.582c0-0.041-0.003-0.077-0.032-0.077
		c-0.024,0-0.036,0.016-0.048,0.065c-0.049,0.191-0.182,0.33-0.459,0.362c-0.15,0.02-0.625,0.024-0.693,0.024h-0.274
		c-0.021,0-0.029-0.013-0.009-0.028c0.52-0.42,1.386-1.108,1.386-1.897c0-0.476-0.302-0.867-1.011-0.867
		c-0.355,0-0.573,0.073-0.73,0.154c-0.044,0.029-0.048,0.045-0.048,0.081c0,0.118,0.02,0.456,0.024,0.492
		c0.004,0.048,0.016,0.077,0.036,0.077c0.04,0,0.052-0.037,0.052-0.077c0-0.106,0.072-0.297,0.169-0.39
		c0.121-0.114,0.255-0.147,0.428-0.147c0.201,0,0.551,0.13,0.551,0.773c0,0.859-0.802,1.493-1.366,1.994
		C24.932,40.959,24.892,40.996,24.892,41.028"/>
	<path id="XMLID_76_" style="fill:#BEBBBA;" d="M27.436,38.717c0,0.041,0.003,0.061,0.032,0.061c0.025,0,0.037-0.02,0.04-0.053
		c0.008-0.066,0.06-0.196,0.133-0.245c0.097-0.065,0.266-0.073,0.378-0.073h1.044c-0.557,0.94-1.072,2.141-1.184,2.531
		c-0.021,0.065-0.029,0.126-0.029,0.167c0,0.036,0.012,0.049,0.056,0.049c0.182,0,0.508-0.167,0.508-0.248
		c0-0.053-0.008-0.082,0-0.151c0.06-0.521,0.689-2.137,1.024-2.617c0.012-0.016,0.028-0.048,0.028-0.073
		c0-0.02-0.02-0.033-0.097-0.033H28.08c-0.427,0-0.52-0.041-0.545-0.041c-0.023,0-0.04,0.017-0.04,0.057
		S27.436,38.566,27.436,38.717"/>
	<path style="fill:#131921;" d="M38.636,22.116c-0.092-0.117-0.195-0.24-0.301-0.369c-0.478-0.579-1.538-2.005-1.538-2.005
		c0-4.628-0.831-5.49-1.682-6.216c-0.752-0.64-1.949-0.967-3.237-1.166c-0.349-0.054-0.734-0.079-1.177-0.079
		c-0.427,0-0.861,0.023-1.279,0.046c-0.346,0.021-6.381,0.273-8.318-0.054c-0.843-0.142-2.014,0.022-2.709,0.106
		c-0.32,0.038-2.062,0.316-2.268-0.015c-0.039-0.062-0.034-0.199-0.021-0.351c0.024-0.244,0.125-0.539-0.065-0.803
		c-0.261-0.363-0.546-0.755-0.703-0.755c-0.048,0-0.48,0.353-0.586,0.46c-0.175,0.176-0.23,0.468-0.223,0.805
		c0.006,0.208-0.009,0.169-0.024,0.183c-0.026,0.028-1.136,0.028-1.417,0.048c0-0.058-0.01-0.345-0.198-0.618
		c-0.122-0.177-0.223-0.764-0.223-0.764s-0.402,0.697-0.538,0.883c-0.152,0.204-0.306,0.418-0.398,0.663
		c-0.036,0.093-0.041,0.206-0.048,0.316c-0.005,0.078-0.016,0.244-0.048,0.269c-0.213,0.155-0.332,0.37-0.352,0.639
		c-0.005,0.077,0.014,0.183,0.04,0.304c0.016,0.077,0.039,0.2,0.039,0.258c-0.018,0.013-0.042,0.026-0.065,0.041
		c-0.188,0.123-0.448,0.291-0.432,0.59c0.025,0.453,0.129,0.63,0.273,0.874c0.042,0.069,0.08,0.138,0.127,0.223
		c0.063,0.122,0.091,0.294,0.117,0.462c0.038,0.235-0.182,0.493-0.031,0.64c0.196,0.193,0.704,0.206,0.925,0.206
		c0.06,0,0.292-0.008,0.349-0.008c0.085,0,0.152,0.004,0.208,0.015c0.425,0.083,0.85,0.12,1.262,0.152
		c0.566,0.046,1.101,0.089,1.637,0.247c0.995,0.291,1.973,0.697,2.992,1.243c0.056,0.03,0.106,0.056,0.158,0.083
		c0.377,0.193,0.458,0.167,0.635,0.687c0.177,0.52-0.149,4.583-0.223,5.001c-0.112,0.677-0.327,1.089-0.681,1.217
		c-0.471,0.17-0.665,0.54-0.851,0.898c-0.06,0.116-0.051,0.254-0.124,0.372c0,0-0.154,0.168-0.101,0.211
		c0.051,0.045,0.529-0.072,0.529-0.072c0.163,0.01-0.014,0.097,0.152,0.097c0.4,0,0.89-0.001,1.383-0.289
		c0.209,0,0.07,0.267,0.261,0.231c0.593-0.109,0.649-0.564,0.72-0.998c0.122-0.735,0.103-0.863,0.185-0.93
		c0.082-0.064,0.344,0.044,0.414-0.037c0.054-0.059-0.006-0.592,0.024-1.076c0.044-0.688,0.235-1.493,0.44-2.16l0.01-0.035
		c0.045-0.147,0.113-0.324,0.185-0.513c0.193-0.508,0.428-1.123,0.4-1.619c0.212,0.037,0.246,0.051,0.366,0.216
		c0.019,0.026,0.051,0.079,0.086,0.136c0.233,0.382,0.356,0.489,0.508,0.489c0.016,0,0.032-0.004,0.046-0.007
		c0.251-0.065,0.387-0.278,0.529-0.558c0.141-0.276,0.288-0.561,0.522-0.614c0.011-0.003,0.021-0.004,0.034-0.004
		c0.191,0,0.529,0.17,0.722,0.469c0.423,0.658,0.787,0.198,0.821,0.142c0.048-0.076,0.387-0.637,0.473-0.766
		c0.101-0.156,0.166-0.175,0.187-0.175c0.004,0,0.007,0,0.01,0.001c0.205,0.031,1.107,1.114,1.427,1.041
		c0.312-0.035,0.657-1.221,0.848-1.221c0.01,0,0.019,0.003,0.03,0.005c0.046,0.039,0.152,0.2,0.223,0.31
		c0.241,0.362,0.292,0.603,0.483,0.603c0.06,0,0.166-0.052,0.23-0.209c0.018-0.041,0.09-0.22,0.101-0.239
		c0.01,0.013,0.169,0.552,0.562,0.075c-0.005-0.008-0.007-0.015-0.009-0.022c-0.002,0.004-0.005,0.007-0.007,0.009
		c0.002-0.002,0.005-0.005,0.007-0.009c-0.002-0.002-0.005-0.005-0.007-0.009c0.002,0.004,0.005,0.007,0.007,0.009
		c0.053-0.122,0.774,0.589,1.119,0.869c0.314,0.287,0.578,0.541,0.601,0.56c0.743,0.664,1.666,1.487,1.847,2.384
		c0.101,0.515,0.078,1.109-0.068,1.675c-0.031,0.121-0.061,0.19-0.088,0.208c-0.031,0.02-0.113,0.023-0.216,0.028
		c-0.045,0-0.097,0.002-0.156,0.004c-0.253,0.017-0.426,0.288-0.581,0.527c-0.07,0.113-0.16,0.202-0.208,0.284
		c-0.048,0.083,0.029,0.219,0.074,0.247c0.047,0.029,0.505,0.137,0.643,0.137c0.041,0,0.078-0.004,0.111-0.012
		c0.097,0.037,0.217,0.055,0.351,0.055c0.4,0,0.899-0.165,1.042-0.444c0.239-0.471,0.402-0.984,0.564-1.48
		c0.016-0.056,0.034-0.112,0.052-0.167c0.035-0.11,0.082-0.232,0.131-0.359c0.175-0.455,0.472-0.943,0.341-1.389
		c-0.071-0.236-0.311-0.467-0.463-0.669c-0.133-0.18-0.639-0.842-0.794-1.072c0.475,0.457,1.788,1.137,2.121,1.932
		c0.117,0.279-0.002,1.444-0.025,1.758c-0.01,0.147-0.017,0.298-0.022,0.45c-0.013,0.478-0.153,0.564-0.632,0.613
		c-0.418,0.043-0.608,0.659-0.71,0.988c-0.006,0.018-0.011,0.037-0.015,0.053l-0.049,0.153l0.161,0.029
		c0.062,0.01,0.131,0.023,0.205,0.037c0.301,0.057,0.803,0.242,1.158,0.242c0.42,0,0.715-0.099,0.903-0.304
		c0.24-0.262,0.333-0.735,0.416-1.148c0.032-0.156,0.202-0.713,0.265-0.915C38.911,23.331,39.303,22.844,38.636,22.116
		 M11.851,15.999c-0.145,0.091-0.199-0.162-0.199-0.162c-0.039-0.099-0.044-0.207,0.015-0.248c0.108,0.069,0.241,0.067,0.278,0.131
		C11.988,15.789,11.928,15.953,11.851,15.999"/>
	<path id="XMLID_73_" style="fill:#BEBBBA;" d="M36.684,25.796c-0.048,0.086-0.21,0.104-0.266,0.124
		c-0.118,0.051-0.226,0.12-0.222,0.202c0,0.031-0.018,0.418,0,0.453c0.02,0.043,0.182,0.098,0.216,0.043
		c0.024-0.033-0.002-0.307,0.028-0.493c0.007-0.027,0.026-0.139,0.078-0.165C36.539,25.955,36.725,25.874,36.684,25.796"/>
	<path id="XMLID_72_" style="fill:#BEBBBA;" d="M23.188,19.033c0.141-0.014,0.343-0.051,0.41,0c0.069,0.048,0.169,0.228,0.162,0.336
		c-0.006,0.108-0.359,0.677-0.381,0.704c-0.024,0.025-0.058,0.108-0.123,0.023c-0.064-0.088-0.175-0.961-0.175-0.961
		S23.061,19.047,23.188,19.033"/>
	<path id="XMLID_71_" style="fill:#BEBBBA;" d="M38.484,22.407c-0.192-0.281-0.676-0.777-0.871-1.012
		c-0.258-0.32-1.438-1.702-1.438-1.702s-0.339-2.092-0.483-2.567c-0.092-0.306-0.347-2.51-2.056-3.71
		c0.094-0.155,1.2,0.714,1.599,1.39c0.726,1.224,1.034,4.424,1.034,4.424s0.462-4.888-2.126-5.922
		c-1.855-0.775-2.782-0.652-2.782-0.652s-1.285,0.771-0.51,2.238c0.151,0.284,1.84,2.874,1.948,3.079
		c0.961,1.8,4.018,3.9,4.573,4.472c0.03,0.03,0.556,0.375,0.594,0.756c0.007,0.071-0.715-0.412-0.706-0.324
		c0.098,0.904-0.007,2.64-0.022,2.838c-0.017,0.23-0.028,0.263-0.168,0.312c-0.14,0.051-0.283-0.081-0.368,0.155
		c-0.094,0.263-0.06,0.457,0.183,0.457c0.243,0,0.611,0.129,0.843-0.763c0.233-0.9,0.745-2.498,0.898-3.084
		C38.664,22.654,38.551,22.501,38.484,22.407"/>
	<path id="XMLID_70_" style="fill:#BEBBBA;" d="M12.639,11.357c0,0,0.204,0.598,0.199,0.765c-0.003,0.171-0.055,0.183-0.055,0.183
		l-0.602,0.263c0,0,0.131-0.152,0.2-0.342C12.449,12.034,12.642,11.539,12.639,11.357"/>
	<path id="XMLID_69_" style="fill:#BEBBBA;" d="M19.835,26.411c-0.014,0.008-0.03,0.01-0.034,0.004l-0.038-0.053
		c-0.006-0.007,0.001-0.021,0.015-0.031l0.03-0.022c0.014-0.009,0.028-0.01,0.035-0.002l0.038,0.053
		c0.005,0.007-0.001,0.021-0.015,0.032L19.835,26.411L19.835,26.411z"/>
	<path id="XMLID_68_" style="fill:#BEBBBA;" d="M33.757,25.449c0,0-0.074-0.023-0.116,0.032c-0.057,0.076-0.083,0.368-0.083,0.368
		s0.071,0.087,0.199,0.037c0.128-0.05,0.392-0.246,0.307-0.31C33.982,25.513,33.757,25.449,33.757,25.449"/>
	<path id="XMLID_67_" style="fill:#BEBBBA;" d="M33.527,25.31c0,0-0.115-0.001-0.168,0.056c-0.056,0.063-0.159,0.237-0.152,0.306
		c0.006,0.069,0.109,0.182,0.159,0.113C33.419,25.716,33.655,25.303,33.527,25.31"/>
	<path id="XMLID_66_" style="fill:#BEBBBA;" d="M11.405,14.432c-0.135,0.214,0.255,0.4,0.355,0.285
		C11.833,14.427,11.539,14.319,11.405,14.432"/>
	<polygon id="XMLID_65_" style="fill:#BEBBBA;" points="11.921,14.54 11.918,14.54 11.921,14.54 	"/>
	<path id="XMLID_64_" style="fill:#BEBBBA;" d="M14.554,14.807c-0.199-0.232-0.344-0.623-0.214-0.694
		c0.13-0.071,0.254,0.028,0.334,0.071c0.117,0.064,0.177,0.021,0.168-0.136c-0.004-0.122-0.018-0.237-0.032-0.346
		c-0.039-0.335-0.216-0.702-0.351-0.848c-0.228-0.245-0.881-0.529-1.288-0.252c-0.118,0.079-0.207,0.209-0.283,0.366
		c-0.028,0.055,0.053,0.132,0.028,0.193c-0.151,0.366-0.378,0.789-0.643,1.059c-0.013,0.014,0.902,0.089,2.196,1.038
		c0.114,0.083-0.104,0.545-0.179,0.522c-0.04-0.005,0.133-0.389,0.004-0.46c-0.593-0.333-0.945-0.375-1.391-0.536
		c-0.107-0.039-0.418,0.159-0.499,0.085c-0.11-0.146-0.45-0.312-0.484-0.328c0.013,0.007,0.055,0.038,0.071,0.181
		c0.043,0.367-0.64,0-0.06,0.586c0.163,0.162,0.317,0.289,0.439,0.236c0.185-0.003,0.101,0.023,0.12,0.067l0.099,0.233
		c0.019,0.045,0.041,0.04,0.048-0.006l0.045-0.246c0.008-0.046,0.054-0.084,0.102-0.083c0,0,0.876,0.019,1.053,0.036
		c0.178,0.019,0.189,0.083,0.189,0.083c0.007,0.047,0.078,0.149-0.069,0.266c-0.108,0.085-0.368-0.094-0.577,0.074
		c-0.207,0.169-0.622,0.246-0.622,0.246c-0.046,0.007-0.1-0.021-0.12-0.064l-0.106-0.238c-0.017-0.045-0.037-0.042-0.043,0.007
		l-0.025,0.31c-0.004,0.048-0.017,0.087-0.03,0.087c-0.014,0.001-0.039-0.033-0.06-0.076l-0.007-0.016
		c-0.022-0.043-0.064-0.049-0.095-0.012l-0.055,0.061c-0.031,0.037-0.076,0.032-0.101-0.009l-0.021-0.034
		c-0.023-0.039-0.065-0.039-0.09,0l-0.032,0.055c-0.025,0.04-0.058,0.037-0.073-0.007l-0.011-0.036
		c-0.016-0.045-0.044-0.047-0.063-0.004c-0.014,0.032-0.034,0.039-0.049,0.019c-0.03,0.029-0.052,0.052-0.06,0.058
		c-0.026,0.026-0.088,0.081-0.089,0.13c-0.002,0.05,0.061,0.077,0.363,0.139c0.303,0.062,1.705-0.51,2.149-0.416
		c0.513,0.106,0.709-0.315,0.745-0.86c0-0.014-0.005-0.045-0.011-0.087C14.786,15.079,14.657,14.929,14.554,14.807"/>
	<path id="XMLID_63_" style="fill:#131921;" d="M13.173,13.163c0,0,0.177-0.306,0.393-0.368c0.159-0.045,0.326,0.046,0.573,0.211
		c0.248,0.166,0.379,0.425,0.623,0.358c0.084-0.024-0.189,0.28-0.425,0.194c-0.059-0.022-0.414-0.616-0.763-0.607
		C13.575,12.951,13.351,12.995,13.173,13.163"/>
	<path style="fill:#131921;" d="M13.812,12.877c-0.292-0.084-0.461,0.117-0.461,0.117c0.075-0.194,0.424-0.075,0.575-0.01
		c0.083,0.036,0.199,0.228,0.282,0.384c-0.093-0.093-0.222-0.192-0.332-0.201c-0.219-0.021-0.242,0.271-0.242,0.271l-0.113,0.138
		c0,0,0.016,0.036,0.185,0.036c0.169,0,0.763-0.007,0.84-0.079C14.624,13.462,14.13,12.969,13.812,12.877 M13.875,13.509
		c-0.054,0-0.098-0.055-0.098-0.121c0-0.065,0.043-0.12,0.098-0.12c0.053,0,0.12,0.056,0.12,0.122
		C13.995,13.454,13.928,13.509,13.875,13.509"/>
	<path id="XMLID_60_" style="fill:#BEBBBA;" d="M18.352,26.136c0,0-0.225,0.451-0.23,0.498c-0.007,0.045,0.005,0.077,0.03,0.077
		c0.026,0,0.106,0.023,0.166-0.018c0.055-0.041,0.269-0.487,0.297-0.547C18.621,26.128,18.446,26.029,18.352,26.136"/>
	<path id="XMLID_59_" style="fill:#BEBBBA;" d="M35.795,22.821c0.114-0.4-0.26-0.442-0.389,0.076
		c-0.045,0.177-0.56,2.053-0.617,2.548c-0.003,0.025,0.015,0.048,0.039,0.017C34.835,25.633,35.746,23,35.795,22.821"/>
	<path id="XMLID_58_" style="fill:#BEBBBA;" d="M19.074,12.615c-0.908,0.175-2.18,0.248-2.87,0.155
		c-0.547-0.075-0.573-0.413-0.474-0.709c-0.506,0.501-0.775,0.306-0.786,0.243c-0.018-0.079,0.186,0,0.321-0.133
		c0.137-0.132,0.215-0.605,0.107-0.832c-0.106-0.227,0.012-0.186,0.012-0.186s0.282,0.029,0.402,0.367
		c0.081-0.338-0.384-0.758-0.536-0.661c-0.152,0.097-0.458,0.347-0.414,0.713c0.054,0.453,0.021,0.679-0.127,0.671
		c-0.991-0.043-2.101-0.175-2.717,0.465c0,0,0.747-0.492,1.321-0.439c0.573,0.054,1.749,0.17,1.82,1.55c0,0-0.014,0.308,0.013,0.669
		c0.014,0.191-0.168,0.069-0.168,0.154c0.009,0.382,0.281,0.322,0.258,0.653c-0.094,1.357-0.72,1.327-0.72,1.327
		s0.754,0.107,1.129-1.162c-0.001,0.727-0.078,0.91-0.371,1.194c0.578,0.037,1.03-0.509,1.043-0.588
		c0.086,0.135,0.249,0.579,0.679,0.763c-0.211-0.351-0.161-0.779-0.115-1.154c0.129,0.846,0.344,1.161,0.779,1.347
		c-0.174-0.178-0.531-0.562-0.424-1.25c0.084,0.589,0.768,1.111,0.768,1.111s-0.218-0.352-0.275-0.975
		c0.294,0.632,0.61,0.685,0.61,0.685s-0.488-0.513-0.572-1.18c-0.009-0.011,0.344,0.453,0.629,0.453
		c-0.219-0.265-0.568-0.64-0.607-1.116c0.218,0.285,0.377,0.47,0.633,0.497c-0.214-0.244-0.391-0.639-0.457-1.112
		c0.245,0.307,0.202,0.406,0.664,0.533c-0.181-0.172-0.301-0.651-0.214-0.879c0.08,0.156,0.387,0.324,0.75,0.37
		c-0.117-0.076-0.306-0.529-0.278-0.708c0.166,0.08,0.521,0.2,0.804,0.162c-0.135-0.08-0.23-0.477-0.188-0.57
		c0.075,0.047,0.614,0.038,0.726,0c-0.174-0.112-0.327-0.274-0.285-0.259c0.13,0.046,0.343-0.064,0.62-0.108
		c0.292-0.048,0.344-0.051,0.529-0.046C20.914,12.542,19.782,12.441,19.074,12.615"/>
	<path id="XMLID_57_" style="fill:#BEBBBA;" d="M28.215,18.272c0,0-0.582-0.037-0.627,0.142c-0.044,0.177,0.264,1.122,0.313,1.236
		c0.071,0.179,0.269-0.235,0.269-0.235c0.062-0.113,0.299-0.669,0.3-0.745C28.468,18.577,28.477,18.27,28.215,18.272"/>
	<path id="XMLID_56_" style="fill:#BEBBBA;" d="M31.008,19.411c-0.039,0.016-0.073,0.023-0.101,0.03
		c0.028,0.011,0.053,0.02,0.078,0.022C30.986,19.445,30.997,19.427,31.008,19.411"/>
	<path id="XMLID_55_" style="fill:#BEBBBA;" d="M25.94,18.364c0,0-0.579-0.036-0.625,0.14c-0.044,0.178,0.203,1.007,0.244,1.122
		c0.057,0.173,0.182-0.087,0.182-0.087c0.062-0.114,0.526-0.7,0.526-0.777C26.267,18.669,26.205,18.363,25.94,18.364"/>
	<path id="XMLID_54_" style="fill:#BEBBBA;" d="M30.011,12.634c-0.182,0.011-1.697,0.182-2.706,0.184
		c-0.805,0.002-1.658-0.037-2.112-0.02c-0.035-0.006-0.093-0.001-0.143,0.006h-0.001c-0.678-0.03-2.841-0.062-2.841-0.062
		c-0.161-0.034-2.357,0.536-2.675,2.978c-0.197,1.505-0.102,1.984,0.239,2.7c0.201,0.425,0.608,1.212,0.596,1.823
		c-0.006,0.256-0.461-1.073-0.454-0.922c0.065,1.545-0.205,5.028-0.356,5.765c-0.184,0.881-0.36,0.437-0.568,0.805
		c-0.032,0.057-0.483,0.878-0.473,0.886c0.011,0.008,0.227-0.025,0.456-0.047c0.267-0.009,0.486-0.735,0.668-0.735
		c0.03,0-0.2,0.585-0.166,0.575c0.189-0.047,0.499-0.125,0.477,0.024c0.07,0.023,0.125-0.013,0.164-0.062
		c0.055-0.067,0.306-1.193,0.459-1.777c0.036-0.098,0.286-0.041,0.356-0.016c0.136-0.275-0.083-1.196,0.313-2.472
		c0.388-1.258,0.8-2.346,0.616-2.671c-0.02-0.036-0.685,0.847-0.699,0.813c-0.043-0.101,2.169-3.818,1.739-5.742
		c-0.006-0.069-0.037-0.147-0.037-0.202c-0.002-0.014,0.254,0.093,0.575,0.177c0.414,0.13,0.778,0.197,0.904,0.675
		c0.15,0.927,0.578,2.236,1.45,2.314c-0.394-0.361-0.902-2.205-0.841-2.964c0.245,1.237,0.997,3.026,1.619,2.947
		c-0.126-0.199-0.646-1.326-0.646-2.035c0.224,0.588,0.759,1.878,1.162,1.886c1.056,0.022,1.326-0.458,2.107-0.633
		c1.746-0.396,2.204,0.273,2.472,0.413c-0.214-0.206-0.945-1.481-1.429-2.472c-0.384-0.79,0.265-1.574,1.373-2.064
		C31.824,12.611,30.356,12.626,30.011,12.634"/>
	<path id="XMLID_53_" style="fill:#131921;" d="M30.763,19.429c-0.001-0.001-0.058-0.051-0.108-0.06
		c-0.015-0.004-0.027-0.005-0.036-0.005c-0.023,0-0.032,0.005-0.032,0.005l-0.024,0.011l0.005-0.023
		c0.004-0.016,0.024-0.048,0.07-0.048c0.016,0,0.035,0.004,0.052,0.011c0.069,0.023,0.092,0.094,0.092,0.094l0.011,0.041
		L30.763,19.429L30.763,19.429z"/>
	<path id="XMLID_52_" style="fill:#131921;" d="M30.261,19.332c0.004-0.016,0.026-0.046,0.07-0.046c0.015,0,0.033,0.003,0.053,0.011
		c0.01,0.005,0.03,0.014,0.03,0.014l0.015,0.008l-0.047,0.038l-0.005-0.003c0,0-0.021-0.007-0.028-0.01
		c-0.015-0.001-0.027-0.002-0.038-0.002c-0.022,0-0.033,0.005-0.033,0.005l-0.023,0.011L30.261,19.332L30.261,19.332z"/>
	<path id="XMLID_51_" style="fill:#131921;" d="M30.38,19.307c0.009,0.005,0.028,0.014,0.028,0.014l-0.028,0.022
		c0,0-0.021-0.008-0.031-0.01c-0.053-0.009-0.076,0.003-0.076,0.003S30.289,19.276,30.38,19.307"/>
	<path id="XMLID_50_" style="fill:#131921;" d="M31.337,26.033c-0.619,0-0.7-1.005-0.715-1.187c-0.149-0.009-0.311-0.113-0.421-0.2
		c-0.004-0.004-0.016-0.011-0.029-0.018c0.004,0.074,0.007,0.152,0.008,0.226c0.008,0.115,0.029,0.416,0.039,0.495l0.003,0.008
		c0.012,0.115,0.044,0.379-0.218,0.525c-0.076,0.043-0.162,0.063-0.255,0.063c-0.081,0-0.15-0.016-0.198-0.026
		c-0.009-0.002-0.019-0.004-0.028-0.004l-0.046-0.007c-0.066-0.009-0.156-0.018-0.227-0.023h-0.019c-0.13,0-0.497,0.022-0.556,0.03
		h-0.04c-0.209,0-0.377-0.166-0.379-0.168c-0.106-0.101-0.114-0.267-0.022-0.397l0.024-0.035l0.035-0.023
		c0.021-0.016,0.085-0.059,0.179-0.073c0.077-0.051,0.196-0.117,0.377-0.22c-0.159-0.313-0.863-1.391-0.25-1.731
		c0.228-0.123,0.577-0.245,0.906-0.323c0.003-0.022,0.009-0.043,0.014-0.063c0.006-0.027,0.016-0.108,0.006-0.176
		c-0.098,0.053-0.194,0.081-0.275,0.081c-0.026,0-0.051-0.003-0.076-0.009c-0.209-0.044-0.48-0.351-0.51-0.393
		c-0.048-0.063-0.224-0.389-0.391-0.694c-0.448-0.021-0.486-0.035-0.519-0.044c-0.044-0.016-0.097-0.03-0.387-0.274
		c-0.097-0.082-0.143-0.191-0.129-0.301c0.014-0.092,0.071-0.17,0.152-0.211c0.004-0.003,0.011-0.007,0.019-0.009
		c0.037-0.051,0.1-0.101,0.204-0.123l0.029-0.007l0.036-0.001c0.071,0,0.133,0.025,0.184,0.058c0.002-0.035,0.013-0.069,0.03-0.101
		c0.054-0.106,0.164-0.168,0.294-0.168c0.073,0,0.152,0.018,0.239,0.057l0.013,0.007l0.014,0.009
		c0.029,0.017,0.033,0.017,0.037,0.017c0.051,0.01,0.183,0.052,0.224,0.068c0.077,0.032,0.128,0.074,0.268,0.318l0.224,0.223
		c0.101-0.237,0.224-0.343,0.269-0.383c0.064-0.055,0.142-0.079,0.222-0.103c0.017-0.006,0.041-0.013,0.057-0.017
		c0.032-0.03,0.072-0.056,0.112-0.081c0.004-0.011,0.008-0.023,0.013-0.034c-0.035-0.047-0.074-0.106-0.106-0.158
		c-0.091-0.152-0.079-0.29-0.072-0.375l0.002-0.025c0.014-0.237,0.309-0.438,0.31-0.439c0.035-0.021,0.071-0.039,0.103-0.053
		c0.06-0.068,0.163-0.184,0.236-0.25c0.061-0.056,0.141-0.095,0.217-0.123c0.062-0.131,0.198-0.195,0.403-0.195
		c0.067,0,0.281,0.014,0.352,0.025c0.153,0.024,0.256,0.122,0.308,0.238c0.131,0.044,0.216,0.163,0.232,0.324l0.046,0.049
		c0.032,0.032,0.107,0.119,0.131,0.25c0.079,0.154,0.067,0.343,0.057,0.424c-0.002,0.252-0.069,0.4-0.138,0.484
		c-0.009,0.03-0.018,0.055-0.026,0.076c0.239,0.147,0.315,0.485,0.336,0.614c0.022,0.078,0.115,0.407,0.164,0.623
		c0.068,0.304-0.039,0.589-0.049,0.621l-0.012,0.033l-0.023,0.029c-0.021,0.028-0.122,0.164-0.165,0.216
		c-0.081,0.096-0.17,0.138-0.246,0.157c0.027,0.103,0.053,0.212,0.071,0.315c0.193,0.241,0.297,0.575,0.297,0.694
		c0,0.078-0.023,0.161-0.046,0.223c0.021,0.06,0.026,0.134,0.022,0.297c0.082,0.09,0.154,0.219,0.228,0.366
		c0.009,0.015,0.015,0.028,0.017,0.035c0.368,0.803-0.554,0.864-0.612,0.844C31.793,26.019,31.402,26.033,31.337,26.033"/>
	<path id="XMLID_49_" style="fill:#BEBBBA;" d="M31.278,19.253c-0.057-0.008-0.253-0.024-0.311-0.024
		c-0.273,0-0.131,0.139-0.131,0.139s-0.217,0.028-0.308,0.111c-0.092,0.083-0.256,0.278-0.256,0.278s-0.074,0.025-0.119,0.053
		c-0.045,0.029-0.17,0.124-0.189,0.233c-0.013,0.072-0.022,0.158,0.034,0.251c0.055,0.095,0.15,0.22,0.15,0.22s0.025,0.046,0,0.099
		c-0.022,0.053-0.06,0.186-0.06,0.186s-0.131,0.065-0.17,0.111c-0.039,0.045-0.226,0.072-0.269,0.11
		c-0.046,0.04-0.166,0.144-0.249,0.423c-0.094,0.085-0.145,0.191-0.145,0.191l-0.489-0.493c0,0-0.063-0.199-0.155-0.231
		c-0.03-0.012-0.248-0.084-0.299-0.106c-0.182-0.067-0.213-0.014-0.176,0.035c0.037,0.05,0.148,0.103,0.176,0.12
		c0.027,0.016,0.04,0.209-0.421,0.134c-0.019-0.003-0.143-0.08-0.219-0.109c-0.198-0.065-0.163,0.124-0.122,0.159
		c0.042,0.035,0.24,0.239,0.286,0.254c0.043,0.012,0.603,0.036,0.603,0.036s0.385,0.723,0.437,0.797
		c0.055,0.071,0.268,0.274,0.355,0.292c0.086,0.02,0.343-0.076,0.472-0.309l0.048,0.946c0,0-0.876,0.195-1.038,0.329
		c-0.331,0.261,0.253,1.258,0.452,1.523c0.061,0.087,0.015,0.105,0.015,0.105s-0.613,0.338-0.621,0.368
		c-0.058-0.018-0.107,0.02-0.107,0.02s-0.029,0.04-0.008,0.061c0.02,0.02,0.123,0.097,0.202,0.089
		c0.078-0.008,0.513-0.033,0.614-0.029c0.101,0.005,0.23,0.023,0.294,0.029c0.067,0.008,0.207,0.063,0.317,0
		c0.113-0.061,0.096-0.167,0.083-0.272c-0.011-0.105-0.041-0.515-0.041-0.515s-0.011-0.475-0.02-0.532
		c0.119,0.015,0.313,0.061,0.349,0.038c0.062-0.034,0.124,0.07,0.124,0.07s0.203,0.158,0.292,0.144
		c0.092-0.018,0.108-0.025,0.154-0.159c0.032-0.048,0.06-0.036,0.06,0.088c0,0.126-0.06,1.28,0.487,1.258
		c0.339-0.014,0.58-0.175,0.58-0.175s0.095,0.13,0.227,0.085c0.346-0.126,0.157-0.439,0.127-0.488
		c-0.028-0.048-0.184-0.395-0.285-0.403c0.005-0.146-0.018-0.364-0.045-0.425c0.016-0.032,0.076-0.161,0.076-0.223
		c0-0.06-0.1-0.386-0.286-0.579c-0.039-0.307-0.192-0.767-0.192-0.767s0.201,0.075,0.262,0.082c0.063,0.009,0.113-0.021,0.153-0.069
		c0.042-0.048,0.157-0.203,0.157-0.203s0.092-0.236,0.037-0.473c-0.053-0.234-0.163-0.622-0.163-0.622s-0.053-0.373-0.239-0.459
		c-0.186-0.085-0.223-0.078-0.223-0.078s-0.06-0.08-0.015-0.097c0.045-0.016,0.114-0.069,0.134-0.094
		c0.021-0.024,0.055-0.154,0.055-0.154s0.108-0.054,0.108-0.367c0,0,0.035-0.218-0.047-0.321c0-0.094-0.065-0.154-0.065-0.154
		l-0.121-0.129c0,0,0.017-0.161-0.057-0.18c-0.073-0.018-0.127-0.039-0.127-0.039S31.405,19.275,31.278,19.253"/>
	<path id="XMLID_48_" style="fill:#131921;" d="M30.288,19.829c0.06-0.003,0.103,0.095,0.107,0.117
		c0.002,0.023-0.012,0.019-0.041,0.014c-0.03-0.005-0.057-0.067-0.119-0.064c-0.061,0.005-0.063,0.051-0.084,0.046
		C30.128,19.937,30.227,19.833,30.288,19.829"/>
	<path id="XMLID_47_" style="fill:#131921;" d="M30.753,19.668c0.065,0.023,0.083,0.089,0.083,0.089s-0.06-0.053-0.113-0.063
		c-0.054-0.01-0.077,0.003-0.077,0.003S30.661,19.636,30.753,19.668"/>
	<path id="XMLID_46_" style="fill:#131921;" d="M31.373,20.171c-0.008-0.023-0.017-0.034-0.033-0.034l-0.011,0.002l-0.006,0.007
		c-0.026,0.031-0.054,0.047-0.086,0.047c-0.041,0-0.073-0.027-0.073-0.027s-0.007,0.09,0.088,0.09c0.072,0,0.118-0.064,0.12-0.068
		l0.005-0.008L31.373,20.171L31.373,20.171z"/>
	<path style="fill:#131921;" d="M31.663,23.141l-0.054-0.261l-0.03-0.092l-0.471-0.881l-0.018-0.032
		c-0.015-0.017-0.027-0.035-0.067-0.069c-0.01-0.012-0.002-0.025,0.01-0.024c0.166,0.021,0.452-0.059,0.52-0.083
		c0.019,0.024,0.476,0.559,0.511,0.536c0.035-0.022-0.463-0.677-0.466-0.679c0-0.003,0.047-0.27,0.036-0.302
		c-0.021-0.062-0.155-0.161-0.208-0.161c-0.004,0-0.006,0.001-0.008,0.002c-0.012-0.018-0.019-0.033-0.023-0.039l-0.007-0.014
		c-0.037-0.06-0.063-0.106-0.083-0.136c0.092,0.03,0.183,0.06,0.189,0.062l0.051,0.005l0.053-0.073l-0.383-0.13
		c-0.035-0.01-0.072-0.085-0.076-0.146c-0.001-0.043,0.268-0.306,0.215-0.322c-0.102-0.034-0.349,0.231-0.354,0.307
		c-0.004,0.052,0.023,0.164,0.069,0.211c-0.016,0.021-0.03,0.046-0.03,0.074c-0.474,0.032-0.647,0.205-0.667,0.291
		c0,0,0.38-0.151,0.515-0.172c-0.088,0.083,0.054,0.245,0.054,0.245c-0.019-0.006-0.063-0.036-0.11,0
		c-0.091,0.069,0.001,0.216,0.019,0.248c-0.037,0.002-0.062,0.01-0.076,0.023c-0.046,0.054,0.044,0.168,0.108,0.239
		c0.032,0.032-0.108,0.023-0.511-0.276c0.011,0.291,0.496,0.467,0.648,0.469C31.024,21.965,31.643,23.101,31.663,23.141
		 M30.861,21.583c0.028-0.032,0.106,0.041,0.127,0.022c0.02-0.02-0.162-0.228-0.103-0.269c0.066-0.046,0.147,0.115,0.184,0.087
		c0.036-0.028,0.021-0.047,0.011-0.071c-0.002-0.011-0.08-0.154-0.083-0.154c-0.006-0.008-0.089-0.138-0.034-0.166
		c0.057-0.019,0.115,0.076,0.128,0.092c0.005,0.005,0.11,0.195,0.157,0.171c0.044-0.024-0.081-0.308-0.081-0.308
		c-0.009-0.026-0.061-0.099-0.034-0.121c0.025-0.021,0.055-0.016,0.128,0.083c0.008,0.009,0.204,0.367,0.227,0.354
		c0,0,0.004-0.074-0.026-0.128c0.04,0.031,0.115,0.052,0.11,0.107c0,0.018-0.007,0.171-0.036,0.209
		c-0.086,0.106-0.489,0.241-0.617,0.22C30.91,21.698,30.829,21.619,30.861,21.583"/>
	<path id="XMLID_43_" style="fill:#131921;" d="M29.737,23.1l-0.064,0.039L29.571,23.2c0.017,0.041,0.413,1.005,0.815,1.307
		l0.012-0.037C29.86,23.742,29.737,23.1,29.737,23.1"/>
	<path id="XMLID_42_" style="fill:#131921;" d="M31.224,23.591c-0.243,0.037-0.412,0.834-0.412,0.834
		c0.058-0.075,0.06,0.054,0.06,0.054s0.193-0.677,0.364-0.745c0.168-0.072,0.423-0.042,0.423-0.042S31.467,23.555,31.224,23.591"/>
	<path id="XMLID_41_" style="fill:#131921;" d="M29.365,22.333c0.027-0.016-0.067-0.772-0.067-0.772l-0.035,0.037l-0.059-0.037
		C29.172,21.626,29.335,22.352,29.365,22.333"/>
	<path id="XMLID_40_" style="fill:#131921;" d="M29.541,21.726l0.06,0.618l0.105-0.061L29.68,21.83c0,0,0.051,0.024,0.069,0.009
		c0.019-0.017-0.084-0.108-0.09-0.223c-0.004-0.083,0.09-0.188,0.074-0.2c-0.016-0.01-0.05,0.021-0.05,0.021
		c0.006-0.075,0.013-0.156,0.018-0.209c0.008-0.074,0.105-0.223,0.105-0.223c-0.221,0.076-0.259,0.329-0.259,0.329l-0.015,0.195
		c-0.001,0.002-0.02,0.061-0.02,0.101C29.511,21.673,29.539,21.726,29.541,21.726"/>
	<path id="XMLID_39_" style="fill:#131921;" d="M32.017,24.713c0,0-0.006,0.75-0.167,0.938h0.088
		c0.032-0.028,0.097-0.269,0.118-0.359c0.025-0.102,0.019-0.515,0.019-0.515L32.017,24.713L32.017,24.713z"/>
	<path id="XMLID_38_" style="fill:#131921;" d="M29.278,23.683c-0.028,0.156,0.622,0.763,0.622,0.763l0.179-0.085
		C30.08,24.361,29.463,23.913,29.278,23.683"/>
	<path id="XMLID_37_" style="fill:#131921;" d="M31.058,19.53c0.009,0.009,0.005,0.061-0.002,0.1
		c-0.001,0.002-0.022,0.079,0.083,0.13c0.067,0.032,0.105,0.088,0.13,0.124c0.006,0.009,0.011,0.018,0.016,0.025
		c0.016,0.021,0.023,0.039,0.01,0.085c-0.006,0.023-0.016,0.035-0.026,0.045c-0.009,0.01-0.021,0.024-0.014,0.045l0.002,0.003
		c0.007,0.023,0.024,0.075,0.074,0.096c0.007,0.008,0.033,0.041,0.007,0.121l-0.008,0.024c-0.032,0.088-0.005,0.302,0.046,0.286
		c0.053-0.014,0.041-0.199,0.057-0.221c0.03-0.039,0.051-0.151,0.039-0.211c-0.002-0.023-0.011-0.037-0.023-0.046
		c-0.048-0.03-0.064-0.053-0.064-0.06c0-0.004,0.009-0.014,0.014-0.021c0.008-0.012,0.02-0.027,0.03-0.048
		c0.017-0.042,0.006-0.099-0.013-0.137c-0.014-0.032-0.107-0.152-0.161-0.17c-0.046-0.013-0.072-0.039-0.073-0.065
		c0-0.014,0.002-0.032,0.004-0.049c0.006-0.043,0.009-0.082-0.008-0.105c-0.157-0.218-0.389-0.191-0.389-0.191l-0.101,0.11
		C30.687,19.401,30.866,19.311,31.058,19.53"/>
	<path id="XMLID_36_" style="fill:#131921;" d="M29.813,20.95c0.027,0.017,0.182,0.04,0.459,0.217c0.04-0.069-0.25-0.23-0.386-0.278
		c-0.081,0-0.086,0.019-0.089,0.026C29.794,20.924,29.794,20.937,29.813,20.95"/>
	<path id="XMLID_35_" style="fill:#131921;" d="M28.978,25.214c-0.242-0.333-0.771-0.347-0.945-0.178
		c-0.01-0.008-0.018-0.017-0.027-0.024c-0.072-0.056-0.288-0.184-0.389-0.244c-0.162-0.17-0.23-0.211-0.265-0.228
		c-0.132-0.08-0.386-0.172-0.602-0.223c-0.044-0.46-0.078-0.568-0.102-0.616c0.001-0.015,0.051-0.421,0.042-0.677
		c0.137,0.024,0.32,0.054,0.464,0.054c0.083,0,0.148-0.01,0.203-0.03c0.141-0.037,0.374-0.118,0.471-0.271l0.021-0.035l0.009-0.039
		c0.009-0.032,0.073-0.334-0.108-0.619c-0.125-0.196-0.469-0.558-0.662-0.74c0.008-0.108,0.015-0.214,0.015-0.215
		c0.007-0.086-0.018-0.178-0.117-0.284c-0.032-0.03-0.265-0.294-0.33-0.333c-0.063-0.039-0.164-0.066-0.247-0.066
		c-0.03,0-0.057,0.004-0.085,0.011c-0.226,0.049-0.204,0.394-0.196,0.424c-0.028-0.016-0.058-0.032-0.091-0.045
		c-0.078-0.085-0.191-0.134-0.306-0.158c-0.057-0.043-0.143-0.085-0.253-0.085c-0.007,0-0.016,0-0.025,0.001
		c-0.146,0.008-0.148,0.022-0.219,0.079c-0.11,0.023-0.208,0.087-0.283,0.18c-0.065,0.037-0.141,0.1-0.203,0.207
		c-0.064,0.053-0.137,0.143-0.195,0.297l-0.022,0.057c-0.052,0.135-0.109,0.287-0.068,0.445c0.002,0.004,0.003,0.008,0.004,0.015
		c-0.125,0.033-0.304,0.106-0.402,0.3c-0.044,0.084-0.09,0.201-0.128,0.302c-0.055,0.005-0.69,0.08-0.676,0.382
		c0.006,0.092,0.049,0.186,0.134,0.249c-0.057,0.101-0.062,0.207-0.009,0.296c0.046,0.078,0.108,0.136,0.179,0.162
		c0.023,0.077,0.059,0.155,0.113,0.225c0.062,0.079,0.131,0.137,0.188,0.179c-0.119,0.039-0.245,0.095-0.365,0.184
		c-0.175,0.119-0.437,0.38-0.21,0.784c0.037,0.064,0.147,0.186,0.704,0.734c-0.019,0.021-0.46,0.828,0.259,0.861
		c0.163,0.275,0.721-0.121,0.74-0.131c0.041,0.008,0.79,0.012,0.592-0.567c0.051-0.006,0.311-0.08,0.322-0.08
		c0.084,0.036,0.269,0.112,0.378,0.122c0.049,0.007,0.13,0.007,0.188,0.007c0.076,0,0.261-0.003,0.351-0.019
		c0.023-0.004,0.05-0.011,0.08-0.018c0.078,0.126,0.2,0.283,0.356,0.372c0.189,0.108,0.62,0.299,0.765,0.364
		c0.029,0.03,0.331,0.281,0.53,0.281c0.634,0,0.439-0.578,0.45-0.61C29.061,26.104,29.155,25.453,28.978,25.214"/>
	<path id="XMLID_34_" style="fill:#BEBBBA;" d="M26.757,22.157c-0.027-0.031-0.273-0.096-0.374-0.107
		c-0.035-0.033-0.147-0.069-0.147-0.069s0.154-0.115,0.15-0.196c-0.107-0.549-0.293-0.591-0.293-0.591s-0.057-0.126-0.216-0.145
		c-0.027-0.117-0.255-0.138-0.255-0.138s-0.058-0.077-0.149-0.071c-0.069,0.004-0.089,0.031-0.124,0.072c0,0-0.135-0.022-0.23,0.137
		c0,0-0.109,0.023-0.175,0.184c0,0-0.08,0.018-0.154,0.207c-0.048,0.134-0.109,0.26-0.083,0.357c0.025,0.097,0.105,0.2,0.105,0.2
		s-0.073,0.06-0.156,0.085c-0.082,0.026-0.285,0.042-0.365,0.204c-0.084,0.164-0.186,0.476-0.186,0.476s-0.05-0.03-0.11-0.036
		c-0.052-0.005-0.295,0.005-0.35,0.045c-0.029,0.022-0.133,0.034-0.132,0.075c0.007,0.117,0.193,0.073,0.193,0.073l-0.043,0.253
		c0,0-0.078,0.076-0.058,0.11c0.022,0.037,0.058,0.05,0.082,0.041c0.032-0.005,0.085-0.066,0.085-0.066s0,0.243,0.107,0.38
		c0.108,0.137,0.231,0.189,0.231,0.189s0.084,0.03,0.155,0c0.072-0.031,0.205-0.138,0.217-0.178
		c0.009-0.041,0.046-0.178,0.046-0.178s0.056-0.219,0.083-0.223c0.023-0.007,0.051,0.03,0.051,0.03v0.442
		c0,0-0.175,0.331-0.175,0.418c-0.092,0.009-0.494-0.031-0.839,0.218c-0.284,0.194-0.186,0.37-0.134,0.464
		c0.052,0.091,0.916,0.926,0.943,0.955c-0.012,0.031,0.014,0.065-0.027,0.065h-0.092c0,0-0.132-0.049-0.156,0
		c-0.054,0.128,0.085,0.114,0.09,0.139c0.004,0.022-0.111-0.021-0.13,0.048c-0.023,0.08,0.003,0.158,0.056,0.225
		c0.037,0.046,0.127,0.024,0.152,0.033c0.027,0.01,0.037,0.054,0.105,0.068c0.153,0.06,0.488-0.213,0.531-0.209
		c0.164,0.084,0.352-0.064,0.363-0.157c0.014-0.091-0.001-0.138-0.034-0.209c-0.032-0.069-0.138-0.182-0.138-0.182
		s0.131-0.041,0.159-0.052c0,0,0.017-0.015,0.062,0.006c0.041,0.022,0.235,0.056,0.29,0.054c0.057,0,0.272-0.104,0.305-0.086
		c0.034,0.018,0.246,0.105,0.325,0.113c0.078,0.009,0.38,0.007,0.465-0.009c0.084-0.016,0.253-0.066,0.253-0.066
		s0.142,0.327,0.355,0.45c0.214,0.12,0.788,0.371,0.788,0.371s0.231,0.239,0.383,0.239c0.151,0,0.191-0.128,0.189-0.16
		c-0.002-0.031-0.006-0.194,0.024-0.282c0.03-0.088,0.058-0.349,0.067-0.469c0.009-0.122,0.049-0.461-0.276-0.509
		c-0.052-0.008-0.163-0.03-0.184-0.029c-0.046,0.005-0.023,0.117-0.04,0.074c-0.018-0.051-0.073-0.065-0.094-0.056
		c-0.063,0.027-0.088,0.078-0.085,0.104c0.003,0.05,0.025,0.184,0.025,0.184s-0.264-0.209-0.338-0.269
		c-0.074-0.06-0.389-0.241-0.389-0.241s-0.172-0.182-0.224-0.205c-0.029-0.032-0.475-0.238-0.719-0.234
		c-0.005-0.182-0.014-0.612-0.119-0.824c0.001-0.057,0.065-0.662,0.028-0.821c-0.017-0.069,0.089-0.124,0.144-0.124
		c0.053,0,0.57,0.12,0.711,0.059c0,0,0.274-0.068,0.336-0.168c0,0,0.053-0.226-0.077-0.431c-0.132-0.206-0.592-0.675-0.711-0.775
		c0.016-0.117,0.027-0.331,0.027-0.331s0-0.046-0.031-0.077c-0.034-0.034-0.242-0.273-0.27-0.298
		c-0.025-0.021-0.119-0.053-0.159-0.041c-0.038,0.011-0.025,0.095-0.003,0.117c0.024,0.024,0.086,0.077,0.086,0.077l0.033,0.092
		c0,0-0.042,0.022-0.051,0.043c-0.008,0.018-0.008,0.126,0.008,0.149c0.015,0.023,0.067,0.033,0.067,0.033s-0.048,0.103-0.095,0.107
		c-0.039-0.057-0.104-0.228-0.162-0.172c-0.026,0.027-0.04,0.075-0.026,0.122c0.014,0.044,0.09,0.261,0.129,0.301
		c0.041,0.041,0.068,0.062,0.068,0.062S26.74,22.077,26.757,22.157"/>
	<path id="XMLID_33_" style="fill:#131921;" d="M23.985,24.338c0.414-0.043,1.172,1.239,1.196,1.268
		c0.026,0.026,0.073-0.033,0.073-0.033C25.223,25.518,24.561,24.157,23.985,24.338"/>
	<path id="XMLID_32_" style="fill:#131921;" d="M23.931,22.981c0.073-0.013,0.196-0.151,0.174-0.161
		c-0.02-0.008-0.08,0.085-0.191,0.085c-0.038,0-0.081-0.007-0.127-0.017l-0.009-0.001c-0.016,0.023-0.113,0.039-0.113,0.039
		l0.013,0.06l0.095-0.023C23.79,22.969,23.857,22.992,23.931,22.981"/>
	<path id="XMLID_31_" style="fill:#131921;" d="M24.556,22.206c-0.088,0.01,0.011,1.189,0.011,1.189l0.092-0.117
		c-0.013-0.069-0.023-0.413-0.023-0.462c0.032,0.02,0.432-0.065,0.522-0.214c0,0-0.28,0.051-0.352,0.036
		c-0.127-0.022-0.159-0.075-0.166-0.114C24.641,22.512,24.593,22.202,24.556,22.206"/>
	<path id="XMLID_30_" style="fill:#131921;" d="M24.501,24.063l-0.079,0.055c0.573,0.305,0.918,1.419,0.922,1.429l0.002,0.012
		l0.184,0.064C25.53,25.624,25.094,24.329,24.501,24.063"/>
	<path id="XMLID_29_" style="fill:#131921;" d="M25.851,25.559c0.024,0.039,0.157-0.03,0.157-0.03l-0.001-0.014
		c0-0.004-0.015-0.54,0.417-0.952C26.423,24.564,25.952,24.66,25.851,25.559"/>
	<path id="XMLID_28_" style="fill:#131921;" d="M28.186,25.463l-0.107-0.073c0,0,0.05,0.241,0.047,0.346
		c-0.002,0.017-0.006,0.023-0.016,0.029c-0.002,0.005-0.006,0.007-0.007,0.009c-0.041,0.046-0.014,0.213-0.014,0.213
		s0.046-0.098,0.094-0.15c0.006-0.006,0.011-0.011,0.014-0.014c0.024-0.023,0.027-0.039,0.017-0.133
		C28.212,25.654,28.186,25.463,28.186,25.463"/>
	<path id="XMLID_27_" style="fill:#131921;" d="M26.483,22.196c-0.021,0.002-0.06,0.284-0.058,0.321
		c0,0.007-0.013,0.191-0.218,0.158c-0.204-0.032-0.292-0.071-0.292-0.071c0.074,0.143,0.416,0.216,0.502,0.334
		c0.018,0.028,0.032,0.158,0.034,0.173h0.068v-0.235l0.069-0.021C26.558,22.365,26.504,22.191,26.483,22.196"/>
	<path id="XMLID_26_" style="fill:#131921;" d="M25.087,21.98c-0.123,0-0.306,0.019-0.312,0.022l-0.208,0.044l0.061,0.044
		c0.004-0.001,0.273-0.055,0.453-0.055c0.028,0,0.054,0.002,0.072,0.007c0.155,0.035,0.341,0.099,0.343,0.075
		c0.001-0.027-0.219-0.11-0.324-0.132C25.152,21.981,25.124,21.98,25.087,21.98"/>
	<path id="XMLID_25_" style="fill:#131921;" d="M26.426,22.057l0.015-0.008l0.006-0.008l0.005-0.011l-0.007-0.014l-0.082-0.047
		c-0.009-0.002-0.405-0.003-0.405-0.003c-0.099,0.003-0.405,0.126-0.385,0.149c0.022,0.023,0.243-0.072,0.397-0.091
		C26.129,22.002,26.411,22.057,26.426,22.057"/>
	<path id="XMLID_24_" style="fill:#131921;" d="M26.108,21.295c0.078-0.082-0.074-0.176-0.078-0.188c0,0,0.108,0.14,0.022,0.101
		c-0.074-0.116-0.36-0.202-0.371-0.213c-0.015-0.017,0.035-0.065,0.194,0.054c0.013-0.022-0.086-0.116-0.222-0.106
		c-0.003-0.02-0.016-0.041-0.03-0.048c-0.003-0.002-0.005-0.002-0.007-0.002c-0.004,0-0.011,0-0.008,0.002
		c0.012,0.014,0.034,0.048,0.01,0.051c-0.026,0.003-0.043-0.045-0.048-0.053c-0.016-0.025-0.082,0.01-0.043,0.043
		c0.01,0.008,0.027,0.014,0.044,0.024c0.021,0.014,0.011,0.018-0.006,0.014c-0.023-0.007-0.047-0.012-0.077-0.012
		c-0.03,0-0.06,0.005-0.086,0.016c-0.011,0.005-0.023-0.001-0.009-0.014c0.012-0.008,0.029-0.015,0.041-0.021
		c0.055-0.037-0.037-0.103-0.054-0.011c-0.009,0.016-0.02,0.03-0.029,0.032c-0.041,0.002,0.004-0.063,0.001-0.063
		c-0.002,0-0.006,0.006-0.008,0.007c-0.012,0.009-0.03,0.025-0.034,0.045c-0.01-0.002-0.171,0.009-0.194,0.097
		c0.12-0.088,0.182-0.083,0.175-0.048c-0.003,0.014-0.145,0.093-0.2,0.147c-0.048,0.034-0.115,0.116-0.126,0.119
		c-0.023,0.005-0.028-0.041,0.005-0.101c-0.075,0.071-0.061,0.128-0.042,0.161c-0.037,0.09-0.029,0.202,0.021,0.292
		c0.042,0.076,0.301,0.294,0.322,0.28c0.023-0.015-0.267-0.272-0.289-0.38c-0.046-0.263,0.309-0.495,0.423-0.507
		c0.006,0,0.021,0.032,0.086,0.028c0.082-0.002,0.089-0.028,0.091-0.028c0.089-0.011,0.522,0.15,0.478,0.471
		c-0.016,0.101-0.057,0.221-0.039,0.233c0.018,0.011,0.035-0.041,0.079-0.128C26.146,21.496,26.149,21.383,26.108,21.295"/>
	<path id="XMLID_23_" style="fill:#131921;" d="M27.24,22.729c-0.058-0.062-0.52-0.614-0.522-0.619
		c-0.005-0.007-0.015-0.025-0.032-0.025c-0.01,0-0.065,0.002-0.069,0.018c0.097,0.161,0.318,0.418,0.474,0.543
		C27.16,22.71,27.216,22.745,27.24,22.729"/>
	<path id="XMLID_22_" style="fill:#131921;" d="M24.385,25.743c0.022,0.032,0.063,0.092,0.063,0.092s0.058-0.14,0.154-0.194
		c0.099-0.054,0.267-0.13,0.34-0.132C24.663,25.435,24.395,25.642,24.385,25.743"/>
	<path id="XMLID_21_" style="fill:#131921;" d="M24.246,23.483c0.053,0.001,0.067-0.048,0.068-0.105l0.011-0.01
		c0.002-0.002,0.053-0.045,0.083-0.147c0.025,0.134,0.092,0.401,0.043,0.47l-0.078,0.08l0.08-0.046
		c0.032-0.011,0.081-0.066,0.067-0.161c-0.009-0.052-0.09-0.476-0.09-0.476l-0.002-0.02c-0.003-0.056-0.018-0.107-0.051-0.149
		c-0.053-0.071-0.135-0.108-0.19-0.11c0,0,0.22,0.148,0.192,0.301c-0.027,0.151-0.054,0.161-0.054,0.162l-0.033-0.034v0.087
		c-0.007,0.044-0.019,0.062-0.048,0.06c-0.084-0.002-0.147,0.114-0.237,0.088c-0.085-0.026-0.129-0.097-0.182-0.136
		c-0.049-0.037,0.026-0.11,0.026-0.11s-0.002-0.03-0.026-0.045c-0.023-0.015-0.058,0.077-0.058,0.077s-0.052,0.13,0.02,0.177
		c0.127,0.083,0.085,0.08,0.221,0.122C24.145,23.6,24.133,23.482,24.246,23.483"/>
	<path id="XMLID_20_" style="fill:#131921;" d="M30.213,19.413c-0.093,0-0.212-0.056-0.242-0.218
		c-0.01-0.032-0.09-0.221-0.163-0.389c-0.398-0.93-0.366-0.591-0.329-0.739c0.068-0.268,0.434-0.298,0.704-0.298
		c0.063,0,0.112,0.001,0.128,0.002c0.131,0.001,0.247,0.051,0.335,0.14c0.15,0.145,0.188,0.359,0.187,0.462
		c-0.001,0.011-0.2,0.612-0.3,0.793l-0.005,0.009C30.383,19.412,30.257,19.413,30.213,19.413"/>
	<path id="XMLID_19_" style="fill:#BEBBBA;" d="M30.305,17.973c0,0-0.582-0.037-0.626,0.14c-0.046,0.179,0.366,0.856,0.492,1.045
		c0.092,0.135,0.184-0.088,0.184-0.088c0.061-0.114,0.274-0.622,0.274-0.698C30.629,18.279,30.567,17.973,30.305,17.973"/>
	<path id="XMLID_18_" style="fill:#131921;" d="M13.801,12.204c0,0,1.619,0.101,1.904,1.93c0.09-0.339-0.276-1.445-0.742-1.714
		c-0.052-0.032-0.252-0.131-0.105-0.456C14.315,11.884,13.801,12.204,13.801,12.204"/>
	<path id="XMLID_17_" style="fill:#131921;" d="M21.53,12.944c0,0,0.991-0.376,1.226,1.214c0.106-0.582-0.026-1.274-0.427-1.482
		C21.926,12.468,21.53,12.944,21.53,12.944"/>
	<path id="XMLID_16_" style="fill:#131921;" d="M16.871,14.641c0,0,0.098,0.336,0.204,0.4c0.105,0.064,0.381-0.347,0.381-0.347
		s-0.191,0.494-0.359,0.622C16.96,15.214,16.905,15.087,16.871,14.641"/>
	<path id="XMLID_15_" style="fill:#131921;" d="M17.271,15.016c0,0,0.159,0.331,0.267,0.396c0.105,0.064,0.349-0.329,0.349-0.329
		s-0.217,0.508-0.329,0.605C17.455,15.597,17.256,15.478,17.271,15.016"/>
	<path id="XMLID_14_" style="fill:#131921;" d="M16.349,15.579c0,0,0.196,0.357,0.31,0.402c0.198,0.081,0.211-0.439,0.211-0.439
		s0.083,0.577-0.134,0.768C16.553,16.205,16.458,16.132,16.349,15.579"/>
	<path id="XMLID_13_" style="fill:#131921;" d="M16.843,15.37c0,0,0.105,0.314,0.202,0.389c0.1,0.075,0.307-0.485,0.307-0.485
		s-0.069,0.554-0.225,0.832C17.025,15.989,16.855,15.814,16.843,15.37"/>
	<path id="XMLID_12_" style="fill:#131921;" d="M17.244,15.623c0,0.016,0.189,0.297,0.306,0.348
		c0.117,0.052,0.195-0.429,0.195-0.429s0.032,0.55-0.109,0.708C17.557,16.193,17.283,16.055,17.244,15.623"/>
	<path id="XMLID_11_" style="fill:#131921;" d="M17.352,14.296c0,0,0.184,0.419,0.307,0.483c0.123,0.064,0.307-0.386,0.307-0.386
		s-0.093,0.492-0.315,0.646C17.501,14.906,17.455,14.821,17.352,14.296"/>
	<path id="XMLID_10_" style="fill:#131921;" d="M17.039,13.932c0,0,0.116,0.316,0.221,0.371c0.105,0.055,0.287-0.371,0.287-0.371
		s-0.107,0.543-0.275,0.711C17.159,14.551,17.106,14.4,17.039,13.932"/>
	<path id="XMLID_9_" style="fill:#131921;" d="M17.68,13.822c0,0,0.097,0.273,0.187,0.332c0.089,0.058,0.23-0.181,0.23-0.181
		s-0.056,0.378-0.223,0.428C17.806,14.338,17.731,14.216,17.68,13.822"/>
	<path id="XMLID_8_" style="fill:#131921;" d="M18.173,13.505c0,0,0.055,0.255,0.13,0.309c0.074,0.053,0.212-0.181,0.212-0.181
		s-0.018,0.285-0.218,0.413C18.223,13.958,18.136,13.85,18.173,13.505"/>
	<path id="XMLID_7_" style="fill:#131921;" d="M18.634,13.132c0,0,0.053,0.254,0.129,0.309c0.074,0.054,0.212-0.181,0.212-0.181
		s-0.025,0.347-0.214,0.386C18.787,13.68,18.599,13.441,18.634,13.132"/>
	<path id="XMLID_6_" style="fill:#131921;" d="M16.453,14.963c0,0,0.169,0.302,0.248,0.309c0.077,0.009,0.228-0.309,0.228-0.309
		s-0.071,0.427-0.228,0.513C16.631,15.389,16.492,15.254,16.453,14.963"/>
	<path id="XMLID_5_" style="fill:#131921;" d="M17.456,13.542c0,0,0.07,0.251,0.148,0.301c0.078,0.049,0.201-0.193,0.201-0.193
		s-0.041,0.358-0.176,0.462C17.543,14.032,17.439,13.903,17.456,13.542"/>
	<path id="XMLID_4_" style="fill:#BEBBBA;" d="M24.719,17.486c-0.274-0.095-0.609-0.662-0.71-0.906
		c-0.104-0.246-0.286-0.964-0.176-1.228c0.059,0.261,0.216,0.817,0.334,1.067C24.347,16.794,24.574,17.283,24.719,17.486"/>
	<path id="XMLID_3_" style="fill:#131921;" d="M30.629,24.824c-0.052-0.106-0.313-0.209-0.428-0.225
		c-0.105-0.014-0.127-0.018-0.138,0.087c-0.009,0.088-0.014,0.181,0.004,0.274c0.028,0.156,0.041,0.113,0.184,0.121
		c0.108,0.006,0.205,0.022,0.313,0.017c0.099-0.009,0.12-0.011,0.12-0.103c0-0.069,0.025-0.154-0.055-0.18"/>
</g>
</svg>
