<?xml version="1.0" encoding="utf-8"?>
<!-- Generator: Adobe Illustrator 20.0.0, SVG Export Plug-In . SVG Version: 6.00 Build 0)  -->
<svg version="1.1" id="Livello_1" xmlns="http://www.w3.org/2000/svg" xmlns:xlink="http://www.w3.org/1999/xlink" x="0px" y="0px"
	 viewBox="0 0 595.3 841.9" style="enable-background:new 0 0 595.3 841.9;" xml:space="preserve">
<style type="text/css">
	.st0{fill:#FFFFFF;}
	.st1{fill:#AF0D21;}
	.st2{fill:#00264B;}
</style>
<g>
	<path class="st0" d="M297.6,755.8c165.9-100,276.8-281,276.8-487.8c0-45.3-5.5-89.4-15.6-131.7c-80.5-32.3-168.5-50.2-260.7-50.2
		c-92.6,0-181,18.1-261.8,50.8c-10,42.1-15.4,86-15.4,131.1C20.9,474.7,131.7,655.8,297.6,755.8"/>
	<path class="st1" d="M297.6,96.3c-89.6,0.1-175.1,17.6-253.3,49.2c-9.7,40.8-15,83.3-15,127.1c0,200.5,107.5,376,268.3,472.9l0,0
		V96.3z"/>
	<path class="st2" d="M298.1,96.3c-0.2,0-0.3,0-0.5,0v649.2c160.8-96.9,268.3-272.4,268.3-472.9c0-44-5.3-86.7-15.1-127.6
		C472.8,113.6,387.5,96.3,298.1,96.3z"/>
	<path class="st0" d="M503.1,301.3c0-15.7-0.7-31.2-2.1-46.5c-64-20-132.2-30.8-202.8-30.8c-71,0-139.5,10.9-203.8,31.1
		c-1.4,15.2-2.1,30.6-2.1,46.2c0,166.4,80.7,314,205.4,406.4C422.3,615.3,503.1,467.7,503.1,301.3"/>
	<path class="st2" d="M422.9,517.4c-0.3-0.5-2.4-3.3-2.9-4.5c-0.5-1.2-3.2-3.8-1.9-6.6c0.4-0.9,0.3-2.5-0.1-4.4c0,0-1.1,0.1-3.1,0.4
		c-2,0.3-4.8,0.7-8.3,1.4c-3.4,0.6-7.4,1.5-11.8,2.6c-4.3,1.1-9,2.4-13.6,3.9c-6.2,2.1-11.6,4.1-16,5.9c-4.4,1.8-7.8,3.4-10.1,4.6
		c-2.3,1.1-3.6,1.8-3.6,1.8c-1.9,3.6-1.3,5.5,0.2,6.7c1.4,1.2,4.2,1.4,4.9,1.9c3.5,2.5,3.4,8.7,2.4,11.6c-0.9,2.9-2.6,4.9-2,6.1
		c0.6,1.1,3,2.4,5.8,3.7s5.9,2.9,7.8,4.5c4.1,3.4,7.5,6.2,10.6,8.3c3.1,2.1,6,3.6,8.9,4.2c2.9,0.6,5.9,0.5,9.3-0.6
		c3.4-1.1-2.4-4.3,0-10.4c2.8-7,0.4-8.5,2.8-8.6c6.3-0.2,10.3-0.8,12.7-1.8c2.4-1.1,3.2-2.7,3.1-5.2c-0.1-3.2-2.6-4.5,0.3-6.8
		c1.9-1.5-0.5-3.8-1.5-4.3c-0.1,0,2.3-0.2,2.5-2.9c0.1-0.8-2.2-2.1-1.2-3.5c0.8-1.2,3.9-0.6,5.4-1.8
		C425,522.5,424.7,519.9,422.9,517.4 M348.7,516.9c0.5-0.6,1.3-1.8,2.9-3.4c1.6-1.6,3.9-3.7,7.3-6.1c3.4-2.5,7.9-5.3,14-8.6
		c3.6-1.9,7.1-3.7,10.5-5.2c3.4-1.5,6.6-2.9,9.7-4.1c3.1-1.2,6-2.2,8.6-3.1c2.7-0.9,5.1-1.7,7.2-2.3c0,0,0.6-2.1-0.4-4.2
		c-0.9-2.1-3.4-4.2-9.3-4c-4.8,0.1-7.9-0.6-11.3-1.1c-3.4-0.5-7.1-0.6-13.2,0.7c-3.3,0.7-5.6,1.8-7.8,3.2c-2.2,1.3-4.2,2.9-6.8,4.7
		c-3.2,2.1-5.3,3-7.1,3.9c-1.8,1-3.2,2-5.1,4.7c-1.9,2.6-2,4.7-1.9,7.1c0.1,2.4,0.3,5.1-0.8,9C343.8,513,348.7,516.9,348.7,516.9"/>
	<path class="st2" d="M441.1,332.1c-1.8,1.7-5.5,0.7-6.5,2.1c-1.2,1.6,1.5,3.1,1.5,3.9c-0.2,3-3.2,3.3-3.1,3.3
		c1.2,0.5,4.2,3.2,1.9,4.9c-3.6,2.7-0.5,4.2-0.3,7.8c0.1,2.8-0.9,4.6-3.8,5.9c-2.9,1.2-7.8,1.8-15.5,2.1c-2.9,0.1,0,1.8-3.4,9.7
		c-3,6.9,4.1,10.6,0,11.8c-4.1,1.2-7.8,1.4-11.3,0.6c-3.6-0.7-7.1-2.4-10.9-4.8c-3.8-2.4-8.1-5.6-13-9.4c-2.4-1.8-6.2-3.5-9.6-5.1
		c-3.4-1.5-6.4-3-7.1-4.2c-0.7-1.3,1.3-3.6,2.4-6.9c1.1-3.3,1.1-10.4-3-13.2c-0.9-0.6-4.3-0.9-6-2.2c-1.7-1.3-2.5-3.5-0.2-7.6
		c0,0,1.5-0.8,4.3-2.1c2.8-1.3,7-3.1,12.4-5.2c5.4-2.1,11.9-4.4,19.5-6.8c5.7-1.8,11.3-3.2,16.6-4.4c5.3-1.2,10.2-2.2,14.4-2.9
		c4.2-0.7,7.7-1.3,10.1-1.6c2.4-0.3,3.8-0.5,3.8-0.5c0.5,2.1,0.6,3.9,0.1,5c-1.6,3.2,1.7,6.2,2.3,7.5c0.6,1.3,3.2,4.5,3.6,5.1
		C442.2,327.8,443,330.8,441.1,332.1 M345.3,314.3c1.4-4.4,1.1-7.5,1-10.2c-0.1-2.7,0-5,2.3-8c2.2-3,4-4.2,6.2-5.3
		c2.2-1.1,4.7-2,8.6-4.4c3.2-2,5.7-3.8,8.3-5.3c2.7-1.5,5.5-2.8,9.5-3.6c4.9-1,8.6-1.3,11.7-1.2c3.1,0.1,5.7,0.5,8.5,0.9
		c2.8,0.4,5.8,0.8,9.7,0.6c7.3-0.2,10.3,2.1,11.4,4.5c1.1,2.4,0.5,4.8,0.5,4.8c-2.6,0.7-5.5,1.6-8.8,2.7c-3.2,1-6.8,2.2-10.5,3.6
		c-3.7,1.4-7.7,2.9-11.8,4.6c-4.1,1.7-8.4,3.7-12.8,5.9c-7.4,3.7-12.9,6.9-17,9.7c-4.2,2.8-7,5.1-8.9,6.9c-1.9,1.8-2.9,3.1-3.5,3.8
		C349.6,324.5,343.5,320,345.3,314.3"/>
	<path class="st2" d="M251.3,517.4c-0.4-0.5-2.7-3.3-3.3-4.5c-0.6-1.2-3.5-3.8-2.4-6.6c0.3-0.9,0.1-2.5-0.5-4.4c0,0-2,0.2-5.3,0.8
		c-3.3,0.5-8,1.4-13.3,2.6c-5.3,1.2-11.4,2.8-17.4,4.9c-6,2.1-11.2,4.1-15.5,5.9c-4.2,1.8-7.5,3.4-9.8,4.6c-2.2,1.1-3.4,1.8-3.4,1.8
		c-1.6,3.6-0.8,5.5,0.7,6.7c1.5,1.2,4.3,1.4,5.1,1.9c3.8,2.5,4.1,8.7,3.4,11.6c-0.7,2.9-2.2,4.9-1.5,6.1c0.7,1.1,3.2,2.4,6.1,3.7
		c2.9,1.4,6.1,2.9,8.2,4.5c4.4,3.4,8,6.2,11.3,8.3c3.3,2.1,6.3,3.6,9.3,4.2c3,0.6,5.9,0.5,9.2-0.6c3.3-1.1-2.8-4.3-0.8-10.4
		c2.2-7-0.3-8.5,2.1-8.6c6.3-0.2,10.2-0.8,12.5-1.8c2.3-1.1,3-2.7,2.7-5.2c-0.4-3.2-3-4.5-0.3-6.8c1.7-1.5-0.9-3.8-1.9-4.3
		c-0.1,0,2.3-0.2,2.3-2.9c0-0.8-2.4-2.1-1.5-3.5c0.7-1.2,3.8-0.6,5.2-1.8C253.8,522.5,253.3,519.9,251.3,517.4 M177.1,516.9
		c0.4-0.6,1.2-1.8,2.6-3.4c1.4-1.6,3.6-3.7,6.8-6.1c3.2-2.5,7.5-5.3,13.2-8.6c3.4-1.9,6.8-3.7,10.1-5.2c3.3-1.5,6.4-2.9,9.4-4.1
		c3-1.2,5.8-2.2,8.3-3.1c2.6-0.9,4.9-1.7,7-2.3c0,0,0.4-2.1-0.7-4.2c-1.1-2.1-3.7-4.2-9.7-4c-4.8,0.1-7.9-0.6-11.4-1.1
		c-3.5-0.5-7.2-0.6-13.1,0.7c-3.2,0.7-5.5,1.8-7.5,3.2c-2.1,1.3-4,2.9-6.4,4.7c-3,2.1-5.1,3-6.7,3.9c-1.7,1-3,2-4.7,4.7
		c-1.6,2.6-1.6,4.7-1.3,7.1c0.3,2.4,0.7,5.1-0.1,9C171.8,513,177.1,516.9,177.1,516.9"/>
	<path class="st2" d="M252.3,332.1c-1.7,1.7-5.5,0.8-6.4,2.1c-1.1,1.6,1.8,3.1,1.8,3.9c0,3-2.9,3.3-2.8,3.3c1.3,0.5,4.4,3.2,2.3,4.9
		c-3.4,2.7-0.1,4.2,0.3,7.8c0.3,2.8-0.5,4.6-3.3,5.9c-2.8,1.2-7.6,1.8-15.3,2.1c-2.9,0.1,0.2,1.8-2.5,9.7c-2.4,6.9,5,10.6,1,11.8
		c-4,1.2-7.7,1.4-11.3,0.6c-3.6-0.7-7.3-2.4-11.3-4.8c-4.1-2.4-8.5-5.6-13.9-9.4c-2.6-1.8-6.5-3.5-10-5.1c-3.5-1.5-6.6-3-7.5-4.2
		c-0.9-1.3,1-3.6,1.8-6.9c0.9-3.3,0.4-10.3-4.1-13.2c-1-0.6-4.4-0.9-6.2-2.2c-1.8-1.3-2.8-3.5-0.9-7.6c0,0,1.4-0.8,4.2-2.1
		c2.7-1.3,6.8-3.1,11.9-5.2c5.2-2.1,11.5-4.4,18.9-6.8c5.5-1.8,11-3.2,16.2-4.4c5.2-1.2,10-2.2,14.1-2.9c4.1-0.7,7.6-1.2,10-1.6
		s3.8-0.5,3.8-0.5c0.7,2.1,1,3.9,0.6,5c-1.3,3.2,2.3,6.2,3,7.5c0.7,1.3,3.6,4.5,4,5.1C253.1,327.8,254.1,330.8,252.3,332.1
		 M155.1,314.3c1-4.4,0.5-7.5,0.2-10.2c-0.3-2.7-0.4-5,1.6-8c2-3,3.6-4.2,5.7-5.3c2.1-1.1,4.6-2,8.2-4.4c3-2,5.3-3.8,7.9-5.3
		c2.5-1.5,5.3-2.8,9.2-3.6c4.8-1,8.5-1.3,11.6-1.2c3.1,0.1,5.8,0.5,8.6,1c2.8,0.4,5.8,0.8,9.7,0.6c7.3-0.2,10.4,2.1,11.8,4.5
		c1.3,2.4,0.9,4.8,0.9,4.8c-2.5,0.8-5.4,1.6-8.6,2.6c-3.1,1-6.6,2.2-10.2,3.6c-3.6,1.4-7.5,2.9-11.5,4.6c-4,1.7-8.1,3.7-12.3,5.9
		c-7,3.7-12.3,6.9-16.2,9.7c-3.9,2.8-6.5,5.1-8.3,6.9c-1.8,1.8-2.7,3.1-3.2,3.8C160.2,324.5,153.7,320,155.1,314.3"/>
	<path class="st0" d="M482.5,161.5c1.8,0.5,3.6,0.9,5.9,1.6c0.5,3.4,1,6.5,1.4,9.5c0.4,3,0.9,5.8,1.3,8.6c0.4,2.7,0.8,5.4,1.2,8
		c0.4,2.6,0.8,5.1,1.1,7.6c0.4,2.5,0.7,5.1,1.1,7.6c0.4,2.6,0.8,5.2,1.2,8c0.4,2.7,0.8,5.6,1.3,8.6c0.4,3,0.9,6.2,1.4,9.5
		c-2.5-0.8-4.5-1.3-6.4-1.9c-1.9-0.6-3.8-1.1-6.4-1.8c-0.5-3.3-0.9-6.5-1.3-9.4c-0.4-3-0.8-5.8-1.1-8.5c-0.4-2.7-0.7-5.3-1.1-7.9
		c-0.3-2.6-0.7-5.1-1-7.6c-0.3-2.5-0.7-5-1-7.6c-0.3-2.6-0.7-5.2-1.1-7.9c-0.4-2.7-0.7-5.5-1.1-8.5c-0.4-3-0.8-6.1-1.3-9.5
		C479,160.6,480.7,161.1,482.5,161.5 M455.3,183.1c-1.6,1.6-4.2,2-7.7,1.2c-2.5-0.5-4.4-0.9-6.3-1.3c-1.9-0.4-3.8-0.8-6.4-1.3
		c-0.3-2.8-0.5-5.2-0.8-7.4c-0.2-2.2-0.4-4.3-0.7-6.5c-0.2-2.2-0.5-4.6-0.8-7.4c2.5,0.5,4.4,0.8,6.3,1.2c1.9,0.4,3.8,0.7,6.3,1.2
		c1.8,0.4,3.3,0.9,4.7,1.7c1.4,0.8,2.6,1.8,3.6,3c1,1.2,1.8,2.5,2.4,4c0.6,1.4,1,2.9,1.2,4.5C457.5,179.1,456.9,181.5,455.3,183.1
		 M469.6,178.9c-0.3-2.1-0.7-4.2-1.4-6.1c-0.7-2-1.6-3.8-2.7-5.6c-1.1-1.8-2.4-3.5-3.9-5.1c-1.5-1.6-3.2-3-5-4.2
		c-1.8-1.2-3.7-2.3-5.8-3.1c-2.1-0.9-4.3-1.5-6.7-2c-3.3-0.7-6.1-1.2-8.7-1.7c-2.6-0.5-5-0.9-7.7-1.4c-2.6-0.5-5.5-0.9-8.9-1.5
		c0.3,3.2,0.6,6.3,0.9,9.1c0.3,2.9,0.5,5.6,0.8,8.2c0.3,2.6,0.5,5.1,0.7,7.6c0.2,2.5,0.5,4.9,0.7,7.3c0.2,2.4,0.5,4.8,0.7,7.3
		c0.2,2.5,0.5,5,0.7,7.6c0.3,2.6,0.5,5.3,0.8,8.2c0.3,2.9,0.6,5.9,0.9,9.1c2.7,0.5,4.7,0.9,6.6,1.3c2,0.4,4,0.8,6.6,1.3
		c-0.3-3.1-0.6-5.8-0.8-8.2c-0.3-2.4-0.5-4.7-0.7-7.2c-0.3-2.4-0.5-5.1-0.8-8.2c2.2,0.4,3.9,0.8,5.6,1.1c1.7,0.3,3.3,0.7,5.6,1.2
		c1.5,2.6,2.8,5,4.1,7.1c1.2,2.2,2.4,4.2,3.5,6.2c1.1,2,2.3,4,3.5,6.2c1.2,2.2,2.6,4.5,4.1,7.2c2.6,0.6,4.6,1.1,6.5,1.6
		c1.9,0.5,3.9,1,6.5,1.7c-1.7-2.9-3.1-5.5-4.5-7.8c-1.3-2.4-2.6-4.5-3.8-6.7c-1.2-2.2-2.5-4.3-3.8-6.7c-1.3-2.3-2.8-4.9-4.4-7.7
		c2.6-0.3,4.7-1.1,6.5-2.5c1.8-1.4,3.1-3.3,3.8-5.6C469.8,184.8,470,182,469.6,178.9 M387.1,183.3c2.5,0.3,5,0.6,8.4,1.1
		c-1-2.6-1.9-4.9-2.8-7c-0.8-2.1-1.6-4.1-2.4-6c-0.8-2-1.5-3.9-2.4-6c-0.8-2.1-1.7-4.4-2.7-7c-0.1,0-0.2,0-0.3,0
		c-0.8,3.2-1.5,5.9-2.2,8.4c-0.7,2.5-1.3,4.8-1.9,7.3c-0.7,2.5-1.4,5.2-2.2,8.4C382,182.7,384.5,183,387.1,183.3 M384,143.4
		c2,0.2,4,0.5,6.7,0.8c1.2,3,2.4,5.8,3.5,8.4c1.1,2.7,2.2,5.2,3.2,7.7c1,2.5,2,4.8,3,7.2c1,2.3,1.9,4.6,2.9,6.8
		c0.9,2.3,1.9,4.5,2.8,6.7c0.9,2.3,1.9,4.5,2.9,6.9c1,2.3,2,4.7,3,7.2c1,2.5,2.1,5.1,3.3,7.8c1.1,2.7,2.3,5.6,3.6,8.6
		c-2.7-0.5-4.7-0.8-6.7-1.2c-2-0.3-4.1-0.7-6.8-1.1c-1.1-2.9-2-5.1-2.9-7.2c-0.9-2.2-1.7-4.3-2.9-7.2c-3.1-0.4-5.7-0.8-8.2-1.1
		c-2.4-0.3-4.7-0.6-7.1-0.9c-2.4-0.3-5.1-0.6-8.2-1c-0.7,2.6-1.3,4.6-1.8,6.6c-0.5,2-1.1,3.9-1.8,6.6c-2.8-0.3-4.8-0.5-6.9-0.7
		c-2.1-0.2-4.1-0.4-6.9-0.6c1-3.1,1.9-5.9,2.8-8.6c0.9-2.7,1.7-5.3,2.4-7.8c0.8-2.5,1.5-4.9,2.2-7.2c0.7-2.3,1.4-4.6,2.1-6.9
		c0.7-2.3,1.4-4.6,2.1-6.9c0.7-2.3,1.4-4.7,2.2-7.2c0.7-2.5,1.5-5.1,2.3-7.8c0.8-2.7,1.6-5.6,2.5-8.6C379.9,143,382,143.2,384,143.4
		 M337,202.2c2.8,0.2,4.8,0.3,6.9,0.4c2.1,0.1,4.1,0.3,6.9,0.5c-0.2-3.1-0.3-6.1-0.5-8.9s-0.3-5.5-0.4-8c-0.1-2.6-0.3-5-0.4-7.4
		c-0.1-2.4-0.3-4.8-0.4-7.1c-0.1-2.4-0.3-4.7-0.4-7.1c-0.1-2.4-0.3-4.9-0.4-7.4c-0.1-2.6-0.3-5.2-0.4-8c-0.2-2.8-0.3-5.8-0.5-8.9
		c-2.6-0.2-4.6-0.3-6.5-0.4c-2-0.1-3.9-0.2-6.5-0.3c0.1,3.1,0.3,6.1,0.4,8.9c0.1,2.8,0.2,5.4,0.4,8c0.1,2.6,0.2,5,0.3,7.4
		c0.1,2.4,0.2,4.8,0.3,7.1c0.1,2.4,0.2,4.7,0.3,7.1c0.1,2.4,0.2,4.9,0.3,7.4c0.1,2.6,0.2,5.2,0.4,8
		C336.7,196.1,336.9,199.1,337,202.2 M297.3,147c0,2.7,0,5.2,0,7.6c0,2.4,0,4.7,0,7c0,2.3,0,4.5,0,6.8c0,2.3,0,4.6,0,7
		c0,2.4,0,4.9,0,7.6c0,2.7,0,5.5,0,8.5c3.1,0,5.8,0,8.2,0c2.5,0,4.8,0.1,7.1,0.1c2.3,0,4.6,0.1,7.1,0.2c2.5,0.1,5.2,0.2,8.2,0.3
		c0.1,1.9,0.1,3.4,0.2,4.8c0.1,1.5,0.1,2.9,0.2,4.9c-3-0.1-5.7-0.2-8.3-0.3c-2.6-0.1-5-0.1-7.3-0.2c-2.3,0-4.6-0.1-6.8-0.1
		c-2.2,0-4.5,0-6.8,0c-2.3,0-4.8,0-7.3,0c-2.6,0-5.3,0.1-8.3,0.1c0.1-3.1,0.1-6.1,0.2-8.9c0.1-2.8,0.1-5.4,0.2-8
		c0-2.5,0.1-5,0.1-7.4c0-2.4,0.1-4.8,0.1-7.1c0-2.4,0.1-4.7,0.1-7.1c0-2.4,0.1-4.9,0.1-7.4c0-2.5,0.1-5.2,0.2-8
		c0.1-2.8,0.1-5.7,0.2-8.9c2.6-0.1,4.5-0.1,6.4-0.1c1.9,0,3.9,0,6.4,0C297.3,141.5,297.3,144.4,297.3,147 M246.6,179.6
		c2.4-0.2,4.2-0.3,6-0.4c1.8-0.1,3.6-0.2,6-0.4c-0.1,2.3-0.2,4.1-0.3,5.8c-0.1,1.7-0.2,3.5-0.3,5.8c-1,0.9-2.5,1.8-4.5,2.5
		c-2,0.7-4.5,1.2-7.7,1.4c-2.2,0.2-4.2,0-6-0.6c-1.7-0.6-3.2-1.6-4.4-3c-1.2-1.4-2.1-3-2.6-4.9c-0.5-1.9-0.7-4-0.6-6.4
		c0.2-2.7,0.3-4.6,0.4-6.6c0.1-2,0.3-4,0.4-6.6c0.2-2.4,0.6-4.5,1.3-6.5c0.7-2,1.8-3.8,3.1-5.4c1.3-1.6,2.8-2.8,4.5-3.7
		c1.7-0.9,3.5-1.4,5.5-1.5c1.9-0.1,3.6,0,5,0.4c1.4,0.4,2.6,1,3.6,2c1.9,1.8,2.9,4.4,3,7.7c2.5-0.1,4.4-0.2,6.3-0.3
		c1.9-0.1,3.8-0.2,6.3-0.3c0-0.1,0.1-0.2,0.1-0.3c0.1-3-0.4-5.7-1.4-8.1c-1-2.4-2.5-4.5-4.6-6.3c-1.4-1.2-2.9-2.1-4.7-2.9
		c-1.8-0.7-3.8-1.2-6-1.5c-2.2-0.3-4.6-0.3-7.3-0.1c-2.5,0.2-5,0.6-7.2,1.3c-2.3,0.7-4.4,1.7-6.4,2.9c-2,1.2-3.9,2.7-5.6,4.5
		c-1.7,1.8-3.2,3.7-4.4,5.7c-1.2,2-2.2,4.2-2.9,6.5c-0.7,2.3-1.2,4.7-1.3,7.3c-0.2,2.6-0.3,4.6-0.5,6.6c-0.1,2-0.3,4-0.5,6.6
		c-0.2,2.6-0.1,4.9,0.3,7.1c0.4,2.2,1.1,4.2,2.1,6c1,1.8,2.3,3.4,4,4.8c1.6,1.4,3.5,2.6,5.5,3.4c2,0.9,4.2,1.4,6.7,1.8
		c2.4,0.3,5,0.4,7.8,0.1c3.3-0.3,6.3-0.7,9.1-1.4c2.8-0.7,5.2-1.5,7.5-2.6c2.2-1.1,4.1-2.2,5.8-3.4c1.6-1.2,3-2.4,4-3.7
		c0.1-3.2,0.2-5.8,0.3-8.2c0.1-2.5,0.2-4.7,0.2-7.2c0.1-2.5,0.2-5.1,0.3-8.2c-3.4,0.1-6.2,0.3-8.8,0.4c-2.6,0.1-5.1,0.3-7.7,0.4
		c-2.6,0.2-5.4,0.3-8.8,0.6c-0.1,1.7-0.2,3.1-0.2,4.4C246.7,176.5,246.7,177.9,246.6,179.6 M184.6,187.1c2.5-0.4,5-0.8,8.3-1.3
		c-0.8-3.2-1.5-5.9-2.1-8.3c-0.6-2.5-1.2-4.8-1.8-7.3c-0.6-2.5-1.2-5.2-2-8.4c-0.1,0-0.2,0-0.3,0c-1,2.6-1.9,5-2.8,7.1
		c-0.8,2.2-1.6,4.2-2.4,6.1c-0.8,2-1.6,4-2.4,6.2c-0.9,2.2-1.8,4.5-2.8,7.2C179.6,187.9,182.1,187.5,184.6,187.1 M188.3,146.8
		c2-0.3,4-0.6,6.6-1c0.8,3,1.6,5.9,2.4,8.6c0.7,2.7,1.5,5.3,2.2,7.8c0.7,2.5,1.4,4.9,2,7.2c0.7,2.3,1.3,4.6,2,6.9
		c0.7,2.3,1.3,4.6,2,6.9c0.7,2.3,1.4,4.7,2.1,7.2c0.7,2.5,1.5,5,2.3,7.7c0.8,2.7,1.7,5.5,2.6,8.6c-2.7,0.3-4.8,0.6-6.8,0.9
		c-2,0.3-4.1,0.6-6.8,1c-0.7-2.6-1.2-4.6-1.7-6.6c-0.5-2-1-3.9-1.7-6.6c-3.1,0.5-5.7,0.9-8.1,1.3c-2.4,0.4-4.7,0.8-7.1,1.2
		c-2.4,0.4-5,0.9-8,1.4c-1.2,3-2,5.2-2.9,7.4c-0.9,2.2-1.8,4.4-2.9,7.4c-2.7,0.5-4.7,0.9-6.7,1.3c-2,0.4-4,0.8-6.7,1.4
		c1.3-3.1,2.5-6,3.7-8.8c1.2-2.8,2.3-5.5,3.4-8c1.1-2.6,2.1-5,3.1-7.4c1-2.4,2-4.7,2.9-7c1-2.3,1.9-4.6,2.9-6.9c1-2.3,1.9-4.6,2.9-7
		c1-2.4,2-4.8,3-7.3c1-2.5,2.1-5.1,3.3-7.9c1.1-2.7,2.3-5.6,3.6-8.6C184.3,147.3,186.3,147,188.3,146.8 M132.1,156.4
		c-2.4,0.6-4.6,1.4-6.8,2.5c-2.1,1.1-4.2,2.4-6.1,4c-1.9,1.6-3.7,3.5-5.4,5.6c-1.7,2.1-3.2,4.4-4.5,6.7c-1.3,2.3-2.3,4.8-3.2,7.3
		c-0.8,2.5-1.5,5.2-1.9,7.9c-0.4,2.7-0.7,4.7-1,6.7c-0.3,2-0.6,4-1,6.7c-0.4,2.7-0.5,5.2-0.4,7.5c0.2,2.3,0.6,4.3,1.4,6
		c0.8,1.8,1.8,3.3,3.1,4.5c1.3,1.3,2.9,2.2,4.7,2.8c1.8,0.6,3.7,0.9,5.9,0.8c2.2,0,4.6-0.4,7.2-1.1c2.6-0.7,5-1.5,7.3-2.5
		c2.3-1,4.4-2.2,6.3-3.6c1.9-1.4,3.7-2.9,5.4-4.6c1.6-1.7,3-3.5,4.1-5.4c1.1-1.9,2.1-3.9,2.7-6.1c0.7-2.1,1.1-4.3,1.3-6.7
		c0-0.1,0-0.2-0.1-0.3c-2.5,0.5-4.4,0.9-6.3,1.4c-1.9,0.4-3.7,0.8-6.2,1.4c-0.3,2.2-0.7,4.2-1.4,5.9c-0.7,1.8-1.6,3.3-2.6,4.7
		c-1.1,1.3-2.4,2.5-4,3.4c-1.6,0.9-3.3,1.6-5.4,2.2c-2,0.5-3.8,0.6-5.3,0.2c-1.5-0.4-2.7-1.2-3.7-2.5c-1-1.3-1.6-2.9-1.9-4.9
		c-0.3-1.9-0.3-4.2,0.1-6.7c0.4-2.7,0.6-4.7,0.9-6.7c0.3-2,0.5-4,0.9-6.7c0.3-2.5,0.9-4.9,1.7-7.1c0.8-2.2,1.9-4.3,3.2-6.2
		c1.3-1.9,2.7-3.4,4.3-4.6c1.6-1.2,3.3-2,5.1-2.4c2.1-0.5,3.8-0.6,5.3-0.4c1.5,0.2,2.6,0.8,3.5,1.8c0.8,0.9,1.4,2.2,1.7,3.7
		c0.3,1.6,0.3,3.4,0.1,5.6c2.5-0.6,4.3-1,6.2-1.4c1.9-0.4,3.7-0.8,6.2-1.3c0-0.1,0.1-0.2,0.1-0.3c0.4-3.6,0.3-6.7-0.5-9.3
		c-0.8-2.6-2.1-4.7-4.1-6.4c-1.3-1.1-2.8-1.9-4.5-2.4c-1.7-0.5-3.6-0.8-5.7-0.8C136.9,155.6,134.6,155.9,132.1,156.4"/>
	<path class="st1" d="M474.3,402.8c-46.8,3.5-100,6.3-156.7,6.9c0.5-49,0.8-100.7,0.8-154.3c0-2.2,0-4.3,0-6.5
		c-6.8-0.2-13.5-0.4-20.4-0.4c-7.4,0-14.8,0.1-22.2,0.4c0,2.2,0,4.3,0,6.5c0,53.6,0.3,105.3,0.8,154.3
		c-56.4-0.6-109.3-3.5-155.8-6.9c2.2,11.8,4.9,23.4,8,34.8c44.7,5.7,94.9,9.9,148.2,10.8c1.2,87.1,3.3,163.8,6,223.7
		c4.7,3.8,9.5,7.6,14.4,11.2c4.6-3.4,9-6.9,13.5-10.4c2.7-60.1,4.7-137,6-224.5c53.7-0.8,104.2-4.9,149.1-10.7
		C469.4,426.2,472.1,414.6,474.3,402.8"/>
</g>
</svg>
