<?xml version="1.0" encoding="utf-8"?>
<!-- Generator: Adobe Illustrator 21.1.0, SVG Export Plug-In . SVG Version: 6.00 Build 0)  -->
<svg version="1.1" id="Layer_1" xmlns="http://www.w3.org/2000/svg" xmlns:xlink="http://www.w3.org/1999/xlink" x="0px" y="0px"
	 viewBox="0 0 105.6 33.6" style="enable-background:new 0 0 105.6 33.6;" xml:space="preserve">
<style type="text/css">
	.st0{fill:#FFFFFF;}
</style>
<g>
	<path class="st0" d="M16.1,15.3c-0.7-0.4-0.6-0.8-0.1-0.9c0.6-0.1,2.2,0.3,3.3,0.9c0.4,0.2,0.7,0.6,0.9,0.3
		c0.1-0.2-0.2-0.6-0.5-0.8c-2.5-2.1-5.3-2.5-5.7-3.2c-0.2-0.4-0.1-1,1.1-1.5c1.2-0.5,2.4-0.2,2.4-0.2c0.2,0.1,0.3-0.2-0.1-0.4
		c-2.3-0.8-3.5,0.1-5.4,0.2c-1.1,0-1.7-0.2-1.6-1.1c0.6-2.2,4.3-2.3,6-2.8c3.1-0.9,4.4-4.4,4.7-5.4c0.2-0.6-0.1-0.5-0.4,0
		c-3.2,4-5.3,3.7-7.3,3.8C8.2,4.1,6.8,7.5,6.7,7.7C6.6,7.9,6.4,8,6.4,7.2c0-0.9-0.2-1.1-0.2-0.7C5.7,8.6,5,10,4.1,10.8v0.5
		c-0.6,0.6-2.1,1.2-3.4,1.4c-1.3,0.2-0.4,2-0.2,2.2c0.1-0.2,0.3-0.5,0.8-0.7l0.6,0.7L2.1,14C2.5,14,2.9,13.9,3,13.9l0.3,0.6l0.3-0.6
		l0.3,0.5l0.3-0.6c0.1,0,0.1,0,0.2,0c0.4,0.1,0.7,0.9,0.3,1.4l-0.5-0.3l0,0.8c-0.1,0.1-0.1,0.2-0.2,0.2l-0.3-0.2l0,0.7
		c-0.2,0.4-0.3,0.7-0.1,1.1L4.6,17c0,0-0.1-0.1-0.1-0.2c0-0.4,1-1.2,1.6-1.5c0.2-0.1,0.4-0.2,1,0.4c0.7,0.6,0.6,0.4,0.4-0.5
		c0,0-0.1-0.4,0.5-0.2c0.5,0.2,1.8,0.9,0.8,3.1c-0.5,1-1.1,1.5-2.6,2.7c-1,0.8-1,1.6-1,1.9C5,22.7,5,22.8,5,22.9
		c0,0.3,0.2,0.5,0.5,0.5h0c0.4,0.4,0.7,0.9,0.7,1.5c0,0.6-0.3,1.1-0.7,1.5h0C5.2,26.5,5,26.7,5,27c0,0,0,0,0,0
		c-0.5,0.1-0.8,0.6-0.8,1.1c0,0.4,0.2,0.7,0.5,0.9v0.5H4.2L3,31.6l1.2,2.1H18l1.2-2.1L18,29.5h-0.5V29c0.3-0.2,0.5-0.5,0.5-0.9
		c0-0.5-0.3-0.9-0.8-1.1c0,0,0,0,0,0c0-0.3-0.2-0.5-0.5-0.5h0C16.2,26.1,16,25.6,16,25c0-0.6,0.3-1.1,0.7-1.5h0
		c0.3,0,0.5-0.2,0.5-0.5c0-0.2-0.2-0.5-0.4-0.5c0.1-0.4,0.3-1.1,0.2-1.8c-0.1-0.8-0.5-1.1-0.5-1.5c0-0.4,0.3-0.7,0.7-0.6
		c2.2,0.5,3.9,3.2,4.2,3.1c0.3-0.1,0-1-1.3-2.8C18.8,17.1,17,15.8,16.1,15.3z"/>
	<polygon class="st0" points="44.1,20.8 41.2,15 38.7,15 42.9,23.3 40.5,28 42.8,28 49.3,15 47,15 	"/>
	<path class="st0" d="M81,14.6c-0.9,0-1.7,0.3-2.3,0.9c-0.6-0.5-1.4-0.9-2.3-0.9c-0.9,0-1.6,0.3-2.2,0.8L72.8,15V24H75v-6
		c0-0.7,0.6-1.2,1.2-1.2c0.7,0,1.2,0.6,1.2,1.2v6h2.2v-6c0-0.7,0.6-1.2,1.2-1.2c0.7,0,1.2,0.6,1.2,1.2v6h2.2v-5.9
		C84.4,16.2,82.9,14.6,81,14.6z"/>
	<path class="st0" d="M54.3,14.6c-2.7,0-4.9,2.2-4.9,4.9c0,2.7,2.2,4.9,4.9,4.9c1,0,1.9-0.3,2.6-0.8c-0.1,1.3-1.2,2.4-2.6,2.4
		c-0.9,0-1.6-0.4-2.1-1h-2.5c0.7,1.9,2.5,3.2,4.6,3.2c2.7,0,4.9-2.2,4.9-4.9v-3.8v0v0V15l-1.9,0.6C56.5,15,55.4,14.6,54.3,14.6z
		 M57,19.5c0,1.5-1.2,2.7-2.7,2.7c-1.5,0-2.7-1.3-2.7-2.7c0-1.5,1.2-2.7,2.7-2.7C55.8,16.8,57,18,57,19.5L57,19.5z"/>
	<path class="st0" d="M65.9,14.6c-2.7,0-4.9,2.2-4.9,4.9c0,2.7,2.2,4.9,4.9,4.9c1.1,0,2.1-0.4,2.9-1V24h1.9v-4.5v0v0V15l-1.9,0.6
		C68,15,67,14.6,65.9,14.6z M66,22.2c-1.5,0-2.8-1.2-2.8-2.8c0-1.5,1.2-2.8,2.8-2.8c1.5,0,2.8,1.3,2.8,2.8
		C68.8,21,67.5,22.2,66,22.2z"/>
	<path class="st0" d="M91,14.6c-2.7,0-4.9,2.2-4.9,4.9c0,2.7,2.2,4.9,4.9,4.9c2,0,3.8-1.3,4.5-3h-2.3c-0.5,0.6-1.3,1-2.1,1
		c-1.3,0-2.4-0.9-2.7-2.2h7.4c0-0.2,0.1-0.4,0.1-0.7C95.8,16.8,93.6,14.6,91,14.6z M88.5,18.6c0.4-1.1,1.4-1.9,2.6-1.9
		c1.2,0,2.3,0.8,2.6,1.9H88.5z"/>
	<path class="st0" d="M32.2,22.1c-2.2,0-4.1-1.8-4.1-4.1c0-2.2,1.8-4.1,4.1-4.1c1.2,0,2.2,0.5,2.9,1.4h2.6c-1-2.1-3.2-3.6-5.7-3.6
		c-3.5,0-6.3,2.8-6.3,6.3s2.8,6.3,6.3,6.3c2.7,0,4.9-1.7,5.8-4h-2.5C34.7,21.4,33.6,22.1,32.2,22.1z"/>
	<path class="st0" d="M101.5,18.5c-1.5-0.2-2-0.6-2-1.1c0-0.5,0.5-1,1.7-1c1.2,0,1.7,0.5,1.9,1h2.3c-0.5-1.9-2-2.8-4.1-2.8
		c-1.5,0-4,0.6-4,2.9c0,2.3,2.9,2.8,4,2.9c1.5,0.2,2.1,0.6,2.1,1.1c0,0.5-0.8,1-1.9,1c-1.4,0-2.1-0.5-2.2-1.3H97
		c0.2,2.1,2.2,3.1,4.4,3.1c1.5,0,4.2-0.6,4.2-2.9C105.6,19.1,102.6,18.7,101.5,18.5z"/>
</g>
</svg>
