<?xml version="1.0" encoding="iso-8859-1"?>
<!-- Generator: Adobe Illustrator 19.0.0, SVG Export Plug-In . SVG Version: 6.00 Build 0)  -->
<svg version="1.1" id="Layer_1" xmlns="http://www.w3.org/2000/svg" xmlns:xlink="http://www.w3.org/1999/xlink" x="0px" y="0px"
	 viewBox="0 0 50 50" style="enable-background:new 0 0 50 50;" xml:space="preserve">
<g id="XMLID_1_">
	<path d="M5.175,27.797c-0.245,4.734,0.961,8.597,3.586,11.484c2.895,3.182,7.534,5.06,13.063,5.29l0.393,0.016l0.287,0.268
		c0.907,0.848,1.882,1.639,2.499,2.123c0.616-0.485,1.588-1.277,2.494-2.123l0.287-0.268l0.392-0.016
		c5.529-0.229,10.168-2.108,13.063-5.29c2.625-2.886,3.832-6.75,3.586-11.484c-0.018-0.164-0.022-0.253-0.025-0.362
		c-0.003-0.09-0.007-0.2-0.032-0.448l-0.049-0.482l0.333-0.352c0.389-0.411,0.895-0.941,1.341-1.402
		c-1.956-2.305-3.46-5.313-4.091-8.235c-0.902-4.175-0.114-8.209,2.276-11.713c-0.029-0.036-0.06-0.073-0.092-0.112
		c-0.069-0.085-0.146-0.178-0.23-0.283c-1.122,0.316-2.269,0.481-3.355,0.481c-3.285,0-5.661-0.327-8.398-1.981
		C30.088,4.451,27.627,5.202,25,5.202c-2.626,0-5.087-0.752-7.502-2.295C14.761,4.562,12.385,4.889,9.1,4.889
		c-1.086,0-2.233-0.165-3.355-0.481c-0.084,0.106-0.16,0.198-0.23,0.283C5.483,4.73,5.452,4.767,5.423,4.803
		c2.39,3.504,3.177,7.538,2.276,11.713c-0.631,2.922-2.135,5.93-4.091,8.235c0.446,0.46,0.952,0.99,1.341,1.402l0.333,0.352
		l-0.049,0.482c-0.025,0.248-0.029,0.358-0.032,0.448C5.196,27.544,5.193,27.634,5.175,27.797L5.175,27.797z M25.006,49.637
		l-0.633-0.469c-0.067-0.049-1.559-1.159-3.028-2.497c-5.929-0.326-10.943-2.436-14.151-5.963c-3.027-3.327-4.417-7.72-4.134-13.056
		l0.006-0.069c0.012-0.103,0.014-0.155,0.016-0.22c0.001-0.029,0.002-0.06,0.004-0.095c-0.538-0.566-1.265-1.321-1.681-1.737
		l-0.737-0.736l0.723-0.75c3.085-3.201,7.448-11.21,1.881-18.607l-0.437-0.58l0.383-0.617c0.24-0.386,0.444-0.634,0.66-0.897
		c0.175-0.213,0.357-0.434,0.601-0.781L4.938,1.91l0.754,0.261C6.826,2.562,8.004,2.77,9.1,2.77c3.179,0,5.263-0.311,7.827-2.009
		l0.599-0.397l0.59,0.41C20.386,2.349,22.573,3.083,25,3.083c2.427,0,4.614-0.734,6.883-2.309l0.59-0.41l0.6,0.397
		C35.637,2.459,37.721,2.77,40.9,2.77c1.096,0,2.274-0.207,3.408-0.598l0.755-0.261l0.459,0.653
		c0.244,0.348,0.426,0.568,0.601,0.781c0.216,0.263,0.42,0.511,0.66,0.897l0.383,0.617l-0.437,0.58
		c-5.566,7.397-1.203,15.406,1.882,18.607l0.722,0.75l-0.737,0.736c-0.416,0.415-1.143,1.171-1.681,1.737
		c0.001,0.035,0.003,0.066,0.004,0.095c0.002,0.064,0.004,0.117,0.016,0.22l0.006,0.069c0.284,5.336-1.107,9.728-4.134,13.056
		c-3.208,3.527-8.223,5.637-14.151,5.963c-1.468,1.337-2.951,2.446-3.018,2.495L25.006,49.637L25.006,49.637z"/>
	<path id="XMLID_55_" style="fill:#CD9700;" d="M25.004,48.316c0,0-1.694-1.257-3.224-2.686C11.769,45.215,3.485,39.6,4.118,27.709
		c0.037-0.314,0.006-0.293,0.06-0.828c-0.574-0.608-1.524-1.599-2.025-2.099c3.591-3.726,7.781-12.251,1.965-19.98
		C4.5,4.186,4.777,3.983,5.346,3.173C6.508,3.574,7.801,3.829,9.1,3.829c3.335,0,5.613-0.331,8.412-2.185
		C19.726,3.181,22.126,4.143,25,4.143c2.875,0,5.274-0.962,7.487-2.498c2.8,1.854,5.077,2.185,8.412,2.185
		c1.299,0,2.592-0.255,3.754-0.657c0.569,0.81,0.846,1.013,1.228,1.628c-5.816,7.73-1.626,16.254,1.965,19.98
		c-0.502,0.5-1.452,1.492-2.025,2.099c0.054,0.535,0.023,0.514,0.06,0.828C46.515,39.6,38.231,45.215,28.22,45.63
		C26.69,47.059,25.004,48.316,25.004,48.316L25.004,48.316L25.004,48.316z"/>
	<path id="XMLID_54_" style="fill:none;stroke:#000000;stroke-width:0;stroke-miterlimit:3.8637;" d="M25.004,48.316
		c0,0-1.694-1.257-3.224-2.686C11.769,45.215,3.485,39.6,4.118,27.709c0.037-0.314,0.006-0.293,0.06-0.828
		c-0.574-0.608-1.524-1.599-2.025-2.099c3.591-3.726,7.781-12.251,1.965-19.98C4.5,4.186,4.777,3.983,5.346,3.173
		C6.508,3.574,7.801,3.829,9.1,3.829c3.335,0,5.613-0.331,8.412-2.185C19.726,3.181,22.126,4.143,25,4.143
		c2.875,0,5.274-0.962,7.487-2.498c2.8,1.854,5.077,2.185,8.412,2.185c1.299,0,2.592-0.255,3.754-0.657
		c0.569,0.81,0.846,1.013,1.228,1.628c-5.816,7.73-1.626,16.254,1.965,19.98c-0.502,0.5-1.452,1.492-2.025,2.099
		c0.054,0.535,0.023,0.514,0.06,0.828C46.515,39.6,38.231,45.215,28.22,45.63C26.69,47.059,25.004,48.316,25.004,48.316
		L25.004,48.316L25.004,48.316z"/>
	<path id="XMLID_53_" style="fill:#FFFFFF;" d="M7.279,20.226c1.823-4.181,2.502-9.551-0.564-14.799
		c0.766,0.135,1.57,0.22,2.385,0.22c3.139,0,5.609-0.286,8.385-1.854c2.188,1.324,4.639,2.165,7.51,2.167
		c2.881-0.002,5.332-0.843,7.52-2.167c2.775,1.569,5.246,1.854,8.385,1.854c0.815,0,1.619-0.085,2.393-0.233
		c-3.074,5.261-2.396,10.631-0.572,14.812H7.279L7.279,20.226L7.279,20.226z"/>
	<g>
		<defs>
			<path id="XMLID_41_" d="M7.279,20.226c1.823-4.181,2.502-9.551-0.564-14.799c0.766,0.135,1.57,0.22,2.385,0.22
				c3.139,0,5.609-0.286,8.385-1.854c2.188,1.324,4.639,2.165,7.51,2.167c2.881-0.002,5.332-0.843,7.52-2.167
				c2.775,1.569,5.246,1.854,8.385,1.854c0.815,0,1.619-0.085,2.393-0.233c-3.074,5.261-2.396,10.631-0.572,14.812H7.279
				L7.279,20.226L7.279,20.226z"/>
		</defs>
		<clipPath id="XMLID_59_">
			<use xlink:href="#XMLID_41_"  style="overflow:visible;"/>
		</clipPath>
		<polygon id="XMLID_52_" style="clip-path:url(#XMLID_59_);fill:#CF0A2C;" points="14.04,3.687 19.314,3.687 19.314,22.263 
			14.04,22.263 14.04,3.687 14.04,3.687 		"/>
		<polygon id="XMLID_51_" style="clip-path:url(#XMLID_59_);fill:#CF0A2C;" points="7.31,15.389 7.31,10.114 24.934,10.114 
			24.934,15.389 7.31,15.389 7.31,15.389 		"/>
		<polygon id="XMLID_50_" style="clip-path:url(#XMLID_59_);fill:#FFD100;" points="39.958,3.419 43.107,3.419 43.107,21.857 
			39.958,21.857 39.958,3.419 39.958,3.419 		"/>
		<polygon id="XMLID_49_" style="clip-path:url(#XMLID_59_);fill:#FFD100;" points="24.799,3.421 26.694,3.421 26.694,21.857 
			24.799,21.857 24.799,3.421 24.799,3.421 		"/>
		<polygon id="XMLID_48_" style="clip-path:url(#XMLID_59_);fill:#CF0A2C;" points="26.694,3.421 28.589,3.421 28.589,21.857 
			26.694,21.857 26.694,3.421 26.694,3.421 		"/>
		<polygon id="XMLID_47_" style="clip-path:url(#XMLID_59_);fill:#FFD100;" points="28.588,3.421 30.483,3.421 30.483,21.857 
			28.588,21.857 28.588,3.421 28.588,3.421 		"/>
		<polygon id="XMLID_46_" style="clip-path:url(#XMLID_59_);fill:#CF0A2C;" points="30.483,3.42 32.378,3.42 32.378,21.857 
			30.483,21.857 30.483,3.42 30.483,3.42 		"/>
		<polygon id="XMLID_45_" style="clip-path:url(#XMLID_59_);fill:#FFD100;" points="32.378,3.42 34.273,3.42 34.273,21.857 
			32.378,21.857 32.378,3.42 32.378,3.42 		"/>
		<polygon id="XMLID_44_" style="clip-path:url(#XMLID_59_);fill:#CF0A2C;" points="34.273,3.421 36.168,3.421 36.168,21.857 
			34.273,21.857 34.273,3.421 34.273,3.421 		"/>
		<polygon id="XMLID_43_" style="clip-path:url(#XMLID_59_);fill:#FFD100;" points="36.168,3.421 38.063,3.421 38.063,21.857 
			36.168,21.857 36.168,3.421 36.168,3.421 		"/>
		<polygon id="XMLID_42_" style="clip-path:url(#XMLID_59_);fill:#CF0A2C;" points="38.063,3.421 39.958,3.421 39.958,21.857 
			38.063,21.857 38.063,3.421 38.063,3.421 		"/>
	</g>
	<path d="M7.515,20.07h17.262V6.114c-2.565-0.039-4.954-0.741-7.295-2.141c-2.741,1.529-5.155,1.83-8.382,1.83
		c-0.665,0-1.366-0.057-2.087-0.169C10.101,11.161,9.031,16.484,7.515,20.07L7.515,20.07z M25.089,20.07h17.396
		c-1.515-3.585-2.583-8.909,0.508-14.444c-0.706,0.117-1.409,0.177-2.093,0.177c-3.227,0-5.642-0.301-8.382-1.83
		c-2.379,1.423-4.811,2.124-7.429,2.142V20.07L25.089,20.07z M42.959,20.382H7.041l0.095-0.218c1.562-3.58,2.733-9.03-0.555-14.658
		l-0.17-0.291l0.331,0.058C7.56,5.418,8.354,5.491,9.1,5.491c3.207,0,5.594-0.3,8.308-1.834l0.079-0.045l0.078,0.047
		c2.382,1.441,4.812,2.143,7.429,2.145c2.624-0.002,5.057-0.704,7.439-2.145l0.078-0.047l0.079,0.045
		c2.714,1.534,5.102,1.834,8.308,1.834c0.771,0,1.566-0.077,2.364-0.23l0.337-0.065l-0.173,0.296
		c-3.295,5.639-2.125,11.091-0.564,14.671L42.959,20.382L42.959,20.382z"/>
	<polygon id="XMLID_37_" points="20.414,22.24 20.414,21.296 16.962,21.296 16.962,26.119 17.927,26.119 17.927,24.087 
		19.38,24.087 19.38,23.15 17.927,23.15 17.927,22.24 20.414,22.24 20.414,22.24 	"/>
	<path d="M17.019,26.062h0.85V24.03h1.454v-0.823H17.87v-1.023h2.487v-0.83h-3.337V26.062L17.019,26.062z M17.984,26.176h-1.078
		v-4.937h3.565v1.058h-2.487v0.796h1.454v1.051h-1.454V26.176L17.984,26.176z"/>
	<path id="XMLID_34_" d="M26.408,22.288c-0.303-0.627-0.854-1.068-1.764-1.068c-1.261,0-2.142,1.019-2.142,2.487
		c0,1.522,0.847,2.487,2.108,2.487c0.875,0,1.454-0.406,1.784-1.088l-0.813-0.482c-0.255,0.427-0.51,0.613-0.944,0.613
		c-0.723,0-1.143-0.661-1.143-1.529c0-0.896,0.413-1.529,1.137-1.529c0.434,0,0.709,0.193,0.882,0.523L26.408,22.288L26.408,22.288
		L26.408,22.288z"/>
	<path d="M24.644,21.278c-1.228,0-2.085,0.999-2.085,2.43c0,1.476,0.805,2.43,2.051,2.43c0.792,0,1.367-0.34,1.71-1.009
		l-0.719-0.427c-0.266,0.425-0.54,0.592-0.963,0.592c-0.718,0-1.2-0.637-1.2-1.586c0-0.964,0.469-1.586,1.194-1.586
		c0.414,0,0.711,0.166,0.906,0.506l0.794-0.366C25.995,21.608,25.428,21.278,24.644,21.278L24.644,21.278z M24.61,26.252
		c-1.315,0-2.165-0.998-2.165-2.544c0-1.498,0.904-2.544,2.199-2.544c0.839,0,1.467,0.38,1.815,1.1l0.025,0.052l-0.998,0.46
		l-0.025-0.048c-0.173-0.331-0.444-0.493-0.831-0.493c-0.666,0-1.08,0.564-1.08,1.472c0,0.881,0.437,1.472,1.087,1.472
		c0.398,0,0.64-0.159,0.895-0.586l0.029-0.049l0.907,0.538l-0.023,0.047C26.085,25.875,25.468,26.252,24.61,26.252L24.61,26.252z"/>
	<path style="fill-rule:evenodd;clip-rule:evenodd;" d="M32.009,24.576c0,0.379-0.22,0.627-0.689,0.627h-1.281v-1.247h1.281
		C31.789,23.956,32.009,24.162,32.009,24.576L32.009,24.576L32.009,24.576z M31.858,22.646c0,0.269-0.145,0.455-0.544,0.455h-1.275
		v-0.917h1.226C31.685,22.185,31.858,22.344,31.858,22.646L31.858,22.646L31.858,22.646z M33.001,24.562
		c0-0.53-0.289-0.882-0.675-1.054c0.317-0.193,0.51-0.524,0.51-0.937c0-0.827-0.592-1.275-1.529-1.275h-2.212v4.823h2.191
		C32.319,26.119,33.001,25.575,33.001,24.562L33.001,24.562L33.001,24.562z"/>
	<path d="M30.096,23.044h1.218c0.332,0,0.487-0.126,0.487-0.398c0-0.2-0.064-0.405-0.535-0.405h-1.169V23.044L30.096,23.044z
		 M31.313,23.158h-1.332v-1.03h1.283c0.437,0,0.649,0.17,0.649,0.519C31.915,22.88,31.81,23.158,31.313,23.158L31.313,23.158z
		 M30.096,25.146h1.225c0.413,0,0.632-0.197,0.632-0.57c0-0.384-0.201-0.563-0.632-0.563h-1.225V25.146L30.096,25.146z
		 M31.32,25.259h-1.338v-1.361h1.338c0.495,0,0.746,0.228,0.746,0.677C32.066,25.01,31.794,25.259,31.32,25.259L31.32,25.259z
		 M29.152,26.062h2.134c1.038,0,1.659-0.561,1.659-1.5c0-0.623-0.402-0.895-0.641-1.002l-0.099-0.044l0.093-0.057
		c0.311-0.189,0.482-0.505,0.482-0.888c0-0.774-0.537-1.218-1.472-1.218h-2.155V26.062L29.152,26.062z M31.286,26.176h-2.248v-4.937
		h2.269c0.993,0,1.586,0.498,1.586,1.332c0,0.383-0.164,0.716-0.453,0.929c0.394,0.213,0.619,0.594,0.619,1.061
		C33.058,25.573,32.396,26.176,31.286,26.176L31.286,26.176z"/>
	<g>
		<defs>
			<path id="XMLID_15_" d="M6.017,27.158h37.967c0.027,0.34,0.051,0.36,0.087,0.699c0.559,10.966-6.915,15.584-16.598,15.985
				c-1.442,0.019-3.107,0.01-4.944,0C12.845,43.441,5.371,38.823,5.93,27.857C5.965,27.518,5.99,27.498,6.017,27.158L6.017,27.158
				L6.017,27.158z"/>
		</defs>
		<clipPath id="XMLID_60_">
			<use xlink:href="#XMLID_15_"  style="overflow:visible;"/>
		</clipPath>
		<polygon id="XMLID_22_" style="clip-path:url(#XMLID_60_);fill:#001689;" points="5.759,26.806 11.287,26.806 11.287,45.374 
			5.759,45.374 5.759,26.806 5.759,26.806 		"/>
		<polygon id="XMLID_21_" style="clip-path:url(#XMLID_60_);fill:#8C1D40;" points="11.286,26.806 16.814,26.806 16.814,45.374 
			11.286,45.374 11.286,26.806 11.286,26.806 		"/>
		<polygon id="XMLID_20_" style="clip-path:url(#XMLID_60_);fill:#001689;" points="16.813,26.806 22.342,26.806 22.342,45.374 
			16.813,45.374 16.813,26.806 16.813,26.806 		"/>
		<polygon id="XMLID_19_" style="clip-path:url(#XMLID_60_);fill:#8C1D40;" points="22.341,26.806 27.869,26.806 27.869,45.374 
			22.341,45.374 22.341,26.806 22.341,26.806 		"/>
		<polygon id="XMLID_18_" style="clip-path:url(#XMLID_60_);fill:#001689;" points="27.868,26.806 33.396,26.806 33.396,45.374 
			27.868,45.374 27.868,26.806 27.868,26.806 		"/>
		<polygon id="XMLID_17_" style="clip-path:url(#XMLID_60_);fill:#8C1D40;" points="33.395,26.806 38.924,26.806 38.924,45.374 
			33.395,45.374 33.395,26.806 33.395,26.806 		"/>
		<polygon id="XMLID_16_" style="clip-path:url(#XMLID_60_);fill:#001689;" points="38.923,26.806 44.451,26.806 44.451,45.374 
			38.923,45.374 38.923,26.806 38.923,26.806 		"/>
	</g>
	<path d="M6.159,27.314c-0.011,0.104-0.022,0.172-0.033,0.246c-0.013,0.079-0.026,0.165-0.041,0.313
		c-0.228,4.477,0.887,8.101,3.313,10.763c2.793,3.063,7.335,4.809,13.136,5.05l0.112,0.001c1.789,0.01,3.413,0.018,4.824-0.001
		c5.797-0.241,10.339-1.987,13.132-5.05c2.427-2.662,3.541-6.286,3.313-10.772c-0.015-0.14-0.028-0.226-0.041-0.305
		c-0.012-0.073-0.022-0.142-0.033-0.246H6.159L6.159,27.314z M25.521,44.009c-0.9,0-1.861-0.006-2.876-0.011l-0.117-0.001
		c-5.892-0.244-10.509-2.025-13.359-5.152C6.683,36.12,5.541,32.42,5.774,27.849c0.017-0.164,0.031-0.254,0.044-0.338
		c0.015-0.097,0.029-0.184,0.043-0.365l0.011-0.143h38.255l0.011,0.143c0.014,0.182,0.028,0.269,0.043,0.366
		c0.013,0.083,0.027,0.173,0.043,0.329c0.233,4.58-0.908,8.28-3.393,11.005c-2.85,3.126-7.468,4.908-13.354,5.152
		C26.862,44.006,26.209,44.009,25.521,44.009L25.521,44.009z"/>
	<path id="XMLID_12_" style="fill:#CD9700;" d="M19.789,35.273c0-2.89,2.322-5.232,5.186-5.232c2.864,0,5.186,2.342,5.186,5.232
		c0,2.889-2.322,5.231-5.186,5.231C22.111,40.504,19.789,38.162,19.789,35.273L19.789,35.273L19.789,35.273z"/>
	<path d="M24.975,30.064c-2.847,0-5.163,2.336-5.163,5.209c0,2.872,2.316,5.208,5.163,5.208c2.847,0,5.163-2.336,5.163-5.208
		C30.138,32.401,27.821,30.064,24.975,30.064L24.975,30.064z M24.975,40.527c-2.872,0-5.208-2.357-5.208-5.254
		c0-2.897,2.336-5.254,5.208-5.254c2.872,0,5.208,2.357,5.208,5.254C30.183,38.17,27.847,40.527,24.975,40.527L24.975,40.527z"/>
	<path d="M29.961,35.734c-0.286-1.034-1.312-2.179-2.292-2.726c-1.208-0.675-2.53-1.042-3.111-0.121
		c-0.373,0.591-0.425,1.568,0.421,2.204c1.15-0.795,2.069-0.021,2.334,0.613c0.085,0.204,0.128,0.397,0.136,0.582
		c0.679-0.239,1.783-0.085,2.122,0.974C29.778,36.785,29.912,36.272,29.961,35.734L29.961,35.734L29.961,35.734z M24.827,35.348
		c-1.024-0.747-0.961-1.923-0.521-2.621c0.108-0.171,0.234-0.306,0.374-0.409c-0.595-0.475-0.715-1.398-0.138-2.028
		c-0.862,0.075-1.662,0.368-2.343,0.825c-0.218,0.939-0.496,1.797-0.482,2.778c0.019,1.323,0.566,2.399,1.726,2.547
		C23.984,36.51,24.765,35.934,24.827,35.348L24.827,35.348L24.827,35.348z M24.967,32.156c0.827-0.343,1.974,0.103,2.847,0.591
		c0.825,0.46,1.686,1.321,2.158,2.224c-0.155-2.608-2.308-4.677-4.95-4.699C24.234,30.79,24.342,31.767,24.967,32.156L24.967,32.156
		L24.967,32.156z M21.801,39.136c1.043,0.008,2.647-0.254,3.566-0.803c1.188-0.709,2.111-1.465,1.672-2.514
		c-0.221-0.53-0.958-1.143-1.913-0.467c-0.061,0.783-1.027,1.474-1.721,1.385c-0.352-0.045-0.646-0.156-0.891-0.317
		c-0.39,0.666-1.088,1.044-1.912,1.044c-0.041,0-0.081-0.001-0.121-0.003C20.796,38.11,21.249,38.681,21.801,39.136L21.801,39.136
		L21.801,39.136z M27.425,36.618c-0.164,0.838-1.061,1.466-1.905,1.97c-0.871,0.519-2.274,0.787-3.331,0.836
		c0.797,0.537,1.758,0.851,2.791,0.851c1.886,0,3.529-1.044,4.381-2.586C29.211,36.456,28.038,36.311,27.425,36.618L27.425,36.618
		L27.425,36.618z M22.275,36.235c-0.959-0.873-0.962-2.648-0.704-3.827c0.072-0.328,0.162-0.649,0.255-1.017
		c-1.127,0.917-1.848,2.315-1.848,3.882c0,0.663,0.129,1.296,0.363,1.876c0.085,0.011,0.172,0.017,0.26,0.017
		C21.342,37.166,21.947,36.824,22.275,36.235L22.275,36.235L22.275,36.235z M24.98,29.974c2.927,0,5.3,2.373,5.3,5.3
		c0,2.927-2.373,5.3-5.3,5.3s-5.3-2.373-5.3-5.3C19.68,32.347,22.053,29.974,24.98,29.974L24.98,29.974L24.98,29.974z"/>
</g>
</svg>
