<?xml version="1.0" encoding="utf-8"?>
<!-- Generator: Adobe Illustrator 19.1.0, SVG Export Plug-In . SVG Version: 6.00 Build 0)  -->
<svg version="1.1" id="Ebene_1" xmlns="http://www.w3.org/2000/svg" xmlns:xlink="http://www.w3.org/1999/xlink" x="0px" y="0px"
	 viewBox="15 -27 170 85" style="enable-background:new 15 -27 170 85;" xml:space="preserve">
<style type="text/css">
	.st0{fill:#FFFFFF;}
	.st1{fill:none;}
</style>
<g>
	<g>
		<path class="st0" d="M44.5-10.1h13.9c0,0,0,30.2,0,36.5s-2.7,19.4-22,19.4S15.1,33.5,15.1,26.6v-6.7h13.5c0,0,0,2.5,0,6.6
			c0,4,2.7,7.8,7.8,7.8s8.2-2.8,8.2-7.6C44.5,21.8,44.5-10.1,44.5-10.1L44.5-10.1z"/>
		<path class="st0" d="M183.2,50.7c-0.6-0.6-1.3-0.9-2.1-0.9c-1.7,0-3,1.4-3,3c0,0.8,0.3,1.6,0.9,2.1c0.6,0.6,1.3,0.9,2.1,0.9
			s1.6-0.3,2.1-0.9c0.6-0.6,0.9-1.3,0.9-2.1C184.1,52.1,183.8,51.3,183.2,50.7z M181.1,55.5c-0.7,0-1.3-0.3-1.8-0.8
			s-0.8-1.1-0.8-1.8c0-0.7,0.3-1.3,0.8-1.8s1.1-0.8,1.8-0.8s1.3,0.3,1.8,0.8s0.8,1.1,0.8,1.8C183.6,54.3,182.5,55.5,181.1,55.5z"/>
		<path class="st0" d="M182.3,53.4c0-0.4,0-0.5-0.4-0.6c0.3-0.2,0.4-0.3,0.4-0.6c0-0.6-0.5-0.6-1-0.6H180v2.5h0.4V53h1
			c0.6,0,0.5,0.5,0.5,0.8c0,0.1,0,0.2,0.1,0.3h0.5V54C182.4,53.8,182.3,53.7,182.3,53.4z M181.4,52.6h-1v-0.8h1
			c0.2,0,0.6,0.1,0.6,0.5C181.9,52.6,181.7,52.6,181.4,52.6z"/>
		<path class="st0" d="M81.6,37.2c-4.5,0-7-2.6-7-8.7h25.9c0-19.3-9.6-23.4-20.5-23.4c-12.7,0-18.4,11.7-18.4,21.7
			S68,46.5,81.1,46.5c11.5,0.1,19.1-7.4,19.1-12.9H87.5C87.5,33.6,86,37.2,81.6,37.2z M80.8,13.5c4.8,0,6.9,3.6,6.9,7.3H74.5
			C74.5,16.7,76.2,13.5,80.8,13.5z"/>
		<path class="st0" d="M123.1,37.2c-4.5,0-7-2.6-7-8.7H142c0-19.3-9.6-23.4-20.5-23.4c-12.7,0-18.4,11.7-18.4,21.7
			s6.4,19.7,19.6,19.7c11.5,0.1,19.1-7.3,19.1-12.8h-12.7C129.1,33.6,127.6,37.2,123.1,37.2z M122.3,13.5c4.8,0,6.9,3.6,6.9,7.3H116
			C116,16.7,117.7,13.5,122.3,13.5z"/>
		<path class="st0" d="M168.6,5.5c-6.4,0-9.6,3.6-9.7,4c-0.1,0.4-1.8,2.2-1.8-0.9c0-1.3,0-2.1,0-2.1h-12.8V58h13c0,0,0-13.1,0-14.2
			c0-1.1,1.1-0.9,1.8,0c0.7,0.9,4,3.1,9.7,3.1c10.3,0,16.3-9,16.3-21.2C185.1,10,175.1,5.5,168.6,5.5z M164.8,38
			c-6.3,0-7.9-4-7.8-11.7s3.1-10.8,7.2-10.8c6.6,0,7.8,5.1,7.8,10.3C171.9,31.1,171,38,164.8,38z"/>
	</g>
	<rect x="15" y="-27" class="st1" width="170" height="85"/>
</g>
</svg>
