<?xml version="1.0" encoding="utf-8"?>
<!-- Generator: Adobe Illustrator 21.1.0, SVG Export Plug-In . SVG Version: 6.00 Build 0)  -->
<svg version="1.1" id="Layer_1" xmlns="http://www.w3.org/2000/svg" xmlns:xlink="http://www.w3.org/1999/xlink" x="0px" y="0px"
	 viewBox="0 0 236.1 365.7" style="enable-background:new 0 0 236.1 365.7;" xml:space="preserve">
<style type="text/css">
	.st0{fill:none;}
</style>
<path d="M8053.7,8265.6v-6.5h15.1v-71c0-12.4-1.8-24.9-15.4-24.9c-17.9,0-26.9,19.9-26.9,40.9v54.9h15.4v6.5h-51.2v-6.5h16.1v-98.1
	h-16.1v-6.4h35.8v21.5h0.4c5.9-15.4,17.4-24,33.2-24c18.8,0,28.3,9.3,28.3,31.9v75.1h16.1v6.5H8053.7z M7327.5,8265.6v-6.5h-16.7
	v-148.6h16.7v-6.5h-54v6.5h16.7v148.6h-16.7v6.5H7327.5z M7449,8265.6v-6.5h-16.1V8184c0-22.6-9.5-31.9-28.3-31.9
	c-15.8,0-27.4,8.6-33.2,24h-0.5v-21.5h-37v6.5h17.3v98h-17.3v6.5h52.4v-6.5h-15.4v-54.9c0-21,9-40.9,26.9-40.9
	c13.6,0,15.4,12.4,15.4,24.9v71h-15.1v6.5H7449z M7486.2,8267c16.5,0,21.8-9.9,25.6-19.7l-6.6-2.6c-4.1,9.1-7.8,13.3-12.3,13.3
	c-7.7,0-9.3-5.4-9.3-18.8v-78.1h21.3v-6.5h-21.5v-29.8h-19.4v29.8h-15.6v6.5h15.6v78.1C7463.9,8253.6,7466.1,8267,7486.2,8267
	 M7603.8,8203.2c0-30.3-15.2-50.9-41.4-50.9c-28,0-44.8,27.4-44.8,57.9c0,31.9,12.7,58.1,42.8,58.1c21.5,0,32-7.9,40.4-34.1
	l-6.8-2.2c-5.2,15.4-12.7,27.8-29.2,27.8c-23.3,0-25.2-20.9-25.2-52.5v-4.1H7603.8z M7580.7,8196h-41.2c0-14,5-35.9,20.8-35.9
	C7579,8160.1,7580.7,8179.7,7580.7,8196z M7683.5,8186.5c6.8,0,9.9-6.5,9.9-14c0-13.1-7-20.3-18.3-20.3c-14.7,0-22.4,14-26.4,27.1
	h-0.5v-24.6h-35.8v6.5h16.1v98h-16.1v6.5h51.9v-6.5h-16.1v-47.6c0-24.4,10.9-48.3,21.5-48.3c2.7,0,4.7,2.3,4.7,5.5v8.5
	C7674.5,8184.2,7678.3,8186.5,7683.5,8186.5 M7754.6,8268.3c26.5,0,40.7-27.4,40.7-58.1c0-41.6-19-58.1-39.3-58.1
	c-12.9,0-22.1,5-28,19.2h-0.2V8104h-36.4v6.5h16.7v148.6h-16.7v6.5h36.4v-16.1h0.4C7732.5,8261.3,7742.6,8268.3,7754.6,8268.3
	 M7773.6,8210.2c0,32.3-8.4,49.9-24,49.9c-19.2,0-22.6-26.2-22.6-45.9V8202c0-33.5,14-41.7,22.6-41.7
	C7767.8,8160.3,7773.6,8181.3,7773.6,8210.2z M7983.8,8265.6v-6.5c-5,0-9.6,0.8-11.9-3c-1.3-2.2-1.9-5.9-1.9-12.2v-59
	c0-18.8-6.6-32.8-36.4-32.8c-15.4,0-37.1,5-37.1,26.7c0,6.8,3.8,8.4,8.8,8.4c6.1,0,9.5-3.3,9.5-11.5c0-14.2,9-16.7,18.8-16.7
	c12.7,0,16.7,9.3,16.7,24.9v8c-24.2,8.8-59.2,10.2-59.2,44.2c0,20.6,7,32.3,26.9,32.3c12.7,0,23.7-3.2,31.2-16.8h0.2
	c3.2,13.2,10.5,14.1,21,14.1H7983.8z M7950.4,8223.5c0,15.4-7.5,36.2-24.2,36.2c-10.4,0-13.1-10.6-13.1-24.4
	c0-22.2,8.6-27.3,20.1-30.8l17.2-5.2V8223.5z M8212.5,8265.6v-6.5h-15.8v-155.1h-38.9v6.5h19.2v58.8h-0.5
	c-5.9-14-15.1-17.2-27.8-17.2c-20.4,0-39.8,16.5-39.8,58.1c0,34.4,13.1,58.1,39.8,58.1c11.7,0,23.5-6.3,27.8-18.1h0.5v15.4H8212.5z
	 M8177.4,8216.1c0,19.7-4.1,44.1-23.5,44.1c-16.5,0-23.1-17.6-23.1-49.9c0-28.9,5.9-49.9,24-49.9c8.1,0,22.6,11.3,22.6,44.7V8216.1z
	 M7875,8186.5c6.8,0,9.9-6.5,9.9-14c0-13.1-7-20.3-18.3-20.3c-14.7,0-22.4,14-26.4,27.1h-0.5v-24.6h-35.8v6.5h16.1v98h-16.1v6.5h52
	v-6.5h-16.1v-47.6c0-24.4,10.9-48.3,21.5-48.3c2.7,0,4.7,2.3,4.7,5.5v8.5C7866,8184.2,7869.8,8186.5,7875,8186.5"/>
<g>
	<path d="M157,214.3c0,50.7-21.5,63.4-64.9,84.9c5.6,3.7,13.1,8.2,25.9,14.2c33.5-15.9,65.8-36.6,65.8-92V104.6H157V214.3z
		 M131.6,104.6H52.2v23.2h52.6v74.4c0,33.9-2.1,37.1-46.2,57.1c3.1,7.7,7.5,15.4,13.3,22.3c49.9-22.3,59.6-33.7,59.6-72.2V104.6z
		 M62.6,52v20.6c0,5.3-3.1,8.9-9.5,8.9h-0.9v-4.4h0.8c3,0,4.7-1.6,4.7-4.6V56.3h-4.6V52H62.6z M71.6,77.2h4.5V52H81v24.8
		c0,3.1-1.6,4.7-4.9,4.7h-4.5c-3.2,0-4.9-1.6-4.9-4.7V52h4.9V77.2z M94.5,70V52h4.9v18.1c0,8.2-4.3,11.2-11.9,11.2H85V52h4.9v24.6
		h0.3C93.3,76.6,94.5,73.7,94.5,70z M108.2,56.5v7.8h5.7l-0.8,4.2h-4.8v8.4h7.2l-0.8,4.5h-11.2V52h10.9l0.8,4.5H108.2z M127.9,52
		h4.7v29.4h-4.7v-10l-4.6-10.2H123v20.2h-4.7V52h4.6l4.6,11h0.3V52z M149.4,56.4h-4.7v24.9h-4.9V56.4h-4.7l0.8-4.4h12.6L149.4,56.4z
		 M156.9,77.2h4.5V52h4.9v24.8c0,3.1-1.6,4.7-4.9,4.7h-4.5c-3.2,0-4.9-1.6-4.9-4.7V52h4.9V77.2z M169.9,71.7h4.8v5.9h4.4v-4.1
		c0-2-0.5-2.9-2-3.8l-4.6-2.9c-1.7-1.1-2.5-3-2.5-4.6v-5.4c0-3.1,2-4.7,4.5-4.7h4.5c3.2,0,4.5,1.6,4.5,4.7v3.7l-4.7,1.3v-5.8h-4.2
		v4.5c0,1.5,0.5,2.4,1.9,3.3l4.4,2.7c1.9,1.1,2.9,2.9,2.9,5.2v5.7c0,3.1-2,4.3-4.6,4.3h-4.5c-3.2,0-4.9-1.3-4.9-4.4V71.7z"/>
	<rect x="0" class="st0" width="236.1" height="365.7"/>
</g>
</svg>
