<?xml version="1.0" encoding="utf-8"?>
<!-- Generator: Adobe Illustrator 18.1.1, SVG Export Plug-In . SVG Version: 6.00 Build 0)  -->
<!DOCTYPE svg PUBLIC "-//W3C//DTD SVG 1.1//EN" "http://www.w3.org/Graphics/SVG/1.1/DTD/svg11.dtd">
<svg version="1.1" id="Ebene_1" xmlns="http://www.w3.org/2000/svg" xmlns:xlink="http://www.w3.org/1999/xlink" x="0px" y="0px"
	 width="100px" height="100px" viewBox="-233 200.2 100 100" enable-background="new -233 200.2 100 100" xml:space="preserve">
<path fill="#FFD500" d="M-183,290.4c24.6-10.1,32.9-25,32.9-25c10.2-15.9,7.9-55.3,7.9-55.3s-18.3,7.5-40.9,0
	c-22.6,7.6-40.9,0-40.9,0s-2.2,39.4,7.9,55.3C-215.9,265.4-207.6,280.4-183,290.4"/>
<path fill="#172983" d="M-212.2,214.9c-3.9-0.5-7.1-1.3-9.1-1.8c-0.3-0.1-0.5-0.1-0.7-0.2c0,1.5-0.1,3.7-0.1,6.2
	c0,12.4,1,34.6,7.8,45.2l0.1,0.1c0,0,2.1,3.6,7,8.4c4.5,4.3,12.3,10.4,24.1,15.4c11.9-5,19.7-11.1,24.1-15.4c4.9-4.8,7-8.4,7-8.4
	l0.1-0.1c6.8-10.6,7.8-32.8,7.8-45.2c0-2.6,0-4.7-0.1-6.2c-2.2,0.6-5.5,1.5-9.8,2c-6.8,0.9-17.4,1.1-29.2-2.7
	C-194.8,216-205.3,215.8-212.2,214.9"/>
<path fill="#FFD500" d="M-209.8,219.8c-1.3-0.2-2.6-0.4-3.9-0.7c0,0,0,0.1,0,0.1c0,3.5,0.1,7.7,0.3,12.3c0.8,14,2.9,24.8,6,30.2
	l0.2,0.4l0-0.1c0,0,1.7,3.3,5.9,7.6c3.5,3.7,9.4,8.8,18.3,13.2c8.9-4.4,14.8-9.6,18.3-13.2c4.1-4.3,5.8-7.6,5.9-7.6l0,0.1l0.2-0.4
	c3.1-5.4,5.2-16.1,6-30.2c0.3-4.5,0.3-8.8,0.3-12.3c0,0,0-0.1,0-0.1c-7.2,1.5-18.2,2.4-30.7-1.8
	C-191.7,220.2-200.9,221.1-209.8,219.8"/>
<path fill="#172983" d="M-188.1,271.6c0-0.2,0-0.4-0.1-0.4c-0.1,0-0.5,0.1-0.5,0.1c-0.1,0-0.1-0.1-0.1-0.1c0-0.1,0-0.1,0.3-0.1
	c0.3-0.1,0.6-0.2,0.8-0.3c0.1-0.1,0.2-0.1,0.2-0.1c0.1,0,0.1,0.1,0.1,0.2v2.9c0,0.4,0.1,0.5,0.3,0.5c0.2,0,0.3,0,0.3,0.1
	c0,0.1-0.1,0.1-0.2,0.1c-0.1,0-0.4,0-0.9,0c-0.3,0-0.6,0-0.6,0c-0.1,0-0.1,0-0.1-0.1c0-0.1,0.2-0.1,0.2-0.1c0.3,0,0.4-0.1,0.4-0.5
	V271.6"/>
<path fill="#172983" d="M-185.5,274.7c-0.2,0.1-0.7,0.3-0.8,0.3c-0.1,0-0.1,0-0.1-0.1c0,0,0-0.1,0.1-0.1c0.7-0.3,2-1.2,2-2.6
	c0-0.8-0.4-1.4-0.9-1.4c-0.5,0-0.7,0.6-0.7,1c0,0.7,0.4,1.1,0.8,1.1c0.1,0,0.2,0,0.3-0.1c0,0,0,0,0.1,0c0,0,0.1,0,0.1,0.1
	c0,0.1-0.3,0.3-0.7,0.3c-0.7,0-1.1-0.6-1.1-1.1c0-0.7,0.6-1.3,1.4-1.3c1,0,1.4,0.9,1.4,1.6C-183.5,273.6-184.7,274.3-185.5,274.7"/>
<path fill="#172983" d="M-180.6,274.3c0,0.1,0,0.1-0.1,0.1h-2.3c-0.1,0-0.1,0-0.1-0.1c0-0.1,0.1-0.2,0.6-0.7c1-1.1,1.3-1.4,1.3-2
	c0-0.7-0.6-0.8-0.7-0.8c-0.4,0-0.7,0.2-0.8,0.5c-0.1,0.2-0.1,0.2-0.2,0.2c0,0-0.1,0-0.1-0.1c0-0.1,0.4-0.8,1.3-0.8
	c0.6,0,1.2,0.3,1.2,0.9c0,0.5-0.5,1-0.6,1l-0.9,0.8c-0.2,0.2-0.4,0.4-0.4,0.4c0,0.1,0,0.1,0.2,0.1h1.2c0.3,0,0.3-0.1,0.4-0.3
	c0-0.1,0-0.1,0.1-0.1c0.1,0,0.1,0.1,0.1,0.1L-180.6,274.3"/>
<path fill="#172983" d="M-179.1,274.7c-0.2,0.1-0.7,0.3-0.8,0.3c-0.1,0-0.1,0-0.1-0.1c0,0,0-0.1,0.1-0.1c0.7-0.3,2-1.2,2-2.6
	c0-0.8-0.4-1.4-0.9-1.4c-0.5,0-0.7,0.6-0.7,1c0,0.7,0.4,1.1,0.8,1.1c0.1,0,0.2,0,0.3-0.1c0,0,0,0,0.1,0c0,0,0.1,0,0.1,0.1
	c0,0.1-0.3,0.3-0.7,0.3c-0.7,0-1.1-0.6-1.1-1.1c0-0.7,0.6-1.3,1.4-1.3c1,0,1.4,0.9,1.4,1.6C-177.2,273.6-178.4,274.3-179.1,274.7"/>
<path fill="#172983" d="M-205.1,229.9l-0.2-0.2l-0.2,0c-0.3,0.5-0.8,0.9-1.2,1.1v-6.9c0,0,0.1,0,0.1-0.1c0.1-0.1,0.1-0.1,0.3-0.3
	l0.8-0.8l0-0.1l-0.2-0.3l-0.2,0l-0.4,0.4c-0.2,0.1-0.3,0.2-0.4,0.2c-0.2,0-0.4-0.2-0.6-0.7l-0.2,0l-3.1,3.5l0,0.2l0.2,0.2l0.2,0
	l0.6-0.7v4.1l-0.3,0.4l0,0.2l0.2,0.2l0.2,0l1.1-1.2l0-0.1v-4.9l0.3-0.3c0.2,0.2,0.5,0.3,0.8,0.4v7.1c-0.1,0-0.2,0-0.4,0
	c-1.9,0-3-1.5-3-4.1c0-1.2,0.3-2.4,0.8-3.2c0.2-0.4,0.5-0.7,0.9-1.3l0-0.1l-0.2-0.3l-0.2,0c-0.7,0.7-1.1,1.2-1.6,1.9
	c-0.7,1-1.1,2.3-1.1,3.6c0,1.4,0.4,2.6,1,3.4c0.6,0.8,1.5,1.3,2.6,1.3c0,0,0,0,0,0c1.3,0,2.5-0.8,3.2-2.2L-205.1,229.9z"/>
<path fill="#172983" d="M-201.4,230.9v-3.3l0.7-0.6l0-0.2l-0.2-0.2l-0.2,0l-0.3,0.3l-0.6-0.7l-0.2,0l-1.5,1.4v-3.3
	c0-0.8,0-0.9,0.4-1.5l0-0.2l-0.2-0.2l-0.2,0c-0.3,0.3-0.5,0.6-0.7,1c0-0.2-0.1-0.3-0.1-0.5l-0.1-0.1l-0.3,0.1l-0.1,0.1
	c0.1,0.7,0.1,0.7,0.1,1.1v6.5l-0.7,0.7l0,0.2l0.2,0.3l0.2,0l0.3-0.3l0.7,0.7l0.2,0l1.1-1l0-0.2l-0.2-0.3l-0.2,0l-0.2,0.2l-0.2-0.2
	v-2.3l0.9-0.9l0.2,0.2l0,3.5c0,0,0,0.8,0.5,1l0.1,0l0.9-0.9l0-0.2C-201.2,231-201.2,230.9-201.4,230.9z"/>
<polygon fill="#172983" points="-200.3,225.1 -200.1,224.9 -199.4,225.6 -199.3,225.6 -198.3,224.6 -198.2,224.4 -198.4,224.2 
	-198.6,224.2 -198.8,224.3 -199.4,223.7 -199.6,223.7 -200.7,224.7 -200.7,224.8 -200.5,225.1 "/>
<path fill="#172983" d="M-198.3,230.5l-0.3,0.3c-0.1-0.2-0.2-0.3-0.2-0.8v-2.4l0.6-0.6l0-0.2l-0.2-0.3l-0.2,0l-0.3,0.3l-0.7-0.7
	l-0.2,0l-1.2,1.2l0,0.2l0.2,0.3l0.2,0l0.3-0.3l0.2,0.2v2.7c0,0.8,0.2,1.3,0.6,1.7l0.2,0l1.2-1.1l0-0.2l-0.2-0.3L-198.3,230.5z"/>
<path fill="#172983" d="M-195.2,226.2c-0.8,0.7-1.2,0.9-2.2,0.9h-0.2l-0.1,0.1v0.3l0.1,0.1c0.1,0,0.2,0,0.3,0c0.1,0,0.1,0,0.2,0v2.9
	l-0.6,0.6l0,0.1l0.2,0.3l0.2,0l0.2-0.3l1,0.7l0.1,0l1.9-1.4l0-0.2l-0.2-0.3l-0.2,0l-1.1,0.8l-0.5-0.3V230l2.3-1.7l0-0.2l-1.4-1.9
	L-195.2,226.2z M-196,229.3v-1.8c0.1,0,0.1-0.1,0.2-0.1l0.8,1.1L-196,229.3z"/>
<path fill="#172983" d="M-189.3,226.6l-0.4,0.4l-0.7-0.8l-0.2,0l-1.1,1.1l0,0.2l0.2,0.2l0.2,0l0.2-0.2l0.3,0.3v2.9
	c-0.4,0.1-0.5,0.2-0.7,0.3l-0.5-0.4l0-3.9l-0.1-0.1c-0.2,0-0.3,0-0.4,0c-0.4-0.1-0.6-0.3-0.6-0.6c0-0.2,0.1-0.4,0.5-0.6l0.1-0.1
	l-0.1-0.3l-0.1-0.1c-0.7,0.2-1.1,0.9-1.1,1.6c0,0.6,0.3,1,0.7,1.3v2.9l-0.6,0.6l0,0.2l0.2,0.3l0.2,0l0.3-0.3l0.9,0.8l0.2,0
	c0.6-0.7,1.3-0.9,2.3-0.9h0.3l0.1-0.1v-0.3l-0.1-0.1c-0.1,0-0.2,0-0.2,0c0,0,0,0,0,0v-2.9l0.6-0.6l0-0.2l-0.2-0.2L-189.3,226.6z"/>
<path fill="#172983" d="M-184.5,226.6l-0.3,0.3l-0.8-0.7l-0.2,0c-0.7,0.7-1.3,0.9-2.3,0.9h-0.3l-0.1,0.1v0.3l0.1,0.1h0.2v2.9
	l-0.6,0.6l0,0.2l0.2,0.3l0.2,0l0.3-0.3l0.9,0.7l0.1,0c0.9-0.8,1.3-0.9,2.4-0.9h0.1l0.1-0.1v-0.3l-0.1-0.1h-0.2v-3l0.6-0.6l0-0.2
	l-0.2-0.2L-184.5,226.6z M-185.8,227.7v3c-0.3,0.1-0.4,0.1-0.6,0.2l-0.6-0.5v-2.9c0.3-0.1,0.5-0.1,0.7-0.3L-185.8,227.7z"/>
<path fill="#172983" d="M-176.5,222.9l-0.4,0.3l-1-1.1l-0.2,0l-1.8,1.4l0-1.2l-0.1-0.1h-0.3l-0.1,0.1v1.6l-0.4,0.3
	c0-0.4-0.1-0.7-0.2-1c-0.2-0.7-0.8-1.2-1.3-1.2c-0.5,0-0.8,0.3-1.1,0.7c-0.3,0.5-0.5,1.1-0.6,1.9l0.1,0.1l0.3,0.1l0.1-0.1
	c0.1-0.7,0.5-1.2,0.9-1.2c0.1,0,0.3,0.1,0.4,0.2c0.1,0.2,0.2,0.3,0.2,0.8v1.7c-0.2,0-0.4,0-0.6,0.1c-0.4,0.2-0.6,0.6-0.7,1.2
	c0,0.3,0,0.6,0.2,1l0.2,0.1l0.3-0.1l0.1-0.1c0-0.1-0.1-0.2-0.1-0.3c0-0.2,0.1-0.3,0.1-0.4c0.1-0.1,0.2-0.1,0.3-0.1
	c0.1,0,0.1,0,0.2,0.1v2.9c-1.2,0.4-2.1,1.4-2.1,2.6c0,1.3,0.8,2.2,2,2.3l0.1-0.1v-0.3l-0.1-0.1c-0.7,0-1.4-0.8-1.4-1.6
	c0-0.8,0.7-1.5,1.7-1.5c0.5,0,1.1,0.2,1.5,0.6l0.2,0c0.7-0.8,1.7-1.2,2.8-1.2c0.2,0,0.4,0,0.6,0.1l0.1-0.1l0.1-0.4l-0.1-0.1
	c-0.2-0.1-0.3-0.1-0.5-0.1V224l0.8-0.7l0-0.1l-0.2-0.3L-176.5,222.9z M-180.4,224.6v5.8c-0.1,0-0.2-0.1-0.4-0.1v-5.4L-180.4,224.6z
	 M-179.8,226c0.3,0.1,0.5,0.2,0.8,0.2c0.3,0,0.5,0,0.8-0.2v2.2c-0.4-0.1-0.6-0.2-0.9-0.2c-0.3,0-0.5,0-0.8,0.2V226z M-178.7,223.3
	l0.5,0.6v1.5c-0.3,0.1-0.6,0.2-0.8,0.2c-0.4,0-0.6-0.1-0.8-0.2v-1.2L-178.7,223.3z M-179.8,228.8c0.3-0.2,0.5-0.2,0.8-0.2
	c0.3,0,0.5,0,0.8,0.2v1.7c-0.5,0.1-0.8,0.2-1.2,0.5c-0.2-0.1-0.3-0.2-0.5-0.3V228.8z"/>
<path fill="#172983" d="M-172.7,230.2l-1.1,0.8l-0.5-0.3V230l2.3-1.7l0-0.2l-1.4-1.9l-0.2,0c-0.8,0.7-1.2,0.9-2.2,0.9h-0.2l-0.1,0.1
	v0.3l0.1,0.1c0.1,0,0.2,0,0.3,0c0.1,0,0.1,0,0.2,0v2.9l-0.6,0.6l0,0.1l0.2,0.3l0.2,0l0.2-0.3l1,0.7l0.1,0l1.9-1.4l0-0.2l-0.2-0.3
	L-172.7,230.2z M-174.3,229.3v-1.8c0.1,0,0.1-0.1,0.2-0.1l0.8,1.1L-174.3,229.3z"/>
<path fill="#172983" d="M-168.3,227l-0.3-0.2l-0.2,0l-0.1,0.2c0,0-0.1,0.1-0.1,0.1c0,0,0,0,0,0c0,0,0,0-0.1-0.1
	c-0.1-0.1-0.2-0.2-0.3-0.5l-0.1-0.2l-0.1-0.2l-0.2,0l-0.6,0.9c-0.1-0.3-0.2-0.5-0.5-0.9l-0.2,0l-1.2,1.2l0,0.2l0.2,0.3l0.2,0
	l0.3-0.3c0.1,0.2,0.2,0.4,0.2,0.9v2.2l-0.6,0.6l0,0.2l0.2,0.3l0.2,0l0.3-0.3l0.9,0.7l0.1,0l1.3-1l0-0.1l-0.2-0.3l-0.2,0l-0.5,0.4
	l-0.5-0.4V228l0.2-0.3c0.3,0.3,0.5,0.5,0.8,0.5c0.2,0,0.5-0.1,0.6-0.4l0.5-0.7L-168.3,227z"/>
<path fill="#172983" d="M-164.1,226.6l-0.3,0.3l-0.8-0.7l-0.2,0c-0.7,0.7-1.3,0.9-2.3,0.9h-0.3l-0.1,0.1v0.3l0.1,0.1h0.2v2.9
	l-0.6,0.6l0,0.2l0.2,0.3l0.2,0l0.3-0.3l0.9,0.7l0.1,0c0.9-0.8,1.3-0.9,2.4-0.9h0.1l0.1-0.1v-0.3l-0.1-0.1h-0.2v-3l0.6-0.6l0-0.2
	l-0.2-0.2L-164.1,226.6z M-165.5,227.7v3c-0.3,0.1-0.4,0.1-0.6,0.2l-0.6-0.5v-2.9c0.3-0.1,0.5-0.1,0.7-0.3L-165.5,227.7z"/>
<path fill="#172983" d="M-158.9,230.5l-0.3,0.3c-0.1-0.2-0.1-0.4-0.1-0.8v-2.4l0.6-0.6l0-0.2l-0.2-0.3l-0.2,0l-0.3,0.3l-0.6-0.7
	l-0.2,0l-1.5,1.4c0-0.7-0.2-1.1-0.5-1.4l-0.2,0l-1.2,1.1l0,0.2l0.2,0.3l0.2,0l0.3-0.3c0.1,0.2,0.1,0.5,0.1,0.8v2.3l-0.7,0.6l0,0.2
	l0.2,0.3l0.2,0l0.4-0.3l0.7,0.7l0.2,0l1.1-1l0-0.2l-0.2-0.3l-0.2,0l-0.3,0.2l-0.2-0.2v-2.3l1-1l0.2,0.2l0,2.7c0,0.8,0.2,1.3,0.6,1.7
	l0.2,0l1.2-1.1l0-0.2l-0.2-0.3L-158.9,230.5z"/>
<path fill="#172983" d="M-154.2,230.5l-0.2,0l-0.3,0.2c-0.1-0.2-0.2-0.5-0.2-0.8v-2.3l0.6-0.6l0-0.2l-0.2-0.3l-0.2,0l-0.4,0.3
	l-0.7-0.7l-0.2,0c-0.3,0.5-0.7,0.9-1.2,1.1c0.1-0.1,0.1-0.3,0.1-0.4c0-0.4-0.3-0.7-0.7-0.7c-0.4,0-0.7,0.3-0.7,0.7
	c0,0.3,0.1,0.5,0.4,0.9l0.6,0.7l-0.5,0.5c-0.6,0.7-0.9,1.1-0.9,1.6c0,0.7,0.4,1.2,1.2,1.4l0.1,0l1.2-1.2c0.1,0.5,0.2,0.8,0.5,1.2
	l0.2,0l1.2-1.1l0-0.1L-154.2,230.5z M-156.8,229l0.3,0.3l0.2,0l0.2-0.2l0-0.2l-0.8-1c0.3-0.1,0.5-0.2,0.8-0.4l0.2,0.2v2.4l-0.8,0.8
	c-0.4-0.1-0.8-0.5-0.8-0.8c0-0.2,0.2-0.5,0.5-0.8L-156.8,229z"/>
<path fill="#006AB2" d="M-206.7,231.1l-0.2-0.1v-7.2l0.1-0.1c0.1,0,0.1,0,0.1-0.1c0,0,0.1-0.1,0.3-0.3l0.7-0.8l-0.1-0.1l-0.3,0.3
	c-0.2,0.2-0.3,0.2-0.5,0.2c-0.3,0-0.5-0.3-0.7-0.7l-3,3.3l0.1,0.1l0.7-0.8l0.2,0.1v4.4l0,0.1l-0.3,0.3l0.1,0.1l1-1.1v-4.9l0-0.1
	l0.4-0.4l0.2,0c0.3,0.3,0.4,0.3,0.8,0.4l0.1,0.1v7.3l-0.1,0.1c-0.2,0-0.3,0-0.5,0c-1,0-1.8-0.4-2.4-1.2c-0.6-0.7-0.9-1.8-0.9-3.1
	c0-1.2,0.3-2.4,0.8-3.3c0.2-0.4,0.5-0.7,0.9-1.2l-0.1-0.1c-0.6,0.7-1.1,1.1-1.5,1.7c-0.7,0.9-1,2.2-1,3.4c0,2.7,1.4,4.5,3.4,4.5
	c1.2,0,2.3-0.7,3-2l-0.1,0C-205.7,230.5-206.3,230.9-206.7,231.1z"/>
<path fill="#006AB2" d="M-201.6,231v-3.4l0-0.1l0.6-0.6l-0.1-0.1l-0.3,0.3l-0.2,0l-0.6-0.7l-1.6,1.5l-0.2-0.1v-3.6
	c0-0.8,0.1-1,0.4-1.5l0,0c-0.4,0.4-0.6,0.7-0.7,1.2l-0.2,0c0-0.4-0.1-0.5-0.1-0.8l-0.1,0c0.1,0.6,0.1,0.6,0.1,1v6.5l0,0.1l-0.6,0.6
	l0.1,0.1l0.3-0.3l0.2,0l0.7,0.7l0.9-0.9l-0.1-0.1l-0.2,0.2l-0.2,0l-0.3-0.3l0-0.1v-2.3l0-0.1l1.1-1l0.2,0l0.3,0.3l0,0.1l0,3.5
	c0,0,0,0.2,0.1,0.4c0,0.2,0.1,0.3,0.2,0.4l0.7-0.7c-0.1,0-0.1-0.1-0.3-0.1L-201.6,231z"/>
<path fill="#006AB2" d="M-198.5,231l-0.2,0c-0.3-0.2-0.3-0.5-0.3-1v-2.4l0-0.1l0.6-0.6l-0.1-0.1l-0.3,0.3l-0.2,0l-0.7-0.7l-1,1
	l0.1,0.1l0.3-0.3l0.2,0l0.3,0.4l0,0.1v2.8c0,0.7,0.2,1.1,0.5,1.4l1-1l-0.1-0.1L-198.5,231z"/>
<polygon fill="#006AB2" points="-200.2,224.7 -200,224.7 -199.4,225.4 -198.5,224.5 -198.5,224.4 -198.7,224.6 -198.9,224.6 
	-199.5,223.9 -200.4,224.8 -200.4,224.8 "/>
<path fill="#006AB2" d="M-197.4,227.3L-197.4,227.3l-0.1,0.1c0.1,0,0.1,0,0.2,0c0.1,0,0.1,0,0.3,0l0.1,0.1v3.1l0,0.1l-0.6,0.6
	l0.1,0.1l0.2-0.2l0.1,0l1,0.7l1.8-1.3l-0.1-0.1l-1.1,0.8l-0.1,0l-0.6-0.4l-0.1-0.1v-0.8l0-0.1l2.2-1.6l-1.2-1.7
	C-195.9,227.1-196.5,227.3-197.4,227.3z M-194.7,228.6l-1.3,1l-0.2-0.1v-2.1l0.1-0.1c0.2-0.1,0.2-0.1,0.4-0.1l0.1,0l0.9,1.3
	L-194.7,228.6z"/>
<path fill="#006AB2" d="M-189.5,227.2l-0.2,0l-0.7-0.8l-0.9,0.9l0.1,0.1l0.2-0.2l0.2,0l0.4,0.5l0,0.1v3l-0.1,0.1
	c-0.5,0.1-0.5,0.2-0.8,0.3l-0.1,0l-0.6-0.5l0-0.1v-3.9c-0.1,0-0.2,0-0.3,0c-0.5-0.1-0.8-0.4-0.8-0.8c0-0.3,0.2-0.6,0.5-0.7l0-0.1
	c-0.5,0.2-0.8,0.7-0.8,1.4c0,0.5,0.2,0.8,0.7,1.1l0.1,0.1v3.1l0,0.1l-0.6,0.6l0.1,0.1l0.3-0.3l0.2,0l0.9,0.8
	c0.6-0.7,1.4-0.9,2.4-0.9h0.2v-0.1c0,0-0.1,0-0.1,0c0,0-0.1,0-0.1,0l-0.1-0.1v-3.1l0-0.1l0.6-0.6l-0.1-0.1L-189.5,227.2z"/>
<path fill="#006AB2" d="M-184.7,227.1l-0.2,0l-0.8-0.7c-0.7,0.7-1.4,0.9-2.4,0.9h-0.2v0.1h0.2l0.1,0.1v3.1l0,0.1l-0.6,0.5l0.1,0.1
	l0.3-0.3l0.2,0l0.9,0.7c0.9-0.7,1.4-0.9,2.5-0.9h0v-0.1h-0.2l-0.1-0.1v-3.2l0-0.1l0.6-0.6l-0.1-0.1L-184.7,227.1z M-185.6,230.8
	l-0.1,0.1c-0.3,0.1-0.4,0.1-0.7,0.3l-0.1,0l-0.7-0.6l0-0.1v-3l0.1-0.1c0.4-0.1,0.5-0.1,0.8-0.3l0.1,0l0.6,0.4l0,0.1V230.8z"/>
<path fill="#006AB2" d="M-176.8,223.4l-0.2,0l-1-1.1l-1.9,1.5l-0.2-0.1v-1.3h-0.1v1.5l0,0.1l-0.6,0.5l-0.2-0.1c0-0.6,0-0.9-0.1-1.2
	c-0.2-0.6-0.7-1-1.1-1c-0.4,0-0.7,0.2-0.9,0.6c-0.3,0.4-0.4,1-0.5,1.7l0.1,0c0.1-0.7,0.5-1.2,1.1-1.2c0.2,0,0.4,0.1,0.6,0.3
	c0.2,0.2,0.3,0.5,0.3,0.9v1.8l-0.1,0.1c-0.3,0-0.4,0-0.6,0.1c-0.3,0.1-0.5,0.5-0.5,1c0,0.3,0,0.5,0.1,0.8l0.1,0c0-0.1,0-0.2,0-0.3
	c0-0.4,0.2-0.8,0.6-0.8c0,0,0,0,0,0c0.2,0,0.3,0.1,0.4,0.2l0,0.1v3l-0.1,0.1c-1.2,0.3-2,1.3-2,2.4c0,1.1,0.7,1.9,1.7,2.1V235
	c-0.8-0.1-1.5-0.9-1.5-1.8c0-1,0.8-1.7,1.9-1.7c0.6,0,1.1,0.2,1.6,0.6c0.7-0.8,1.8-1.2,2.9-1.2c0.2,0,0.4,0,0.6,0.1l0-0.1
	c-0.2,0-0.2,0-0.4-0.1l-0.1-0.1v-6.6l0-0.1l0.8-0.6l-0.1-0.1L-176.8,223.4z M-180.1,230.6l-0.2,0.1c-0.2-0.1-0.3-0.1-0.6-0.2
	l-0.1-0.1v-5.6l0-0.1l0.6-0.5l0.2,0.1V230.6z M-178,230.6l-0.1,0.1c-0.6,0.1-0.8,0.2-1.2,0.5l-0.1,0c-0.3-0.2-0.3-0.2-0.6-0.4
	l-0.1-0.1v-2l0.1-0.1c0.4-0.2,0.6-0.3,1-0.3c0.3,0,0.6,0.1,1,0.3l0.1,0.1L-178,230.6L-178,230.6z M-178,228.4l-0.2,0.1
	c-0.4-0.1-0.7-0.2-0.9-0.2c-0.3,0-0.5,0.1-0.9,0.2l-0.2-0.1v-2.5l0.2-0.1c0.3,0.1,0.6,0.2,0.9,0.2c0.3,0,0.5-0.1,0.9-0.2l0.2,0.1
	V228.4z M-178,225.5l-0.1,0.1c-0.4,0.2-0.7,0.3-1,0.3c0,0,0,0,0,0c-0.4,0-0.7-0.1-1-0.3l-0.1-0.1v-1.4l0-0.1l1.3-1l0.2,0l0.6,0.7
	l0,0.1L-178,225.5L-178,225.5z"/>
<path fill="#006AB2" d="M-173.8,231.2l-0.1,0l-0.6-0.4l-0.1-0.1v-0.8l0-0.1l2.2-1.6l-1.2-1.7c-0.7,0.7-1.3,0.9-2.2,0.9h-0.1v0.1
	c0.1,0,0.1,0,0.2,0c0.1,0,0.1,0,0.3,0l0.1,0.1v3.1l0,0.1l-0.6,0.6l0.1,0.1l0.2-0.2l0.1,0l1,0.7l1.8-1.3l-0.1-0.1L-173.8,231.2z
	 M-174.6,227.4l0.1-0.1c0.2-0.1,0.2-0.1,0.4-0.1l0.1,0l0.9,1.3l0,0.2l-1.3,1l-0.2-0.1V227.4L-174.6,227.4z"/>
<path fill="#006AB2" d="M-169,227.3c-0.1,0-0.2-0.1-0.3-0.2c-0.1-0.1-0.2-0.2-0.4-0.5l-0.1-0.2l0,0l0,0l-0.7,1l-0.2,0
	c-0.1-0.4-0.1-0.5-0.4-1l-1.1,1l0.1,0.1l0.3-0.3l0.2,0c0.2,0.3,0.3,0.6,0.3,1.1v2.3l0,0.1l-0.6,0.6l0.1,0.1l0.3-0.3l0.2,0l0.9,0.8
	l1.2-0.9l-0.1-0.1l-0.5,0.4h-0.1l-0.6-0.5l0-0.1V228l0-0.1l0.3-0.5l0.2,0c0.3,0.4,0.5,0.5,0.7,0.5c0.1,0,0.3-0.1,0.4-0.3l0.4-0.6
	l-0.1-0.1l-0.1,0.1C-168.8,227.2-168.9,227.3-169,227.3z"/>
<path fill="#006AB2" d="M-164.3,227.1l-0.2,0l-0.8-0.7c-0.7,0.7-1.4,0.9-2.4,0.9h-0.2v0.1h0.2l0.1,0.1v3.1l0,0.1l-0.6,0.5l0.1,0.1
	l0.3-0.3l0.2,0l0.9,0.7c0.9-0.7,1.4-0.9,2.5-0.9h0v-0.1h-0.2l-0.1-0.1v-3.2l0-0.1l0.6-0.6l-0.1-0.1L-164.3,227.1z M-165.2,230.8
	l-0.1,0.1c-0.3,0.1-0.4,0.1-0.7,0.3l-0.1,0l-0.7-0.6l0-0.1v-3l0.1-0.1c0.4-0.1,0.5-0.1,0.8-0.3l0.1,0l0.6,0.4l0,0.1V230.8
	L-165.2,230.8z"/>
<path fill="#006AB2" d="M-159.1,231l-0.2,0c-0.2-0.2-0.3-0.6-0.3-1.1v-2.4l0-0.1l0.6-0.6l-0.1-0.1l-0.3,0.3l-0.2,0l-0.6-0.7
	l-1.6,1.6l-0.2-0.1c0-0.9-0.1-1.1-0.4-1.5l-1.1,1l0.1,0.1l0.3-0.3l0.2,0c0.2,0.2,0.3,0.6,0.3,1.1v2.4l0,0.1l-0.6,0.6l0.1,0.1
	l0.3-0.3l0.2,0l0.6,0.7l0.9-0.9l-0.1-0.1l-0.3,0.2l-0.2,0l-0.3-0.3l0-0.1v-2.3l0-0.1l1.1-1.1h0.2l0.3,0.3l0,0.1v2.8
	c0,0.7,0.1,1.1,0.4,1.4l1-1l-0.1-0.1L-159.1,231z"/>
<path fill="#006AB2" d="M-154.6,231l-0.2,0c-0.2-0.3-0.3-0.6-0.3-1.1v-2.3l0-0.1l0.6-0.5l-0.1-0.1l-0.3,0.3l-0.2,0l-0.6-0.7
	c-0.4,0.7-1,1.1-1.7,1.2l-0.1,0l-0.1-0.1l0.1-0.2c0.2,0,0.4-0.2,0.4-0.5c0-0.3-0.2-0.5-0.4-0.5c-0.2,0-0.4,0.2-0.4,0.5
	c0,0.2,0.1,0.4,0.4,0.7l0.6,0.8l0,0.2l-0.5,0.5c-0.6,0.7-0.8,1-0.8,1.5c0,0.6,0.3,1,1,1.2l1.3-1.3l0.2,0.1c0,0.5,0.1,0.8,0.4,1.2
	l1.1-1l-0.1-0.1L-154.6,231z M-155.8,230.2L-155.8,230.2l-0.9,0.9l-0.1,0c-0.5-0.1-1-0.6-1-1.1c0-0.3,0.2-0.6,0.5-1l0.3-0.4l0.2,0
	l0.3,0.3l0.1-0.1l-0.8-1l0.1-0.2c0.5-0.1,0.6-0.2,1-0.5l0.2,0l0.3,0.3l0,0.1V230.2L-155.8,230.2z"/>
<path fill="#172983" d="M-169.8,258.6c-0.3-0.6-1-2.3-1.3-2.8c-0.3-0.5-1.8-3.8-2.4-4.6c-0.5-0.9-1.2-1.5-2.3-2.1
	c-0.7-0.4-1.4-0.5-1.9-0.5c-0.2,0-0.4,0-0.5,0c-0.2,0-1.3,0.1-1.7,0.1c0-0.3,0-0.9,0-1.5c0-0.8,0.1-1.5,0.1-1.9
	c0.1-0.3,0.3-0.5,0.4-0.5c0.1,0,0.3-0.2,0.5-0.3c0.2-0.1,0.3-0.2,0.3-0.2l0,0l0,0c0.2-0.2,0.5-0.4,0.8-0.5c0.1,0,0.2-0.1,0.3-0.1
	c0.1,0,0.1,0,0.1,0c1.2-0.3,1.5-0.8,1.5-0.9c0,0,0.1-0.1,0.1-0.2c0,0,0.1,0,0.1-0.1c0.9-0.1,1.5-0.6,1.6-0.8l0,0l0,0
	c0.1-0.2,0.5-0.5,0.9-0.7c0.4-0.2,0.5-0.4,0.5-0.6c0,0,0,0,0-0.1c0,0,0,0,0,0c0-0.3-0.2-0.4-0.4-0.5c-0.2-0.1-0.3-0.2-0.3-0.2l0,0
	l0,0c0,0,0,0-0.1,0c-0.1,0-0.1-0.1-0.2-0.2c0,0,0-0.1,0-0.1c0,0,0-0.1,0-0.1v0l0,0c-0.1-0.4-0.5-0.6-0.8-0.6c-0.2,0-0.3,0-0.4,0.1
	c-0.1,0-0.2,0-0.3,0c-0.2,0-0.4-0.1-0.6-0.1c-0.2-0.1-0.4-0.1-0.5-0.1c-0.1,0-0.2,0-0.3,0.1c-0.2,0.2-0.2,0.5-0.2,0.5v0l0,0
	c0,0,0,0,0,0.1c0,0,0,0,0,0c0,0-0.1,0-0.1-0.1c-0.1-0.1-0.2-0.2-0.4-0.2c0,0-0.1,0-0.2,0c-0.2,0-0.3,0-0.6,0c-0.2,0-0.3,0-0.5,0
	c-0.1,0-0.2,0-0.3,0l0,0l0,0c-0.4,0.1-0.9,0.4-1.1,0.6c0,0,0,0,0-0.1c0-0.2,0.1-0.6,0.1-0.6l0,0l0,0c0-0.1,0-0.2,0-0.4
	c0-1-0.5-1.9-0.5-1.9l0,0l0,0c-0.3-0.4-0.9-0.6-1.4-0.6c-0.2,0-0.4,0-0.6,0.1c-0.9,0.2-1.2,1-1.2,1c-0.2,0.5-0.5,1.4-0.5,1.4
	c-0.1,0.2-0.1,0.4-0.1,0.6c0,0.6,0.3,0.9,0.3,1c0,0.1,0.1,0.1,0.1,0.2c0,0.2,0,0.4-0.1,0.6c0,0.3-0.2,0.6-0.4,0.8
	c-0.1,0.1-0.5,0.2-0.5,0.6c0,0.1-0.1,0.2-0.2,0.3c-0.1,0.1-0.1,0.2-0.1,0.2l0,0l0,0c0,0.1-0.1,0.1-0.1,0.1c0,0,0,0,0,0l0,0
	c0,0,0,0,0,0c0,0,0,0-0.1-0.1c0,0,0,0,0,0c0-0.2-0.2-1.6-0.4-3.1c-0.2-1.6-0.4-3.3-0.4-3.6l0,0l0,0c-0.1-0.5-0.5-3.1-0.5-3.1l0,0
	l0,0c-0.2-0.3-0.3-0.5-0.5-0.5c-0.1,0-0.2,0.1-0.3,0.2c0,0.1-0.1,0.1-0.1,0.1l0,0l0,0c0,0.1,0,0.1,0,0.2c0,0.5,0.1,1.3,0.1,1.6v0
	l0,0c0,0.3,0.8,8.1,0.8,8.8c0,0-0.1,0.1-0.2,0.1c-0.1,0.1-0.2,0.1-0.2,0.1l0,0l0,0c-0.2,0.2-0.2,0.4-0.2,0.6c0,0.3,0.1,0.6,0.1,0.6
	l0,0l0,0c0.1,0.1,0.1,0.2,0.1,0.2c0,0,0,0.1,0,0.2c-0.1,0.1-0.1,0.4-0.2,0.5c-3.2-1.7-6.4-2.6-7-2.7c0-0.1,0-0.2,0-0.3
	c0-1.7-1-2.3-1.2-2.4c-0.1-0.1-0.1-0.1-0.2-0.1c-0.1,0-0.1,0-0.2,0.1c-0.1,0.1-0.1,0.2-0.1,0.2c0,0.4-0.1,0.6-0.2,0.7
	c-0.1,0.1-0.1,0.1-0.1,0.1c-0.2,0-0.3-0.1-0.3-0.3c-0.1-0.1-0.1-0.3-0.1-0.5c0-0.2,0-0.3,0-0.3l0-0.2l-0.2,0
	c-0.7,0.1-1.1,0.4-1.3,0.8c-0.2,0.4-0.3,0.9-0.3,1.2c0,0.3,0,0.5,0,0.6l0,0l0,0c0,0,0,0,0,0c-0.1-0.1-0.1-0.1-0.2-0.1
	c-0.2,0-0.3,0.1-0.3,0.2c-0.1,0.1-0.1,0.2-0.1,0.2c0,0.1,0,0.2,0,0.3c0,0.7,0.5,1.3,0.6,1.4c0.1,0.2,0.2,0.4,0.2,0.6
	c0,0.1,0,0.2-0.1,0.3c0,0,0,0,0,0.1c0,0,0,0,0,0l0,0l0,0c-0.1,0.3-0.2,0.6-0.2,0.9c0,0.8,0.5,1.3,0.5,1.3c0.3,0.4,0.3,1.5,0.3,1.9
	c0,0.1,0,0.2,0,0.2c0,0.7,0.3,1.2,0.7,1.5c0.3,0.3,0.7,0.4,0.7,0.4c0.2,0.1,0.4,0.1,0.5,0.1c0.4,0,0.7-0.2,1-0.5
	c0.5-0.6,0.7-1.6,0.8-2c0.7,0.6,1.1,2.1,1.3,3.5c0.2,1.6,0.3,3.3,0.3,4c0,0.2,0,0.4,0,0.4c0,0.2,0,0.4,0,0.5c0,3,0.9,4.4,0.9,4.4
	c0.2,0.4,0.6,0.7,1,0.9l-0.7,1.6c0,0,0,0,0,0c0,0,0,0,0,0l1.4,0c0,0,0,0,0,0l0.3-1.3c0.3,0,0.7,0.1,0.9,0.1c0.2,0,0.3,0,0.4,0
	c0,0,0.1,0,0.2,0l-0.2,1.2c0,0,0,0,0,0c0,0,0,0,0,0l1.3,0c0,0,0,0,0,0c0,0,0,0,0,0l0-1.3c0.5-0.1,1-0.2,1.5-0.5
	c0.3-0.2,0.3-0.5,0.3-0.6c0,0,0,0,0,0l0.1-5.1c0.6,0.1,1.3,0.2,1.9,0.2c1.3,0,2.3-0.2,2.3-0.2l0,0l0,0c0.1,0,0.1,0,0.1,0l0,0l0,0
	c0,0,2.4,4.9,2.6,5.5c0.3,0.5,0.6,1.2,1,1.4c0.2,0.1,0.5,0.2,0.8,0.2c0.8,0,1.8-0.4,2.8-0.9l-0.1,0.8l-0.4,0.5c0,0,0,0,0,0
	c0,0,0,0,0,0h1.5c0,0,0,0,0,0c0,0,0,0,0,0l-0.1-1.9c0.1-0.1,0.3-0.2,0.4-0.3c1.4-0.9,2.5-1.8,2.5-1.8l0,0l0,0
	c0.1-0.2,0.1-0.4,0.1-0.6C-169.1,260.1-169.5,259.1-169.8,258.6z"/>
<path fill="#FFD500" d="M-169.5,261.2c-0.1,0.1-0.3,0.3-0.7,0.5c-1.3,1-4.2,3-5.8,2.9c-0.2,0-0.5,0-0.6-0.1
	c-0.3-0.1-0.6-0.7-0.9-1.3c-0.3-0.5-2.5-5.1-2.6-5.4c0,0,0-0.1,0-0.1c0-0.1-0.1-0.1-0.2-0.1c-0.1,0-0.2,0-0.2,0.1
	c-0.1,0-0.3,0.1-0.6,0.1c-0.4,0-1,0.1-1.6,0.1c-0.6,0-1.4-0.1-2-0.2l-0.2,0l-0.1,5.5l0,0c0,0,0,0,0,0c0,0,0,0.2-0.2,0.3l0.1,0.1
	l-0.1-0.1c-0.9,0.5-2,0.6-2.5,0.6c-0.1,0-0.2,0-0.2,0c-0.1,0-0.3,0-0.4,0c-0.8,0-2.2-0.1-2.8-1.1c0,0,0,0,0-0.1
	c-0.2-0.3-0.8-1.6-0.8-4.2c0-0.2,0-0.3,0-0.5c0,0,0-0.1,0-0.4c0-0.7,0-2.4-0.3-4c-0.2-1.6-0.7-3.2-1.6-3.9l-0.2-0.1l0,0.2
	c0,0,0,0.2-0.1,0.4c-0.1,0.4-0.2,0.9-0.4,1.3c-0.2,0.4-0.6,0.7-1,0.7c-0.1,0-0.3,0-0.4-0.1c0,0-0.1,0-0.2-0.1c-0.3-0.2-1-0.6-1-1.6
	c0,0,0-0.1,0-0.2c0-0.4,0-1.5-0.4-2.1l0,0l0,0c0,0,0,0,0,0c-0.1-0.1-0.4-0.4-0.4-1.1c0-0.2,0-0.5,0.1-0.8c0.1-0.1,0.2-0.2,0.2-0.5
	c0-0.2-0.1-0.4-0.2-0.7l0,0l0,0c0,0-0.1-0.2-0.3-0.4c-0.1-0.2-0.3-0.6-0.3-0.9c0-0.1,0-0.1,0-0.2c0,0,0-0.1,0.1-0.1
	c0,0,0-0.1,0.1-0.1c0,0,0,0,0,0c0,0,0,0,0.1,0c0,0,0,0,0.1,0.1c0,0,0.1,0.1,0.2,0.1c0,0,0.1,0,0.2-0.1c0-0.1,0-0.1,0-0.2
	c0-0.1,0-0.1,0-0.2c0,0,0-0.2,0-0.5c0-0.3,0-0.7,0.2-1.1c0.2-0.3,0.4-0.6,0.9-0.6c0,0,0,0.1,0,0.1c0,0.2,0,0.4,0.1,0.6
	c0.1,0.2,0.3,0.4,0.6,0.4c0,0,0,0,0,0c0.1,0,0.2,0,0.4-0.2c0.1-0.2,0.2-0.4,0.2-0.8l0,0c0,0,0,0,0,0c0.2,0.1,1,0.7,1,2.1
	c0,0.1,0,0.2,0,0.4l0,0.1l0.1,0c0,0,0.9,0.2,2.3,0.7c1.4,0.5,3.2,1.2,5,2.2l0.2,0.1l0-0.2c0,0,0-0.1,0.1-0.3c0-0.2,0.1-0.3,0.1-0.4
	l0,0l0,0c0-0.1,0.1-0.1,0.1-0.3c0-0.1,0-0.2-0.1-0.3c0,0,0-0.1-0.1-0.1c0-0.1-0.1-0.2-0.1-0.3c0-0.1,0-0.3,0.2-0.4
	c0,0,0.1-0.1,0.2-0.1c0.1-0.1,0.2-0.2,0.3-0.3l0,0l0,0c0,0-0.2-2.1-0.4-4.3c-0.2-2.2-0.4-4.3-0.4-4.5c0-0.3-0.1-1.2-0.1-1.6
	c0-0.1,0-0.1,0-0.2c0,0,0,0,0,0c0,0,0,0,0-0.1c0,0,0,0,0,0c0,0,0,0,0,0c0,0,0.1,0.1,0.2,0.3c0,0.3,0.4,2.6,0.5,3.1
	c0,0.7,0.9,6.8,0.9,6.8l0,0l0,0c0,0,0,0.1,0.1,0.1c0,0.1,0.1,0.2,0.3,0.2c0.2,0,0.3-0.1,0.4-0.3c0-0.1,0.3-0.4,0.3-0.6
	c0-0.1,0.3-0.3,0.5-0.5c0.2-0.3,0.4-0.6,0.5-1l0,0v0c0-0.2,0.1-0.4,0.1-0.6c0-0.1,0-0.3-0.1-0.4l0,0l0,0c0,0,0,0,0-0.1
	c-0.1-0.1-0.2-0.4-0.2-0.8c0-0.1,0-0.3,0.1-0.5c0,0,0.4-0.8,0.5-1.4c0,0,0,0,0-0.1c0.1-0.2,0.4-0.6,0.9-0.7c0.2,0,0.3-0.1,0.5-0.1
	c0.5,0,1,0.2,1.2,0.5c0,0,0,0.1,0.1,0.1c0.1,0.3,0.4,0.9,0.4,1.6c0,0.1,0,0.2,0,0.3c0,0.1-0.1,0.4-0.1,0.7c0,0.1,0,0.2,0,0.2
	c0,0.1,0.1,0.2,0.2,0.2c0.1,0,0.1,0,0.1,0l0,0l0,0c0.2-0.2,0.7-0.5,1.1-0.6c0.1,0,0.2,0,0.3,0c0.2,0,0.3,0,0.5,0c0.3,0,0.4,0,0.6,0
	l0,0l0,0c0,0,0.1,0,0.1,0c0.1,0,0.1,0,0.3,0.1l0,0l0,0c0.1,0,0.1,0.1,0.2,0.1c0.1,0,0.1,0.1,0.2,0.1c0,0,0.1,0,0.2-0.1
	c0,0,0-0.1,0-0.1c0-0.1,0-0.1,0-0.2c0-0.1,0-0.1,0-0.1c0,0,0-0.1,0-0.1c0-0.1,0.1-0.2,0.1-0.2c0.1-0.1,0.1-0.1,0.1-0.1
	c0.1,0,0.2,0,0.4,0.1l0,0l0,0c0.2,0,0.4,0.1,0.7,0.1c0.1,0,0.2,0,0.4-0.1c0.1,0,0.2-0.1,0.3-0.1c0.2,0,0.4,0.1,0.5,0.4
	c0,0,0,0.2,0.1,0.3c0,0.1,0.2,0.3,0.4,0.3c0,0,0,0,0.1,0c0.1,0,0.2,0.1,0.3,0.1c0.1,0,0.1,0.1,0.2,0.1c0,0,0.1,0.1,0.1,0.1
	c0,0,0,0,0,0l0,0l0,0c0,0,0,0,0,0c0,0,0,0,0,0c0,0,0,0.2-0.3,0.3c-0.5,0.2-0.9,0.5-1.1,0.8c-0.1,0.1-0.7,0.6-1.5,0.7l0,0l0,0
	c0,0-0.2,0.1-0.4,0.4l0,0l0,0c0,0-0.1,0.5-1.3,0.7c0,0-0.7,0.1-1.3,0.7c0,0-0.2,0.1-0.3,0.2c-0.2,0.1-0.4,0.2-0.4,0.2
	c-0.3,0.1-0.5,0.3-0.6,0.7l0,0l0,0c-0.1,0.3-0.1,1.1-0.1,1.9c0,0.8,0,1.6,0,1.6v0.2l0.2,0c0,0,1.6-0.1,1.8-0.1c0.1,0,0.3,0,0.5,0
	c0.4,0,1.1,0.1,1.8,0.5c1,0.6,1.7,1.2,2.2,2c0.5,0.8,2.1,4.1,2.3,4.6c0.2,0.5,0.9,2.2,1.3,2.8c0.3,0.5,0.6,1.4,0.6,2.1
	C-169.4,261-169.4,261.1-169.5,261.2z"/>
<path fill="#172983" d="M-186,253.6c-0.1,0-0.1,0-0.2,0l-1,0.9c0,0,0,0,0,0.1c-0.1,0.3-0.2,0.6-0.3,0.7c-0.1,0.1-0.2,0.2-0.6,0.2
	l0,0c-0.1,0-0.3,0.1-0.4,0.1c-0.3,0-0.8-0.1-1.2-0.1c-0.2,0-0.2,0-0.3-0.1c0,0-0.1-0.1,0-0.2c0,0,0,0,0,0c1.6-1,2.2-2.7,2.2-2.7
	c0.2-0.4,0.5-1,0.9-1.6c0.3-0.5,0.6-1,0.6-1c0,0,0-0.1,0-0.1c0-0.1,0-0.2,0-0.3c0-0.6,0.1-1.5,0.1-1.5c0-0.1,0-0.1-0.1-0.1
	c-3.5-2.8-7.7-3.3-8.7-3.4c0.1-0.3,0.2-0.6,0.2-0.9c0-0.7-0.3-1.2-0.3-1.2c0,0-0.1-0.1-0.1-0.1c0,0-0.1,0-0.1,0.1
	c-0.3,0.3-0.5,0.4-0.7,0.4c-0.2,0-0.4-0.1-0.5-0.2c-0.1-0.1-0.1-0.1-0.2-0.2c0,0-0.1-0.1-0.1-0.1c0,0-0.1-0.1-0.1-0.1
	c-0.1,0-0.1,0.1-0.1,0.1c0,0-0.1,0.4-0.1,0.9c0,0.1,0,0.3,0,0.5c-0.1,0-0.2,0-0.3,0.1c-0.1,0-0.3,0.2-0.3,0.4c0,0.1,0,0.2,0.1,0.3
	c0,0,0,0,0,0.1c0,0,0,0,0.1,0.1c0.2,0.1,0.4,0.5,0.4,0.9c0,0.1,0,0.2,0,0.3c-0.2,0.5-0.2,0.9-0.3,1.3c0,0.3,0.1,0.5,0.2,0.7
	c0.3,0.5,0.7,1,0.7,2.4c0,0,0,0.1,0,0.3c0,0.4,0.2,1,1,1.2c0,0,0,0,0.1,0c0.1,0,0.4,0,0.6-0.3c0.2-0.3,0.4-0.8,0.5-1.7l0-0.2h0
	c0-0.2,0.2-0.6,0.3-0.9c0-0.1,0.1-0.2,0.1-0.3l0.2,0.3c0,0,0,0,0.1,0.1c1.1,0.5,1.7,2,2,3.2c0.2,0.6,0.3,1.2,0.3,1.7
	c0,0.4,0.1,0.6,0.1,0.7c0,0.2-0.1,0.5-0.1,0.9c0,2.1,0.5,5.9,0.5,5.9c0,0.1,0,0.1,0.1,0.1c0,0,0.1,0,0.1,0l1-0.7
	c0,0,0.1-0.1,0.1-0.2l-1-4.4c0,0,0-0.1,0-0.1c0,0,0.1,0,0.1,0.1c0,0.1,0.1,0.1,0.1,0.1c0,0.1,0.2,0.6,0.4,1.1
	c0.2,0.6,0.4,1.3,0.5,1.5l0,0c0.1,0.2,0.2,0.7,0.3,1.2c0.1,0.3,0.1,0.6,0.1,0.7c-0.1,0.1-0.3,0.2-0.6,0.6c-0.2,0.2-0.3,0.4-0.3,0.6
	c0,0.2,0.1,0.4,0.3,0.6c0.2,0.2,0.4,0.3,0.6,0.4c0.3,0.2,0.7,0.2,1.2,0.2c0.6,0,1.1-0.1,1.4-0.1l0,0c0.5-0.1,0.7-0.6,0.8-0.6l0-0.1
	l0-8.8C-185.9,253.7-185.9,253.6-186,253.6z"/>
<path fill="#172983" d="M-185,250.6c0-0.1-0.1-0.1-0.1-0.1h-0.8c0,0-0.1,0-0.1,0c-0.4,0.3-1,1.4-1.2,2.2c-0.1,0.4-0.6,0.9-1,1.3
	c-0.4,0.4-0.8,0.7-0.8,0.7c0,0-0.1,0.1-0.1,0.1c0,0,0,0.1,0.1,0.1c0.2,0.1,0.4,0.1,0.6,0.1c0.3,0,0.5-0.1,0.5-0.1
	c0.2-0.1,0.4-0.3,0.6-0.6c0.6-0.8,1.3-2.1,1.3-2.1l0,0c0.1-0.2,0.4-0.7,0.7-1c0.3-0.3,0.5-0.6,0.5-0.6
	C-185,250.7-185,250.7-185,250.6z"/>
<path fill="#172983" d="M-185.7,249.8c0.4,0.3,1.1,0.3,1.6,0.3c0,0,0,0,0,0c0.4,0,0.6-0.2,0.7-0.4c0.1-0.2,0.2-0.5,0.4-0.7l0,0
	c0.3-0.6,0.3-1.1,0.3-1.6c0-0.6-0.1-1-0.1-1.1c0-0.1-0.1-0.1-0.1-0.1c-1.2,0-2.4,0.8-2.4,0.8l0.1,0.1l-0.1-0.1
	c-0.2,0.2-0.3,0.5-0.4,0.9c-0.1,0.4-0.2,0.8-0.3,1.2c0,0.1,0,0.2,0,0.2C-185.9,249.5-185.8,249.7-185.7,249.8z"/>
<path fill="#172983" d="M-173.8,252.5c-1.1-2.2-2.2-2.5-3.2-2.8c-0.3-0.1-0.7-0.1-1-0.1c-0.8,0-1.6,0.1-2.2,0.2c-0.1,0-0.1,0-0.2,0
	c-0.2,0-0.2,0-0.3,0c0,0,0,0,0,0c0-0.1,0-0.2,0-0.4c0-1,0.1-3.1,0.2-3.3c0.3-0.9,0.4-1.9,0.4-2.6c0-0.8-0.1-1.4-0.1-1.4
	c-0.2-1-0.8-1.2-1.1-1.2c-0.1,0-0.1,0-0.1,0c-1,0.1-1.4,0.9-1.4,0.9c0,0,0,0.1,0,0.1c0,0,0.1,0.1,0.1,0.1l0.9,0.1
	c-0.2,0.1-0.4,0.3-0.8,0.4c-0.9,0.2-1.4,1.2-1.7,1.6c-0.1,0.2-0.3,0.3-0.4,0.3c-0.1,0-0.1,0-0.2,0c0,0-0.1,0-0.1,0
	c0,0-0.1,0-0.1,0.1c0,0-0.2,0.2-0.2,0.4c0,0.1,0,0.3,0.2,0.4l0,0c0.1,0,0.2,0.1,0.2,0.1c0.3,0,0.6-0.3,1.1-0.6l0,0
	c0.6-0.5,0.8-1.1,0.9-1.2c0.3-0.5,0.6-0.6,0.8-0.6c0,0,0.1,0,0.1,0c-0.1,0.1-0.1,0.1-0.1,0.2c-0.1,0.1-0.1,0.2-0.3,0.5
	c-0.2,0.2-0.3,0.4-0.4,0.6c-0.1,0.2-0.2,0.4-0.6,0.8c-0.6,0.7-1.2,0.7-1.7,0.9c-0.1,0-0.2,0.1-0.3,0.1c-0.1,0-0.1,0.1-0.1,0.2
	c0,0.1,0.1,0.2,0.1,0.2c0.1,0,0.1,0.1,0.1,0.1l0,0c0.1,0,0.2,0,0.3,0c0.5,0,1-0.2,1.8-0.6c1-0.5,1.4-1.2,1.4-1.2l0,0
	c0.2-0.4,0.5-0.8,0.7-1c0,0,0,0,0,0c0,0,0,0,0,0c0,0.2,0,0.3-0.1,0.6c-0.1,0.3-0.3,0.7-0.5,1c-0.2,0.3-0.4,0.5-0.4,0.5
	c0,0,0,0.1,0,0.1c0,0.1,0,0.2,0,0.4c0,0.8-0.2,2.2-0.2,2.2c0,0,0,0.1,0,0.1c0.1,0.2,0.6,1.2,1.1,2.3c0.5,1.1,1,2.2,1.2,2.7
	c0.4,0.9,1.6,3.3,1.7,3.9c0,0.1,0,0.1,0,0.2c0,0.2-0.1,0.3-0.1,0.4c0,0,0,0.1-0.1,0.1c-0.1-0.1-0.3-0.2-0.5-0.4
	c-0.2-0.2-0.3-0.4-0.3-0.4c0-0.1-0.1-0.1-0.2-0.1c-0.1,0-0.1,0.1-0.1,0.2c0,0.2,0.2,0.5,0.4,1c0.7,1.5,2,4.1,2.5,4.9
	c0.2,0.3,0.3,0.5,0.5,0.6c0.1,0.1,0.3,0.2,0.4,0.2c0,0,0,0,0,0c0.2,0,0.4-0.1,0.6-0.2c0.4-0.1,0.7-0.4,1-0.7
	c0.3-0.3,0.5-0.6,0.5-0.6c0.3-0.3,0.4-0.7,0.4-1.1c0-0.5-0.2-0.9-0.3-1.2c-0.3-0.5-1.3-1.3-1.9-1.8c-0.5-0.5-2.1-1.9-2.2-2
	c-0.2-0.2-0.2-0.3-0.2-0.4c0,0,0,0,0,0c0.1,0,0.4,0.1,0.5,0.2c0.1,0.1,0.8,0.7,1.5,1.2c0.7,0.6,1.4,1.2,1.8,1.4
	c0.6,0.4,1.2,1.1,1.4,1.5c0,0.1,0.1,0.4,0.1,0.7c0,0.7-0.1,1.5-0.1,1.5c0,0.1,0,0.1,0.1,0.1c0.1,0,0.1,0,0.2,0c0,0,0.9-0.7,1.7-1.5
	c0.3-0.3,0.4-0.6,0.4-0.8c0-0.7-0.5-1.3-0.7-1.7C-171.2,257.9-172.7,254.8-173.8,252.5z"/>
<path fill="#172983" d="M-181.3,253.5L-181.3,253.5c0-0.1-0.1-0.1-0.1-0.2c0-0.1,0.1-0.2,0.1-0.3c0,0,0.1-0.1,0.1-0.1c0,0,0,0,0,0
	c0,0,0.1-0.1,0-0.2c-0.3-0.8-1.4-2.6-1.4-2.6c0-0.1-0.1-0.1-0.2-0.1c-0.6,0.2-1.3,0.8-1.9,1.3c-0.3,0.3-0.5,0.5-0.7,0.8
	c-0.1,0.1-0.2,0.2-0.2,0.3c-0.1,0.1-0.1,0.2-0.1,0.3c0,0.3,0.2,4.1,0.2,4.1c0,0,0,0.1,0.1,0.1c0.4,0.2,1,0.3,1.6,0.3
	c1,0,2.1-0.2,2.5-0.2c0.3,0,0.6-0.1,0.7-0.3c0.1-0.2,0.1-0.3,0.1-0.3v0c0-0.3-0.2-0.9-0.5-1.5C-181,254.3-181.2,253.7-181.3,253.5z"
	/>
<path fill="#172983" d="M-182.6,240.6L-182.6,240.6c0.2,0.1,0.3,0.1,0.5,0.1c0,0,0,0,0,0c0.1,0,0.3-0.1,0.3-0.2
	c0.1-0.1,0.1-0.3,0.1-0.6c0-0.1,0-0.1,0-0.2c0-0.5-0.3-0.9-0.6-1c-0.3-0.2-0.5-0.2-0.5-0.2c-0.1,0-0.1,0-0.1,0.1
	c-0.2,0.3-0.2,0.6-0.2,0.9C-183.2,240-182.9,240.4-182.6,240.6z"/>
<path fill="#172983" d="M-182.5,238.3c0,0,0.1,0,0.2,0.1c0.3,0.2,1,0.7,1.2,1.5c0,0,0,0.1,0.1,0.1c0,0,0,0,0.1,0c0,0,0,0,0.1,0
	c0,0,0.4-0.2,0.4-0.9c0-0.2,0-0.3-0.1-0.5c-0.1-0.4-0.2-0.7-0.4-0.9c-0.2-0.2-0.4-0.3-0.7-0.3c0,0-0.1,0-0.1,0c-0.2,0-0.4,0-0.6,0.1
	c-0.2,0.1-0.2,0.3-0.2,0.6C-182.6,238.2-182.6,238.3-182.5,238.3z"/>
<path fill="#172983" d="M-179.7,244c0,0,0.4-0.1,0.7-0.3c0.3-0.2,0.8-0.4,1.1-0.6c0.3-0.1,1.3-0.3,1.6-0.7c0.4-0.4,0.3-0.6,0.6-0.6
	c0.3-0.1,1.3-0.6,1.4-0.8c0.1-0.2,0.5-0.6,0.5-0.6c-0.3-0.1-0.5-0.6-0.5-0.6c-0.3,0.1-0.8,0.1-1.1,0c-0.3-0.1-0.3,0.2-0.4,0.6
	c-0.1,0.3-0.3,0.2-1.1-0.1c-1.3-0.5-2.8,0.8-2.8,0.8C-179.5,242.2-179.7,244-179.7,244z"/>
</svg>
