<?xml version="1.0" encoding="utf-8"?>
<!-- Generator: Adobe Illustrator 19.1.0, SVG Export Plug-In . SVG Version: 6.00 Build 0)  -->
<svg version="1.1"
	 id="svg2" inkscape:output_extension="org.inkscape.output.svg.inkscape" inkscape:version="0.46" sodipodi:docname="Adidas-logo.svg" sodipodi:version="0.32" xmlns:rdf="http://www.w3.org/1999/02/22-rdf-syntax-ns#" xmlns:cc="http://creativecommons.org/ns#" xmlns:svg="http://www.w3.org/2000/svg" xmlns:inkscape="http://www.inkscape.org/namespaces/inkscape" xmlns:dc="http://purl.org/dc/elements/1.1/" xmlns:sodipodi="http://sodipodi.sourceforge.net/DTD/sodipodi-0.dtd"
	 xmlns="http://www.w3.org/2000/svg" xmlns:xlink="http://www.w3.org/1999/xlink" x="0px" y="0px" viewBox="15 -27 170 85"
	 style="enable-background:new 15 -27 170 85;" xml:space="preserve">
<style type="text/css">
	.st0{fill:#FFFFFF;}
	.st1{fill:none;}
</style>
<defs>
	
	
		<inkscape:perspective  id="perspective10" inkscape:persp3d-origin="372.04724 : 350.78739 : 1" inkscape:vp_x="0 : 526.18109 : 1" sodipodi:type="inkscape:persp3d" inkscape:vp_y="0 : 1000 : 0" inkscape:vp_z="744.09448 : 526.18109 : 1">
		</inkscape:perspective>
	
		<inkscape:perspective  id="perspective2399" inkscape:persp3d-origin="358.69965 : 161.21951 : 1" inkscape:vp_x="0 : 241.82927 : 1" sodipodi:type="inkscape:persp3d" inkscape:vp_y="0 : 1000 : 0" inkscape:vp_z="717.39929 : 241.82927 : 1">
		</inkscape:perspective>
</defs>
<sodipodi:namedview  id="base" inkscape:pageopacity="0.0" inkscape:current-layer="layer1" inkscape:pageshadow="2" inkscape:window-y="-4" inkscape:window-width="1280" inkscape:window-x="-4" inkscape:window-height="781" inkscape:document-units="px" inkscape:zoom="0.84501992" showgrid="false" pagecolor="#ffffff" inkscape:cx="350" bordercolor="#666666" borderopacity="1.0" inkscape:cy="264.28571">
	</sodipodi:namedview>
<g>
	<g id="layer1" transform="translate(-24.157502,-284.81863)" inkscape:groupmode="layer" inkscape:label="Ebene 1">
		<g id="g2402" transform="translate(-33.947634,-146.48574)" inkscape:label="Ebene 1">
			<g id="g3035">
				<path id="path2405" class="st0" d="M177.6,460l-25.9-45l18.6-10.7l32.2,55.8L177.6,460"/>
				<path id="path2407" class="st0" d="M108.5,453.7l18.6-10.8L137,460h-24.9L108.5,453.7"/>
				<path id="path2409" class="st0" d="M145.1,488.8h5.3v-21.4h-5.3V488.8z"/>
				<path id="path2411" class="st0" d="M211.5,489.3c-5.9,0-9.5-3.1-9.7-7.4h5.6c0,1.4,0.8,3.3,4.5,3.4c2.4,0,3.6-1.4,3.6-2.5
					c-0.1-1.7-2.3-1.8-4.5-2.2c-2.3-0.4-4.2-0.8-5.6-1.5c-1.8-0.9-3-2.9-3-5.1c0-3.8,3.3-6.9,8.9-6.9c5.4,0,8.8,2.8,9.1,7H215
					c-0.1-1.1-0.3-2.9-3.5-2.9c-2.1,0-3.6,0.4-3.7,1.9c0,2.2,4.5,2.1,7.9,3c3.3,0.8,5.4,2.9,5.4,5.8
					C221.2,487.3,216.9,489.3,211.5,489.3"/>
				<path id="path2415" class="st0" d="M130.4,434.6l18.6-10.7l20.9,36.2h-19.5v5.3h-5.3v-5.3L130.4,434.6"/>
				<path id="path2417" class="st0" d="M130.9,489.3c-6.2,0-11.2-5-11.2-11.1c0-6.2,5-11,11.2-11c2.3,0,4.5,0.6,6.3,1.9v-9h5.3v28.7
					h-5.3v-1.4C135.3,488.6,133.2,489.3,130.9,489.3z M124.8,478.2c0,3.3,2.8,6.1,6.2,6.1c3.3,0,6.2-2.8,6.2-6.1
					c0-3.3-2.8-6.2-6.2-6.2C127.6,472,124.8,474.9,124.8,478.2"/>
				<path id="path2419" class="st0" d="M170,460h5.2v28.8H170v-1.4c-1.8,1.2-4,1.9-6.4,1.9c-6.1,0-11.1-5-11.1-11.1
					c0-6.2,5-11,11.1-11c2.4,0,4.5,0.6,6.4,1.9V460z M157.7,478.2c0,3.3,2.8,6.1,6.1,6.1c3.4,0,6.2-2.8,6.2-6.1
					c0-3.3-2.8-6.2-6.2-6.2C160.5,472,157.7,474.9,157.7,478.2"/>
				<path id="path2421" class="st0" d="M188.2,489.3c-6.1,0-11.1-5-11.1-11.1c0-6.2,5-11,11.1-11c2.3,0,4.5,0.6,6.3,1.9v-1.7h5.3
					v21.4h-5.3v-1.4C192.7,488.6,190.6,489.3,188.2,489.3z M182.2,478.2c0,3.3,2.8,6.1,6.2,6.1c3.3,0,6.1-2.8,6.1-6.1
					c0-3.3-2.8-6.2-6.1-6.2C185.1,472,182.2,474.9,182.2,478.2"/>
				<path id="path2423" class="st0" d="M100.2,478.2c0,3.3,2.8,6.1,6.2,6.1s6.2-2.8,6.2-6.1c0-3.3-2.8-6.2-6.2-6.2
					C103,472,100.2,474.9,100.2,478.2z M106.2,489.3c-6.1,0-11.1-5-11.1-11.1c0-6.2,5-11,11.1-11c2.3,0,4.5,0.6,6.4,1.9v-1.7h5.2
					v21.4h-5.2v-1.4C110.8,488.6,108.6,489.3,106.2,489.3"/>
			</g>
		</g>
	</g>
	<rect x="15" y="-27" class="st1" width="170" height="85"/>
</g>
</svg>
