<?xml version="1.0" encoding="utf-8"?>
<!-- Generator: Adobe Illustrator 18.1.1, SVG Export Plug-In . SVG Version: 6.00 Build 0)  -->
<!DOCTYPE svg PUBLIC "-//W3C//DTD SVG 1.1//EN" "http://www.w3.org/Graphics/SVG/1.1/DTD/svg11.dtd">
<svg version="1.1" id="Ebene_1" xmlns="http://www.w3.org/2000/svg" xmlns:xlink="http://www.w3.org/1999/xlink" x="0px" y="0px"
	 width="100px" height="100px" viewBox="-449.3 200.5 100 100" enable-background="new -449.3 200.5 100 100" xml:space="preserve">
<path fill="#FFFFFF" d="M-371.7,250.5c0,24.6-12.4,44.5-27.6,44.5c-15.2,0-27.6-19.9-27.6-44.5s12.4-44.5,27.6-44.5
	C-384,206-371.7,225.9-371.7,250.5"/>
<path d="M-378,225.4l-4.5,5.5c5.2,4.6,8.6,11.4,8.6,18.9c0,13.9-11.3,25.3-25.2,25.3c-5.7,0-11-1.9-15.3-5.2l-5.5,6.7
	c4.8,10.2,12.3,16.8,20.7,16.8c14.4,0,26.2-19.3,26.2-43C-373.1,241.2-374.9,232.5-378,225.4z"/>
<path fill="#006EB2" d="M-399.2,207.5c-14.4,0-26.2,19.3-26.2,43c0,9.4,1.8,18.1,5,25.1l5.1-6.3c-5.6-4.6-9.1-11.6-9.1-19.4
	c0-13.9,11.3-25.3,25.2-25.3c6,0,11.5,2.1,15.9,5.7l4.9-5.9C-383.3,214.1-390.8,207.5-399.2,207.5z"/>
<path d="M-381,236.3C-381,236.4-381,236.4-381,236.3c0.1,0.1,0.1,0,0.1,0c-0.9-1.3-2-2.4-3.2-3.5l-3.7,4.5
	C-384.9,237.8-382.3,237.4-381,236.3z"/>
<path d="M-379.7,261.5C-379.7,261.5-379.7,261.6-379.7,261.5l-0.9,0.1c-3.9,6.3-10.8,10.5-18.7,10.5c-0.2,0-0.3,0-0.5,0
	c-0.1-0.1-0.2-0.3-0.3-0.4c0,0,0,0,0,0c-2.1-3.2-7.7-9.1-7.7-9.1c-0.1-0.1-0.2-0.2-0.3-0.3l-4.8,5.9c3.8,2.9,8.6,4.6,13.7,4.6
	c8.3,0,15.7-4.5,19.6-11.3L-379.7,261.5C-379.6,261.5-379.7,261.5-379.7,261.5z"/>
<path fill="#006EB2" d="M-417.6,259c0-1.1,1.1-1.8,1.1-2.7c0-0.9-0.4-1.5-0.4-1.5l0.6-0.4c-0.6-0.3-0.5-0.5-0.5-0.5
	c0.8-1,0.7-1.4,0.7-1.4c0-0.6-0.3-1-0.6-1.3c-0.3-0.3-0.6-0.6-0.7-1c-0.2-0.6,0.8-1.5,0.8-1.5c0.8-0.7,2.6-2.5,2.6-2.5
	c1.2-1.2,1.2-2.4,1.5-3.4c0.5-1.4,3.5-4.8,3.5-4.8c0.6-1.1,1-1.9,1.5-2.5c0,0,0,0,0,0s1.2-2.1,4.7-2.1c4.8,0,7.9,1.7,9.7,2.5
	c0.9,0.4,1.9,0.8,3,1.1c0.4,0.1,0.8,0.2,1.2,0.3l4.1-5c-3.9-3.2-8.9-5.1-14.3-5.1c-12.5,0-22.8,10.3-22.8,22.8
	c0,7,3.2,13.3,8.2,17.5l4.6-5.6c-0.6-0.2-1.5-0.3-2.7-0.4C-416.3,260.8-417.6,260.4-417.6,259z"/>
<path fill="#FFFFFF" d="M-416.8,226l-0.6-2.5l0,0l2,1.6L-416.8,226z M-414.7,225.5l1.3,1.1l0.7-0.4l-4.7-3.6l-0.7,0.5l1.3,5.8
	l0.6-0.4l-0.4-1.7L-414.7,225.5z"/>
<polygon fill="#FFFFFF" points="-415.7,221.2 -411.6,219.3 -411.4,219.9 -413.1,220.7 -411,225.2 -411.7,225.5 -413.7,221 
	-415.4,221.8 "/>
<path fill="#FFFFFF" d="M-408.7,221.8l0.2-2.6l0,0l1.5,2.1L-408.7,221.8z M-406.6,221.9l1,1.4l0.8-0.2l-3.4-4.8l-0.8,0.2l-0.5,5.9
	l0.7-0.2l0.1-1.7L-406.6,221.9z"/>
<polygon fill="#FFFFFF" points="-403.4,222 -400.6,221.7 -400.6,222.4 -404.1,222.8 -404.8,217.3 -404,217.2 "/>
<path fill="#FFFFFF" d="M-398.1,220.2l1.1-2.4l0,0l0.6,2.5L-398.1,220.2z M-396.2,221l0.4,1.7l0.8,0.1l-1.5-5.7l-0.8-0.1l-2.6,5.3
	l0.8,0.1l0.7-1.6L-396.2,221z"/>
<polygon fill="#FFFFFF" points="-389.1,218.5 -388.4,218.7 -390,224 -390.8,223.8 -392.2,218.7 -392.3,218.7 -393.5,223 
	-394.2,222.8 -392.6,217.4 -391.8,217.7 -390.4,222.8 -390.4,222.8 "/>
<polygon fill="#FFFFFF" points="-387.5,219 -383.4,220.9 -383.7,221.5 -385.4,220.7 -387.4,225.1 -388.1,224.8 -386.1,220.4 
	-387.8,219.6 "/>
<path fill="#FFFFFF" d="M-384,224.5l2.1-1.5l0,0l-0.7,2.5L-384,224.5z M-382.7,226.2l-0.4,1.6l0.7,0.5l1.4-5.7l-0.7-0.5l-4.8,3.4
	l0.6,0.4l1.4-1L-382.7,226.2z"/>
<path fill="#FFFFFF" d="M-409.5,282.4l-0.9-0.3l1.5-4.6l-1.5-0.5l0.2-0.6c1.1,0.3,1.5,0.3,2.1-0.7l0.6,0.2L-409.5,282.4z"/>
<path fill="#FFFFFF" d="M-403.8,280.8c-0.6-0.1-1.4-0.3-1.2-1.6c0.1-0.9,0.7-1.5,1.5-1.4c1,0.1,1.3,0.8,1.2,1.6
	C-402.5,280.7-403.3,280.8-403.8,280.8 M-404,281.5c0.6,0.1,1.3-0.1,1.6-0.6l0,0c-0.4,1.7-1,2.4-1.9,2.3c-0.7-0.1-1-0.6-1-1.2
	l-0.8-0.1c-0.1,0.7,0.2,1.9,1.8,2c2.3,0.3,2.8-2.8,2.9-3.5c0.1-1.1,0.2-3.2-2-3.4c-1.4-0.2-2.3,0.8-2.4,2
	C-406,280.4-405.3,281.4-404,281.5"/>
<path fill="#FFFFFF" d="M-395.5,280.7c0.1,1.7-0.3,2.7-1.2,2.8c-1,0.1-1.5-0.9-1.6-2.6c-0.1-1.7,0.3-2.7,1.2-2.8
	C-396.1,278-395.6,279-395.5,280.7 M-394.6,280.6c-0.1-1.4-0.6-3.5-2.5-3.3c-1.9,0.1-2.2,2.2-2.1,3.6c0.1,1.4,0.6,3.5,2.5,3.3
	C-394.7,284.1-394.5,282-394.6,280.6"/>
<path fill="#FFFFFF" d="M-393.5,276.8l4.5-1.3l0.2,0.7c-0.5,0.9-1.4,3.4-1.1,6.4l-0.9,0.3c-0.3-1.9,0.2-4.5,1.1-6.4l-3.6,1
	L-393.5,276.8z"/>
<path d="M-377.9,258.2c-1.9,2.2-4.7,3.7-7.8,3.8c-3.6,0.1-6.9-1.7-9-4.5c2.1,1.1,4.6,2.1,7.3,2.4
	C-383.9,260.3-380.5,259.5-377.9,258.2"/>
<path d="M-406.1,238.2c0,0,1.2-2.3,5.9-2.3c5.4,0,11.1,4.8,16.7,4.8c0,0,2.7-0.4,3-0.7c0,0-1.1,2-4.2,2c-6.9,0-10.2-4.8-16.8-4.8
	C-404.2,237.3-406.1,238.2-406.1,238.2"/>
<path d="M-404.7,242.8c0,0,1.2-2.3,5.9-2.3c5.4,0,10.3,4.5,15.1,4.5c0,0,3.3,0.2,4.9-1.4c0,0-1,2.8-5.4,2.8c-7,0-10-4.4-16-4.4
	C-402.8,242-404.7,242.8-404.7,242.8"/>
<path d="M-401.5,246c6.3,0,8.1,4.2,15.8,4.2c8.2,0,8.1-5.4,8.1-5.4s-0.8,3.7-7.4,3.7c-6.7,0-10.2-3.5-14.6-3.5
	c-3.2,0-4.2,1.2-4.2,1.2L-401.5,246"/>
<path d="M-400.7,250.4c0,0,1.6-0.7,3.2-0.7c3.5,0,5.4,2.7,12.1,2.7c0,0,6.7,0.2,8.1-3.6c0,0-0.3,5.5-8.1,5.5
	C-392.8,254.3-393.7,250.4-400.7,250.4"/>
<path d="M-399.5,254.5c0,0,0.9-0.4,2.5-0.4c4.8,0,6.3,2.2,11.8,2.2c0,0,5.3,0.1,8.1-2.7c0,0-2.2,4.5-8,4.5
	C-392.8,258.1-393.6,254.5-399.5,254.5"/>
</svg>
