<?xml version="1.0" encoding="utf-8"?>
<!-- Generator: Adobe Illustrator 19.1.0, SVG Export Plug-In . SVG Version: 6.00 Build 0)  -->
<!DOCTYPE svg PUBLIC "-//W3C//DTD SVG 1.1//EN" "http://www.w3.org/Graphics/SVG/1.1/DTD/svg11.dtd">
<svg version="1.1"
	 id="Ebene_1" xmlns:rdf="http://www.w3.org/1999/02/22-rdf-syntax-ns#" xmlns:dc="http://purl.org/dc/elements/1.1/" xmlns:cc="http://creativecommons.org/ns#"
	 xmlns="http://www.w3.org/2000/svg" xmlns:xlink="http://www.w3.org/1999/xlink" x="0px" y="0px" width="100px" height="100px"
	 viewBox="-203 490 100 100" style="enable-background:new -203 490 100 100;" xml:space="preserve">
<g>
	<path style="fill:#F0C60B;" d="M-155.3,498.5c3.2-0.4,6.6,0.1,9.5,1.4c2.1,0.9,4.1,2.2,5.9,3.7c1.8,1.5,3.4,3.3,4.8,5.2
		c1.6,2.2,2.9,4.5,4.1,6.9c2.3,5,3.8,10.4,4.5,15.9c0.6,4.7,0.7,9.4,0.3,14.1c-0.5,6.4-2,12.7-4.7,18.6c-2,4.4-4.8,8.6-8.4,11.9
		c-1.7,1.5-3.5,2.8-5.5,3.8c-2.4,1.2-5.1,1.9-7.8,2h-1.2c-2.7-0.1-5.3-0.8-7.7-2c-2.2-1.1-4.1-2.5-5.9-4.1c-2.2-2.1-4.1-4.6-5.7-7.2
		c-2.4-4-4.2-8.5-5.3-13.1c-0.8-3-1.3-6.1-1.6-9.1c-0.2-1.7-0.2-3.5-0.3-5.2V539c0-0.8,0-1.5,0.1-2.3c0.2-4.1,0.8-8.2,1.8-12.1
		c1.3-5.2,3.4-10.2,6.4-14.7c2.4-3.5,5.4-6.7,9.2-8.9C-160.5,499.7-158,498.8-155.3,498.5z"/>
	<path style="fill:#114FA2;" d="M-159.3,501.5c1.9-0.8,4-1.2,6.1-1.2c3.1,0,6.2,0.9,8.8,2.5c2.3,1.3,4.3,3.1,6.1,5.1
		c2.3,2.7,4.2,5.7,5.7,8.9c0.1,0.1,0,0.2,0,0.3c-0.6,1-1.4,2-2.2,2.9c-0.2,0.2-0.4,0.4-0.5,0.6c0,0.8,0,1.6,0,2.5V542
		c2.5,0,5,0,7.5,0c0,0.6-0.1,1.1-0.1,1.7c-3,0-6.1,0-9.1,0c0-7.2,0-14.3,0-21.5c-1.8,1.6-3.9,2.9-6,3.8c-0.1,0-0.2,0.1-0.2,0.2
		c0,5.8,0,11.6,0,17.5c-3,0-5.9,0-8.9,0c0,2.1,0,4.3,0,6.4c3,0,5.9,0,8.9,0c0,8.9,0,17.9,0,26.8l0,0c-0.5,0.3-1.1,0.7-1.7,1
		c0-8.7,0-17.4,0-26.1c-2.4,0-4.8,0-7.2,0c0,9.4,0,18.8,0,28.2c-2.3,0.2-4.6-0.3-6.8-1.1v0c0-17.1,0-34.3,0-51.4
		c-2.5-0.6-4.9-1.5-7.1-2.8c0,16.5,0,33.1,0,49.6c-0.6-0.5-1-1-1.5-1.6c-2.1-2.3-3.8-5-5.2-7.8c0-0.1,0-0.1,0-0.2
		c0-15.2,0-30.4,0-45.6c0-0.3,0.1-0.5-0.1-0.8c-0.3-0.4-0.5-0.7-0.8-1.1c0-0.1,0-0.2,0.1-0.2c1.9-4.3,4.5-8.3,8-11.5
		C-163.9,503.9-161.7,502.4-159.3,501.5L-159.3,501.5z"/>
	<path style="fill:#FEFEFD;" d="M-154.6,502.3c0.7-0.1,1.4-0.2,2.1-0.2c0.5,0,1,0,1.5,0.1c1.3,0.3,2.5,0.7,3.8,1.2
		c0,0.9,0,1.8,0,2.7c-0.4-0.4-0.9-0.6-1.3-0.9c-0.7-0.3-1.5-0.5-2.3-0.8c-0.1,0-0.3-0.1-0.5,0c-0.2,0.1-0.2,0.4-0.2,0.6
		c0,1.3,0,2.7,0,4c0.4,0,0.9,0,1.3,0c0.5,0,0.9-0.2,1.3-0.4c0,1.1,0,2.1,0,3.2c-0.2-0.3-0.6-0.5-1-0.5c-0.5,0-1.1,0-1.6,0
		c0,1.7,0,3.3,0,5c0,0.6,0.2,1.1,0.5,1.6c-1.2,0-2.5,0-3.7,0c0.3-0.5,0.6-1,0.6-1.6c0-4.2,0-8.4,0-12.6
		C-154.1,503.2-154.4,502.7-154.6,502.3z"/>
	<path style="fill:#FEFEFD;" d="M-160.3,503.8c0.9-0.2,1.8,0,2.5,0.5c0.6,0.4,1,1,1.2,1.7c0.3,1.4-0.2,2.9-1.1,4.1
		c1,0.2,1.8,0.9,2.2,1.9c0.4,0.9,0.4,2,0.2,3c-0.4,1.2-1.4,2.2-2.5,2.7c-0.5,0.2-0.9,0.4-1.4,0.4c-2.1,0-4.1,0-6.2,0
		c0.4-0.4,0.6-1,0.7-1.5c0.1-0.6,0-1.2,0-1.8c0-0.9,0-1.8,0-2.6c0-1.2,0-2.3,0-3.5c0-0.4-0.2-0.8-0.7-0.8c1.1-1,2.3-2.1,3.5-3
		C-161.4,504.3-160.9,504-160.3,503.8L-160.3,503.8z"/>
	<path style="fill:#FEFEFD;" d="M-144.9,506.8c0.7-0.3,1.4-0.4,2.1-0.3c0.8,0.1,1.5,0.5,2,1.2c0.1,0.1,0,0.2,0,0.3
		c-0.3,0.6-0.6,1.1-0.9,1.7l0,0c-0.3-0.3-0.5-0.5-0.9-0.6c-0.7-0.3-1.6,0.1-2,0.7c-0.5,0.6-0.6,1.4-0.7,2.2c0,0.8,0,1.7,0.4,2.4
		c0.3,0.5,0.8,0.9,1.3,1c0.8,0.2,1.5-0.2,2.2-0.6c0.2,0.7,0.5,1.4,0.8,2.1c-0.7,0.7-1.7,1-2.7,1c-1.2,0-2.3-0.4-3.1-1.3
		c-0.8-0.8-1.1-1.9-1.3-3c-0.2-1.4-0.1-2.8,0.5-4.1C-146.9,508.3-146,507.3-144.9,506.8L-144.9,506.8z"/>
	<path style="fill:#114FA2;" d="M-160.7,506.6c0.3-0.1,0.6-0.2,0.9-0.1c0.4,0.2,0.6,0.5,0.6,0.9c0.1,0.4,0,0.8-0.2,1.2
		c-0.3,0.5-0.8,0.9-1.3,1.3c-0.5,0.3-1.1,0.6-1.7,0.9c0-0.9,0-1.9,0-2.8C-161.9,507.4-161.4,506.9-160.7,506.6L-160.7,506.6z"/>
	<path style="fill:#114FA2;" d="M-162.3,513.4c0.7-0.6,1.5-1,2.3-1.2c0.6-0.1,1.2-0.1,1.7,0.3c0.4,0.3,0.6,0.9,0.6,1.4
		c0,0.5-0.3,0.9-0.7,1.2c-0.7,0.4-1.6,0.5-2.4,0.6c-0.5,0-1,0-1.5,0C-162.3,514.9-162.3,514.2-162.3,513.4L-162.3,513.4z"/>
	<path style="fill:#FEFEFD;" d="M-132.6,516.8c0.3,0.8,0.7,1.7,1,2.5c2.1,5.5,3.3,11.4,3.6,17.2c0.1,1.8,0.1,3.6,0.1,5.4
		c-2.5,0-5,0-7.5,0v-18.9c0-0.8,0-1.6,0-2.5c0.1-0.2,0.4-0.4,0.5-0.6c0.8-0.9,1.5-1.9,2.2-2.9C-132.6,517-132.6,516.9-132.6,516.8z"
		/>
	<path style="fill:#EC4336;" d="M-174.4,518.8c0.2-0.5,0.4-1,0.6-1.4c0.2,0.4,0.5,0.8,0.8,1.1c0.1,0.2,0.1,0.5,0.1,0.8
		c0,15.2,0,30.4,0,45.6c-0.5-0.8-0.8-1.7-1.2-2.6c-2.4-5.7-3.7-11.9-4.1-18.1c0-0.9-0.1-1.8-0.1-2.7c0-1.5,0-2.9,0.1-4.4
		C-178,530.8-176.7,524.6-174.4,518.8z"/>
	<path style="fill:#FEFEFD;" d="M-151.9,519.3c0.5-0.1,1.1,0.1,1.4,0.5c0.6,0.6,0.9,1.4,0.9,2.3c0,0.9-0.2,1.7-0.8,2.4
		c-0.4,0.4-1,0.7-1.5,0.6c-0.5-0.1-0.9-0.4-1.2-0.9c-0.4-0.6-0.6-1.4-0.6-2.1c0-0.7,0.2-1.4,0.6-2
		C-152.7,519.7-152.3,519.4-151.9,519.3L-151.9,519.3z"/>
	<path style="fill:#FEFEFD;" d="M-147.8,519.5c0.5-0.2,1-0.3,1.4-0.1c0.7,0.2,1.2,0.8,1.3,1.5c0.1,0.5,0.1,1.1-0.1,1.6
		c-0.2,0.7-0.8,1.3-1.4,1.5c-0.6,0.3-1.3,0.3-1.9,0.1c0-0.3,0-0.5,0-0.8c0.4,0.1,0.9,0.1,1.3-0.1c0.2-0.1,0.4-0.3,0.5-0.5
		c-0.6,0-1.3-0.1-1.7-0.7c-0.3-0.4-0.4-1-0.3-1.5C-148.6,520.1-148.3,519.6-147.8,519.5z"/>
	<path style="fill:#FEFEFD;" d="M-157.6,519.6c0.7-0.4,1.7-0.4,2.3,0.2c0.6,0.6,0.8,1.5,0.8,2.3c0,0.6-0.1,1.2-0.4,1.7
		c-0.4,0.6-1,1-1.7,1c-0.6,0-1.1-0.2-1.6-0.5c0-0.3,0-0.6,0-0.9c0.5,0.2,1.1,0.5,1.7,0.4c0.4-0.1,0.5-0.5,0.5-0.9
		c-0.5,0.1-1,0.3-1.5,0.1c-0.7-0.2-1-1-1-1.6C-158.5,520.6-158.2,520-157.6,519.6z"/>
	<path style="fill:#FEFEFD;" d="M-161.6,520.1c0.4,0,0.9-0.2,1.1-0.7c0.4,0,0.8,0.1,1.1,0.1c0,1.6,0,3.2,0,4.7
		c-0.5-0.2-0.9-0.4-1.3-0.5c0-1,0-2,0-3c-0.3,0.1-0.6,0.1-0.9,0.1C-161.6,520.5-161.6,520.3-161.6,520.1L-161.6,520.1z"/>
	<path style="fill:#114FA2;" d="M-156.8,520.3c0.3-0.1,0.6,0,0.8,0.3c0.2,0.4,0.2,0.9-0.1,1.2c-0.2,0.2-0.6,0.3-0.9,0.1
		C-157.5,521.5-157.4,520.6-156.8,520.3L-156.8,520.3z"/>
	<path style="fill:#114FA2;" d="M-147.1,520.3c0.5-0.2,0.9,0.4,0.8,0.8c0,0.5-0.6,0.8-1,0.5C-147.7,521.4-147.6,520.5-147.1,520.3z"
		/>
	<path style="fill:#114FA2;" d="M-151.7,520.4c0.2,0,0.5,0.1,0.6,0.3c0.3,0.4,0.4,0.9,0.4,1.4c0,0.5-0.1,1-0.4,1.4
		c-0.2,0.2-0.4,0.4-0.7,0.3c-0.3-0.1-0.5-0.4-0.6-0.6c-0.3-0.6-0.3-1.4,0-2C-152.2,520.8-152,520.5-151.7,520.4L-151.7,520.4z"/>
	<path style="fill:#EC4336;" d="M-143.1,526c2.2-1,4.2-2.3,6-3.8c0,7.2,0,14.3,0,21.5c3,0,6.1,0,9.1,0c-0.1,2.1-0.4,4.3-0.7,6.4
		c-2.8,0-5.6,0-8.4,0v14.2c0,2.2,0,4.4,0,6.6c-1.8,2.3-3.8,4.4-6.3,6c0-8.9,0-17.9,0-26.8c-3,0-5.9,0-8.9,0c0-2.1,0-4.3,0-6.4
		c3,0,5.9,0,8.9,0c0-5.8,0-11.6,0-17.5C-143.4,526.1-143.2,526.1-143.1,526L-143.1,526z"/>
	<path style="fill:#EC4336;" d="M-166.1,524.7c2.2,1.3,4.6,2.3,7.1,2.8c0,17.1,0,34.3,0,51.4c-2.7-1-5-2.6-7.1-4.6
		C-166.1,557.8-166.1,541.2-166.1,524.7z"/>
	<path style="fill:#FEFEFD;" d="M-147.5,527.5c0.8-0.2,1.7-0.5,2.5-0.7c0,5,0,10,0,15c0,0.1,0,0.3-0.1,0.2c-2.4,0-4.8,0-7.1,0
		c0-4.6,0-9.2,0-13.9C-150.6,528.1-149,527.9-147.5,527.5L-147.5,527.5z"/>
	<path style="fill:#114FA2;" d="M-137.1,550.1c2.8,0,5.6,0,8.4,0c-0.1,0.6-0.2,1.1-0.3,1.7c-2.1,0-4.3,0-6.4,0c0,5.4,0,10.8,0,16.2
		c0,0.2,0,0.5-0.1,0.7c-0.5,0.8-1,1.5-1.6,2.3c0-2.2,0-4.4,0-6.6V550.1L-137.1,550.1z"/>
	<path style="fill:#FEFEFD;" d="M-152.2,551.8c2.4,0,4.8,0,7.2,0c0,8.7,0,17.4,0,26.1c-2.2,1.2-4.7,2-7.2,2.1
		C-152.2,570.6-152.2,561.2-152.2,551.8L-152.2,551.8z"/>
	<path style="fill:#FEFEFD;" d="M-135.4,551.8c2.1,0,4.3,0,6.4,0c-1.1,5.7-3,11.3-6.1,16.2c-0.1,0.2-0.3,0.5-0.4,0.7
		c0.1-0.2,0.1-0.5,0.1-0.7C-135.4,562.6-135.4,557.2-135.4,551.8z"/>
</g>
</svg>
