<?xml version="1.0" encoding="UTF-8" ?>
<!DOCTYPE svg PUBLIC "-//W3C//DTD SVG 1.1//EN" "http://www.w3.org/Graphics/SVG/1.1/DTD/svg11.dtd">
<svg width="1100pt" height="1100pt" viewBox="0 0 1100 1100" version="1.1" xmlns="http://www.w3.org/2000/svg">
<g id="#85764fff">
<path fill="#85764f" opacity="1.00" d=" M 520.55 50.83 C 594.81 46.53 670.03 58.83 738.85 87.11 C 801.77 112.83 859.25 151.64 906.77 200.22 C 950.47 244.81 985.75 297.62 1010.08 355.11 C 1046.86 441.51 1058.11 538.39 1042.96 631.01 C 1031.81 699.86 1005.86 766.24 967.48 824.47 C 928.89 883.19 877.79 933.64 818.58 971.48 C 759.28 1009.48 691.84 1034.68 622.13 1044.75 C 529.48 1058.31 433.03 1045.54 347.42 1007.47 C 290.55 982.35 238.50 946.43 194.72 902.31 C 147.02 854.34 109.15 796.62 84.32 733.68 C 57.15 665.15 45.72 590.53 50.58 516.99 C 54.89 449.83 73.00 383.59 103.57 323.63 C 134.62 262.49 178.45 207.91 231.34 164.28 C 283.94 120.78 345.55 88.19 411.17 69.39 C 446.79 59.15 483.56 52.94 520.55 50.83 M 524.18 83.16 C 453.00 86.79 382.71 106.85 320.42 141.50 C 258.15 176.00 203.89 224.82 163.09 283.16 C 125.79 336.31 99.78 397.37 87.49 461.14 C 72.23 539.95 77.57 622.71 103.32 698.77 C 125.09 763.45 161.44 823.11 208.67 872.34 C 252.34 917.98 305.29 954.71 363.37 979.55 C 418.76 1003.32 478.78 1016.16 539.03 1017.38 C 609.22 1018.96 679.74 1004.78 743.69 975.78 C 807.79 946.86 865.21 903.31 910.40 849.43 C 952.23 799.68 983.57 741.13 1001.48 678.63 C 1026.84 590.54 1025.42 494.94 997.31 407.68 C 977.71 346.49 945.13 289.55 902.54 241.46 C 857.66 190.64 801.67 149.70 739.61 122.39 C 672.21 92.60 597.74 79.23 524.18 83.16 Z" />
<path fill="#85764f" opacity="1.00" d=" M 526.46 185.72 C 570.65 182.96 615.35 188.16 657.65 201.29 C 718.41 220.04 773.96 255.17 817.15 301.83 C 858.74 346.57 888.86 401.90 903.62 461.19 C 920.98 530.54 917.55 605.01 893.47 672.35 C 869.21 741.02 823.62 801.86 764.80 844.77 C 723.60 874.94 676.01 896.35 626.05 906.96 C 558.17 921.47 486.15 916.31 421.17 891.80 C 360.31 869.01 305.86 829.51 265.17 778.85 C 221.87 725.36 194.26 659.34 186.77 590.91 C 181.35 542.33 185.63 492.65 199.60 445.79 C 217.19 386.45 250.32 331.84 294.69 288.70 C 337.45 246.86 390.67 215.78 448.18 199.25 C 473.67 191.89 499.98 187.37 526.46 185.72 M 402.09 248.09 C 348.17 274.41 301.60 315.50 268.67 365.64 C 241.28 407.19 223.31 454.92 216.64 504.24 C 210.16 551.48 213.72 600.12 227.31 645.84 C 246.27 710.47 285.47 768.88 337.78 811.26 C 388.54 852.74 451.72 878.75 516.99 884.92 C 583.54 891.49 651.99 877.78 710.64 845.58 C 761.20 818.03 804.45 777.25 834.96 728.42 C 822.09 714.15 809.25 699.87 796.39 685.60 C 764.61 743.55 711.86 789.73 650.00 813.11 C 582.20 839.20 504.22 837.46 437.68 808.30 C 379.63 783.20 330.68 737.82 301.15 681.92 C 282.50 646.82 271.43 607.71 269.06 568.04 C 266.24 523.67 273.96 478.63 291.83 437.89 C 319.07 375.02 370.19 322.93 432.53 294.50 C 500.10 263.21 580.25 260.62 649.75 287.29 C 711.93 310.69 764.83 357.18 796.71 415.40 C 809.53 401.11 822.39 386.86 835.23 372.59 C 793.64 305.35 727.48 253.73 652.09 229.86 C 570.52 203.64 478.94 210.12 402.09 248.09 M 522.01 281.46 C 521.99 315.81 521.99 350.16 522.01 384.50 C 540.34 384.49 558.67 384.51 577.00 384.49 C 576.99 350.14 577.02 315.79 576.99 281.44 C 558.72 279.63 540.28 279.64 522.01 281.46 M 399.31 325.75 C 410.20 337.86 421.12 349.95 432.00 362.07 C 432.00 394.78 432.01 427.49 431.99 460.21 C 450.31 480.58 468.65 500.94 486.99 521.29 C 487.03 496.03 486.97 470.77 487.02 445.50 C 521.77 445.50 556.53 445.50 591.29 445.50 C 606.31 428.85 621.31 412.18 636.30 395.51 C 586.54 395.48 536.77 395.51 487.01 395.50 C 486.99 377.58 487.00 359.66 487.00 341.75 C 494.39 339.51 501.92 337.74 509.50 336.28 C 509.50 318.54 509.51 300.79 509.50 283.05 C 470.14 288.69 432.29 303.60 399.31 325.75 M 589.50 283.00 C 589.49 300.74 589.49 318.49 589.50 336.23 C 615.72 341.10 641.01 350.85 663.69 364.86 C 675.55 351.68 687.44 338.52 699.28 325.31 C 666.40 303.33 628.63 288.76 589.50 283.00 M 310.22 425.12 C 320.78 436.90 331.40 448.64 341.99 460.41 C 342.02 547.84 341.98 635.28 342.01 722.71 C 357.91 741.85 376.50 758.73 396.99 772.85 C 397.02 689.07 396.98 605.28 397.01 521.50 C 434.52 563.10 471.98 604.74 509.49 646.34 C 509.51 618.94 509.50 591.54 509.50 564.15 C 453.57 502.03 397.63 439.94 341.68 377.85 C 329.59 392.46 319.01 408.31 310.22 425.12 M 589.51 563.55 C 589.48 590.97 589.50 618.38 589.50 645.80 C 626.67 604.56 663.82 563.29 700.99 522.05 C 701.02 605.94 700.98 689.82 701.01 773.71 C 721.48 759.80 740.08 743.12 756.01 724.17 C 755.99 636.44 756.00 548.71 756.00 460.98 C 766.91 448.85 777.85 436.74 788.75 424.61 C 779.98 407.80 769.32 391.99 757.22 377.40 C 701.31 439.44 645.42 501.51 589.51 563.55 M 522.01 459.50 C 521.99 579.23 522.00 698.97 522.01 818.71 C 540.27 820.55 558.72 820.55 576.99 818.74 C 577.01 698.99 577.01 579.25 576.99 459.50 C 558.66 459.50 540.34 459.50 522.01 459.50 M 432.00 577.95 C 432.00 649.70 432.00 721.45 432.00 793.20 C 449.56 801.69 468.01 808.30 486.99 812.78 C 487.01 754.87 486.99 696.95 487.00 639.03 C 468.68 618.66 450.34 598.31 432.00 577.95 Z" />
</g>
<g id="#0063a6ff">
<path fill="#0063a6" opacity="1.00" d=" M 524.18 83.16 C 597.74 79.23 672.21 92.60 739.61 122.39 C 801.67 149.70 857.66 190.64 902.54 241.46 C 945.13 289.55 977.71 346.49 997.31 407.68 C 1025.42 494.94 1026.84 590.54 1001.48 678.63 C 983.57 741.13 952.23 799.68 910.40 849.43 C 865.21 903.31 807.79 946.86 743.69 975.78 C 679.74 1004.78 609.22 1018.96 539.03 1017.38 C 478.78 1016.16 418.76 1003.32 363.37 979.55 C 305.29 954.71 252.34 917.98 208.67 872.34 C 161.44 823.11 125.09 763.45 103.32 698.77 C 77.57 622.71 72.23 539.95 87.49 461.14 C 99.78 397.37 125.79 336.31 163.09 283.16 C 203.89 224.82 258.15 176.00 320.42 141.50 C 382.71 106.85 453.00 86.79 524.18 83.16 M 523.55 135.79 C 448.57 140.22 374.93 165.40 313.03 207.97 C 258.09 245.48 212.31 296.32 180.89 354.97 C 155.00 403.14 138.89 456.53 133.83 510.98 C 129.43 557.98 133.00 605.74 144.59 651.51 C 159.61 711.12 188.32 767.17 227.68 814.37 C 270.78 866.22 326.59 907.41 388.90 933.18 C 452.11 959.48 521.84 969.63 589.96 963.07 C 630.68 959.19 670.83 949.31 708.68 933.77 C 765.88 910.34 817.70 873.98 859.27 828.24 C 902.81 780.45 935.03 722.37 952.17 660.02 C 968.39 601.33 971.30 539.06 960.93 479.09 C 950.30 417.34 925.20 358.20 888.36 307.53 C 849.15 253.40 796.73 208.94 736.93 179.08 C 671.29 146.10 596.84 131.21 523.55 135.79 Z" />
</g>
<g id="#22201eff">
<path fill="#22201e" opacity="1.00" d=" M 523.55 135.79 C 596.84 131.21 671.29 146.10 736.93 179.08 C 796.73 208.94 849.15 253.40 888.36 307.53 C 925.20 358.20 950.30 417.34 960.93 479.09 C 971.30 539.06 968.39 601.33 952.17 660.02 C 935.03 722.37 902.81 780.45 859.27 828.24 C 817.70 873.98 765.88 910.34 708.68 933.77 C 670.83 949.31 630.68 959.19 589.96 963.07 C 521.84 969.63 452.11 959.48 388.90 933.18 C 326.59 907.41 270.78 866.22 227.68 814.37 C 188.32 767.17 159.61 711.12 144.59 651.51 C 133.00 605.74 129.43 557.98 133.83 510.98 C 138.89 456.53 155.00 403.14 180.89 354.97 C 212.31 296.32 258.09 245.48 313.03 207.97 C 374.93 165.40 448.57 140.22 523.55 135.79 M 526.46 185.72 C 499.98 187.37 473.67 191.89 448.18 199.25 C 390.67 215.78 337.45 246.86 294.69 288.70 C 250.32 331.84 217.19 386.45 199.60 445.79 C 185.63 492.65 181.35 542.33 186.77 590.91 C 194.26 659.34 221.87 725.36 265.17 778.85 C 305.86 829.51 360.31 869.01 421.17 891.80 C 486.15 916.31 558.17 921.47 626.05 906.96 C 676.01 896.35 723.60 874.94 764.80 844.77 C 823.62 801.86 869.21 741.02 893.47 672.35 C 917.55 605.01 920.98 530.54 903.62 461.19 C 888.86 401.90 858.74 346.57 817.15 301.83 C 773.96 255.17 718.41 220.04 657.65 201.29 C 615.35 188.16 570.65 182.96 526.46 185.72 Z" />
</g>
<g id="#ffffffff">
<path fill="#ffffff" opacity="1.00" d=" M 402.09 248.09 C 478.94 210.12 570.52 203.64 652.09 229.86 C 727.48 253.73 793.64 305.35 835.23 372.59 C 822.39 386.86 809.53 401.11 796.71 415.40 C 764.83 357.18 711.93 310.69 649.75 287.29 C 580.25 260.62 500.10 263.21 432.53 294.50 C 370.19 322.93 319.07 375.02 291.83 437.89 C 273.96 478.63 266.24 523.67 269.06 568.04 C 271.43 607.71 282.50 646.82 301.15 681.92 C 330.68 737.82 379.63 783.20 437.68 808.30 C 504.22 837.46 582.20 839.20 650.00 813.11 C 711.86 789.73 764.61 743.55 796.39 685.60 C 809.25 699.87 822.09 714.15 834.96 728.42 C 804.45 777.25 761.20 818.03 710.64 845.58 C 651.99 877.78 583.54 891.49 516.99 884.92 C 451.72 878.75 388.54 852.74 337.78 811.26 C 285.47 768.88 246.27 710.47 227.31 645.84 C 213.72 600.12 210.16 551.48 216.64 504.24 C 223.31 454.92 241.28 407.19 268.67 365.64 C 301.60 315.50 348.17 274.41 402.09 248.09 Z" />
<path fill="#ffffff" opacity="1.00" d=" M 522.01 281.46 C 540.28 279.64 558.72 279.63 576.99 281.44 C 577.02 315.79 576.99 350.14 577.00 384.49 C 558.67 384.51 540.34 384.49 522.01 384.50 C 521.99 350.16 521.99 315.81 522.01 281.46 Z" />
<path fill="#ffffff" opacity="1.00" d=" M 399.31 325.75 C 432.29 303.60 470.14 288.69 509.50 283.05 C 509.51 300.79 509.50 318.54 509.50 336.28 C 501.92 337.74 494.39 339.51 487.00 341.75 C 487.00 359.66 486.99 377.58 487.01 395.50 C 536.77 395.51 586.54 395.48 636.30 395.51 C 621.31 412.18 606.31 428.85 591.29 445.50 C 556.53 445.50 521.77 445.50 487.02 445.50 C 486.97 470.77 487.03 496.03 486.99 521.29 C 468.65 500.94 450.31 480.58 431.99 460.21 C 432.01 427.49 432.00 394.78 432.00 362.07 C 421.12 349.95 410.20 337.86 399.31 325.75 Z" />
<path fill="#ffffff" opacity="1.00" d=" M 589.50 283.00 C 628.63 288.76 666.40 303.33 699.28 325.31 C 687.44 338.52 675.55 351.68 663.69 364.86 C 641.01 350.85 615.72 341.10 589.50 336.23 C 589.49 318.49 589.49 300.74 589.50 283.00 Z" />
<path fill="#ffffff" opacity="1.00" d=" M 310.22 425.12 C 319.01 408.31 329.59 392.46 341.68 377.85 C 397.63 439.94 453.57 502.03 509.50 564.15 C 509.50 591.54 509.51 618.94 509.49 646.34 C 471.98 604.74 434.52 563.10 397.01 521.50 C 396.98 605.28 397.02 689.07 396.99 772.85 C 376.50 758.73 357.91 741.85 342.01 722.71 C 341.98 635.28 342.02 547.84 341.99 460.41 C 331.40 448.64 320.78 436.90 310.22 425.12 Z" />
<path fill="#ffffff" opacity="1.00" d=" M 589.51 563.55 C 645.42 501.51 701.31 439.44 757.22 377.40 C 769.32 391.99 779.98 407.80 788.75 424.61 C 777.85 436.74 766.91 448.85 756.00 460.98 C 756.00 548.71 755.99 636.44 756.01 724.17 C 740.08 743.12 721.48 759.80 701.01 773.71 C 700.98 689.82 701.02 605.94 700.99 522.05 C 663.82 563.29 626.67 604.56 589.50 645.80 C 589.50 618.38 589.48 590.97 589.51 563.55 Z" />
<path fill="#ffffff" opacity="1.00" d=" M 522.01 459.50 C 540.34 459.50 558.66 459.50 576.99 459.50 C 577.01 579.25 577.01 698.99 576.99 818.74 C 558.72 820.55 540.27 820.55 522.01 818.71 C 522.00 698.97 521.99 579.23 522.01 459.50 Z" />
<path fill="#ffffff" opacity="1.00" d=" M 432.00 577.95 C 450.34 598.31 468.68 618.66 487.00 639.03 C 486.99 696.95 487.01 754.87 486.99 812.78 C 468.01 808.30 449.56 801.69 432.00 793.20 C 432.00 721.45 432.00 649.70 432.00 577.95 Z" />
</g>
</svg>
