<?xml version="1.0" encoding="utf-8"?>
<!-- Generator: Adobe Illustrator 18.1.1, SVG Export Plug-In . SVG Version: 6.00 Build 0)  -->
<!DOCTYPE svg PUBLIC "-//W3C//DTD SVG 1.1//EN" "http://www.w3.org/Graphics/SVG/1.1/DTD/svg11.dtd">
<svg version="1.1" id="Layer_1" xmlns="http://www.w3.org/2000/svg" xmlns:xlink="http://www.w3.org/1999/xlink" x="0px" y="0px"
	 width="100px" height="100px" viewBox="-663.1 200.7 100 100" enable-background="new -663.1 200.7 100 100" xml:space="preserve">
<g>
	<g>
		<g>
			<path fill="#FAD412" d="M-644.4,273.5c0,0,0,15.6,15.7,15.6c15.6,0,15.7,5.2,15.7,5.2s0.1-5.2,15.7-5.2
				c15.7,0,15.7-15.6,15.7-15.6v-66.4h-62.6V273.5z"/>
		</g>
		<g>
			<path d="M-613,294.3l-0.2,0c0-0.1-0.3-5.1-15.5-5.1c-4.7,0-8.4-1.4-11.1-4.1c-4.6-4.6-4.6-11.5-4.6-11.6V207h62.9v66.5
				c0,0,0,4-2,7.9c-1.8,3.6-5.7,7.9-13.8,7.9C-612.7,289.2-613,294.3-613,294.3z M-644.3,207.2v66.3c0,0.1,0,6.9,4.6,11.5
				c2.7,2.7,6.4,4,11,4c12.7,0,15.2,3.4,15.7,4.8c0.5-1.4,3-4.8,15.7-4.8c8,0,11.8-4.2,13.6-7.7c1.9-3.8,1.9-7.7,1.9-7.8v-66.3
				H-644.3z"/>
		</g>
	</g>
</g>
<g>
	<g>
		<path fill="#FF0000" d="M-643.2,208.6h60v63.8c0,0,0,15-15,15c-14.9,0-15,5-15,5s0-5-15-5c-15,0-15-15-15-15V208.6L-643.2,208.6z"
			/>
	</g>
</g>
<g>
	<g>
		<path fill="#0E1E7D" d="M-613.2,208.6h30v63.8c0,0,0,15-15,15c-14.9,0-15,5-15,5L-613.2,208.6L-613.2,208.6z"/>
	</g>
</g>
<g>
	<g>
		<polygon fill="#FFFFFF" points="-643.2,208.6 -583.2,208.6 -583.2,227.4 -643.2,227.4 		"/>
	</g>
</g>
<g>
	<g>
		<path fill="#FFF200" d="M-622.8,274.5c0.1,0.5,0.3,0.9,0.4,1.4c-0.6,0.2-1.1-0.1-1.6-0.4C-623.7,275-623.3,274.6-622.8,274.5
			L-622.8,274.5z"/>
	</g>
	<g>
		<path d="M-622.8,276.1c-0.5,0-1-0.3-1.3-0.5c-0.1,0-0.1-0.1,0-0.2c0.3-0.6,0.8-0.9,1.3-1c0.1,0,0.1,0,0.1,0.1
			c0,0.2,0.1,0.3,0.1,0.5c0.1,0.3,0.2,0.6,0.3,0.9c0,0.1,0,0.1-0.1,0.1C-622.5,276.1-622.6,276.1-622.8,276.1z M-623.8,275.5
			c0.4,0.2,0.8,0.5,1.3,0.4c-0.1-0.3-0.1-0.5-0.2-0.8c0-0.1-0.1-0.3-0.1-0.4C-623.2,274.8-623.6,275-623.8,275.5z"/>
	</g>
</g>
<g>
	<g>
		<path fill="#FFF200" d="M-621.9,278c-0.4,0.4-1.2,0.6-1.7,0.5c0-0.5,0.4-1.2,0.8-1.5L-621.9,278L-621.9,278z"/>
	</g>
	<g>
		<path d="M-623.3,278.6c-0.1,0-0.2,0-0.3,0c-0.1,0-0.1-0.1-0.1-0.1c0-0.6,0.5-1.3,0.9-1.6c0,0,0.1,0,0.1,0c0,0,0.1,0,0.1,0l0.9,1
			c0,0.1,0,0.1,0,0.2C-622.1,278.4-622.7,278.6-623.3,278.6z M-623.5,278.4c0.5,0,1.1-0.1,1.4-0.4l-0.7-0.8
			C-623.1,277.5-623.4,278-623.5,278.4z"/>
	</g>
</g>
<g>
	<g>
		<path fill="#FFF200" d="M-610.7,278.3l-0.5,1.5c-0.5-0.2-0.8-0.8-1.1-1.3C-611.8,278.2-611.1,278.1-610.7,278.3L-610.7,278.3z"/>
	</g>
	<g>
		<path d="M-611.1,279.9C-611.2,279.9-611.2,279.9-611.1,279.9c-0.6-0.2-1-0.9-1.2-1.3c0-0.1,0-0.1,0-0.2c0.5-0.3,1.2-0.4,1.7-0.2
			c0.1,0,0.1,0.1,0.1,0.2l-0.5,1.5C-611,279.8-611.1,279.9-611.1,279.9C-611.1,279.9-611.1,279.9-611.1,279.9z M-612,278.5
			c0.2,0.3,0.4,0.8,0.8,1l0.4-1.2C-611.2,278.3-611.7,278.3-612,278.5z"/>
	</g>
</g>
<g>
	<g>
		<path fill="#FFF200" d="M-619.6,279.2c-0.3,0.5-1,0.8-1.5,0.8c-0.1-0.1-0.1-0.2-0.1-0.4c0-0.4,0.2-0.8,0.4-1.1L-619.6,279.2
			L-619.6,279.2z"/>
	</g>
	<g>
		<path d="M-621.1,280.1c0,0-0.1,0-0.1-0.1c-0.1-0.1-0.1-0.3-0.1-0.4c0-0.4,0.2-0.8,0.4-1.2c0-0.1,0.1-0.1,0.2,0l1.2,0.7
			c0,0,0.1,0,0.1,0.1c0,0,0,0.1,0,0.1C-619.8,279.7-620.5,280.1-621.1,280.1C-621.1,280.1-621.1,280.1-621.1,280.1z M-620.7,278.7
			c-0.2,0.3-0.3,0.6-0.3,1c0,0.1,0,0.2,0,0.2c0.5-0.1,1-0.3,1.3-0.6L-620.7,278.7z"/>
	</g>
</g>
<g>
	<g>
		<path fill="#FFF200" d="M-613.6,278c0.1,0.7,0,1.3-0.3,1.9c-0.3-0.4-0.9-0.7-1-1.2L-613.6,278L-613.6,278L-613.6,278z"/>
	</g>
	<g>
		<path d="M-614,280c0,0-0.1,0-0.1-0.1c-0.1-0.2-0.3-0.3-0.4-0.4c-0.3-0.2-0.5-0.5-0.6-0.8c0-0.1,0-0.1,0.1-0.1l1.2-0.7
			c0,0,0,0,0.1,0l0.1,0c0.1,0,0.1,0,0.1,0.1c0.1,0.8,0,1.5-0.4,2C-613.9,280-613.9,280-614,280z M-614.8,278.7
			c0.1,0.2,0.3,0.4,0.5,0.6c0.1,0.1,0.2,0.2,0.3,0.3c0.2-0.4,0.3-0.9,0.2-1.5L-614.8,278.7z"/>
	</g>
</g>
<g>
	<g>
		<path fill="#FFF200" d="M-610.6,283.4c-0.3,0.5-0.9,0.8-1.4,0.9c-0.2-0.5-0.2-1.2,0-1.6L-610.6,283.4L-610.6,283.4z"/>
	</g>
	<g>
		<path d="M-612,284.4c-0.1,0-0.1,0-0.1-0.1c-0.2-0.5-0.2-1.2,0-1.7c0-0.1,0.1-0.1,0.2-0.1l1.4,0.7c0,0,0.1,0,0.1,0.1
			c0,0,0,0.1,0,0.1C-610.8,284-611.3,284.3-612,284.4C-612,284.4-612,284.4-612,284.4z M-611.9,282.9c-0.1,0.4-0.1,0.9,0,1.3
			c0.3-0.1,0.8-0.3,1.2-0.7L-611.9,282.9z"/>
	</g>
</g>
<g>
	<g>
		<path fill="#FFF200" d="M-601.4,284.2c-0.5-0.3-1.4-0.3-1.8-0.8l0.3-0.2l1-0.9C-601.6,282.8-601.3,283.6-601.4,284.2L-601.4,284.2
			z"/>
	</g>
	<g>
		<path d="M-601.4,284.4C-601.4,284.4-601.5,284.4-601.4,284.4c-0.2-0.1-0.5-0.2-0.7-0.3c-0.4-0.1-0.9-0.3-1.2-0.6
			c0-0.1,0-0.1,0-0.2l0.3-0.2l0.9-0.9c0,0,0.1,0,0.1,0c0,0,0.1,0,0.1,0.1c0.5,0.8,0.6,1.5,0.5,2
			C-601.3,284.3-601.3,284.3-601.4,284.4C-601.4,284.4-601.4,284.4-601.4,284.4z M-603,283.4c0.2,0.2,0.6,0.3,1,0.4
			c0.2,0.1,0.4,0.1,0.5,0.2c0-0.4-0.1-0.9-0.5-1.5L-603,283.4z"/>
	</g>
</g>
<g>
	<g>
		<path fill="#FFF200" d="M-607.3,284.8c-0.3,0.5-1,0.8-1.5,0.9c-0.2-0.4-0.3-1.2-0.1-1.6L-607.3,284.8L-607.3,284.8z"/>
	</g>
	<g>
		<path d="M-608.8,285.9c0,0-0.1,0-0.1-0.1c-0.2-0.4-0.3-1.3-0.1-1.7c0,0,0-0.1,0.1-0.1c0,0,0.1,0,0.1,0l1.6,0.7c0,0,0.1,0,0.1,0.1
			c0,0,0,0.1,0,0.1C-607.4,285.3-607.9,285.6-608.8,285.9C-608.8,285.9-608.8,285.9-608.8,285.9z M-608.8,284.3
			c-0.1,0.4,0,0.9,0.1,1.3c0.6-0.2,1-0.4,1.3-0.7L-608.8,284.3z"/>
	</g>
</g>
<g>
	<g>
		<path fill="#FFF200" d="M-625.9,254.8c-0.4,0.3-1.1,0.7-1.5,1c-0.4-0.4-0.5-1.5-0.4-2.1C-627.3,253.8-626.3,254.4-625.9,254.8
			L-625.9,254.8z"/>
	</g>
	<g>
		<path d="M-627.4,255.9C-627.5,255.9-627.5,255.9-627.4,255.9c-0.5-0.5-0.6-1.6-0.5-2.2c0-0.1,0.1-0.1,0.1-0.1c0.6,0,1.6,0.6,2,1.1
			c0,0.1,0,0.1,0,0.2c-0.2,0.2-0.5,0.3-0.8,0.5C-626.9,255.6-627.2,255.8-627.4,255.9C-627.4,255.9-627.4,255.9-627.4,255.9z
			 M-627.7,253.9c-0.1,0.5,0,1.4,0.3,1.7c0.2-0.1,0.4-0.3,0.7-0.4c0.2-0.1,0.5-0.3,0.6-0.4C-626.5,254.4-627.2,254-627.7,253.9z"/>
	</g>
</g>
<g>
	<g>
		<path fill="#FFF200" d="M-628.1,257.2c0,0.5,0,1.2,0,1.6c-0.6,0-1.4-0.5-1.7-1C-629.5,257.5-628.7,257.2-628.1,257.2L-628.1,257.2
			z"/>
	</g>
	<g>
		<path d="M-628.1,259C-628.1,259-628.1,259-628.1,259c-0.6,0-1.5-0.6-1.8-1c0-0.1,0-0.1,0-0.2c0.4-0.4,1.3-0.8,1.9-0.7
			c0.1,0,0.1,0.1,0.1,0.1c0,0.2,0,0.4,0,0.6c0,0.4,0,0.7,0,1.1C-628,258.9-628.1,259-628.1,259z M-629.7,257.9
			c0.3,0.4,1,0.8,1.4,0.8c0-0.3,0-0.6,0-0.9c0-0.2,0-0.3,0-0.5C-628.7,257.3-629.4,257.6-629.7,257.9z"/>
	</g>
</g>
<g>
	<g>
		<path fill="#FFF200" d="M-626.5,261.8c-0.5,0.3-1.6,0.6-2.1,0.4c0.1-0.5,0.7-1.3,1.2-1.5C-627.1,261-626.7,261.3-626.5,261.8
			L-626.5,261.8z"/>
	</g>
	<g>
		<path d="M-628.1,262.3c-0.2,0-0.4,0-0.5-0.1c-0.1,0-0.1-0.1-0.1-0.1c0.1-0.5,0.8-1.4,1.3-1.6c0.1,0,0.1,0,0.2,0
			c0.1,0.2,0.2,0.3,0.4,0.5c0.2,0.2,0.3,0.4,0.5,0.6c0,0.1,0,0.1,0,0.2C-626.8,262.1-627.6,262.3-628.1,262.3z M-628.4,262.1
			c0.4,0.1,1.3-0.1,1.8-0.3c-0.1-0.2-0.2-0.3-0.4-0.5c-0.1-0.1-0.2-0.3-0.3-0.4C-627.8,261-628.3,261.6-628.4,262.1z"/>
	</g>
</g>
<g>
	<g>
		<path fill="#FFF200" d="M-620.3,264.7l-0.1,0.2c-0.3-0.4-1.5-0.8-1.6-1.4l1.7-1.1C-620.3,262.5-620.1,264.2-620.3,264.7
			L-620.3,264.7z"/>
	</g>
	<g>
		<path d="M-620.4,265c0,0-0.1,0-0.1-0.1c-0.1-0.2-0.4-0.3-0.7-0.5c-0.4-0.3-0.9-0.5-1-0.9c0-0.1,0-0.1,0.1-0.1l1.7-1.1
			c0.1,0,0.1,0,0.2,0c0,0,0,0,0,0.1c0.1,0.4,0.2,1.8,0,2.3l-0.2,0.2C-620.4,265-620.4,265-620.4,265z M-621.9,263.6
			c0.1,0.2,0.5,0.5,0.8,0.7c0.2,0.1,0.5,0.3,0.6,0.4l0.1-0.1c0.1-0.3,0.1-1.3,0-1.9L-621.9,263.6z"/>
	</g>
</g>
<g>
	<g>
		<path fill="#FFF200" d="M-626.3,240.5l-1.1,1.1c-0.4-0.3-0.6-1-0.6-1.6C-627.5,240-626.6,240.2-626.3,240.5L-626.3,240.5z"/>
	</g>
	<g>
		<path d="M-627.4,241.7C-627.4,241.7-627.4,241.7-627.4,241.7c-0.6-0.4-0.8-1.2-0.8-1.7c0-0.1,0-0.1,0.1-0.1
			c0.6-0.1,1.5,0.1,1.9,0.5c0,0,0,0.1,0,0.1c0,0,0,0.1,0,0.1L-627.4,241.7C-627.3,241.7-627.3,241.7-627.4,241.7z M-627.9,240.2
			c0,0.5,0.2,1,0.5,1.3l0.9-0.9C-626.8,240.3-627.4,240.1-627.9,240.2z"/>
	</g>
</g>
<g>
	<g>
		<path fill="#FFF200" d="M-628.3,243.3l-0.3,1.6c-0.6,0-1.5-0.8-1.7-1.2C-629.9,243.4-628.8,243.2-628.3,243.3L-628.3,243.3z"/>
	</g>
	<g>
		<path d="M-628.6,245.1C-628.6,245.1-628.6,245.1-628.6,245.1c-0.6,0-1.6-0.8-1.8-1.3c0-0.1,0-0.1,0-0.2c0.4-0.3,1.1-0.4,1.7-0.4
			c0.2,0,0.3,0,0.5,0.1c0.1,0,0.1,0.1,0.1,0.1l-0.3,1.6C-628.5,245-628.6,245.1-628.6,245.1z M-630.2,243.7c0.3,0.4,1,1,1.5,1.1
			l0.3-1.4c-0.1,0-0.2,0-0.3,0C-629.2,243.4-629.9,243.5-630.2,243.7z"/>
	</g>
</g>
<g>
	<g>
		<path fill="#FFF200" d="M-626.7,249.6c-0.3,0.3-1.1,0.5-1.5,0.4c0-0.4,0.3-1.4,0.7-1.8L-626.7,249.6L-626.7,249.6z"/>
	</g>
	<g>
		<path d="M-628,250.2c-0.1,0-0.1,0-0.2,0c-0.1,0-0.1-0.1-0.1-0.1c0-0.4,0.4-1.5,0.7-1.8c0,0,0.1,0,0.1,0c0,0,0.1,0,0.1,0.1l0.9,1.3
			c0,0.1,0,0.1,0,0.2C-626.9,250-627.6,250.2-628,250.2z M-628.1,249.9c0.4,0,0.9-0.2,1.2-0.4l-0.7-1.1
			C-627.8,248.8-628,249.5-628.1,249.9z"/>
	</g>
</g>
<g>
	<g>
		<path fill="#FAD412" d="M-596.5,253.9c0.3,0.5,0.5,0.9,0.6,1.4c0.5,0.2,1.1,0.4,1.5,0.9c0.3,0.3,0.5,0.6,0.7,1c0,0.1,0,0.1,0,0.1
			l0,0c0.2,1.3,0.1,2.6-0.1,3.8l-2-1.2c-1.2-0.8-2-1.9-1.8-3.3c0-0.3,0.1-0.5,0.2-0.7c0.1-0.5,0-1-0.2-1.4c-0.4-0.6-0.9-1.4-1.7-1.6
			c-0.4,0-0.7,0.3-0.8,0.7c-0.4,0.9-0.1,2.1,0.1,3.1c0.2,0.9,0.6,1.8,0.9,2.7l1.1,2.5c0.6,1.4,1.2,2.7,1.5,4.1
			c0.3,1.2-0.1,2.4-1.1,3.1c-1.3,0.8-2.9,0.3-4.1-0.2c-0.6-0.2-1.1-0.5-1.7-0.8c-0.1,0.8-0.3,1.5-0.8,2.1c-0.3,0.3-0.6,0.6-0.9,0.8
			c-1,0.7-2.3,1.1-3,2.2c0.2,0.1,0.4,0,0.6,0c1.1,0,2-0.4,3.1-0.4c0.8,0,1.7,0.6,2,1.3c0.1,0.3,0.2,0.7,0.1,1l0,0
			c0,0.3-0.2,0.6-0.2,0.9c-0.1,0.4-0.3,0.9-0.5,1.4c0,0.1-0.1,0.1-0.1,0.2l0,0c-0.2,0.3-0.3,0.6-0.5,0.9c-0.4,0.6-1.1,1.2-1.2,1.9
			c0,0.2,0,0.3,0.1,0.5c0.8,0.7,2,0.3,2.8,0.8c0.1,0.1,0.2,0.2,0.3,0.3l-1.6,1.4c-0.1,0-0.3,0-0.4-0.1c-0.4-0.8-1.4-0.9-2.1-1.5
			c-1.2,0.4-1,1.8-1.5,2.7c0,0.1-0.1,0.1-0.1,0.2l-1.9-0.7c-0.2-0.2,0-0.4,0.1-0.6c0.4-0.7,1.1-1.2,1.5-1.9c-0.6-0.3-1,0.3-1.5,0.5
			c-0.4,0.5-0.7,1.3-1.5,1.4l-0.1,0l-1.7-0.9c-0.1-0.4,0-0.8,0.4-1c0.5-0.4,1.1-0.5,1.5-1c-0.4-0.2-0.8-0.5-1-0.9l0.7-1.7
			c0.5,0.1,1,0.5,1.4,0.9c0.8,0.4,2,0.7,2.9,0.1c0.3-0.2,0.5-0.6,0.7-0.9c0.3-0.6,0.7-1.3,0.7-2c0-0.3-0.1-0.6-0.3-0.8
			c-0.2-0.1-0.5-0.2-0.8-0.1l-1.3,0.4c-0.2,0.1-0.5,0.2-0.8,0.3l-1.8,0.4c-0.8,0.1-0.8,0.1-1.5-0.2c-1-0.3-1.5-0.6-1.8-1.2
			c-0.6-1.1-1-2.4-1-3.8c0.1-1.5,0.1-3,1.4-4c0.8-0.6,1.8-0.8,2.6-1.3c0.6-0.4,0.9-1.1,0.8-1.8l0,0.1c0.1,0.5-0.2,1.2-0.5,1.5
			c-0.6,0.4-1.2,0.7-1.9,1c-0.8,0.4-1.6,0.7-2,1.6c-0.4,1-0.5,1.8-0.5,2.9c0,1.2,0.3,2.3,0.7,3.2c-0.5,0.3-1.6,0.9-1.9,1.4
			c0.5,1,1.8,0.6,2.1,1.7l0.1,0.3l-1.6,0.8c-0.1,0-0.2,0-0.3-0.1c-0.2-0.4-0.5-0.8-0.9-0.8c-0.9-0.1-1.6,0.3-2.3,0.5
			c-0.3,0.4-0.5,0.9-0.8,1.2l-0.1,0.1c-0.5-0.4-1-0.5-1.5-1c0.2-0.3,0.6-0.6,0.7-1c-0.6-0.1-0.9,0.7-1.5,0.6
			c-0.2-0.1-0.2-0.2-0.4-0.4c-0.2-0.3-0.4-0.6-0.7-0.7l-0.1-0.1l0.3-0.2c0.4-0.1,0.8-0.1,1.2-0.4l0.1-0.1c-0.3-0.3-0.7,0-1.1-0.2
			c-0.1-0.2-0.1-0.6-0.2-0.8c-0.1-0.3-0.2-0.5-0.3-0.7c0.1-0.1,0.3-0.3,0.7-0.4c2.9,0.1,3.6,1.1,5.7-0.8c-0.6-1.5-2.7-1.8-2.9-3.8
			c0-1.6,0.7-3.2,2.1-4.3c0.9-0.6,1.9-1.2,3.1-1.4c0.3-0.4,0.1-1,0-1.5c-0.3-0.7-2.7-3.2-3.3-3.7l2.7-0.2c0.5,0.3,1,0.5,1.6,0.5
			c0.6-0.1,0.9-0.7,1.2-1.1c0.3-0.5,0.7-1.1,1.1-1.4c0.5-0.4,0.9-0.8,1.4-1l0.7,1.3c0.4,2.3,1.5,4.3,3.6,5.6
			c1.1,0.5,1.5,1.7,1.9,2.7c0.1,0.6,0.3,1.2,0.3,1.8c1.2,0.6,2.4,1.2,3.7,1.4c0.5,0.1,1.1,0.1,1.5-0.3c0.6-0.6,0.5-1.4,0.3-2.1
			c-0.3-1-0.7-1.9-1.1-2.9l-1.4-3.2c-0.6-1.7-1.3-3.3-1.4-5.3c0-1,0.3-2,1.3-2.6c0.7-0.4,1.6-0.2,2.3,0.3
			C-597.3,252.7-596.8,253.3-596.5,253.9L-596.5,253.9z"/>
	</g>
	<g>
		<path d="M-607.2,285.1C-607.2,285.1-607.3,285.1-607.2,285.1l-1.9-0.7c0,0,0,0,0,0c-0.2-0.2-0.1-0.5,0-0.6c0,0,0-0.1,0.1-0.1
			c0.3-0.4,0.6-0.8,0.9-1.2c0.2-0.2,0.4-0.4,0.5-0.6c-0.3-0.1-0.5,0.1-0.8,0.3c-0.1,0.1-0.3,0.2-0.4,0.3c-0.1,0.1-0.1,0.2-0.2,0.3
			c-0.3,0.5-0.7,1-1.3,1.1c0,0,0,0,0,0l-0.1,0c0,0,0,0,0,0l-1.7-0.9c0,0-0.1-0.1-0.1-0.1c-0.1-0.5,0.1-0.9,0.4-1.2
			c0.2-0.2,0.5-0.3,0.7-0.4c0.3-0.1,0.5-0.2,0.7-0.4c-0.3-0.2-0.7-0.4-0.9-0.8c0,0,0-0.1,0-0.1l0.7-1.7c0-0.1,0.1-0.1,0.1-0.1
			c0.5,0.1,0.9,0.4,1.4,0.9c1.1,0.5,2.1,0.6,2.7,0.1c0.2-0.1,0.3-0.4,0.5-0.6c0.1-0.1,0.1-0.2,0.2-0.3c0.4-0.7,0.7-1.3,0.6-2
			c0-0.3-0.1-0.5-0.3-0.7c-0.3-0.1-0.5-0.2-0.7-0.1l-1.3,0.4c-0.2,0.1-0.5,0.2-0.8,0.3l-1.8,0.4c-0.8,0.1-0.9,0.1-1.6-0.2
			c-1-0.3-1.5-0.6-1.9-1.3c-0.1-0.2-0.2-0.3-0.3-0.5c-0.5,0.3-1.4,0.8-1.7,1.3c0.2,0.4,0.6,0.5,1,0.6c0.5,0.2,1,0.4,1.2,1l0.1,0.3
			c0,0.1,0,0.1-0.1,0.1l-1.6,0.8c0,0-0.1,0-0.1,0c0,0,0,0,0,0c-0.1,0-0.3,0-0.3-0.2c-0.1-0.3-0.5-0.7-0.8-0.7c-0.1,0-0.2,0-0.3,0
			c-0.5,0-1,0.2-1.4,0.3c-0.2,0.1-0.3,0.1-0.5,0.2c-0.1,0.1-0.1,0.2-0.2,0.3c-0.2,0.3-0.4,0.6-0.6,0.8l-0.2,0.1c0,0-0.1,0-0.1,0
			c-0.2-0.2-0.5-0.3-0.7-0.4c-0.3-0.2-0.6-0.3-0.9-0.6c0,0-0.1-0.1,0-0.2c0.1-0.1,0.2-0.2,0.3-0.3c0.1-0.2,0.3-0.3,0.4-0.5
			c-0.2,0-0.3,0.1-0.5,0.3c-0.2,0.2-0.5,0.4-0.9,0.3c-0.2-0.1-0.3-0.2-0.3-0.3c0,0-0.1-0.1-0.1-0.1c-0.2-0.2-0.4-0.5-0.7-0.6
			c0,0,0,0-0.1,0l-0.1-0.1c0,0,0-0.1,0-0.1c0,0,0-0.1,0-0.1l0.3-0.2c0,0,0,0,0,0c0.1,0,0.3-0.1,0.4-0.1c0.3-0.1,0.5-0.1,0.7-0.2l0,0
			c-0.1-0.1-0.3,0-0.4,0c-0.2,0-0.4,0-0.5,0c0,0-0.1,0-0.1-0.1c-0.1-0.1-0.1-0.3-0.1-0.5c0-0.1,0-0.3-0.1-0.4
			c-0.1-0.3-0.2-0.5-0.3-0.7c0,0,0-0.1,0-0.1c0.2-0.2,0.5-0.4,0.8-0.4c0.9,0,1.6,0.1,2.1,0.2c0.4,0.1,0.8,0.1,1.2,0.1
			c0.6,0,1.2-0.2,2.2-1c-0.2-0.6-0.7-0.9-1.2-1.3c-0.7-0.6-1.5-1.2-1.6-2.4c0-1.7,0.7-3.2,2.1-4.4c0.9-0.6,1.9-1.2,3.1-1.5
			c0.2-0.4,0.1-0.9-0.1-1.3c-0.2-0.7-2.5-3-3.3-3.7c0,0-0.1-0.1,0-0.1c0,0,0.1-0.1,0.1-0.1l2.7-0.2c0,0,0,0,0.1,0l0.1,0.1
			c0.5,0.2,0.9,0.5,1.4,0.5c0.4-0.1,0.7-0.4,0.9-0.8c0.1-0.1,0.1-0.2,0.2-0.3c0.1-0.1,0.2-0.2,0.2-0.3c0.3-0.4,0.5-0.8,0.9-1.1
			c0.1-0.1,0.2-0.2,0.3-0.2c0.4-0.3,0.7-0.6,1.2-0.8c0.1,0,0.1,0,0.2,0.1l0.7,1.3c0,0,0,0,0,0c0.5,2.5,1.7,4.4,3.5,5.5
			c1,0.5,1.4,1.4,1.8,2.3c0.1,0.1,0.1,0.3,0.2,0.4c0,0.1,0.1,0.3,0.1,0.4c0.1,0.5,0.2,0.9,0.2,1.4c1.1,0.5,2.3,1.1,3.6,1.4
			c0.6,0.1,1.1,0,1.4-0.3c0.6-0.5,0.5-1.4,0.3-2c-0.2-0.8-0.5-1.5-0.8-2.2c-0.1-0.2-0.2-0.5-0.3-0.7l-1.4-3.4
			c-0.6-1.6-1.3-3.2-1.3-5.1c0-0.7,0.2-2,1.3-2.7c0.3-0.2,0.6-0.3,0.9-0.3c0.5,0,1,0.2,1.5,0.5c0.5,0.4,1,0.9,1.4,1.7
			c0.3,0.5,0.5,0.9,0.6,1.4c0.1,0,0.2,0.1,0.3,0.1c0.4,0.2,0.9,0.3,1.2,0.8c0.3,0.3,0.5,0.6,0.7,1c0,0,0,0,0,0.1c0,0,0,0,0,0.1l0,0
			c0,0,0,0,0,0.1c0.2,1.3,0.1,2.5-0.1,3.8c0,0,0,0.1-0.1,0.1c0,0-0.1,0-0.1,0l-2-1.2c-1-0.6-2.1-1.8-1.8-3.4c0-0.3,0.1-0.5,0.2-0.8
			c0.1-0.5-0.1-1-0.2-1.3c-0.3-0.6-0.9-1.4-1.6-1.5l0,0c-0.3,0-0.6,0.4-0.7,0.6c-0.4,0.9-0.1,2,0.1,3c0.2,0.9,0.6,1.8,0.9,2.6l1.3,3
			c0.5,1.2,1,2.4,1.3,3.7c0.3,1.3-0.1,2.5-1.1,3.3c-0.5,0.3-1,0.4-1.6,0.4c-0.9,0-1.9-0.3-2.6-0.6c-0.5-0.2-1-0.4-1.6-0.7
			c-0.1,0.6-0.3,1.4-0.8,2c-0.3,0.3-0.6,0.6-0.9,0.8c-0.3,0.2-0.6,0.4-1,0.6c-0.7,0.4-1.4,0.8-1.9,1.5c0.1,0,0.2,0,0.4,0
			c0.5,0,1-0.1,1.5-0.2c0.5-0.1,1-0.2,1.5-0.2c0.9,0,1.8,0.6,2.1,1.4c0.1,0.3,0.2,0.7,0.2,1c0,0,0,0,0,0.1c0,0.2-0.1,0.4-0.1,0.5
			c0,0.1-0.1,0.3-0.1,0.4l-0.1,0.2c-0.1,0.4-0.3,0.8-0.5,1.1c0,0,0,0.1,0,0.1c0,0,0,0,0,0c0,0,0,0,0,0.1c-0.1,0.1-0.2,0.3-0.2,0.4
			c-0.1,0.1-0.2,0.3-0.2,0.4c-0.1,0.2-0.3,0.4-0.5,0.6c-0.3,0.4-0.7,0.8-0.7,1.2c0,0.2,0,0.3,0.1,0.4c0.4,0.4,0.9,0.4,1.4,0.5
			c0.5,0,1,0.1,1.4,0.4c0.1,0.1,0.2,0.2,0.3,0.3c0,0.1,0,0.1,0,0.2l-1.6,1.4c0,0,0,0-0.1,0c-0.2,0-0.4,0-0.5-0.1c0,0,0,0,0,0
			c-0.2-0.5-0.7-0.7-1.1-0.9c-0.3-0.1-0.6-0.3-0.9-0.5c-0.7,0.3-0.9,0.9-1,1.6c-0.1,0.4-0.2,0.7-0.4,1.1c0,0,0,0,0,0
			C-607,285-607.1,285.1-607.2,285.1C-607.2,285.1-607.2,285.1-607.2,285.1z M-609.1,284.2l1.8,0.7c0,0,0-0.1,0.1-0.1
			c0.2-0.3,0.3-0.6,0.3-1c0.2-0.7,0.4-1.5,1.3-1.8c0,0,0.1,0,0.1,0c0.2,0.2,0.6,0.4,0.9,0.5c0.4,0.2,0.9,0.4,1.2,0.9
			c0.1,0,0.2,0.1,0.3,0l1.5-1.3c0-0.1-0.1-0.1-0.2-0.2c-0.4-0.2-0.8-0.3-1.3-0.3c-0.6,0-1.1-0.1-1.6-0.5c0,0,0,0,0,0
			c-0.1-0.1-0.1-0.3-0.1-0.5c0.1-0.5,0.4-1,0.8-1.4c0.2-0.2,0.3-0.4,0.4-0.6c0.1-0.1,0.2-0.3,0.2-0.4c0.1-0.1,0.1-0.3,0.2-0.4
			c0,0,0,0,0-0.1c0,0,0,0,0-0.1c0,0,0-0.1,0.1-0.1c0.2-0.3,0.3-0.7,0.4-1.1l0.1-0.2c0-0.1,0.1-0.3,0.1-0.4c0.1-0.2,0.1-0.3,0.1-0.5
			c0,0,0,0,0-0.1c0-0.3,0-0.7-0.1-0.9c-0.3-0.7-1.1-1.2-1.8-1.2c-0.5,0-1,0.1-1.5,0.2c-0.5,0.1-1,0.2-1.6,0.2c-0.1,0-0.1,0-0.2,0
			c-0.2,0-0.3,0-0.4-0.1c0,0-0.1,0-0.1-0.1c0,0,0-0.1,0-0.1c0.6-0.9,1.4-1.3,2.1-1.7c0.3-0.2,0.6-0.3,0.9-0.5
			c0.3-0.2,0.6-0.5,0.8-0.8c0.6-0.6,0.7-1.4,0.8-2.1c0,0,0-0.1,0.1-0.1c0,0,0.1,0,0.1,0c0.7,0.3,1.2,0.6,1.7,0.8
			c0.7,0.2,1.6,0.6,2.5,0.6c0.6,0,1-0.1,1.5-0.4c0.9-0.7,1.3-1.8,1-3c-0.3-1.3-0.8-2.5-1.3-3.6l-1.3-3c-0.3-0.8-0.7-1.7-0.9-2.7
			c-0.3-1-0.5-2.2-0.1-3.2c0.1-0.3,0.5-0.8,1-0.7c0.9,0.2,1.5,1,1.8,1.7c0.1,0.3,0.3,0.9,0.2,1.5c-0.1,0.3-0.2,0.5-0.2,0.7
			c-0.2,1.5,0.8,2.6,1.7,3.2l1.8,1.1c0.1-1.2,0.2-2.4,0.1-3.5l0,0c0,0,0-0.1,0-0.1c0,0,0-0.1,0-0.1c-0.2-0.4-0.4-0.7-0.6-0.9
			c-0.3-0.4-0.7-0.5-1.1-0.7c-0.1,0-0.2-0.1-0.4-0.2c0,0-0.1,0-0.1-0.1c-0.1-0.5-0.3-0.9-0.6-1.4c-0.4-0.7-0.8-1.2-1.3-1.6
			c-0.7-0.5-1.5-0.6-2.1-0.3c-1,0.6-1.2,1.8-1.2,2.5c0,1.8,0.7,3.5,1.3,5l0.1,0.2l1.4,3.2c0.1,0.2,0.2,0.5,0.3,0.7
			c0.3,0.7,0.6,1.4,0.8,2.2c0.2,0.7,0.3,1.6-0.4,2.2c-0.3,0.3-0.9,0.4-1.6,0.3c-1.4-0.2-2.7-0.9-3.8-1.4c0,0-0.1-0.1-0.1-0.1
			c0-0.5-0.1-1-0.2-1.4c0-0.1-0.1-0.2-0.1-0.4c-0.1-0.1-0.1-0.3-0.2-0.4c-0.4-0.9-0.7-1.8-1.7-2.2c-1.9-1.2-3.1-3.1-3.6-5.6
			l-0.7-1.2c-0.4,0.2-0.7,0.4-1,0.7c-0.1,0.1-0.2,0.2-0.3,0.2c-0.4,0.3-0.6,0.7-0.9,1c-0.1,0.1-0.2,0.2-0.2,0.4
			c-0.1,0.1-0.1,0.2-0.2,0.2c-0.3,0.4-0.6,0.8-1.1,0.9c-0.6,0-1-0.2-1.5-0.5l-0.1-0.1l-2.4,0.1c0.8,0.8,2.9,2.9,3.1,3.6
			c0.1,0.5,0.3,1.1,0,1.6c0,0,0,0.1-0.1,0.1c-1.2,0.2-2.1,0.9-3,1.4c-1.3,1.1-2,2.6-2,4.2c0.1,1.1,0.8,1.7,1.5,2.2
			c0.5,0.4,1.1,0.9,1.3,1.5c0,0,0,0.1,0,0.1c-0.9,0.8-1.6,1.1-2.5,1.1c-0.4,0-0.8-0.1-1.2-0.1c-0.6-0.1-1.2-0.2-2.1-0.2
			c-0.2,0-0.4,0.1-0.5,0.3c0.1,0.2,0.2,0.4,0.3,0.7c0,0.1,0.1,0.3,0.1,0.4c0,0.1,0,0.2,0.1,0.3c0.1,0,0.2,0,0.3,0c0.1,0,0.2,0,0.2,0
			c0.1,0,0.3,0,0.5,0.2c0,0,0,0.1,0,0.2l-0.1,0.1c0,0,0,0,0,0c-0.2,0.2-0.5,0.2-0.8,0.3c-0.1,0-0.3,0.1-0.4,0.1l-0.2,0.1
			c0.3,0.1,0.6,0.5,0.7,0.7c0,0,0.1,0.1,0.1,0.1c0.1,0.1,0.1,0.2,0.2,0.2c0,0,0.1,0,0.1,0c0.2,0,0.4-0.1,0.6-0.3
			c0.2-0.2,0.5-0.4,0.8-0.3c0,0,0.1,0,0.1,0.1c0,0,0,0.1,0,0.1c-0.1,0.3-0.3,0.5-0.5,0.7c-0.1,0.1-0.1,0.1-0.2,0.2
			c0.2,0.2,0.5,0.3,0.7,0.5c0.2,0.1,0.4,0.2,0.6,0.4l0.1,0c0.2-0.2,0.4-0.5,0.6-0.8c0.1-0.1,0.2-0.3,0.2-0.4c0,0,0,0,0.1,0
			c0.2-0.1,0.3-0.1,0.5-0.2c0.5-0.2,1-0.4,1.5-0.4c0.1,0,0.2,0,0.4,0c0.5,0.1,0.9,0.5,1,0.9c0,0,0,0,0,0c0,0,0.1,0,0.1,0
			c0,0,0,0,0,0l1.5-0.8l-0.1-0.2c-0.2-0.5-0.6-0.6-1-0.8c-0.4-0.2-0.9-0.3-1.1-0.8c0,0,0-0.1,0-0.1c0.3-0.6,1.3-1.1,1.9-1.4
			c-0.4-0.9-0.7-2-0.7-3.2c0-1.2,0.1-2,0.5-3c0.3-0.8,1-1.2,1.6-1.5c0.1-0.1,0.3-0.1,0.5-0.2c0.1-0.1,0.3-0.1,0.4-0.2
			c0.5-0.2,0.9-0.5,1.3-0.7c0.3-0.3,0.5-0.9,0.5-1.4c0,0,0,0,0,0l0-0.1c0-0.1,0.1-0.1,0.1-0.1c0,0,0,0,0,0c0.1,0,0.1,0,0.1,0.1
			c0.1,0.8-0.2,1.5-0.8,2c-0.4,0.2-0.8,0.4-1.2,0.6c-0.1,0.1-0.3,0.1-0.4,0.2l-0.2,0.1c-0.1,0-0.2,0.1-0.3,0.1
			c-0.2,0.1-0.4,0.2-0.6,0.3c-1.3,0.9-1.3,2.3-1.4,3.8l0,0.1c0,1.3,0.3,2.5,1,3.8c0.3,0.6,0.7,0.8,1.7,1.2c0.7,0.2,0.8,0.2,1.5,0.2
			l1.7-0.4c0.3-0.1,0.5-0.2,0.7-0.3l1.3-0.4c0.3-0.1,0.6,0,0.9,0.1c0,0,0,0,0,0c0.2,0.2,0.4,0.5,0.4,0.8c0,0.8-0.4,1.5-0.7,2.1
			c-0.1,0.1-0.1,0.2-0.2,0.3c-0.1,0.2-0.3,0.5-0.5,0.7c-0.8,0.5-1.8,0.4-3-0.1c0,0,0,0,0,0c-0.4-0.4-0.8-0.7-1.2-0.8l-0.6,1.5
			c0.2,0.3,0.5,0.6,0.9,0.8c0,0,0.1,0,0.1,0.1c0,0,0,0.1,0,0.1c-0.2,0.3-0.6,0.4-0.9,0.6c-0.2,0.1-0.5,0.2-0.7,0.4
			c-0.4,0.3-0.4,0.6-0.4,0.9l1.7,0.9c0.5-0.1,0.8-0.5,1.1-1c0.1-0.1,0.2-0.2,0.2-0.3c0,0,0,0,0.1,0c0.1-0.1,0.3-0.1,0.4-0.2
			c0.2-0.2,0.5-0.3,0.8-0.3c0.1,0,0.3,0,0.4,0.1c0,0,0.1,0,0.1,0.1c0,0,0,0.1,0,0.1c-0.2,0.3-0.4,0.5-0.7,0.8
			c-0.3,0.4-0.7,0.7-0.9,1.1c0,0,0,0.1-0.1,0.1C-609.1,284-609.1,284.1-609.1,284.2z"/>
	</g>
</g>
<g>
	<g>
		<path fill="#FAD412" d="M-625.7,240.7c0.6,0.7,0.6,2,1.7,2.2c0.6,0.9-0.2,1.9,0.3,2.8c0.2,0.3,0.5,0.4,0.7,0.6
			c0.4,0.2,1.6,1,2,1.2c-0.7,1-0.7,1.6-0.5,2.9c-0.7-0.8-2.5-1.6-3.5-2c-0.5,0.5-0.9,1.3-1.5,1.5c-0.1,0-0.2,0-0.3,0l-1.2-1.5
			c0-0.3,0.1-0.5,0.3-0.7l1.6-1.2c-0.4-0.4-0.5-1.1-1.2-1.2c-0.4,0-0.9,0-1.3,0c-0.1,0-0.2-0.1-0.3-0.2l0.3-1.8l0.1-0.1
			c0.7,0,1.3,0.2,2,0.4c0.1,0,0.2,0,0.2,0c0.1-0.1,0-0.1,0-0.2c-0.3-0.5-0.9-0.8-1.2-1.3c0-0.3,0.1-0.5,0.3-0.8
			c0.3-0.3,0.6-0.8,1.1-0.7C-625.9,240.6-625.8,240.6-625.7,240.7L-625.7,240.7z"/>
	</g>
	<g>
		<path d="M-621.3,250.5C-621.4,250.5-621.4,250.4-621.3,250.5c-0.7-0.8-2.6-1.6-3.5-2c-0.2,0.2-0.3,0.3-0.4,0.5
			c-0.3,0.4-0.6,0.8-1.1,1c-0.2,0-0.3,0-0.4,0c0,0,0,0-0.1,0l-1.2-1.5c0,0,0,0,0-0.1c0-0.3,0.1-0.6,0.4-0.8l1.5-1.1
			c-0.1-0.1-0.2-0.3-0.3-0.4c-0.2-0.3-0.4-0.6-0.7-0.7c-0.2,0-0.5,0-0.7,0c-0.2,0-0.4,0-0.6,0c-0.2,0-0.3-0.1-0.4-0.3
			c0,0,0-0.1,0-0.1l0.3-1.8c0,0,0-0.1,0-0.1l0.1-0.1c0,0,0,0,0.1,0c0.5,0,1,0.1,1.4,0.2c0.2,0.1,0.4,0.1,0.6,0.2c0,0,0,0,0.1,0
			c0,0,0,0,0,0c0,0,0,0,0,0c0,0,0,0,0,0c-0.1-0.2-0.3-0.4-0.5-0.5c-0.2-0.2-0.5-0.5-0.7-0.7c0,0,0,0,0-0.1c0-0.3,0.2-0.6,0.3-0.8
			c0,0,0,0,0,0c0.1-0.1,0.2-0.2,0.2-0.2c0.2-0.3,0.5-0.6,1-0.5c0.1,0,0.3,0.1,0.4,0.2c0.2,0.3,0.4,0.6,0.5,0.9
			c0.3,0.6,0.5,1.1,1.2,1.3c0,0,0.1,0,0.1,0.1c0.3,0.5,0.3,1,0.2,1.5c0,0.5-0.1,0.9,0.1,1.3c0.1,0.2,0.3,0.3,0.5,0.4
			c0.1,0,0.1,0.1,0.2,0.1c0.4,0.3,1.6,1,2,1.2c0,0,0.1,0,0.1,0.1s0,0.1,0,0.1c-0.7,1-0.6,1.5-0.4,2.8
			C-621.2,250.4-621.2,250.4-621.3,250.5C-621.3,250.5-621.3,250.5-621.3,250.5z M-624.9,248.2
			C-624.8,248.2-624.8,248.2-624.9,248.2c0.9,0.3,2.5,1,3.3,1.7c-0.1-1-0.2-1.6,0.4-2.4c-0.5-0.3-1.5-0.9-1.9-1.1
			c-0.1-0.1-0.1-0.1-0.2-0.1c-0.2-0.1-0.4-0.3-0.6-0.5c-0.2-0.5-0.2-1-0.1-1.4c0-0.5,0.1-0.9-0.1-1.3c-0.8-0.2-1-0.8-1.3-1.4
			c-0.1-0.3-0.3-0.6-0.4-0.8c-0.1,0-0.1-0.1-0.3-0.1c0,0-0.1,0-0.1,0c-0.3,0-0.4,0.2-0.6,0.4c-0.1,0.1-0.2,0.2-0.2,0.2
			c-0.1,0.2-0.2,0.4-0.3,0.7c0.2,0.2,0.4,0.4,0.6,0.7c0.2,0.2,0.4,0.4,0.6,0.6l0,0.1c0,0.1,0.1,0.2,0,0.3c-0.1,0.1-0.1,0.1-0.2,0.1
			c0,0-0.1,0-0.1,0c-0.2,0-0.4-0.1-0.6-0.2c-0.4-0.1-0.8-0.3-1.3-0.2l-0.1,0.1l-0.3,1.7c0,0.1,0.1,0.1,0.2,0.1c0.2,0,0.4,0,0.6,0
			c0.2,0,0.5,0,0.7,0c0.5,0.1,0.7,0.4,0.9,0.8c0.1,0.2,0.2,0.4,0.4,0.5c0,0,0,0.1,0,0.1c0,0,0,0.1,0,0.1l-1.6,1.2
			c-0.1,0.1-0.3,0.3-0.3,0.5l1.1,1.4c0.1,0,0.2,0,0.2,0c0.4-0.1,0.7-0.5,1-0.9C-625.3,248.6-625.1,248.4-624.9,248.2
			C-624.9,248.2-624.9,248.2-624.9,248.2z"/>
	</g>
</g>
<g>
	<g>
		<path fill="#FAD412" d="M-619.3,255.7l-0.3-0.7c-1.1-1.5-1.9-3.2-2.2-5.2c-0.1-1.1,0.1-2.6,1-3.3l0.4-0.3c-0.3-0.6,0-1.1,0.4-1.6
			c0.6-0.8,1.5-1.4,1.6-2.4c-0.4-0.9-0.7-1.9-1.3-2.7c-0.5-0.7-0.9-1.1-1.9-1.6c-0.4-0.3-0.5-0.3-0.7-0.4c1.5-0.2,1.8-0.2,2.7,0.1
			c0.7,0.3,2.2,1.4,2.2,1.4c-1.1-1.1-2.4-1.9-3.9-1.9c-0.8,0-1.6,0.1-2.3,0.3c0.1-1.2,0.5-2.7,1.9-3.1c0.7-0.2,1.4-0.1,1.9,0.3
			c0.3-0.6,0.9-1,1.6-1c1.4,0.1,2.5,1.1,3.9,1c0.1,0.2,0.3,0.5,0.6,0.5c0.5,0.1,0.9-0.3,1.3-0.6c0.8-0.7,1.2-1.8,0.8-2.9
			c-0.1-0.2-0.2-0.3-0.3-0.5c0.8-0.1,1.6,0.4,2,1.1c0.3,0.6,0.2,1.3,0.1,1.9l-0.2,0.9c0,0,0,0.1,0,0.1c0.3-0.2,0.5-0.5,0.8-0.8
			c0.3,0.2,0.3,0.7,0.2,1c-0.2,0.9-0.6,1.7-1.2,2.5c0.6,0.8,1.1,1.8,1.4,2.8l0,0l0.2,0.5l4.3-4.3c0.4,0,1.2,0.5,1.4,0.9
			c0.2,0.4,0.2,1-0.1,1.4c0,0-4.5,3.8-4.4,3.9l7.3-6c0.6,0,1.7,0.9,2,1.5c0.3,0.7,0.2,1.6-0.4,2.1l-0.1,0.1l0,0l-7.7,5.4l0.1,0
			l8.3-5.8c0.6,0.2,1.3,1.1,1.4,1.7c0.1,0.6-0.2,1.2-0.7,1.6l-1.3,0.7l0.1,0l-7.7,4.4l8.4-4.7c0.5,0.3,0.9,1.4,0.8,2
			c0,0.4-0.3,0.9-0.7,1.1l-8.4,3.9l6-2.7c0.5,0.4,0.5,1.5,0.3,2.1c-0.1,0.5-0.6,0.9-1,1l-5.5,2.4c-0.2,0-0.2,0.3-0.3,0.4
			c-0.6,1.1-1.9,1-2.7,1.9c-0.8,0.3-1.5,0.9-2.2,1.5c-0.6,0.6-0.9,1.4-1.6,2c-0.2,0.2-0.5,0-0.7-0.1c-0.3-0.1-0.6-0.3-0.9-0.5
			l-1.2,0.6c-1,0.3-2.2,0.3-3.3,0.4l-2.5,0.1l-0.5,0.1c0.3,0.7,1,1,1.6,1.4c0.2,0.2,0.4,0.4,0.3,0.7l0,0.1c-0.4,0.2-0.8,0.5-1.3,0.7
			c-0.1,0.1-0.2,0.2-0.3,0.3l-0.6,0.3c-0.5-0.1-0.6-0.6-0.7-1c-0.2-0.6-0.4-1.1-0.6-1.7c-0.1-0.2-0.2-0.4-0.5-0.5
			c-0.7,0.8-1.5,1.2-2.5,1.4c-0.1,0-0.2-0.1-0.3-0.2l-0.8-1.1c0-0.2-0.1-0.4,0-0.5c0.3-0.5,1.1-0.2,1.3-0.8
			c-0.2-0.1-0.4-0.2-0.6-0.2c-0.5-0.1-1,0-1.5-0.2c-0.1,0-0.2-0.1-0.2-0.2l0.2-1.8c0.4-0.3,0.9-0.1,1.3,0l1,0.4c0.1,0,0.2,0,0.2-0.1
			c-0.1-0.4-0.6-0.6-0.9-0.8c-0.3-0.2-0.8-0.2-1-0.6c0-0.1,0-0.2,0-0.3l1.8-1.5c0.4,0,0.6,0.5,0.9,0.8c0.2,0.3,0.3,0.6,0.4,0.9
			c0.6,0.6,1.1,2,2.3,1.5l3.1-1.4L-619.3,255.7L-619.3,255.7z"/>
	</g>
	<g>
		<path d="M-622.2,264C-622.2,264-622.2,264-622.2,264c-0.5-0.1-0.7-0.5-0.8-0.9c0-0.1,0-0.1-0.1-0.2c-0.1-0.4-0.3-0.8-0.4-1.2
			c-0.1-0.2-0.1-0.3-0.2-0.5c-0.1-0.2-0.2-0.3-0.3-0.4c-0.6,0.7-1.5,1.1-2.5,1.3c0,0,0,0-0.1,0c-0.1,0-0.2-0.1-0.3-0.2l0,0l-0.8-1.2
			c0,0,0,0,0,0l0-0.1c0-0.2-0.1-0.4,0-0.5c0.2-0.2,0.5-0.3,0.7-0.4c0.2-0.1,0.4-0.1,0.6-0.3c-0.1-0.1-0.2-0.1-0.4-0.1l-0.1,0
			c-0.2,0-0.3,0-0.5-0.1c-0.3,0-0.7-0.1-1-0.2c-0.1,0-0.2-0.1-0.3-0.2c0,0,0-0.1,0-0.1l0.2-1.8c0,0,0-0.1,0.1-0.1
			c0.3-0.2,0.8-0.2,1.4,0l1,0.4c0,0,0,0,0,0c-0.1-0.3-0.5-0.5-0.8-0.6c-0.1,0-0.2-0.1-0.2-0.1c-0.3-0.1-0.6-0.2-0.8-0.5
			c-0.1-0.1-0.1-0.3,0-0.4c0,0,0,0,0-0.1l1.8-1.5c0,0,0.1,0,0.1,0c0.4,0,0.6,0.3,0.8,0.6c0.1,0.1,0.1,0.2,0.2,0.3
			c0.2,0.3,0.3,0.6,0.4,0.9c0.2,0.2,0.3,0.3,0.5,0.6c0.4,0.5,0.7,1,1.3,1l0,0c0.1,0,0.2,0,0.4-0.1l3-1.3l0-0.4l-0.3-0.7
			c-1.2-1.6-1.9-3.3-2.2-5.3c-0.1-1.2,0.2-2.7,1.1-3.4l0.4-0.3c-0.2-0.6,0.1-1.2,0.5-1.6c0.2-0.2,0.3-0.4,0.5-0.6c0.5-0.5,1-1,1-1.7
			c-0.1-0.2-0.1-0.3-0.2-0.5c-0.3-0.7-0.6-1.5-1.1-2.2c-0.5-0.7-0.9-1-1.9-1.6l-0.2-0.2c-0.2-0.1-0.3-0.2-0.4-0.2
			c0,0-0.1-0.1-0.1-0.1c0-0.1,0.1-0.1,0.1-0.1c0.8-0.1,1.3-0.2,1.7-0.1c-0.2,0-0.5-0.1-0.7-0.1c-0.8,0-1.5,0.1-2.3,0.3
			c0,0-0.1,0-0.1,0c0,0,0-0.1,0-0.1c0.2-1.8,0.9-2.8,1.9-3.2c0.6-0.2,1.3-0.1,1.9,0.2c0.3-0.5,0.8-1,1.6-0.9
			c0.6,0.1,1.1,0.3,1.7,0.5c0.7,0.3,1.4,0.6,2.2,0.5c0.1,0,0.1,0,0.1,0.1c0.1,0.2,0.3,0.4,0.5,0.5c0,0,0.1,0,0.1,0
			c0.4,0,0.7-0.2,0.9-0.4c0.1,0,0.1-0.1,0.2-0.1c0.8-0.7,1.1-1.8,0.7-2.7c-0.1-0.2-0.2-0.3-0.3-0.5c0,0,0-0.1,0-0.1
			c0,0,0.1-0.1,0.1-0.1c0.8-0.1,1.7,0.4,2.1,1.1c0.3,0.6,0.2,1.3,0.1,1.9l-0.2,0.7c0.1-0.1,0.2-0.2,0.3-0.4c0.1-0.1,0.1-0.2,0.2-0.3
			c0,0,0.1-0.1,0.2,0c0.4,0.2,0.3,0.8,0.3,1.1c-0.2,0.9-0.6,1.7-1.1,2.5c0.6,0.9,1.1,1.8,1.4,2.7l0,0c0,0,0,0,0,0.1l0.1,0.3l4.2-4.2
			c0,0,0.1,0,0.1,0c0.5,0,1.3,0.5,1.5,0.9c0.2,0.4,0.2,1,0,1.3l2.6-2.1c0,0,0.1,0,0.1,0c0.7,0,1.8,0.9,2.1,1.5
			c0.3,0.6,0.2,1.3-0.1,1.9l0.1-0.1c0,0,0.1,0,0.1,0c0.6,0.2,1.4,1.2,1.5,1.8c0.1,0.7-0.2,1.3-0.8,1.7l-0.5,0.3
			c0.6,0.4,0.9,1.5,0.9,2.1c-0.1,0.5-0.3,1-0.7,1.2l-2.3,1.1c0.4,0.5,0.4,1.5,0.2,2.1c-0.1,0.5-0.6,0.9-1.1,1.1l-5.5,2.4
			c0,0,0,0,0,0c-0.1,0-0.1,0-0.1,0.2c0,0.1-0.1,0.2-0.1,0.2c-0.3,0.6-0.9,0.8-1.4,1.1c-0.5,0.2-0.9,0.4-1.2,0.8c0,0,0,0-0.1,0
			c-0.8,0.3-1.4,0.9-2,1.4l-0.1,0.1c-0.3,0.3-0.5,0.6-0.7,0.9c-0.2,0.4-0.5,0.7-0.8,1.1c-0.2,0.2-0.5,0.1-0.7,0c0,0-0.1,0-0.1,0
			c-0.3-0.1-0.6-0.3-0.9-0.5l-1.1,0.6c-1.1,0.3-2.3,0.4-3.4,0.4l-2.5,0.1l-0.3,0c0.2,0.4,0.6,0.6,0.9,0.8c0.2,0.1,0.4,0.2,0.5,0.4
			c0.3,0.2,0.4,0.5,0.4,0.9l0,0.1c0,0,0,0.1-0.1,0.1c-0.1,0.1-0.3,0.2-0.4,0.2c-0.3,0.2-0.6,0.4-0.9,0.5c-0.1,0-0.2,0.1-0.2,0.2l0,0
			c0,0,0,0,0,0L-622.2,264C-622.2,264-622.2,264-622.2,264z M-623.9,260.6C-623.9,260.6-623.9,260.6-623.9,260.6
			c0.3,0.2,0.5,0.3,0.6,0.6c0.1,0.2,0.1,0.3,0.2,0.5c0.1,0.4,0.3,0.8,0.4,1.2c0,0,0,0.1,0.1,0.2c0.1,0.3,0.2,0.6,0.5,0.7l0.5-0.3
			c0.1-0.1,0.2-0.2,0.3-0.3c0.3-0.1,0.6-0.3,0.9-0.4c0.1-0.1,0.2-0.1,0.4-0.2l0-0.1c0-0.3-0.1-0.5-0.3-0.6c-0.2-0.1-0.3-0.2-0.5-0.3
			c-0.5-0.3-0.9-0.6-1.1-1.1c0,0,0-0.1,0-0.1c0,0,0.1-0.1,0.1-0.1l0.5-0.1l2.5-0.1c1.1-0.1,2.3-0.1,3.3-0.4l1.2-0.6c0,0,0.1,0,0.1,0
			c0.4,0.2,0.6,0.4,0.9,0.5c0,0,0.1,0,0.1,0c0.2,0.1,0.3,0.1,0.5,0c0.3-0.3,0.5-0.6,0.8-1c0.2-0.3,0.5-0.7,0.7-1l0.1-0.1
			c0.6-0.6,1.3-1.1,2.1-1.4c0.4-0.4,0.8-0.6,1.3-0.8c0.5-0.2,1-0.5,1.4-1c0-0.1,0.1-0.1,0.1-0.2c0-0.1,0.1-0.3,0.3-0.3l5.5-2.4
			c0.4-0.2,0.8-0.6,0.9-1c0.2-0.5,0.2-1.5-0.2-1.9l-6,2.7c-0.1,0-0.1,0-0.2-0.1c0-0.1,0-0.1,0.1-0.2l8.4-3.9c0.3-0.2,0.6-0.6,0.6-1
			c0.1-0.6-0.3-1.5-0.7-1.9l-8.3,4.7c-0.1,0-0.1,0-0.2,0c0-0.1,0-0.1,0-0.2l7.6-4.4c0,0,0-0.1,0.1-0.1l1.3-0.7
			c0.5-0.3,0.7-0.9,0.7-1.5c-0.1-0.5-0.7-1.4-1.3-1.6l-8.2,5.7l-0.1,0c-0.1,0-0.1,0-0.2-0.1c0-0.1,0-0.1,0-0.2l7.6-5.3c0,0,0,0,0,0
			l0.1-0.1c0.5-0.5,0.7-1.3,0.4-2c-0.2-0.5-1.2-1.3-1.8-1.4l-7.2,6c0,0-0.1,0-0.1,0c0,0-0.1,0-0.1,0c0,0,0-0.1,0-0.2l0,0l0,0
			c0.2-0.3,1.1-1.1,4.4-3.9c0.2-0.3,0.3-0.8,0.1-1.2c-0.2-0.3-0.9-0.7-1.3-0.8l-4.3,4.3c0,0-0.1,0-0.1,0c0,0-0.1,0-0.1-0.1l-0.2-0.5
			c0,0,0,0,0-0.1c-0.3-0.9-0.8-1.9-1.4-2.7c0,0,0-0.1,0-0.1c0.6-0.8,1-1.6,1.1-2.5c0-0.3,0.1-0.6-0.1-0.8c0,0.1-0.1,0.1-0.1,0.2
			c-0.2,0.2-0.4,0.4-0.6,0.6c0,0,0,0,0,0c0,0,0,0,0,0c0,0-0.1,0-0.2-0.2c0,0,0,0,0-0.1l0.2-0.9c0.1-0.6,0.2-1.3-0.1-1.8
			c-0.3-0.6-1-1-1.7-1c0.1,0.1,0.1,0.2,0.2,0.3c0.4,1.1,0.1,2.2-0.8,3c-0.1,0-0.1,0.1-0.2,0.1c-0.4,0.3-0.7,0.5-1.3,0.5
			c-0.3-0.1-0.5-0.3-0.6-0.5c-0.8,0.1-1.6-0.2-2.3-0.5c-0.5-0.2-1-0.4-1.6-0.5c0,0-0.1,0-0.1,0c-0.7,0-1.1,0.5-1.4,0.9
			c0,0,0,0.1-0.1,0.1c0,0-0.1,0-0.1,0c-0.5-0.4-1.2-0.5-1.8-0.3c-0.9,0.3-1.5,1.2-1.7,2.8c0.7-0.2,1.4-0.2,2.1-0.3
			c1.4,0,2.8,0.7,4,2c0,0,0,0.1,0,0.2c0,0-0.1,0.1-0.2,0c0,0-1.5-1.1-2.2-1.3c-0.8-0.3-1.1-0.3-2.2-0.1c0,0,0.1,0,0.1,0.1l0.2,0.2
			c1,0.5,1.4,1,2,1.6c0.5,0.7,0.8,1.5,1.1,2.2c0.1,0.2,0.1,0.4,0.2,0.5c0,0,0,0,0,0.1c0,0.7-0.6,1.3-1.1,1.9
			c-0.2,0.2-0.4,0.4-0.5,0.6c-0.4,0.5-0.7,1-0.4,1.5c0,0.1,0,0.1,0,0.2l-0.4,0.3c-0.8,0.7-1.1,2.1-1,3.1c0.3,1.9,1,3.6,2.1,5.2
			c0,0,0,0,0,0l0.3,0.7c0,0,0,0,0,0l0,0.5c0,0.1,0,0.1-0.1,0.1l-3.1,1.4c-0.2,0.1-0.3,0.1-0.5,0.1c0,0,0,0,0,0
			c-0.7,0-1.1-0.6-1.5-1.1c-0.2-0.2-0.3-0.4-0.5-0.6c0,0,0,0,0-0.1c-0.1-0.3-0.2-0.6-0.4-0.9c-0.1-0.1-0.1-0.2-0.2-0.3
			c-0.1-0.2-0.3-0.4-0.5-0.5l-1.7,1.4c0,0.1,0,0.1,0,0.2c0.1,0.2,0.4,0.3,0.7,0.4c0.1,0,0.2,0.1,0.3,0.1c0.3,0.1,0.9,0.4,1,0.9
			c0,0.1-0.1,0.2-0.3,0.2c0,0,0,0,0,0c0,0,0,0,0,0l-1-0.4c-0.5-0.2-0.9-0.2-1.2,0l-0.2,1.7c0,0,0.1,0.1,0.1,0.1
			c0.3,0.1,0.6,0.1,1,0.2c0.2,0,0.3,0,0.5,0.1l0.1,0c0.2,0,0.4,0.1,0.6,0.2c0,0,0.1,0.1,0,0.2c-0.2,0.4-0.5,0.4-0.8,0.5
			c-0.2,0.1-0.4,0.1-0.6,0.3c-0.1,0.1,0,0.2,0,0.3l0,0l0.8,1.1c0,0,0.1,0.1,0.1,0.1C-625.5,261.8-624.7,261.4-623.9,260.6
			C-624,260.6-624,260.6-623.9,260.6z"/>
	</g>
</g>
<g>
	<g>
		<path d="M-612.6,245.9l-0.1-0.2l3.6-2.6c0,0,0.1,0,0.2,0c0,0,0.1,0.1,0,0.2l-0.1,0.2l-0.1,0L-612.6,245.9z"/>
	</g>
</g>
<g>
	<g>
		<path d="M-617.2,255.4c-0.3-0.8-0.5-2.1-0.5-3.2c0-0.4,0-0.8,0-1.2c0-1-0.1-1.9,0.5-2.8c1.1-1.9,2.3-2.6,4.4-2.5l0,0.2
			c-2-0.1-3.2,0.6-4.2,2.4c-0.5,0.9-0.5,1.7-0.5,2.7c0,0.4,0,0.8,0,1.2c0,1.1,0.1,2.3,0.5,3.1L-617.2,255.4z"/>
	</g>
</g>
<g>
	<g>
		<path d="M-615.7,236.1c-0.2-0.3-0.6-0.5-0.9-0.4c-0.2,0-0.4,0.1-0.4,0.3c0,0.1,0,0.2,0.1,0.3c0.2,0.2,0.5,0.4,0.7,0.4
			c0.2,0,0.4-0.1,0.5-0.3C-615.7,236.3-615.7,236.2-615.7,236.1L-615.7,236.1z"/>
	</g>
	<g>
		<path d="M-616.3,236.8L-616.3,236.8C-616.3,236.8-616.3,236.8-616.3,236.8c-0.3,0-0.7-0.2-0.8-0.4c-0.1-0.1-0.1-0.3-0.1-0.4
			c0-0.1,0.1-0.3,0.5-0.4c0.1,0,0.1,0,0.2,0c0.4,0,0.7,0.2,0.9,0.5c0.1,0.2,0.1,0.3,0,0.5C-615.7,236.7-616,236.8-616.3,236.8z
			 M-616.5,235.8c0,0-0.1,0-0.1,0c-0.2,0-0.3,0.1-0.3,0.2c0,0.1,0,0.2,0.1,0.2c0.1,0.2,0.4,0.3,0.6,0.3l0,0.1v-0.1l0,0
			c0.2,0,0.4-0.1,0.4-0.2c0-0.1,0-0.1,0-0.2C-616,235.9-616.2,235.8-616.5,235.8z"/>
	</g>
</g>
<g>
	<g>
		<rect x="-613.2" y="245.7" transform="matrix(0.7044 0.7098 -0.7098 0.7044 -4.9834 508.6034)" width="0.2" height="5.2"/>
	</g>
</g>
<g>
	<g>
		<path d="M-610.1,248.5l-0.2-0.2c0.2-0.3,0.3-0.7,0.1-1c-0.2-0.3-0.7-0.6-1-0.6c0,0,0,0,0,0l0-0.2c0.4,0,1.1,0.4,1.3,0.8
			C-609.8,247.6-609.8,248.1-610.1,248.5z"/>
	</g>
</g>
<g>
	<g>
		<path d="M-614.2,251.9c0,0-0.1,0-0.1-0.1c0-0.1,0-0.1,0-0.2l3.9-3.3c0,0,0,0,0,0l0.1-0.1l0,0l0.3-0.2l0.2,0.2L-614.2,251.9
			C-614.2,251.9-614.2,251.9-614.2,251.9z"/>
	</g>
</g>
<g>
	<g>
		<path d="M-609.3,250.1l-0.2-0.2c0.2-0.2,0.3-0.5,0.3-0.8c-0.1-0.3-0.5-0.7-0.7-0.8l0.1-0.2c0.4,0.1,0.9,0.6,0.9,1
			C-608.9,249.4-609,249.8-609.3,250.1z"/>
	</g>
</g>
<g>
	<g>
		<path d="M-614,253.3c0,0-0.1,0-0.1-0.1c0-0.1,0-0.1,0-0.2l3.9-2.7c0,0,0,0,0-0.1l0.7-0.5l0.1,0.2l-0.3,0.2l0,0.1L-614,253.3
			C-614,253.3-614,253.3-614,253.3z"/>
	</g>
</g>
<g>
	<g>
		<path d="M-609.3,252.1l-0.2-0.2c0.2-0.1,0.3-0.3,0.3-0.6c0-0.3-0.2-0.8-0.5-1l0.1-0.2c0.4,0.2,0.6,0.8,0.6,1.2
			C-609,251.6-609.1,251.9-609.3,252.1z"/>
	</g>
</g>
<g>
	<g>
		<path d="M-613.8,254.6c0,0-0.1,0-0.1-0.1c0-0.1,0-0.1,0-0.2l4.4-2.5l0.1,0.2l-1.3,0.7l0,0L-613.8,254.6
			C-613.8,254.6-613.8,254.6-613.8,254.6z"/>
	</g>
</g>
<g>
	<g>
		<path d="M-610.8,254.6l-0.1-0.2c0.2-0.1,0.4-0.3,0.4-0.5c0.1-0.3,0-0.9-0.2-1l0.1-0.2c0.3,0.2,0.4,0.9,0.3,1.3
			C-610.3,254.2-610.6,254.5-610.8,254.6z"/>
	</g>
</g>
<g>
	<g>
		<rect x="-612.5" y="253.6" transform="matrix(0.4832 0.8755 -0.8755 0.4832 -92.9701 668.0511)" width="0.2" height="3.3"/>
	</g>
</g>
<g>
	<g>
		<rect x="-618.3" y="254.5" transform="matrix(0.3823 0.924 -0.924 0.3823 -145.5174 729.2391)" width="0.2" height="2.5"/>
	</g>
</g>
<g>
	<g>
		<polygon fill="#FF0000" points="-611.5,208.6 -611.5,216.2 -583.2,216.2 -583.2,219.8 -611.5,219.8 -611.5,227.4 -615,227.4 
			-615,219.8 -643.2,219.8 -643.2,216.2 -615,216.2 -615,208.6 		"/>
	</g>
</g>
<g>
	<g>
		<path d="M-613.2,292.5L-613.2,292.5c-0.1,0-0.1,0-0.1-0.1c0,0-0.2-4.9-14.9-4.9c-4.5,0-8.1-1.3-10.7-3.9
			c-4.4-4.4-4.4-11.1-4.4-11.2v-63.8c0-0.1,0-0.1,0.1-0.1h60c0.1,0,0.1,0,0.1,0.1v63.8c0,0,0,3.8-1.9,7.5c-1.7,3.4-5.4,7.6-13.2,7.6
			c-14.7,0-14.9,4.8-14.9,4.9C-613.1,292.4-613.2,292.5-613.2,292.5z M-643.1,208.7v63.7c0,0.1,0,6.7,4.4,11
			c2.6,2.6,6.1,3.9,10.5,3.9c12.3,0,14.6,3.3,15,4.6c0.4-1.3,2.8-4.6,15-4.6c7.7,0,11.3-4,13-7.4c1.8-3.7,1.9-7.4,1.9-7.5v-63.7
			H-643.1z"/>
	</g>
</g>
<g>
	<g>
		
			<path fill="none" stroke="#282420" stroke-width="0.5" stroke-linecap="round" stroke-linejoin="round" stroke-miterlimit="2.6131" d="
			M-581.6,273.5"/>
	</g>
</g>
</svg>
