<?xml version="1.0" encoding="utf-8"?>
<!-- Generator: Adobe Illustrator 18.1.1, SVG Export Plug-In . SVG Version: 6.00 Build 0)  -->
<!DOCTYPE svg PUBLIC "-//W3C//DTD SVG 1.1//EN" "http://www.w3.org/Graphics/SVG/1.1/DTD/svg11.dtd">
<svg version="1.1" id="Ebene_1" xmlns="http://www.w3.org/2000/svg" xmlns:xlink="http://www.w3.org/1999/xlink" x="0px" y="0px"
	 width="100px" height="100px" viewBox="-395.4 200.4 100 100" enable-background="new -395.4 200.4 100 100" xml:space="preserve">
<path d="M-345.4,206.4c9.3,0,17.7,5,23.8,12.9c6.1,8,9.8,18.9,9.8,31c0,12.1-3.8,23.1-9.8,31c-6.1,8-14.5,12.9-23.8,12.9
	c-9.3,0-17.7-5-23.8-12.9c-6.1-8-9.8-18.9-9.8-31c0-12.1,3.7-23.1,9.8-31C-363.1,211.4-354.7,206.4-345.4,206.4L-345.4,206.4z"/>
<path fill="#EACC00" d="M-345.4,207.1c-9.1,0-17.3,4.8-23.2,12.7c-6,7.8-9.7,18.7-9.7,30.6c0,11.9,3.7,22.8,9.7,30.6
	c5.9,7.8,14.2,12.7,23.2,12.7c9,0,17.2-4.9,23.2-12.7c6-7.8,9.7-18.7,9.7-30.6c0-12-3.7-22.8-9.7-30.6
	C-328.2,211.9-336.4,207.1-345.4,207.1L-345.4,207.1z"/>
<path d="M-345.4,209.5c5.9,0,11.5,2.3,16.2,6.2c4.8,4.1,8.8,9.9,11.3,16.8l0.1,0.3l-0.3,0.1c-3.6,1.3-7.9,2.4-12.6,3.1
	c-4.5,0.7-9.5,1.1-14.6,1.1c-5.2,0-10.1-0.4-14.7-1.1c-4.7-0.7-9-1.8-12.6-3.1l-0.3-0.1l0.1-0.3c2.5-6.9,6.4-12.8,11.3-16.8
	C-356.9,211.8-351.3,209.5-345.4,209.5L-345.4,209.5z"/>
<path d="M-317.2,234.8l0.1,0.4c0.7,2.4,1.3,4.9,1.6,7.5c0.4,2.5,0.5,5.1,0.5,7.7c0,1.8-0.1,3.5-0.2,5.2c-0.2,1.7-0.4,3.5-0.7,5.1
	l-0.1,0.4l-0.4-0.2c-3.7-1.4-8.1-2.5-13.2-3.3c-4.9-0.7-10.2-1.2-15.9-1.2c-5.7,0-11,0.4-15.9,1.2c-5,0.8-9.5,1.9-13.2,3.3l-0.4,0.2
	l-0.1-0.4c-0.3-1.7-0.6-3.4-0.7-5.1c-0.2-1.7-0.3-3.4-0.3-5.2c0-2.7,0.2-5.2,0.5-7.7c0.4-2.6,0.9-5.1,1.6-7.5l0.1-0.4l0.3,0.1
	c3.6,1.4,7.9,2.5,12.8,3.3c4.7,0.7,9.8,1.1,15.1,1.1c5.3,0,10.5-0.4,15.1-1.1c4.8-0.8,9.2-1.9,12.8-3.3L-317.2,234.8L-317.2,234.8z"
	/>
<path d="M-316.4,263.2l-0.1,0.3c-2.1,8.2-6,15.2-11.1,20.1c-5,4.8-11.2,7.7-17.8,7.7c-6.6,0-12.8-2.9-17.8-7.7
	c-5.1-4.9-9.1-12-11.2-20.1l-0.1-0.3l0.3-0.1c3.7-1.3,8.1-2.4,13.1-3.2c4.8-0.7,10.1-1.1,15.6-1.1c5.5,0,10.8,0.4,15.6,1.1
	c5,0.7,9.5,1.8,13.1,3.2L-316.4,263.2L-316.4,263.2z"/>
<path fill="#172983" d="M-322.8,233.7c1.4-0.4,2.8-0.8,4.1-1.3c-1.1-3-2.5-5.8-4.1-8.3V233.7L-322.8,233.7z"/>
<path fill="#172983" d="M-332.9,235.7c0.7-0.1,1.3-0.2,2-0.3c1-0.2,2-0.3,3-0.5v-17c-0.6-0.6-1.2-1.2-1.9-1.7
	c-1-0.9-2.1-1.6-3.2-2.3V235.7L-332.9,235.7z"/>
<path fill="#172983" d="M-368,224.2c-1.6,2.5-3,5.3-4.1,8.3c1.3,0.5,2.6,0.9,4.1,1.3V224.2L-368,224.2z"/>
<path fill="#172983" d="M-358,213.9c-1.1,0.7-2.2,1.5-3.2,2.3c-0.6,0.5-1.3,1.1-1.8,1.7v17c1,0.2,2,0.4,3,0.5c0.6,0.1,1.3,0.2,2,0.3
	V213.9L-358,213.9z"/>
<path fill="#FFED00" d="M-327.8,234.9c1.7-0.3,3.4-0.7,5-1.2v-9.5c-1.5-2.3-3.2-4.4-5-6.3V234.9L-327.8,234.9z"/>
<path fill="#FFED00" d="M-363,217.9c-1.9,1.8-3.5,3.9-5,6.3v9.5c1.6,0.4,3.3,0.8,5,1.2V217.9L-363,217.9z"/>
<path fill="#172983" d="M-342.9,232.9v3.6c1.7,0,3.4-0.1,5-0.3v-9.9C-339.6,228.5-341.2,230.7-342.9,232.9L-342.9,232.9z"/>
<path fill="#172983" d="M-352.9,226.3v10c1.6,0.1,3.3,0.2,5,0.3v-3.6C-349.6,230.6-351.3,228.5-352.9,226.3L-352.9,226.3z"/>
<path fill="#E32219" d="M-338.8,215.9l0.1-0.2l0.2,0.1c0.2,0.2,0.4,0.4,0.6,0.7v-5c-1.6-0.6-3.3-1-5-1.2v10.8
	C-341.5,219.4-340.2,217.6-338.8,215.9L-338.8,215.9z"/>
<path fill="#008F2F" d="M-352.9,216.5c0.2-0.3,0.4-0.5,0.6-0.7l0.2-0.1l0.1,0.2c1.3,1.7,2.7,3.4,4,5.2v-10.7c-1.7,0.2-3.4,0.6-5,1.2
	L-352.9,216.5C-352.9,216.6-352.9,216.5-352.9,216.5L-352.9,216.5z"/>
<path fill="#FFED00" d="M-337.5,217.2c0.7,0.1,1.4,0.3,1.9,0.6c0.6,0.4,1,0.9,1.1,1.6c0,0.1,0,0.1,0,0.1c0,0,0,0,0.1,0l1.5,0v-5.6
	c-1.6-1-3.3-1.8-5-2.4v5C-337.7,216.7-337.6,216.9-337.5,217.2L-337.5,217.2z"/>
<path fill="#FFED00" d="M-335.3,225.2h-0.4v0l-1,0c-0.1,0-0.2,0-0.2,0c-0.1,0-0.1,0.1-0.2,0.1c-0.3,0.3-0.5,0.7-0.8,1v9.9
	c1.7-0.1,3.4-0.3,5-0.5v-10.6L-335.3,225.2L-335.3,225.2z"/>
<path fill="#FFED00" d="M-356.3,219.5c0,0,0-0.1,0-0.1c0.1-0.8,0.5-1.3,1.1-1.6c0.5-0.3,1.2-0.5,1.9-0.6c0.1-0.2,0.2-0.4,0.3-0.6
	v-5.1c-1.7,0.6-3.4,1.4-5,2.4v5.6L-356.3,219.5C-356.4,219.5-356.3,219.5-356.3,219.5L-356.3,219.5z"/>
<path fill="#FFED00" d="M-353.7,225.3c-0.1,0-0.1-0.1-0.1-0.1c-0.1,0-0.1,0-0.3,0l-1,0v0h-0.4l-2.5,0v10.6c1.6,0.2,3.3,0.4,5,0.5
	v-10C-353.2,225.9-353.4,225.6-353.7,225.3L-353.7,225.3z"/>
<path fill="#FFED00" d="M-345.4,236.2c-0.8-1.1-1.7-2.2-2.5-3.3v3.6c0.8,0,1.7,0,2.5,0c0.8,0,1.7,0,2.5,0v-3.6
	C-343.7,234-344.6,235.1-345.4,236.2L-345.4,236.2z"/>
<path fill="#FFFFFF" d="M-345.4,224.3c0.8-1.1,1.7-2.1,2.5-3.2v-10.8c-0.8-0.1-1.7-0.1-2.5-0.1c-0.8,0-1.7,0.1-2.5,0.1V221
	C-347.1,222.1-346.2,223.2-345.4,224.3L-345.4,224.3z"/>
<path fill="#EACC00" d="M-347.3,225.8l-0.1,1.3c1.3,0,2.7,0,4,0l-0.1-1.3C-344.7,225.8-346,225.8-347.3,225.8L-347.3,225.8z"/>
<path fill="#EACC00" d="M-347.5,229.4l-0.1,1.3c1.5,0,3,0,4.5,0l-0.1-1.3C-344.7,229.4-346.1,229.4-347.5,229.4L-347.5,229.4z"/>
<polygon fill="#EACC00" points="-343.5,225.4 -343.7,222.9 -345.2,224.8 -345.4,225.1 -347.1,222.9 -347.3,225.4 "/>
<polygon fill="#EACC00" points="-343.3,229 -343.4,227.6 -347.4,227.6 -347.5,229 "/>
<polygon fill="#EACC00" points="-345.4,235.4 -343,232.3 -343.1,231.2 -347.7,231.2 -347.7,232.3 "/>
<path fill="#EACC00" d="M-355.6,224.7c-0.2-0.5-0.2-1-0.3-1.5c-0.1-1-0.5-1.9-1.7-2.2v3.7H-355.6L-355.6,224.7z"/>
<path fill="#EACC00" d="M-335.2,224.7c0.2-0.5,0.3-1,0.3-1.5c0.1-1,0.5-1.9,1.7-2.2v3.7H-335.2L-335.2,224.7z"/>
<path fill="#EACC00" d="M-352.5,216.7c-0.1,0.2-0.3,0.4-0.4,0.7l0,0.1l-0.1,0c-0.4,0-0.7,0.1-1,0.2c-0.3,0.1-0.6,0.2-0.8,0.3
	c-0.5,0.3-0.8,0.7-0.9,1.3c0,0.2-0.1,0.3-0.2,0.4c-0.1,0.1-0.2,0.1-0.4,0.1h-1.2v0.5c1.6,0.4,2,1.5,2.2,2.7c0.1,0.5,0.1,1.1,0.3,1.5
	h1h0c0.2,0,0.3,0,0.4,0.1c0.1,0.1,0.3,0.1,0.3,0.3l5.1,6.7l0.7-9.5l-4.6-6C-352.3,216.5-352.4,216.6-352.5,216.7L-352.5,216.7z
	 M-355.3,219.9l0-0.2c0-0.3,0.2-0.5,0.4-0.6c0.2-0.2,0.5-0.3,0.8-0.3c0.3,0,0.5,0.1,0.8,0.3c0.2,0.2,0.3,0.4,0.4,0.6l0,0.2H-355.3
	L-355.3,219.9z"/>
<path fill="#EACC00" d="M-334.4,220c-0.2,0-0.3,0-0.4-0.1c-0.1-0.1-0.1-0.2-0.2-0.4c-0.1-0.6-0.4-1-0.9-1.3
	c-0.3-0.1-0.5-0.3-0.8-0.3c-0.3-0.1-0.7-0.2-1-0.2l-0.1,0l-0.1-0.1c-0.1-0.2-0.2-0.5-0.4-0.7c-0.1-0.1-0.2-0.3-0.4-0.4l-4.6,6
	l0.6,9.5l5.1-6.7c0.1-0.1,0.2-0.2,0.3-0.3c0.1,0,0.3-0.1,0.4-0.1h0.1h0.9c0.2-0.4,0.3-1,0.4-1.5c0.1-1.2,0.5-2.3,2.2-2.7V220H-334.4
	L-334.4,220z M-337.8,219.9l0-0.2c0-0.3,0.2-0.5,0.4-0.6c0.2-0.2,0.5-0.3,0.8-0.3c0.3,0,0.6,0.1,0.8,0.3c0.2,0.2,0.3,0.4,0.4,0.6
	l0,0.2H-337.8L-337.8,219.9z"/>
<path fill="#172983" d="M-368,276.6V262c-2,0.5-3.9,1-5.5,1.6C-372.3,268.4-370.4,272.8-368,276.6L-368,276.6z"/>
<path fill="#172983" d="M-363,261v21.9c0.1,0.1,0.2,0.2,0.3,0.3c1.5,1.4,3,2.7,4.7,3.7v-26.7c-1,0.1-2,0.2-2.9,0.4
	C-361.6,260.7-362.3,260.9-363,261L-363,261z"/>
<path fill="#172983" d="M-322.8,262v14.6c2.4-3.8,4.3-8.2,5.6-13C-318.9,263.1-320.8,262.5-322.8,262L-322.8,262z"/>
<path fill="#172983" d="M-332.9,260.2v26.7c1.7-1,3.3-2.3,4.7-3.7c0.1-0.1,0.2-0.2,0.3-0.3V261c-0.7-0.1-1.4-0.2-2.1-0.3
	C-330.9,260.5-331.9,260.4-332.9,260.2L-332.9,260.2z"/>
<path fill="#FFED00" d="M-322.8,262c-1.6-0.4-3.3-0.7-5-1v21.9c1.8-1.8,3.5-3.9,5-6.3V262L-322.8,262z"/>
<path fill="#FFED00" d="M-363,261c-1.7,0.3-3.4,0.6-5,1v14.6c1.5,2.3,3.2,4.5,5,6.3V261L-363,261z"/>
<path fill="#172983" d="M-337.9,265.3v-5.5c-1.6-0.1-3.3-0.2-5-0.2v5.7L-337.9,265.3L-337.9,265.3z"/>
<path fill="#172983" d="M-338.3,281.3c-0.5,0.5-1.3,0.8-2.4,0.8h-2.2v8.5c1.7-0.2,3.4-0.6,5-1.2v-8.6
	C-338,280.9-338.1,281.1-338.3,281.3L-338.3,281.3z"/>
<path fill="#172983" d="M-347.9,265.3v-5.7c-1.7,0-3.4,0.1-5,0.2v5.5H-347.9L-347.9,265.3z"/>
<path fill="#172983" d="M-350.2,282c-1.1,0-1.8-0.3-2.4-0.8c-0.2-0.2-0.3-0.3-0.4-0.6v8.6c1.6,0.6,3.3,1,5,1.2V282H-350.2
	L-350.2,282z"/>
<path fill="#FFED00" d="M-337.9,259.8v5.5h0.4v13.7c0,0.7-0.1,1.3-0.4,1.8v8.6c1.7-0.6,3.4-1.4,5-2.4v-26.7
	C-334.5,260.1-336.2,259.9-337.9,259.8L-337.9,259.8z"/>
<path fill="#FFED00" d="M-342.9,265.3v-5.7c-0.8,0-1.7,0-2.5,0c-0.8,0-1.7,0-2.5,0v5.7L-342.9,265.3L-342.9,265.3z"/>
<path fill="#FFED00" d="M-343.3,282c-0.4,0-0.8,0.2-1.1,0.4c-0.3,0.3-0.6,0.7-0.9,1l-0.2,0.2l-0.2-0.2c-0.3-0.4-0.5-0.8-0.9-1
	c-0.3-0.3-0.7-0.4-1.1-0.4h-0.4v8.5c0.8,0.1,1.7,0.1,2.5,0.1c0.8,0,1.7-0.1,2.5-0.1V282H-343.3L-343.3,282z"/>
<path fill="#FFED00" d="M-353.3,278.9v-13.7h0.4v-5.5c-1.7,0.1-3.4,0.3-5,0.5v26.7c1.6,1,3.3,1.8,5,2.4v-8.6
	C-353.2,280.2-353.3,279.6-353.3,278.9L-353.3,278.9z"/>
<path fill="#EACC00" d="M-337.9,278.9c0,0.9-0.2,1.6-0.7,2c-0.4,0.4-1.1,0.7-2.1,0.7h-2.6c-0.5,0-1,0.2-1.4,0.6
	c-0.3,0.3-0.5,0.6-0.8,0.9c-0.2-0.3-0.5-0.6-0.8-0.9c-0.4-0.3-0.8-0.6-1.4-0.6h-2.6c-1,0-1.6-0.2-2.1-0.7c-0.5-0.5-0.7-1.2-0.7-2
	v-13.3h15L-337.9,278.9L-337.9,278.9z M-351.9,266.7v11.7c0,0.8,0.1,1.3,0.4,1.7c0.3,0.4,0.9,0.5,1.8,0.5h2.4c0.4,0,0.7,0.1,0.9,0.3
	c0.3,0.2,0.5,0.5,0.7,0.8l0.1,0.2l0.1-0.2c0.2-0.3,0.4-0.6,0.7-0.8l0,0c0.3-0.2,0.6-0.3,0.9-0.3h2.4c0.9,0,1.4-0.2,1.8-0.5
	c0.3-0.4,0.4-0.9,0.4-1.7v-11.7H-351.9L-351.9,266.7z"/>
<path fill="#172983" d="M-339.3,267h-12.3v11.4c0,0.7,0.1,1.2,0.4,1.5c0.3,0.3,0.7,0.4,1.6,0.4h2.4c0.4,0,0.8,0.1,1.1,0.4
	c0.3,0.2,0.5,0.4,0.7,0.7c0.2-0.3,0.4-0.5,0.7-0.7l0,0c0.3-0.2,0.7-0.4,1.1-0.4h2.4c0.8,0,1.3-0.1,1.6-0.4c0.3-0.3,0.3-0.8,0.3-1.5
	L-339.3,267L-339.3,267z"/>
<path fill="#EACC00" d="M-351.6,274.3v0.9h4.3v5h0c0.3,0,0.5,0.1,0.8,0.2v-6.1H-351.6L-351.6,274.3z"/>
<polygon fill="#EACC00" points="-346.4,272.5 -346.4,267 -347.2,267 -347.2,271.7 -351.6,271.7 -351.6,272.5 "/>
<path fill="#EACC00" d="M-344.9,272.8V267h-1.2v5.8h-5.4v1.2h5.4v6.6c0,0,0,0,0,0c0.3,0.2,0.5,0.4,0.7,0.7c0.1-0.2,0.3-0.4,0.5-0.6
	V274h5.6v-1.2H-344.9L-344.9,272.8z"/>
<path fill="#EACC00" d="M-344.5,274.3v6.2c0.3-0.2,0.6-0.2,0.9-0.2h0v-5h4.3v-0.9H-344.5L-344.5,274.3z"/>
<polygon fill="#EACC00" points="-343.6,271.7 -343.6,267 -344.5,267 -344.5,272.5 -339.3,272.5 -339.3,271.7 "/>
<path fill="#FFFFFF" d="M-317.6,235.8c-3.6,1.3-7.8,2.5-12.6,3.2c-4.7,0.8-9.8,1.2-15.2,1.2c-5.4,0-10.6-0.4-15.3-1.2
	c-4.7-0.7-9-1.9-12.6-3.2c-0.6,2.2-1.2,4.6-1.5,7c-0.4,2.5-0.5,5-0.5,7.7c0,1.7,0.1,3.5,0.3,5.1c0.1,1.6,0.4,3.1,0.7,4.7
	c3.6-1.3,8-2.4,12.9-3.2c4.9-0.7,10.3-1.2,16-1.2c5.7,0,11.1,0.4,16,1.2c4.9,0.7,9.3,1.8,12.9,3.2c0.3-1.5,0.5-3.1,0.7-4.7
	c0.2-1.7,0.2-3.4,0.2-5.1c0-2.6-0.2-5.2-0.5-7.7C-316.5,240.3-317,238-317.6,235.8L-317.6,235.8z"/>
<path d="M-330.8,253.1c-0.3-0.7-1.5-3.3-1.9-3.9c-0.4,0-3.1,0-4,0c0,1,0,4.9,0,5.9c0.9,0.1,1.8,0.2,2.7,0.3c0-0.6,0-3.2,0-3.8
	c0,0.1,0.1,0.1,0.1,0.2c0.3,0.6,1.5,3.1,1.8,3.8c1.3,0.2,2.7,0.4,4,0.6c0-1.2,0-5.8,0-7c-0.9,0-1.8,0-2.7,0
	C-330.8,249.8-330.8,252.4-330.8,253.1L-330.8,253.1z"/>
<path d="M-354.1,245.6c-1.1,0-2.2-0.1-3.2-0.1c0-0.3,0-0.5,0-0.8c1,0,1.9,0.1,2.9,0.1c0-0.6,0-1.1,0-1.7c-1-0.1-1.9-0.1-2.9-0.2
	c0-0.2,0-0.5,0-0.7c1,0.1,2.1,0.1,3.1,0.2c0-0.5,0-1.1,0-1.7c-2.1-0.2-4.2-0.4-6.3-0.7c0,1.2,0,6,0,7.2c2.2,0,4.3,0,6.4,0
	C-354.1,247-354.1,245.9-354.1,245.6L-354.1,245.6z"/>
<path d="M-335.1,246.2c0.4,0,2,0,2.4,0c0.1,0.3,0.2,0.7,0.3,1.1c1.2,0,2.3,0,3.5,0c-0.4-1.2-2.2-5.9-2.7-7c-0.8,0.1-1.5,0.2-2.3,0.3
	c-0.7,0.1-1.3,0.1-2,0.2c-0.5,1.1-2.3,5.5-2.8,6.6c1,0,2.1,0,3.2,0C-335.4,246.9-335.2,246.6-335.1,246.2L-335.1,246.2z M-333.9,242
	C-333.9,241.9-333.9,241.9-333.9,242c0.1,0.3,0.6,2.1,0.7,2.5c-0.2,0-0.5,0-0.7,0c-0.2,0-0.5,0-0.7,0
	C-334.5,244.1-334,242.4-333.9,242L-333.9,242z"/>
<path d="M-320,249.2c-0.8,0-3.7,0-4.4,0c-0.5,1.3-2.4,6-2.8,7.1c1.1,0.2,2.2,0.4,3.3,0.6c0.1-0.4,0.2-0.8,0.3-1.2
	c0.4,0.1,2.1,0.4,2.5,0.5c0.1,0.5,0.2,0.9,0.3,1.4c1.2,0.3,2.4,0.7,3.6,1.1C-317.7,257.1-319.6,250.7-320,249.2L-320,249.2z
	 M-322.4,254c-0.3,0-0.5-0.1-0.8-0.1c0.1-0.5,0.3-1,0.4-1.5c0.1-0.5,0.2-1,0.4-1.5c0,0,0-0.1,0-0.1c0.1,0.6,0.3,1.1,0.4,1.6
	c0.1,0.6,0.2,1.1,0.4,1.7C-321.9,254.1-322.1,254.1-322.4,254L-322.4,254z"/>
<path d="M-366.8,244.1c0.5,0.1,1,0.1,1.5,0.1c0,0.5,0,2.5,0,3c1,0,2.1,0,3.2,0c0-1.2,0-6.2,0-7.4c-1-0.2-2.1-0.4-3.2-0.6
	c0,0.5,0,2.2,0,2.7c-0.5-0.1-1-0.1-1.5-0.2c0-0.5,0-2.3,0-2.8c-1.1-0.2-2.1-0.5-3.2-0.8c0,1.5,0,7.6,0,9.1c1.1,0,2.1,0,3.2,0
	C-366.8,246.7-366.8,244.7-366.8,244.1L-366.8,244.1z"/>
<path d="M-338.9,247.3c0-0.3,0-1.4,0-1.7c-1,0-2,0-3,0c0-0.8,0-3.8,0-4.6c-0.1,0-0.2,0-0.4,0c-1,0-1.9,0-2.9,0c0,1,0,5.1,0,6.2
	C-344.3,247.3-340.1,247.3-338.9,247.3L-338.9,247.3z"/>
<path d="M-346.3,247.3c0-0.3,0-1.4,0-1.6c-1,0-2,0-3.1,0c0-0.8,0-3.8,0-4.6c-0.7,0-1.4-0.1-2.2-0.1c-0.4,0-0.7,0-1.1-0.1
	c0,1.1,0,5.3,0,6.4C-352.3,247.3-348,247.3-346.3,247.3L-346.3,247.3z"/>
<path d="M-322.4,246.9c0.2-0.1,0.4-0.2,0.5-0.3c0.7-0.6,1-1.4,1-2.3c0-0.7-0.2-1.3-0.6-1.6c-0.2-0.2-0.5-0.3-0.9-0.5
	c-0.4-0.1-0.8-0.2-1.4-0.3c-0.1,0-0.3,0-0.6-0.1c-0.7-0.1-1-0.2-1-0.5c0-0.2,0.1-0.3,0.2-0.4c0.1-0.1,0.3-0.2,0.5-0.2
	c0.2,0,0.4,0,0.5,0.1c0.1,0.1,0.2,0.3,0.2,0.5c0.5-0.1,2.4-0.4,2.8-0.5c0-0.1,0-0.1,0-0.2c0-0.8-0.3-1.3-0.9-1.6
	c-0.1-0.1-0.2-0.1-0.4-0.1c-0.6-0.1-1.3-0.1-2.2,0.1c-1.2,0.3-2.1,0.7-2.8,1.2c-0.7,0.5-1,1.1-1,1.9c0,0.5,0.2,0.9,0.5,1.2
	c0.3,0.3,0.8,0.5,1.6,0.7c0.3,0.1,0.7,0.1,1.2,0.2c0.5,0.1,0.8,0.1,1,0.2c0.1,0,0.2,0.1,0.2,0.2c0.1,0.1,0.1,0.2,0.1,0.4
	c0,0.2-0.1,0.3-0.2,0.4c-0.1,0.1-0.3,0.2-0.6,0.2c-0.3,0-0.5,0-0.6-0.2c-0.1-0.1-0.2-0.3-0.2-0.6c0,0,0,0,0-0.1c-1,0.1-2,0.1-3,0.2
	c0,0.1,0,0.1,0,0.1c0,0,0,0.1,0,0.2c0,0.7,0.3,1.3,1,1.7c0.7,0.4,1.6,0.6,2.8,0.6C-323.8,247.4-323,247.2-322.4,246.9L-322.4,246.9z
	"/>
<path d="M-339.1,249.8c-0.8-0.5-1.8-0.8-3.2-0.8c0,0,0,0,0,0c-1.4,0-2.5,0.2-3.2,0.8c-0.4,0.3-0.7,0.6-0.9,0.9
	c-0.2,0.4-0.3,0.8-0.3,1.2c0,0.5,0.1,0.8,0.3,1.2c0.2,0.3,0.5,0.6,0.8,0.9c0.7,0.5,1.8,0.8,3.2,0.8c0,0,0.1,0,0.1,0
	c1.4,0,2.5-0.2,3.2-0.6c0.4-0.2,0.7-0.5,0.9-0.9c0.2-0.3,0.3-0.8,0.3-1.3s-0.1-0.9-0.3-1.3C-338.4,250.4-338.7,250.1-339.1,249.8
	L-339.1,249.8z M-341.3,253.1c-0.2,0.2-0.6,0.3-1.1,0.3c-0.5,0-0.9-0.1-1.1-0.3c-0.2-0.2-0.3-0.6-0.3-1.1c0-0.6,0.1-0.9,0.3-1.2
	c0.2-0.2,0.6-0.3,1.1-0.3c0,0,0,0,0,0c0.5,0,0.9,0.1,1.1,0.3c0.2,0.2,0.3,0.6,0.3,1.1C-340.9,252.5-341,252.9-341.3,253.1
	L-341.3,253.1z"/>
<path d="M-360.3,253.3c1-0.1,2-0.2,3-0.2c0-0.5,0-1.1,0-1.6c-1,0-2,0.1-3,0.2c0-0.3,0-0.5,0-0.7c1.1,0,2.1-0.1,3.2-0.1
	c0-0.5,0-1.1,0-1.6c-2.2,0-4.3,0-6.5,0c0,1.2,0,5.9,0,7.1c2.2-0.4,4.4-0.7,6.6-0.9c0-0.3,0-1.3,0-1.6c-1.1,0.1-2.2,0.2-3.3,0.3
	C-360.3,253.8-360.3,253.5-360.3,253.3L-360.3,253.3z"/>
<path d="M-349.3,251.9c0.6-0.1,1-0.3,1.3-0.5c0.3-0.2,0.4-0.5,0.4-0.8c0-0.5-0.3-0.9-0.8-1.1c-0.5-0.2-1.4-0.3-2.7-0.3
	c-0.1,0-3.1,0-4.4,0c0,1,0,5,0,6.1c1.1-0.1,2.2-0.2,3.2-0.3c0-0.3,0-0.7,0-1c0-0.4,0-0.7,0-1.1c0.1,0,0.2,0,0.3,0
	c0.1,0,0.3,0,0.4,0.1c0.6,0.3,0.8,1.2,0.9,2c1.1,0,2.2-0.1,3.3-0.1C-347.6,253.4-347.9,252.1-349.3,251.9L-349.3,251.9z
	 M-351.1,251.4c-0.1,0-0.2,0.1-0.4,0.1c-0.1,0-0.3,0.1-0.5,0.1c-0.1,0-0.1,0-0.1,0c0,0-0.1,0-0.1,0c0-0.4,0-0.7,0-1.1
	c0,0,0.1,0,0.1,0c0.1,0,0.1,0,0.2,0c0.1,0,0.2,0,0.3,0c0.2,0,0.3,0,0.5,0.1c0.2,0.1,0.3,0.2,0.3,0.4
	C-350.8,251.1-350.9,251.3-351.1,251.4L-351.1,251.4z"/>
<path d="M-369.3,254.7l-1.7-5.5c-1.1,0-2.1,0-3.3,0c0.7,2.8,2.2,5.9,3.1,8.9c1.4-0.4,2.3-0.6,3.7-0.9l3.1-8l-3.2,0L-369.3,254.7
	L-369.3,254.7z"/>
</svg>
