<?xml version="1.0" encoding="utf-8"?>
<!-- Generator: Adobe Illustrator 19.1.0, SVG Export Plug-In . SVG Version: 6.00 Build 0)  -->
<svg version="1.1" id="Ebene_1" xmlns="http://www.w3.org/2000/svg" xmlns:xlink="http://www.w3.org/1999/xlink" x="0px" y="0px"
	 viewBox="15 -27 170 85" style="enable-background:new 15 -27 170 85;" xml:space="preserve">
<style type="text/css">
	.st0{fill:#4F4F4F;}
	.st1{fill:none;}
</style>
<g>
	<path class="st0" d="M44.3-10.5h13.9c0,0,0,30.2,0,36.5s-2.7,19.4-22,19.4S14.9,33.1,14.9,26.2v-6.7h13.5c0,0,0,2.5,0,6.6
		c0,4,2.7,7.8,7.8,7.8s8.2-2.8,8.2-7.6C44.3,21.4,44.3-10.5,44.3-10.5L44.3-10.5z"/>
	<path class="st0" d="M183.1,50.4c-0.6-0.6-1.3-0.9-2.1-0.9c-1.7,0-3,1.4-3,3c0,0.8,0.3,1.6,0.9,2.1c0.6,0.6,1.3,0.9,2.1,0.9
		s1.6-0.3,2.1-0.9c0.6-0.6,0.9-1.3,0.9-2.1C183.9,51.7,183.6,51,183.1,50.4z M180.9,55.1c-0.7,0-1.3-0.3-1.8-0.8s-0.8-1.1-0.8-1.8
		s0.3-1.3,0.8-1.8s1.1-0.8,1.8-0.8s1.3,0.3,1.8,0.8s0.8,1.1,0.8,1.8C183.6,53.9,182.3,55.1,180.9,55.1z"/>
	<path class="st0" d="M182.2,53c0-0.4,0-0.5-0.4-0.6c0.3-0.2,0.4-0.3,0.4-0.6c0-0.6-0.5-0.6-1-0.6h-1.4v2.5h0.4v-1.1h1
		c0.6,0,0.5,0.5,0.5,0.8c0,0.1,0,0.2,0.1,0.3h0.5v-0.1C182.2,53.4,182.2,53.3,182.2,53z M181.2,52.2h-1v-0.8h1
		c0.2,0,0.6,0.1,0.6,0.5C181.8,52.2,181.6,52.2,181.2,52.2z"/>
	<path class="st0" d="M81.4,36.8c-4.5,0-7-2.6-7-8.7h25.9c0-19.3-9.5-23.4-20.5-23.4c-12.7,0-18.4,11.7-18.4,21.7
		s6.4,19.7,19.5,19.7c11.5,0.1,19.1-7.4,19.1-12.9H87.4C87.4,33.2,85.9,36.8,81.4,36.8z M80.6,13.1c4.8,0,6.9,3.6,6.9,7.3H74.3
		C74.3,16.4,76,13.1,80.6,13.1z"/>
	<path class="st0" d="M122.9,36.8c-4.5,0-7-2.6-7-8.7h25.9c0-19.3-9.6-23.4-20.5-23.4c-12.7,0-18.4,11.6-18.4,21.6
		S109.3,46,122.5,46c11.5,0.1,19.1-7.3,19.1-12.8h-12.7C128.9,33.2,127.4,36.8,122.9,36.8z M122.1,13.1c4.8,0,6.9,3.6,6.9,7.3h-13.2
		C115.9,16.4,117.5,13.1,122.1,13.1z"/>
	<path class="st0" d="M168.6,5.1c-6.4,0-9.6,3.6-9.7,4c-0.1,0.4-1.8,2.2-1.8-0.9c0-1.3,0-2.1,0-2.1h-12.8v51.6h13c0,0,0-13.1,0-14.2
		s1.1-0.9,1.8,0s4,3.1,9.7,3.1c10.3,0,16.3-9,16.3-21.2C184.9,9.7,174.9,5.1,168.6,5.1z M164.6,37.6c-6.3,0-7.9-4-7.8-11.7
		c0.1-7.6,3.1-10.8,7.2-10.8c6.6,0,7.8,5.1,7.8,10.3C171.8,30.7,170.9,37.6,164.6,37.6z"/>
	<rect x="15.3" y="-27" class="st1" width="170" height="85"/>
</g>
</svg>
