<?xml version="1.0" encoding="iso-8859-1"?>
<!-- Generator: Adobe Illustrator 19.0.0, SVG Export Plug-In . SVG Version: 6.00 Build 0)  -->
<svg version="1.1" id="Layer_1" xmlns="http://www.w3.org/2000/svg" xmlns:xlink="http://www.w3.org/1999/xlink" x="0px" y="0px"
	 viewBox="0 0 50 50" style="enable-background:new 0 0 50 50;" xml:space="preserve">
<g id="XMLID_1_">
	<path id="XMLID_186_" style="fill:#EE334E;" d="M34.753,9.658c0,0-0.393-0.636-1.259-0.977c-0.828-0.325-2.087-0.521-2.202-0.539
		c0.002-0.009-0.09-0.092-0.909-0.644C28.813,6.44,26.502,6.368,25,6.739c-1.502-0.371-3.813-0.299-5.384,0.76
		c-0.817,0.552-0.91,0.635-0.909,0.644c-0.115,0.018-1.375,0.214-2.201,0.539c-0.866,0.341-1.259,0.977-1.259,0.977l-0.335,1.414
		l0.231,1.876l1.516,0.359l4.498-1.182L25,11.682l3.841,0.444l4.498,1.182l1.516-0.359l0.231-1.876L34.753,9.658L34.753,9.658z"/>
	<path style="fill:#00539F;" d="M24.994,11.629l3.853,0.444l4.493,1.18l1.467-0.348l0.225-1.83l-0.329-1.396
		c-0.045-0.069-0.439-0.637-1.229-0.948c-0.814-0.319-2.052-0.514-2.19-0.536c-0.014-0.002-0.027-0.01-0.035-0.022
		c-0.001-0.001-0.002-0.003-0.003-0.004c-0.022-0.022-0.152-0.127-0.892-0.626c-0.913-0.615-2.181-0.954-3.571-0.954
		c-0.623,0-1.235,0.07-1.771,0.202c-0.008,0.002-0.017,0.002-0.025,0c-0.535-0.132-1.147-0.202-1.77-0.202
		c-1.39,0-2.659,0.339-3.571,0.954c-0.741,0.5-0.87,0.605-0.893,0.626c-0.008,0.013-0.021,0.023-0.038,0.026
		c-0.139,0.021-1.377,0.216-2.19,0.536c-0.792,0.312-1.183,0.88-1.228,0.948l-0.33,1.396l0.226,1.83l1.468,0.348l4.485-1.178
		L24.994,11.629L24.994,11.629z M16.661,13.36c-0.004,0-0.008,0-0.012-0.001l-1.516-0.359c-0.022-0.005-0.038-0.023-0.04-0.045
		l-0.231-1.876c-0.001-0.006,0-0.013,0.001-0.019l0.335-1.414C15.197,9.64,15.2,9.635,15.203,9.63
		c0.016-0.026,0.412-0.655,1.284-0.998c0.798-0.314,1.998-0.508,2.197-0.539c0.066-0.064,0.273-0.212,0.903-0.638
		c0.93-0.627,2.219-0.972,3.63-0.972c0.627,0,1.243,0.07,1.783,0.202c0.54-0.132,1.157-0.202,1.783-0.202
		c1.411,0,2.7,0.345,3.63,0.972c0.627,0.423,0.836,0.572,0.902,0.638c0.199,0.031,1.398,0.225,2.198,0.539
		c0.872,0.343,1.268,0.972,1.285,0.998c0.003,0.005,0.005,0.01,0.006,0.016l0.334,1.414c0.001,0.006,0.002,0.013,0.001,0.019
		l-0.231,1.876c-0.003,0.022-0.019,0.04-0.04,0.045l-1.516,0.359c-0.009,0.002-0.018,0.002-0.026,0l-4.498-1.182l-3.834-0.442
		l-3.829,0.444l-4.49,1.18C16.67,13.359,16.666,13.36,16.661,13.36L16.661,13.36z"/>
	<path id="XMLID_183_" style="fill:#FEBE10;" d="M33.401,14.002c-2.553-1.203-5.391-1.873-8.401-1.873
		c-3.009,0-5.848,0.67-8.401,1.873c-0.093,0.044-0.119,0.151-0.075,0.244c0.044,0.093,0.153,0.133,0.246,0.089l0.411,0.884
		c-0.106,0.05-0.151,0.176-0.102,0.283c0.05,0.106,0.164,0.16,0.271,0.111c2.324-1.097,4.909-1.701,7.65-1.701
		c2.741,0,5.326,0.605,7.651,1.701c0.107,0.05,0.221-0.005,0.271-0.111c0.049-0.106,0.004-0.233-0.102-0.283l0.411-0.884
		c0.093,0.044,0.203,0.004,0.247-0.089C33.52,14.153,33.494,14.045,33.401,14.002L33.401,14.002z"/>
	<path style="fill:#00539F;" d="M25,13.832c2.695,0,5.281,0.575,7.684,1.709c0.061,0.028,0.133-0.003,0.165-0.073
		c0.031-0.066,0.002-0.146-0.064-0.177c-0.04-0.018-0.057-0.065-0.038-0.105l0.411-0.884c0.009-0.019,0.025-0.034,0.045-0.041
		c0.019-0.007,0.042-0.006,0.06,0.003c0.053,0.025,0.118,0,0.142-0.051c0.014-0.03,0.017-0.063,0.007-0.09
		c-0.008-0.022-0.023-0.038-0.045-0.048c-2.627-1.238-5.442-1.865-8.368-1.865c-2.926,0-5.741,0.627-8.367,1.865
		c-0.022,0.01-0.037,0.026-0.045,0.048c-0.01,0.027-0.007,0.06,0.007,0.091c0.025,0.052,0.089,0.076,0.141,0.051
		c0.019-0.009,0.041-0.01,0.06-0.003c0.02,0.007,0.036,0.022,0.045,0.041l0.411,0.884c0.018,0.039,0.001,0.086-0.038,0.105
		c-0.066,0.031-0.095,0.111-0.064,0.178c0.033,0.069,0.103,0.103,0.166,0.072C19.719,14.407,22.305,13.832,25,13.832L25,13.832z
		 M32.733,15.71c-0.04,0-0.079-0.009-0.116-0.026C30.234,14.56,27.672,13.99,25,13.99c-2.672,0-5.234,0.57-7.616,1.694
		c-0.141,0.066-0.307-0.002-0.376-0.148c-0.056-0.121-0.023-0.262,0.073-0.345l-0.354-0.761c-0.111,0.013-0.225-0.047-0.274-0.15
		c-0.032-0.069-0.037-0.146-0.013-0.212c0.022-0.061,0.067-0.109,0.126-0.137c2.647-1.247,5.485-1.88,8.434-1.88
		c2.949,0,5.787,0.633,8.435,1.88c0.059,0.028,0.104,0.077,0.126,0.138c0.024,0.066,0.019,0.143-0.013,0.211
		c-0.048,0.103-0.16,0.164-0.275,0.15l-0.354,0.761c0.096,0.083,0.13,0.223,0.074,0.344C32.942,15.643,32.842,15.71,32.733,15.71
		L32.733,15.71z"/>
	<path style="fill:#FEBE10;" d="M16.553,13.913c2.567-1.21,5.421-1.883,8.446-1.883c3.026,0,5.894,0.676,8.46,1.886l-0.027-0.008
		c0.212,0.099,0.463,0.008,0.562-0.204c0.056-0.119,0.052-0.25-0.001-0.361c0.425,0.131,0.883,0.043,1.228-0.222
		c0.385,0.261,0.786,0.137,1.086-0.097c0.317-0.248,0.586-0.833,0.202-1.155c0.297-0.386,0.22-0.882-0.14-1.11
		c0.065-0.11,0.102-0.238,0.102-0.376c0-0.36-0.255-0.661-0.594-0.733c0.175-0.137,0.288-0.35,0.288-0.59
		c0-0.389-0.297-0.709-0.677-0.745c0.079-0.119,0.125-0.262,0.125-0.415c0-0.414-0.335-0.749-0.749-0.749
		c-0.068,0-0.134,0.01-0.197,0.027c0.043-0.095,0.067-0.199,0.067-0.31c0-0.414-0.335-0.749-0.749-0.749
		c-0.123,0-0.239,0.03-0.339,0.082c0.006-0.038,0.009-0.076,0.009-0.117c0-0.414-0.336-0.749-0.749-0.749
		c-0.16,0-0.308,0.05-0.428,0.135c-0.075-0.337-0.374-0.589-0.732-0.589c-0.265,0-0.497,0.137-0.631,0.345
		c-0.136-0.151-0.334-0.246-0.553-0.246c-0.058,0-0.115,0.007-0.169,0.02c0.033-0.084,0.051-0.175,0.051-0.27
		c0-0.414-0.335-0.749-0.75-0.749c-0.146,0-0.281,0.043-0.396,0.114c0.006-0.039,0.011-0.079,0.011-0.12
		c0-0.414-0.335-0.749-0.749-0.749c-0.168,0-0.322,0.056-0.447,0.149c-0.074-0.336-0.373-0.587-0.731-0.587
		c-0.207,0-0.395,0.084-0.53,0.22c-0.12-0.254-0.378-0.431-0.678-0.431c-0.085,0-0.167,0.015-0.243,0.041
		c-0.133-0.151-0.301-0.269-0.492-0.342c-0.044-0.017-0.089-0.031-0.135-0.043V1.663h0.565V1.088h-0.565V0.579h-0.605v0.509h-0.565
		v0.574h0.565v0.571c-0.046,0.012-0.092,0.027-0.135,0.043c-0.191,0.073-0.36,0.191-0.492,0.342
		c-0.076-0.026-0.158-0.041-0.243-0.041c-0.3,0-0.558,0.177-0.678,0.431c-0.136-0.136-0.323-0.22-0.531-0.22
		c-0.358,0-0.657,0.251-0.731,0.587c-0.124-0.093-0.279-0.149-0.447-0.149c-0.414,0-0.749,0.336-0.749,0.749
		c0,0.041,0.004,0.081,0.011,0.12c-0.116-0.071-0.251-0.114-0.397-0.114c-0.414,0-0.749,0.336-0.749,0.749
		c0,0.095,0.019,0.186,0.051,0.27c-0.055-0.013-0.111-0.02-0.169-0.02c-0.22,0-0.417,0.095-0.554,0.246
		c-0.133-0.208-0.365-0.345-0.63-0.345c-0.359,0-0.659,0.252-0.731,0.589c-0.122-0.085-0.27-0.135-0.429-0.135
		c-0.413,0-0.749,0.336-0.749,0.749c0,0.04,0.005,0.079,0.01,0.117c-0.102-0.052-0.218-0.082-0.34-0.082
		c-0.414,0-0.749,0.336-0.749,0.749c0,0.111,0.024,0.216,0.067,0.31c-0.062-0.017-0.128-0.027-0.196-0.027
		c-0.414,0-0.749,0.335-0.749,0.749c0,0.154,0.046,0.297,0.126,0.415c-0.381,0.036-0.678,0.356-0.678,0.745
		c0,0.24,0.113,0.453,0.288,0.59c-0.339,0.071-0.594,0.372-0.594,0.733c0,0.137,0.037,0.266,0.1,0.376
		c-0.359,0.228-0.435,0.724-0.139,1.11c-0.384,0.322-0.114,0.907,0.202,1.155c0.3,0.235,0.701,0.358,1.086,0.097
		c0.344,0.265,0.802,0.353,1.227,0.222c-0.053,0.11-0.057,0.242-0.001,0.361C16.104,13.917,16.342,14.011,16.553,13.913
		L16.553,13.913z M30.408,10.856c-0.049,0.453,0.134,0.892,0.467,1.178c-0.475-0.141-0.957-0.264-1.446-0.371
		C29.86,11.575,30.233,11.278,30.408,10.856L30.408,10.856z M25.655,7.162c0-0.137-0.042-0.264-0.114-0.369V6.189
		c0.072-0.105,0.114-0.232,0.114-0.369s-0.042-0.264-0.114-0.369V4.847c0.072-0.105,0.114-0.232,0.114-0.369
		c0-0.026-0.001-0.051-0.005-0.076c2.657-0.194,4.473,1.757,4.713,4.099c-0.162,0.063-0.301,0.189-0.402,0.407
		c-0.501-0.028-0.714,0.265-0.815,0.655c-0.118,0.459-0.033,0.878,0.683,1.068c-0.143,0.324-0.503,0.507-0.857,0.416
		c-0.327-0.084-0.545-0.375-0.552-0.696c0.065-0.11,0.101-0.238,0.101-0.376c0-0.416-0.337-0.753-0.753-0.753
		c-0.416,0-0.754,0.338-0.754,0.753c0,0.075,0.011,0.147,0.032,0.215c-0.092,0.304-0.372,0.525-0.706,0.525
		c-0.365,0-0.668-0.267-0.725-0.617c0.739-0.006,0.926-0.391,0.926-0.864c0-0.402-0.134-0.74-0.626-0.837
		c-0.077-0.41-0.329-0.582-0.653-0.636C25.494,7.66,25.655,7.43,25.655,7.162L25.655,7.162z M28.403,11.467
		c-0.533-0.088-1.073-0.156-1.618-0.202c0.312-0.101,0.585-0.304,0.764-0.569c0.069,0.021,0.143,0.032,0.219,0.032
		c0.013,0,0.026-0.001,0.038-0.002C27.914,11.027,28.127,11.291,28.403,11.467L28.403,11.467z M24.349,4.402
		c-0.003,0.025-0.005,0.05-0.005,0.076c0,0.137,0.043,0.264,0.114,0.369v0.604c-0.071,0.105-0.114,0.232-0.114,0.369
		s0.043,0.264,0.114,0.369v0.604c-0.071,0.105-0.114,0.232-0.114,0.369c0,0.268,0.161,0.498,0.39,0.599
		c-0.324,0.054-0.577,0.226-0.653,0.636c-0.492,0.097-0.626,0.435-0.626,0.837c0,0.474,0.187,0.859,0.927,0.864
		c-0.058,0.349-0.36,0.617-0.726,0.617c-0.333,0-0.614-0.221-0.705-0.525c0.021-0.068,0.032-0.14,0.032-0.215
		c0-0.416-0.337-0.753-0.753-0.753c-0.416,0-0.753,0.338-0.753,0.753c0,0.138,0.038,0.266,0.102,0.376
		c-0.007,0.321-0.225,0.612-0.552,0.696c-0.354,0.091-0.714-0.092-0.856-0.416c0.715-0.19,0.8-0.609,0.683-1.068
		c-0.1-0.389-0.314-0.683-0.814-0.655c-0.101-0.218-0.241-0.344-0.403-0.407C19.876,6.159,21.693,4.208,24.349,4.402L24.349,4.402z
		 M23.214,11.264c-0.545,0.046-1.085,0.114-1.617,0.202c0.276-0.176,0.489-0.44,0.595-0.741c0.013,0,0.025,0.002,0.038,0.002
		c0.076,0,0.149-0.011,0.219-0.032C22.629,10.96,22.902,11.163,23.214,11.264L23.214,11.264z M19.592,10.856
		c0.175,0.421,0.548,0.718,0.979,0.807c-0.489,0.107-0.971,0.23-1.447,0.371C19.459,11.748,19.642,11.31,19.592,10.856
		L19.592,10.856z M15.353,12.738c0.539-0.269,0.558-0.662,0.403-1.069c-0.098-0.259-0.254-0.5-0.499-0.574
		c0.171-2.186,0.812-3.25,2.853-4.282l0.003-0.008c-0.003,0.029-0.006,0.059-0.006,0.089c0,0.24,0.113,0.453,0.289,0.59
		c-0.34,0.071-0.596,0.372-0.596,0.733c0,0.34,0.226,0.626,0.536,0.718c-0.058,0.115-0.087,0.256-0.076,0.429
		c-0.452,0.216-0.497,0.577-0.397,0.966c0.118,0.459,0.395,0.786,1.112,0.607c0.032,0.352-0.194,0.686-0.548,0.778
		c-0.298,0.076-0.599-0.041-0.772-0.271c-0.002-0.052-0.009-0.104-0.022-0.156c-0.104-0.403-0.515-0.646-0.917-0.542
		c-0.403,0.103-0.646,0.514-0.542,0.917c0.031,0.12,0.089,0.226,0.167,0.313c0.027,0.284-0.112,0.57-0.378,0.717
		C15.767,12.8,15.547,12.809,15.353,12.738L15.353,12.738z M18.125,12.357c-0.511,0.18-1.013,0.379-1.504,0.597
		c0.191-0.205,0.321-0.462,0.371-0.731c0.033-0.004,0.065-0.009,0.097-0.018c0.098-0.025,0.187-0.069,0.264-0.126
		C17.574,12.241,17.845,12.339,18.125,12.357L18.125,12.357z M24.242,11.203c0.401-0.192,0.693-0.574,0.758-1.03
		c0.065,0.456,0.357,0.838,0.758,1.03c-0.251-0.009-0.504-0.014-0.758-0.014C24.747,11.188,24.494,11.193,24.242,11.203
		L24.242,11.203z M31.875,12.357c0.281-0.019,0.551-0.116,0.772-0.278c0.076,0.057,0.165,0.101,0.263,0.126
		c0.033,0.008,0.065,0.014,0.097,0.018c0.05,0.269,0.181,0.526,0.372,0.731C32.888,12.736,32.386,12.537,31.875,12.357
		L31.875,12.357z M34.647,12.738c-0.193,0.071-0.415,0.061-0.609-0.045c-0.266-0.147-0.406-0.433-0.378-0.717
		c0.077-0.087,0.136-0.193,0.167-0.313c0.104-0.403-0.139-0.813-0.543-0.917c-0.402-0.104-0.812,0.139-0.917,0.542
		c-0.013,0.052-0.02,0.104-0.022,0.156c-0.174,0.231-0.475,0.348-0.773,0.271c-0.353-0.091-0.581-0.425-0.549-0.778
		c0.718,0.179,0.995-0.148,1.113-0.607c0.1-0.389,0.054-0.749-0.398-0.966c0.011-0.173-0.017-0.314-0.076-0.429
		C31.973,8.844,32.2,8.558,32.2,8.218c0-0.361-0.256-0.662-0.596-0.733c0.176-0.137,0.289-0.35,0.289-0.59
		c0-0.03-0.002-0.06-0.006-0.089l0.004,0.008c2.04,1.032,2.681,2.096,2.852,4.282c-0.244,0.074-0.399,0.315-0.498,0.574
		C34.089,12.076,34.108,12.469,34.647,12.738L34.647,12.738z"/>
	<path style="fill:#00539F;" d="M20.286,10.68c0.147,0.238,0.443,0.362,0.722,0.291c0.277-0.071,0.477-0.317,0.492-0.6
		c-0.066-0.121-0.101-0.258-0.101-0.396c0-0.459,0.373-0.832,0.832-0.832c0.459,0,0.832,0.373,0.832,0.832
		c0,0.073-0.01,0.145-0.028,0.214c0.09,0.268,0.338,0.447,0.622,0.447c0.292,0,0.543-0.189,0.627-0.461
		c-0.61-0.033-0.908-0.342-0.908-0.94c0-0.504,0.209-0.8,0.638-0.903c0.07-0.303,0.245-0.504,0.52-0.601
		c-0.168-0.137-0.269-0.345-0.269-0.568c0-0.14,0.039-0.275,0.114-0.393V6.213c-0.075-0.118-0.114-0.254-0.114-0.393
		c0-0.139,0.039-0.274,0.114-0.393V4.87c-0.075-0.118-0.114-0.253-0.114-0.393c0-0.001,0-0.001,0-0.002
		c-2.382-0.134-4.268,1.531-4.544,3.976c0.153,0.075,0.276,0.201,0.366,0.376c0.436,0.001,0.717,0.228,0.843,0.716
		C21.079,10.123,20.868,10.495,20.286,10.68L20.286,10.68z M20.844,11.15c-0.323,0-0.615-0.191-0.745-0.487
		c-0.009-0.021-0.009-0.045,0.001-0.066c0.01-0.021,0.029-0.036,0.051-0.042c0.567-0.15,0.76-0.45,0.626-0.972
		c-0.113-0.436-0.333-0.618-0.734-0.595c-0.032,0-0.062-0.016-0.076-0.046c-0.087-0.186-0.204-0.306-0.36-0.367
		c-0.033-0.013-0.053-0.046-0.05-0.082C19.81,6.03,21.631,4.31,23.987,4.31c0.121,0,0.245,0.005,0.368,0.014
		c0.021,0.001,0.041,0.012,0.055,0.028c0.014,0.016,0.02,0.038,0.018,0.059c-0.002,0.022-0.004,0.044-0.004,0.067
		c0,0.116,0.035,0.228,0.1,0.325c0.009,0.013,0.014,0.028,0.014,0.044v0.604c0,0.016-0.005,0.031-0.014,0.044
		c-0.066,0.097-0.1,0.209-0.1,0.325c0,0.116,0.035,0.228,0.1,0.325c0.009,0.013,0.014,0.029,0.014,0.044v0.604
		c0,0.016-0.005,0.031-0.014,0.045c-0.066,0.096-0.1,0.209-0.1,0.325c0,0.228,0.135,0.435,0.343,0.527
		c0.032,0.014,0.051,0.048,0.046,0.082c-0.004,0.035-0.031,0.062-0.066,0.068c-0.339,0.056-0.526,0.238-0.589,0.573
		c-0.006,0.032-0.031,0.057-0.062,0.063c-0.389,0.077-0.562,0.311-0.562,0.759c0,0.539,0.262,0.781,0.849,0.785
		c0.023,0,0.045,0.011,0.06,0.028c0.015,0.018,0.021,0.041,0.018,0.064c-0.065,0.396-0.403,0.683-0.804,0.683
		c-0.363,0-0.677-0.234-0.781-0.581c-0.005-0.015-0.005-0.031,0-0.046c0.019-0.062,0.028-0.127,0.028-0.192
		c0-0.372-0.302-0.674-0.674-0.674c-0.372,0-0.674,0.302-0.674,0.674c0,0.118,0.031,0.234,0.091,0.336
		c0.007,0.013,0.011,0.027,0.011,0.041c-0.008,0.363-0.259,0.68-0.611,0.771C20.98,11.141,20.912,11.15,20.844,11.15L20.844,11.15z
		 M28.5,10.37c0.016,0.284,0.215,0.529,0.492,0.6c0.277,0.07,0.575-0.053,0.722-0.291c-0.582-0.184-0.793-0.557-0.645-1.137
		c0.124-0.482,0.395-0.716,0.826-0.716c0.006,0,0.011,0,0.017,0c0.091-0.175,0.214-0.301,0.366-0.376
		c-0.276-2.444-2.151-4.114-4.545-3.976c0,0.001,0,0.001,0,0.002c0,0.14-0.039,0.275-0.114,0.393v0.556
		c0.075,0.118,0.114,0.253,0.114,0.393c0,0.14-0.039,0.275-0.114,0.393v0.557c0.075,0.117,0.114,0.252,0.114,0.393
		c0,0.224-0.101,0.431-0.269,0.568c0.275,0.097,0.45,0.298,0.52,0.601c0.429,0.103,0.638,0.399,0.638,0.903
		c0,0.599-0.297,0.907-0.906,0.94c0.084,0.272,0.334,0.461,0.626,0.461c0.285,0,0.532-0.179,0.623-0.446
		c-0.019-0.07-0.029-0.142-0.029-0.214c0-0.459,0.374-0.832,0.833-0.832c0.459,0,0.832,0.373,0.832,0.832
		C28.601,10.114,28.566,10.25,28.5,10.37L28.5,10.37z M29.157,11.15c-0.069,0-0.137-0.009-0.204-0.026
		c-0.351-0.091-0.603-0.408-0.611-0.771c0-0.015,0.003-0.029,0.011-0.042c0.059-0.101,0.091-0.217,0.091-0.336
		c0-0.372-0.302-0.674-0.674-0.674c-0.372,0-0.675,0.302-0.675,0.674c0,0.065,0.01,0.13,0.029,0.192
		c0.005,0.015,0.005,0.031,0,0.046c-0.105,0.347-0.419,0.581-0.781,0.581c-0.401,0-0.738-0.287-0.803-0.683
		c-0.004-0.023,0.003-0.046,0.018-0.064c0.015-0.018,0.037-0.028,0.06-0.028c0.586-0.004,0.848-0.247,0.848-0.785
		c0-0.448-0.173-0.682-0.562-0.759c-0.032-0.006-0.057-0.031-0.062-0.063c-0.063-0.335-0.249-0.517-0.589-0.573
		c-0.035-0.006-0.061-0.033-0.066-0.068c-0.004-0.035,0.015-0.068,0.046-0.082c0.209-0.092,0.344-0.299,0.344-0.527
		c0-0.117-0.035-0.229-0.1-0.324c-0.009-0.013-0.014-0.029-0.014-0.045V6.189c0-0.016,0.005-0.031,0.014-0.044
		c0.065-0.096,0.1-0.208,0.1-0.325c0-0.116-0.035-0.229-0.1-0.325c-0.009-0.013-0.014-0.029-0.014-0.045V4.847
		c0-0.016,0.005-0.031,0.014-0.045c0.065-0.096,0.1-0.208,0.1-0.325c0-0.022-0.001-0.043-0.004-0.064
		c-0.003-0.022,0.003-0.044,0.017-0.061c0.014-0.017,0.034-0.028,0.056-0.029c2.524-0.185,4.533,1.58,4.797,4.17
		c0.004,0.035-0.017,0.069-0.05,0.082c-0.155,0.061-0.273,0.181-0.36,0.367c-0.014,0.029-0.046,0.044-0.076,0.045
		c-0.399-0.022-0.621,0.16-0.734,0.595c-0.134,0.522,0.059,0.822,0.627,0.972c0.022,0.006,0.041,0.021,0.051,0.042
		c0.01,0.021,0.01,0.045,0.001,0.066C29.771,10.959,29.479,11.15,29.157,11.15L29.157,11.15z M25,10.488
		c-0.094,0.248-0.254,0.464-0.465,0.626c0.312-0.007,0.618-0.007,0.929,0C25.254,10.953,25.094,10.736,25,10.488L25,10.488z
		 M25.758,11.282c-0.001,0-0.002,0-0.003,0c-0.503-0.019-1.004-0.019-1.51,0c-0.036,0.006-0.071-0.024-0.08-0.06
		c-0.009-0.036,0.009-0.074,0.043-0.09c0.387-0.185,0.653-0.548,0.713-0.97c0.011-0.078,0.146-0.078,0.157,0
		c0.06,0.422,0.327,0.785,0.714,0.97c0.034,0.016,0.052,0.054,0.043,0.09C25.826,11.257,25.794,11.282,25.758,11.282L25.758,11.282z
		 M22.247,10.807c-0.08,0.2-0.205,0.383-0.363,0.535c0.338-0.051,0.679-0.094,1.019-0.128c-0.191-0.107-0.358-0.254-0.485-0.428
		C22.361,10.799,22.304,10.806,22.247,10.807L22.247,10.807z M21.597,11.546c-0.032,0-0.062-0.02-0.074-0.051
		c-0.013-0.035,0-0.075,0.031-0.095c0.262-0.167,0.462-0.416,0.563-0.701c0.011-0.032,0.044-0.055,0.077-0.053
		c0.001,0,0.018,0.001,0.019,0.001c0.088-0.001,0.15-0.009,0.214-0.028c0.034-0.01,0.069,0.003,0.088,0.031
		c0.17,0.251,0.426,0.442,0.723,0.538c0.036,0.012,0.058,0.047,0.054,0.084c-0.004,0.038-0.034,0.067-0.072,0.07
		c-0.536,0.046-1.078,0.114-1.611,0.202C21.606,11.546,21.602,11.546,21.597,11.546L21.597,11.546z M27.097,11.214
		c0.34,0.034,0.681,0.077,1.019,0.128c-0.158-0.152-0.283-0.334-0.363-0.535c-0.057-0.001-0.115-0.008-0.171-0.021
		C27.455,10.96,27.288,11.107,27.097,11.214L27.097,11.214z M28.403,11.546c-0.004,0-0.008,0-0.013-0.001
		c-0.533-0.088-1.075-0.156-1.611-0.202c-0.037-0.003-0.068-0.032-0.072-0.07c-0.004-0.037,0.019-0.073,0.054-0.084
		c0.296-0.096,0.553-0.287,0.723-0.538c0.019-0.028,0.055-0.041,0.088-0.031c0.064,0.019,0.13,0.029,0.196,0.029
		c0.001,0,0.035-0.001,0.036-0.002c0.036-0.002,0.065,0.021,0.076,0.053c0.101,0.285,0.301,0.533,0.564,0.7
		c0.031,0.02,0.045,0.06,0.031,0.095C28.465,11.526,28.436,11.546,28.403,11.546L28.403,11.546z M19.671,11.162
		c-0.029,0.26-0.129,0.508-0.289,0.716c0.293-0.082,0.59-0.158,0.888-0.228C20.029,11.545,19.822,11.376,19.671,11.162
		L19.671,11.162z M19.125,12.113c-0.028,0-0.055-0.015-0.07-0.041c-0.018-0.033-0.01-0.073,0.018-0.098
		c0.322-0.275,0.486-0.69,0.44-1.109c-0.004-0.039,0.021-0.075,0.059-0.085c0.038-0.01,0.078,0.01,0.093,0.046
		c0.162,0.39,0.507,0.674,0.922,0.76c0.037,0.008,0.063,0.04,0.063,0.077c0,0.037-0.026,0.07-0.062,0.078
		c-0.486,0.106-0.971,0.23-1.441,0.369C19.14,12.112,19.133,12.113,19.125,12.113L19.125,12.113z M29.73,11.65
		c0.299,0.069,0.596,0.146,0.888,0.228c-0.16-0.208-0.26-0.456-0.289-0.716C30.179,11.376,29.971,11.545,29.73,11.65L29.73,11.65z
		 M30.875,12.113c-0.007,0-0.015-0.001-0.022-0.003c-0.469-0.139-0.954-0.263-1.441-0.369c-0.036-0.008-0.062-0.04-0.062-0.078
		c0-0.037,0.026-0.069,0.063-0.077c0.416-0.085,0.761-0.37,0.922-0.76c0.015-0.036,0.055-0.057,0.093-0.046
		c0.038,0.01,0.063,0.046,0.059,0.085c-0.045,0.419,0.119,0.834,0.44,1.109c0.029,0.024,0.036,0.065,0.018,0.098
		C30.93,12.098,30.903,12.113,30.875,12.113L30.875,12.113z M15.567,12.704c0.123,0.008,0.248-0.02,0.357-0.08
		c0.223-0.123,0.354-0.362,0.339-0.615c-0.079-0.095-0.136-0.206-0.167-0.325c-0.055-0.215-0.024-0.439,0.09-0.63
		c0.113-0.192,0.294-0.327,0.51-0.382c0.068-0.018,0.138-0.027,0.208-0.027c0.379,0,0.71,0.257,0.805,0.625
		c0.012,0.05,0.02,0.098,0.024,0.147c0.159,0.196,0.428,0.286,0.675,0.224c0.283-0.073,0.479-0.319,0.492-0.603
		c-0.605,0.121-0.964-0.105-1.112-0.685c-0.125-0.488,0.003-0.826,0.393-1.033c-0.002-0.123,0.015-0.235,0.051-0.336
		c-0.304-0.127-0.509-0.43-0.509-0.764c0-0.341,0.212-0.645,0.521-0.769c-0.126-0.139-0.201-0.316-0.212-0.506
		c-1.848,0.961-2.512,1.978-2.689,4.098c0.206,0.087,0.371,0.288,0.489,0.599C16.007,12.106,15.921,12.456,15.567,12.704
		L15.567,12.704z M15.609,12.863c-0.096,0-0.192-0.017-0.283-0.05c-0.03-0.011-0.05-0.038-0.052-0.07
		c-0.002-0.032,0.015-0.061,0.044-0.075c0.427-0.213,0.539-0.512,0.365-0.97c-0.111-0.293-0.262-0.47-0.448-0.526
		c-0.036-0.011-0.059-0.045-0.056-0.082c0.178-2.268,0.879-3.324,2.886-4.341c0.018-0.014,0.042-0.022,0.065-0.016
		c0.039,0.009,0.066,0.041,0.062,0.081c-0.003,0.027-0.005,0.054-0.005,0.081c0,0.207,0.094,0.4,0.258,0.528
		c0.024,0.019,0.035,0.05,0.028,0.08c-0.007,0.03-0.031,0.053-0.061,0.059c-0.309,0.064-0.533,0.34-0.533,0.656
		c0,0.294,0.197,0.558,0.479,0.642c0.023,0.007,0.041,0.023,0.05,0.045c0.009,0.021,0.008,0.046-0.002,0.067
		c-0.055,0.109-0.078,0.236-0.068,0.388c0.002,0.032-0.016,0.062-0.045,0.076c-0.357,0.171-0.466,0.441-0.355,0.875
		c0.136,0.531,0.447,0.691,1.016,0.55c0.022-0.006,0.046-0.001,0.065,0.012c0.019,0.013,0.031,0.034,0.033,0.057
		c0.037,0.399-0.219,0.761-0.607,0.862c-0.316,0.082-0.661-0.041-0.855-0.3c-0.01-0.013-0.015-0.029-0.016-0.045
		c-0.002-0.047-0.008-0.092-0.02-0.14c-0.077-0.298-0.345-0.506-0.652-0.506c-0.057,0-0.113,0.007-0.168,0.021
		c-0.175,0.045-0.321,0.155-0.413,0.31c-0.092,0.155-0.117,0.336-0.073,0.511c0.026,0.103,0.078,0.2,0.149,0.279
		c0.011,0.013,0.018,0.028,0.02,0.045c0.031,0.325-0.133,0.636-0.418,0.793C15.88,12.828,15.744,12.863,15.609,12.863L15.609,12.863
		z M33.737,12.008c-0.015,0.253,0.116,0.492,0.34,0.615c0.108,0.06,0.23,0.09,0.356,0.08c-0.354-0.248-0.44-0.597-0.263-1.062
		c0.119-0.311,0.283-0.512,0.488-0.599c-0.176-2.12-0.84-3.137-2.688-4.098c-0.011,0.19-0.086,0.367-0.212,0.506
		c0.309,0.124,0.521,0.428,0.521,0.769c0,0.334-0.205,0.636-0.509,0.764c0.037,0.1,0.054,0.212,0.051,0.336
		c0.39,0.207,0.518,0.545,0.393,1.033c-0.149,0.58-0.509,0.806-1.113,0.685c0.013,0.284,0.209,0.53,0.492,0.603
		c0.246,0.063,0.516-0.028,0.675-0.224c0.003-0.049,0.011-0.097,0.023-0.146c0.096-0.369,0.427-0.626,0.805-0.626
		c0.07,0,0.14,0.009,0.208,0.027c0.216,0.055,0.397,0.191,0.51,0.383c0.113,0.191,0.145,0.415,0.089,0.63
		C33.873,11.803,33.815,11.914,33.737,12.008L33.737,12.008z M34.392,12.863c-0.136,0-0.272-0.035-0.391-0.101
		c-0.286-0.158-0.45-0.469-0.418-0.794c0.002-0.017,0.008-0.032,0.019-0.045c0.071-0.079,0.123-0.176,0.149-0.28
		c0.045-0.174,0.019-0.355-0.072-0.51c-0.092-0.155-0.239-0.266-0.414-0.31c-0.356-0.092-0.729,0.132-0.821,0.485
		c-0.011,0.046-0.018,0.091-0.02,0.139c-0.001,0.016-0.006,0.032-0.016,0.045c-0.195,0.259-0.54,0.382-0.855,0.3
		c-0.389-0.1-0.644-0.462-0.608-0.861c0.002-0.023,0.014-0.044,0.033-0.057c0.019-0.014,0.042-0.018,0.065-0.012
		c0.569,0.141,0.881-0.019,1.017-0.55c0.112-0.434,0.002-0.704-0.355-0.875c-0.029-0.014-0.047-0.044-0.045-0.076
		c0.01-0.153-0.012-0.28-0.068-0.388c-0.011-0.021-0.011-0.045-0.002-0.067c0.009-0.022,0.028-0.038,0.05-0.045
		c0.282-0.084,0.48-0.348,0.48-0.642c0-0.316-0.224-0.591-0.534-0.656c-0.03-0.006-0.054-0.03-0.061-0.06
		c-0.007-0.03,0.004-0.061,0.028-0.08c0.164-0.128,0.259-0.32,0.259-0.528c0-0.027-0.002-0.053-0.006-0.079
		c-0.005-0.038,0.018-0.075,0.055-0.086c0.029-0.01,0.061,0,0.082,0.022c1.999,1.016,2.699,2.072,2.876,4.336
		c0.003,0.037-0.02,0.071-0.056,0.082c-0.185,0.056-0.335,0.233-0.448,0.526c-0.174,0.458-0.061,0.757,0.365,0.97
		c0.028,0.014,0.045,0.044,0.044,0.075c-0.002,0.032-0.022,0.059-0.052,0.07C34.583,12.846,34.488,12.863,34.392,12.863
		L34.392,12.863z M32.186,12.386c0.319,0.118,0.636,0.243,0.948,0.376c-0.09-0.145-0.155-0.305-0.193-0.468
		c-0.017-0.003-0.034-0.007-0.051-0.011c-0.086-0.022-0.168-0.058-0.243-0.106C32.507,12.271,32.351,12.341,32.186,12.386
		L32.186,12.386z M33.379,13.033c-0.011,0-0.022-0.002-0.032-0.007c-0.488-0.216-0.992-0.416-1.499-0.595
		c-0.035-0.013-0.057-0.048-0.052-0.085c0.005-0.037,0.036-0.066,0.073-0.068c0.267-0.018,0.519-0.108,0.731-0.263
		c0.028-0.02,0.067-0.02,0.094,0c0.071,0.054,0.15,0.092,0.235,0.113c0.03,0.008,0.059,0.012,0.088,0.016
		c0.034,0.005,0.061,0.03,0.067,0.064c0.047,0.253,0.172,0.499,0.352,0.691c0.026,0.027,0.028,0.069,0.006,0.1
		C33.428,13.021,33.404,13.033,33.379,13.033L33.379,13.033z M17.059,12.293c-0.037,0.163-0.103,0.323-0.192,0.468
		c0.311-0.133,0.629-0.259,0.949-0.377c-0.165-0.044-0.323-0.116-0.462-0.21c-0.076,0.049-0.158,0.085-0.244,0.107
		C17.092,12.287,17.075,12.29,17.059,12.293L17.059,12.293z M16.621,13.033c-0.025,0-0.049-0.012-0.064-0.033
		c-0.022-0.031-0.019-0.072,0.007-0.1c0.179-0.193,0.304-0.439,0.351-0.691c0.006-0.034,0.034-0.06,0.068-0.064
		c0.03-0.004,0.058-0.008,0.088-0.016c0.085-0.022,0.164-0.06,0.236-0.113c0.028-0.02,0.066-0.021,0.094,0
		c0.207,0.152,0.467,0.245,0.73,0.263c0.038,0.003,0.068,0.031,0.073,0.068c0.005,0.037-0.017,0.073-0.052,0.085
		c-0.508,0.179-1.012,0.379-1.499,0.595C16.643,13.031,16.632,13.033,16.621,13.033L16.621,13.033z M16.006,13.265
		c0.023,0,0.045,0.01,0.06,0.027c0.021,0.024,0.025,0.057,0.012,0.086c-0.044,0.093-0.044,0.2,0,0.293
		c0.08,0.171,0.277,0.248,0.443,0.17c2.66-1.254,5.513-1.89,8.48-1.89c2.971,0,5.828,0.637,8.494,1.894
		c0.005,0.002,0.009,0.005,0.013,0.008c0.16,0.052,0.345-0.029,0.417-0.182c0.044-0.093,0.044-0.2-0.001-0.293
		c-0.013-0.028-0.009-0.062,0.012-0.086c0.02-0.024,0.053-0.034,0.083-0.024c0.389,0.12,0.832,0.04,1.156-0.209
		c0.027-0.021,0.065-0.022,0.092-0.003c0.13,0.088,0.268,0.132,0.412,0.132c0.241,0,0.449-0.123,0.581-0.227
		c0.176-0.137,0.356-0.412,0.361-0.672c0.003-0.147-0.051-0.268-0.16-0.359c-0.033-0.027-0.038-0.075-0.012-0.109
		c0.136-0.177,0.192-0.384,0.157-0.582c-0.031-0.173-0.129-0.319-0.276-0.412c-0.036-0.023-0.047-0.07-0.026-0.107
		c0.059-0.101,0.091-0.217,0.091-0.336c0-0.315-0.224-0.591-0.532-0.655c-0.03-0.006-0.054-0.029-0.061-0.059
		c-0.007-0.03,0.004-0.061,0.028-0.08c0.164-0.128,0.258-0.321,0.258-0.528c0-0.347-0.261-0.633-0.606-0.666
		c-0.028-0.003-0.052-0.02-0.064-0.045c-0.012-0.025-0.01-0.055,0.006-0.078c0.073-0.11,0.112-0.239,0.112-0.371
		c0-0.37-0.3-0.67-0.67-0.67c-0.058,0-0.118,0.008-0.175,0.024c-0.03,0.008-0.061-0.001-0.081-0.025
		c-0.02-0.023-0.025-0.056-0.012-0.084c0.04-0.088,0.06-0.181,0.06-0.278c0-0.37-0.301-0.67-0.67-0.67
		c-0.105,0-0.21,0.025-0.303,0.073c-0.027,0.013-0.058,0.011-0.082-0.006c-0.024-0.017-0.037-0.046-0.033-0.076
		c0.005-0.034,0.009-0.069,0.009-0.105c0-0.37-0.301-0.67-0.671-0.67c-0.138,0-0.271,0.042-0.382,0.121
		c-0.022,0.015-0.049,0.019-0.074,0.009c-0.025-0.01-0.043-0.031-0.049-0.057c-0.068-0.306-0.343-0.527-0.655-0.527
		c-0.229,0-0.44,0.115-0.564,0.309c-0.014,0.021-0.036,0.034-0.06,0.036c-0.025,0.002-0.048-0.007-0.065-0.026
		c-0.16-0.178-0.405-0.259-0.645-0.202c-0.027,0.006-0.058-0.003-0.078-0.025C30.314,5.031,30.309,5,30.319,4.972
		c0.03-0.077,0.046-0.158,0.046-0.241c0-0.37-0.301-0.67-0.671-0.67c-0.124,0-0.247,0.035-0.354,0.102
		c-0.026,0.016-0.059,0.016-0.085-0.001c-0.026-0.017-0.039-0.048-0.034-0.078c0.006-0.035,0.01-0.07,0.01-0.107
		c0-0.37-0.301-0.67-0.671-0.67c-0.144,0-0.282,0.046-0.4,0.134c-0.021,0.016-0.049,0.02-0.075,0.011
		c-0.025-0.009-0.044-0.031-0.05-0.057c-0.067-0.304-0.342-0.525-0.654-0.525c-0.18,0-0.348,0.07-0.474,0.197
		c-0.018,0.018-0.045,0.026-0.069,0.022c-0.026-0.004-0.047-0.021-0.058-0.044c-0.142-0.301-0.502-0.46-0.824-0.349
		c-0.03,0.01-0.064,0.002-0.085-0.023c-0.125-0.142-0.284-0.253-0.461-0.32c-0.041-0.015-0.083-0.03-0.127-0.04
		c-0.035-0.009-0.06-0.04-0.06-0.077V1.663c0-0.044,0.035-0.079,0.079-0.079h0.486V1.167h-0.486c-0.044,0-0.079-0.035-0.079-0.079
		v-0.43h-0.447v0.43c0,0.044-0.035,0.079-0.079,0.079h-0.486v0.416h0.486c0.044,0,0.079,0.035,0.079,0.079v0.571
		c0,0.036-0.025,0.068-0.06,0.077c-0.043,0.011-0.086,0.025-0.127,0.04c-0.177,0.067-0.336,0.178-0.46,0.32
		c-0.021,0.024-0.055,0.033-0.085,0.023c-0.322-0.111-0.682,0.048-0.823,0.349c-0.011,0.023-0.033,0.04-0.058,0.044
		c-0.026,0.005-0.052-0.004-0.07-0.022c-0.127-0.127-0.296-0.197-0.475-0.197c-0.312,0-0.587,0.221-0.654,0.525
		c-0.006,0.026-0.025,0.048-0.05,0.057c-0.025,0.01-0.053,0.005-0.075-0.011c-0.117-0.088-0.255-0.134-0.4-0.134
		c-0.37,0-0.67,0.301-0.67,0.67c0,0.036,0.004,0.071,0.01,0.106c0.005,0.031-0.008,0.062-0.033,0.079
		c-0.026,0.018-0.059,0.018-0.086,0.002c-0.109-0.067-0.231-0.102-0.355-0.102c-0.37,0-0.67,0.301-0.67,0.67
		c0,0.082,0.015,0.163,0.046,0.241C19.691,5,19.686,5.031,19.667,5.053c-0.02,0.022-0.049,0.031-0.078,0.025
		c-0.238-0.056-0.485,0.025-0.645,0.202c-0.017,0.018-0.041,0.027-0.065,0.026c-0.025-0.002-0.047-0.015-0.06-0.036
		c-0.124-0.193-0.335-0.309-0.564-0.309c-0.313,0-0.588,0.222-0.654,0.527c-0.006,0.026-0.024,0.047-0.048,0.057
		c-0.024,0.01-0.053,0.007-0.074-0.009c-0.114-0.079-0.246-0.121-0.384-0.121c-0.37,0-0.67,0.301-0.67,0.67
		c0,0.036,0.004,0.07,0.009,0.105c0.005,0.029-0.008,0.059-0.032,0.076c-0.024,0.017-0.056,0.02-0.082,0.006
		c-0.096-0.049-0.199-0.074-0.304-0.074c-0.37,0-0.67,0.301-0.67,0.67c0,0.097,0.02,0.19,0.06,0.278
		c0.013,0.028,0.008,0.061-0.012,0.084c-0.02,0.023-0.052,0.033-0.081,0.025c-0.058-0.016-0.117-0.024-0.175-0.024
		c-0.37,0-0.67,0.301-0.67,0.67c0,0.133,0.039,0.261,0.112,0.371c0.015,0.023,0.018,0.053,0.006,0.078
		c-0.012,0.025-0.036,0.042-0.064,0.045c-0.346,0.033-0.606,0.319-0.606,0.666c0,0.207,0.094,0.4,0.257,0.528
		c0.024,0.019,0.035,0.05,0.028,0.08c-0.007,0.03-0.031,0.053-0.061,0.059c-0.307,0.065-0.531,0.34-0.531,0.655
		c0,0.118,0.031,0.235,0.09,0.336c0.021,0.037,0.01,0.084-0.026,0.106c-0.147,0.093-0.244,0.24-0.275,0.413
		c-0.035,0.199,0.021,0.405,0.157,0.582c0.026,0.034,0.021,0.082-0.012,0.109c-0.109,0.091-0.163,0.212-0.161,0.359
		c0.004,0.26,0.185,0.535,0.361,0.672c0.132,0.103,0.34,0.227,0.581,0.227c0.144,0,0.282-0.044,0.412-0.132
		c0.028-0.019,0.065-0.018,0.093,0.003c0.323,0.249,0.765,0.33,1.156,0.209C15.99,13.266,15.998,13.265,16.006,13.265L16.006,13.265
		z M16.38,14.031L16.38,14.031c-0.191,0-0.362-0.112-0.447-0.293c-0.042-0.089-0.057-0.188-0.043-0.283
		c-0.383,0.077-0.796-0.011-1.115-0.237c-0.347,0.209-0.762,0.158-1.131-0.131c-0.199-0.156-0.416-0.471-0.422-0.794
		c-0.003-0.169,0.053-0.317,0.164-0.433c-0.133-0.199-0.184-0.427-0.145-0.648c0.034-0.193,0.135-0.36,0.286-0.477
		c-0.051-0.109-0.077-0.229-0.077-0.351c0-0.341,0.211-0.644,0.519-0.768c-0.137-0.151-0.213-0.347-0.213-0.555
		c0-0.389,0.265-0.716,0.633-0.804c-0.053-0.11-0.08-0.232-0.08-0.356c0-0.482,0.421-0.871,0.905-0.824
		c-0.018-0.067-0.026-0.137-0.026-0.208c0-0.457,0.372-0.828,0.828-0.828c0.086,0,0.17,0.013,0.251,0.039
		c0.003-0.454,0.374-0.823,0.829-0.823c0.134,0,0.264,0.032,0.382,0.094c0.116-0.323,0.428-0.547,0.779-0.547
		c0.251,0,0.484,0.112,0.64,0.304c0.164-0.144,0.379-0.219,0.601-0.203c-0.012-0.057-0.019-0.115-0.019-0.173
		c0-0.457,0.372-0.829,0.829-0.829c0.105,0,0.209,0.02,0.307,0.06c0.007-0.45,0.376-0.815,0.828-0.815
		c0.142,0,0.279,0.036,0.401,0.105c0.119-0.32,0.429-0.542,0.777-0.542c0.187,0,0.364,0.061,0.509,0.174
		c0.189-0.298,0.568-0.453,0.918-0.356c0.136-0.143,0.304-0.255,0.488-0.326c0.028-0.01,0.056-0.02,0.084-0.029V1.742h-0.486
		c-0.044,0-0.079-0.035-0.079-0.079V1.088c0-0.044,0.035-0.079,0.079-0.079h0.486v-0.43c0-0.044,0.035-0.079,0.079-0.079h0.605
		c0.044,0,0.079,0.035,0.079,0.079v0.43h0.486c0.044,0,0.079,0.035,0.079,0.079v0.574c0,0.044-0.035,0.079-0.079,0.079h-0.486v0.433
		c0.029,0.009,0.057,0.019,0.084,0.029c0.185,0.07,0.352,0.182,0.489,0.326c0.35-0.097,0.728,0.057,0.918,0.356
		c0.145-0.113,0.322-0.174,0.509-0.174c0.348,0,0.659,0.222,0.777,0.542c0.123-0.069,0.26-0.105,0.401-0.105
		c0.452,0,0.821,0.364,0.828,0.814c0.098-0.039,0.201-0.059,0.306-0.059c0.457,0,0.829,0.372,0.829,0.829
		c0,0.058-0.006,0.116-0.018,0.173c0.22-0.015,0.437,0.059,0.601,0.203c0.157-0.192,0.39-0.304,0.641-0.304
		c0.349,0,0.661,0.225,0.779,0.547c0.117-0.061,0.247-0.093,0.381-0.093c0.455,0,0.825,0.369,0.828,0.823
		c0.081-0.026,0.166-0.039,0.251-0.039c0.456,0,0.828,0.372,0.828,0.828c0,0.071-0.009,0.14-0.026,0.208
		c0.483-0.045,0.904,0.342,0.904,0.824c0,0.124-0.027,0.245-0.08,0.356c0.368,0.088,0.632,0.415,0.632,0.804
		c0,0.208-0.076,0.404-0.213,0.555c0.308,0.124,0.519,0.427,0.519,0.768c0,0.122-0.027,0.242-0.079,0.351
		c0.151,0.117,0.252,0.284,0.287,0.476c0.039,0.221-0.012,0.449-0.145,0.648c0.11,0.116,0.166,0.264,0.163,0.433
		c-0.006,0.324-0.222,0.639-0.421,0.794c-0.37,0.289-0.784,0.339-1.131,0.131c-0.32,0.227-0.733,0.314-1.116,0.237
		c0.014,0.096,0,0.194-0.043,0.284c-0.113,0.242-0.423,0.356-0.667,0.242c-0.008-0.004-0.015-0.009-0.021-0.015
		c-2.63-1.232-5.449-1.856-8.378-1.856c-2.943,0-5.774,0.631-8.413,1.875C16.521,14.015,16.451,14.031,16.38,14.031L16.38,14.031z"
		/>
	<path id="XMLID_144_" style="fill:#FFFFFF;" d="M24.25,3.328c0,0.234-0.19,0.423-0.423,0.423c-0.234,0-0.424-0.189-0.424-0.423
		c0-0.234,0.19-0.423,0.424-0.423C24.06,2.904,24.25,3.094,24.25,3.328L24.25,3.328z"/>
	<path style="fill:#00539F;" d="M23.827,2.957c-0.204,0-0.371,0.166-0.371,0.37c0,0.204,0.166,0.37,0.371,0.37
		c0.204,0,0.37-0.166,0.37-0.37C24.197,3.123,24.031,2.957,23.827,2.957L23.827,2.957z M23.827,3.804
		c-0.263,0-0.477-0.213-0.477-0.476c0-0.263,0.214-0.476,0.477-0.476c0.263,0,0.476,0.214,0.476,0.476
		C24.303,3.59,24.09,3.804,23.827,3.804L23.827,3.804z"/>
	<path id="XMLID_141_" style="fill:#FFFFFF;" d="M25.423,4.478c0,0.234-0.189,0.423-0.423,0.423c-0.234,0-0.423-0.189-0.423-0.423
		c0-0.234,0.189-0.424,0.423-0.424C25.234,4.054,25.423,4.244,25.423,4.478L25.423,4.478z"/>
	<path style="fill:#00539F;" d="M25,4.107c-0.204,0-0.37,0.166-0.37,0.371c0,0.204,0.166,0.37,0.37,0.37
		c0.204,0,0.37-0.166,0.37-0.37C25.37,4.273,25.204,4.107,25,4.107L25,4.107z M25,4.954c-0.262,0-0.476-0.213-0.476-0.476
		c0-0.263,0.213-0.477,0.476-0.477c0.263,0,0.476,0.214,0.476,0.477C25.476,4.74,25.263,4.954,25,4.954L25,4.954z"/>
	<path id="XMLID_138_" style="fill:#FFFFFF;" d="M25.423,5.82c0,0.234-0.189,0.423-0.423,0.423c-0.234,0-0.423-0.189-0.423-0.423
		c0-0.234,0.189-0.424,0.423-0.424C25.234,5.396,25.423,5.586,25.423,5.82L25.423,5.82z"/>
	<path style="fill:#00539F;" d="M25,5.449c-0.204,0-0.37,0.166-0.37,0.371c0,0.204,0.166,0.37,0.37,0.37
		c0.204,0,0.37-0.166,0.37-0.37C25.37,5.615,25.204,5.449,25,5.449L25,5.449z M25,6.296c-0.262,0-0.476-0.214-0.476-0.476
		c0-0.263,0.213-0.477,0.476-0.477c0.263,0,0.476,0.214,0.476,0.477C25.476,6.082,25.263,6.296,25,6.296L25,6.296z"/>
	<path id="XMLID_135_" style="fill:#FFFFFF;" d="M25.423,7.162c0,0.234-0.189,0.423-0.423,0.423c-0.234,0-0.423-0.189-0.423-0.423
		c0-0.233,0.189-0.423,0.423-0.423C25.234,6.739,25.423,6.929,25.423,7.162L25.423,7.162z"/>
	<path style="fill:#00539F;" d="M25,6.792c-0.204,0-0.37,0.166-0.37,0.37c0,0.204,0.166,0.37,0.37,0.37
		c0.204,0,0.37-0.166,0.37-0.37C25.37,6.958,25.204,6.792,25,6.792L25,6.792z M25,7.638c-0.262,0-0.476-0.213-0.476-0.476
		c0-0.262,0.213-0.476,0.476-0.476c0.263,0,0.476,0.213,0.476,0.476C25.476,7.424,25.263,7.638,25,7.638L25,7.638z"/>
	<path id="XMLID_132_" style="fill:#FFFFFF;" d="M23.042,3.538c0,0.234-0.189,0.423-0.423,0.423c-0.233,0-0.423-0.189-0.423-0.423
		c0-0.234,0.19-0.423,0.423-0.423C22.853,3.115,23.042,3.305,23.042,3.538L23.042,3.538z"/>
	<path style="fill:#00539F;" d="M22.619,3.169c-0.204,0-0.37,0.166-0.37,0.37c0,0.204,0.166,0.37,0.37,0.37
		c0.204,0,0.37-0.166,0.37-0.37C22.989,3.334,22.823,3.169,22.619,3.169L22.619,3.169z M22.619,4.014
		c-0.263,0-0.476-0.213-0.476-0.476c0-0.263,0.213-0.476,0.476-0.476c0.263,0,0.476,0.213,0.476,0.476
		C23.095,3.801,22.881,4.014,22.619,4.014L22.619,4.014z"/>
	<path id="XMLID_129_" style="fill:#FFFFFF;" d="M21.864,3.976c0,0.234-0.189,0.423-0.423,0.423c-0.234,0-0.423-0.189-0.423-0.423
		c0-0.234,0.189-0.423,0.423-0.423C21.674,3.553,21.864,3.742,21.864,3.976L21.864,3.976z"/>
	<path style="fill:#00539F;" d="M21.44,3.606c-0.204,0-0.37,0.166-0.37,0.37c0,0.204,0.166,0.37,0.37,0.37
		c0.204,0,0.37-0.166,0.37-0.37C21.811,3.772,21.645,3.606,21.44,3.606L21.44,3.606z M21.44,4.452c-0.263,0-0.476-0.213-0.476-0.476
		c0-0.263,0.213-0.476,0.476-0.476c0.263,0,0.476,0.214,0.476,0.476C21.917,4.239,21.703,4.452,21.44,4.452L21.44,4.452z"/>
	<path id="XMLID_126_" style="fill:#FFFFFF;" d="M20.728,4.731c0,0.234-0.189,0.423-0.423,0.423c-0.234,0-0.424-0.19-0.424-0.423
		c0-0.234,0.19-0.423,0.424-0.423C20.539,4.308,20.728,4.497,20.728,4.731L20.728,4.731z"/>
	<path style="fill:#00539F;" d="M20.306,4.361c-0.204,0-0.371,0.166-0.371,0.37c0,0.204,0.166,0.37,0.371,0.37
		c0.204,0,0.37-0.166,0.37-0.37C20.675,4.527,20.509,4.361,20.306,4.361L20.306,4.361z M20.306,5.207
		c-0.263,0-0.477-0.214-0.477-0.476c0-0.263,0.214-0.476,0.477-0.476c0.262,0,0.476,0.214,0.476,0.476
		C20.781,4.994,20.568,5.207,20.306,5.207L20.306,5.207z"/>
	<path id="XMLID_123_" style="fill:#FFFFFF;" d="M19.862,5.73c0,0.234-0.189,0.423-0.423,0.423c-0.234,0-0.423-0.189-0.423-0.423
		c0-0.234,0.189-0.423,0.423-0.423C19.672,5.307,19.862,5.496,19.862,5.73L19.862,5.73z"/>
	<path style="fill:#00539F;" d="M19.438,5.36c-0.204,0-0.37,0.166-0.37,0.37c0,0.204,0.166,0.37,0.37,0.37
		c0.204,0,0.37-0.166,0.37-0.37C19.809,5.526,19.642,5.36,19.438,5.36L19.438,5.36z M19.438,6.206c-0.262,0-0.476-0.213-0.476-0.476
		c0-0.263,0.213-0.476,0.476-0.476c0.263,0,0.476,0.214,0.476,0.476C19.914,5.993,19.701,6.206,19.438,6.206L19.438,6.206z"/>
	<path id="XMLID_120_" style="fill:#FFFFFF;" d="M18.677,5.631c0,0.234-0.189,0.424-0.423,0.424c-0.234,0-0.423-0.189-0.423-0.424
		c0-0.233,0.189-0.423,0.423-0.423C18.488,5.208,18.677,5.398,18.677,5.631L18.677,5.631z"/>
	<path style="fill:#00539F;" d="M18.254,5.261c-0.204,0-0.37,0.166-0.37,0.37c0,0.204,0.166,0.371,0.37,0.371
		c0.204,0,0.37-0.166,0.37-0.371C18.624,5.427,18.458,5.261,18.254,5.261L18.254,5.261z M18.254,6.107
		c-0.263,0-0.476-0.214-0.476-0.477c0-0.262,0.214-0.476,0.476-0.476c0.262,0,0.476,0.213,0.476,0.476
		C18.73,5.894,18.517,6.107,18.254,6.107L18.254,6.107z"/>
	<path id="XMLID_117_" style="fill:#FFFFFF;" d="M17.516,6.085c0,0.234-0.189,0.423-0.423,0.423c-0.234,0-0.424-0.19-0.424-0.423
		c0-0.234,0.19-0.423,0.424-0.423C17.327,5.662,17.516,5.851,17.516,6.085L17.516,6.085z"/>
	<path style="fill:#00539F;" d="M17.094,5.715c-0.204,0-0.371,0.166-0.371,0.37c0,0.204,0.166,0.37,0.371,0.37
		c0.204,0,0.37-0.166,0.37-0.37C17.463,5.881,17.298,5.715,17.094,5.715L17.094,5.715z M17.094,6.562
		c-0.263,0-0.477-0.214-0.477-0.476c0-0.263,0.214-0.476,0.477-0.476c0.262,0,0.476,0.214,0.476,0.476
		C17.569,6.348,17.356,6.562,17.094,6.562L17.094,6.562z"/>
	<path id="XMLID_114_" style="fill:#FFFFFF;" d="M16.437,6.869c0,0.234-0.189,0.424-0.423,0.424c-0.234,0-0.424-0.189-0.424-0.424
		c0-0.234,0.189-0.423,0.424-0.423C16.248,6.446,16.437,6.635,16.437,6.869L16.437,6.869z"/>
	<path style="fill:#00539F;" d="M16.014,6.499c-0.204,0-0.371,0.166-0.371,0.37c0,0.204,0.166,0.371,0.371,0.371
		c0.204,0,0.37-0.166,0.37-0.371C16.384,6.665,16.218,6.499,16.014,6.499L16.014,6.499z M16.014,7.346
		c-0.263,0-0.477-0.214-0.477-0.477c0-0.263,0.214-0.476,0.477-0.476c0.262,0,0.476,0.213,0.476,0.476
		C16.49,7.132,16.277,7.346,16.014,7.346L16.014,7.346z"/>
	<path id="XMLID_111_" style="fill:#FFFFFF;" d="M15.559,7.901c0,0.234-0.189,0.423-0.423,0.423c-0.234,0-0.423-0.189-0.423-0.423
		c0-0.234,0.189-0.423,0.423-0.423C15.37,7.478,15.559,7.668,15.559,7.901L15.559,7.901z"/>
	<path style="fill:#00539F;" d="M15.136,7.531c-0.204,0-0.37,0.166-0.37,0.37c0,0.204,0.166,0.37,0.37,0.37
		c0.204,0,0.37-0.166,0.37-0.37C15.506,7.697,15.34,7.531,15.136,7.531L15.136,7.531z M15.136,8.378
		c-0.262,0-0.476-0.214-0.476-0.476c0-0.263,0.213-0.476,0.476-0.476c0.263,0,0.476,0.214,0.476,0.476
		C15.612,8.164,15.399,8.378,15.136,8.378L15.136,8.378z"/>
	<path id="XMLID_108_" style="fill:#FFFFFF;" d="M15.007,9.061c0,0.234-0.19,0.424-0.423,0.424c-0.234,0-0.424-0.19-0.424-0.424
		c0-0.233,0.189-0.423,0.424-0.423C14.818,8.639,15.007,8.828,15.007,9.061L15.007,9.061z"/>
	<path style="fill:#00539F;" d="M14.584,8.692c-0.204,0-0.371,0.166-0.371,0.37c0,0.205,0.166,0.371,0.371,0.371
		c0.204,0,0.37-0.166,0.37-0.371C14.954,8.858,14.788,8.692,14.584,8.692L14.584,8.692z M14.584,9.538
		c-0.263,0-0.477-0.214-0.477-0.477c0-0.262,0.214-0.476,0.477-0.476c0.263,0,0.476,0.213,0.476,0.476
		C15.06,9.324,14.847,9.538,14.584,9.538L14.584,9.538z"/>
	<path id="XMLID_105_" style="fill:#FFFFFF;" d="M14.7,10.384c0,0.234-0.189,0.424-0.423,0.424c-0.234,0-0.424-0.189-0.424-0.424
		c0-0.234,0.189-0.423,0.424-0.423C14.511,9.962,14.7,10.151,14.7,10.384L14.7,10.384z"/>
	<path style="fill:#00539F;" d="M14.278,10.015c-0.204,0-0.371,0.166-0.371,0.37c0,0.204,0.166,0.371,0.371,0.371
		c0.204,0,0.37-0.166,0.37-0.371C14.647,10.18,14.482,10.015,14.278,10.015L14.278,10.015z M14.278,10.861
		c-0.263,0-0.477-0.214-0.477-0.477c0-0.262,0.214-0.476,0.477-0.476c0.262,0,0.476,0.213,0.476,0.476
		C14.753,10.647,14.54,10.861,14.278,10.861L14.278,10.861z"/>
	<path id="XMLID_102_" style="fill:#FFFFFF;" d="M23.05,13.101c0,0.234-0.19,0.424-0.424,0.424c-0.234,0-0.423-0.19-0.423-0.424
		c0-0.233,0.19-0.423,0.423-0.423C22.86,12.678,23.05,12.868,23.05,13.101L23.05,13.101z"/>
	<path style="fill:#00539F;" d="M22.626,12.731c-0.204,0-0.37,0.166-0.37,0.37c0,0.204,0.166,0.371,0.37,0.371
		c0.204,0,0.371-0.166,0.371-0.371C22.997,12.897,22.83,12.731,22.626,12.731L22.626,12.731z M22.626,13.578
		c-0.263,0-0.476-0.214-0.476-0.477c0-0.263,0.214-0.476,0.476-0.476c0.263,0,0.477,0.213,0.477,0.476
		C23.103,13.364,22.889,13.578,22.626,13.578L22.626,13.578z"/>
	<path id="XMLID_99_" style="fill:#FFFFFF;" d="M18.473,14.338c0,0.234-0.189,0.423-0.423,0.423c-0.233,0-0.423-0.189-0.423-0.423
		c0-0.234,0.19-0.423,0.423-0.423C18.284,13.915,18.473,14.104,18.473,14.338L18.473,14.338z"/>
	<path style="fill:#00539F;" d="M18.049,13.968c-0.204,0-0.37,0.166-0.37,0.37s0.166,0.37,0.37,0.37c0.204,0,0.37-0.166,0.37-0.37
		S18.254,13.968,18.049,13.968L18.049,13.968z M18.049,14.815c-0.262,0-0.476-0.214-0.476-0.476c0-0.263,0.213-0.476,0.476-0.476
		c0.263,0,0.476,0.214,0.476,0.476C18.526,14.601,18.312,14.815,18.049,14.815L18.049,14.815z"/>
	<path id="XMLID_96_" style="fill:#FFFFFF;" d="M19.28,6.895c0,0.234-0.189,0.423-0.423,0.423c-0.234,0-0.423-0.189-0.423-0.423
		c0-0.234,0.19-0.423,0.423-0.423C19.091,6.472,19.28,6.661,19.28,6.895L19.28,6.895z"/>
	<path style="fill:#00539F;" d="M18.857,6.525c-0.204,0-0.37,0.166-0.37,0.37c0,0.204,0.166,0.37,0.37,0.37
		c0.204,0,0.37-0.166,0.37-0.37C19.227,6.691,19.061,6.525,18.857,6.525L18.857,6.525z M18.857,7.371
		c-0.263,0-0.476-0.214-0.476-0.476c0-0.263,0.214-0.476,0.476-0.476c0.262,0,0.476,0.214,0.476,0.476
		C19.333,7.158,19.12,7.371,18.857,7.371L18.857,7.371z"/>
	<path id="XMLID_93_" style="fill:#FFFFFF;" d="M18.973,8.218c0,0.234-0.19,0.423-0.423,0.423c-0.234,0-0.423-0.189-0.423-0.423
		c0-0.233,0.189-0.423,0.423-0.423C18.784,7.795,18.973,7.985,18.973,8.218L18.973,8.218z"/>
	<path style="fill:#00539F;" d="M18.55,7.848c-0.204,0-0.37,0.166-0.37,0.37c0,0.204,0.166,0.37,0.37,0.37
		c0.204,0,0.37-0.166,0.37-0.37C18.92,8.014,18.754,7.848,18.55,7.848L18.55,7.848z M18.55,8.694c-0.262,0-0.476-0.213-0.476-0.476
		c0-0.263,0.213-0.476,0.476-0.476c0.263,0,0.476,0.214,0.476,0.476C19.026,8.481,18.813,8.694,18.55,8.694L18.55,8.694z"/>
	<path id="XMLID_90_" style="fill:#FFFFFF;" d="M25.718,9.08c0,0.396-0.321,0.718-0.718,0.718c-0.396,0-0.718-0.322-0.718-0.718
		c0-0.396,0.322-0.718,0.718-0.718C25.397,8.362,25.718,8.684,25.718,9.08L25.718,9.08z"/>
	<path style="fill:#00539F;" d="M25,8.415c-0.366,0-0.665,0.298-0.665,0.665c0,0.367,0.298,0.665,0.665,0.665
		c0.367,0,0.665-0.298,0.665-0.665C25.665,8.713,25.367,8.415,25,8.415L25,8.415z M25,9.851c-0.425,0-0.771-0.346-0.771-0.771
		c0-0.425,0.346-0.771,0.771-0.771c0.425,0,0.771,0.346,0.771,0.771C25.771,9.505,25.425,9.851,25,9.851L25,9.851z"/>
	<path id="XMLID_87_" style="fill:#FFFFFF;" d="M20.016,9.62c0.099,0.384-0.133,0.775-0.516,0.874
		c-0.385,0.098-0.776-0.133-0.875-0.517c-0.098-0.384,0.133-0.775,0.517-0.874C19.525,9.004,19.917,9.236,20.016,9.62L20.016,9.62z"
		/>
	<path style="fill:#00539F;" d="M19.32,9.133c-0.056,0-0.111,0.007-0.166,0.021c-0.355,0.091-0.57,0.454-0.479,0.809
		c0.076,0.294,0.341,0.5,0.644,0.5c0.056,0,0.111-0.007,0.166-0.021c0.355-0.092,0.569-0.455,0.478-0.81
		C19.889,9.339,19.624,9.133,19.32,9.133L19.32,9.133z M19.32,10.57c-0.352,0-0.659-0.238-0.747-0.579
		c-0.105-0.412,0.143-0.833,0.555-0.939c0.063-0.016,0.128-0.025,0.192-0.025c0.352,0,0.659,0.238,0.746,0.579
		c0.106,0.411-0.142,0.832-0.554,0.939C19.449,10.561,19.385,10.57,19.32,10.57L19.32,10.57z"/>
	<path id="XMLID_84_" style="fill:#FFFFFF;" d="M15.049,11.765c0.191,0.347,0.065,0.784-0.283,0.975
		c-0.348,0.192-0.784,0.065-0.976-0.283c-0.191-0.347-0.064-0.784,0.283-0.975C14.421,11.291,14.858,11.417,15.049,11.765
		L15.049,11.765z"/>
	<path style="fill:#00539F;" d="M14.42,11.446c-0.111,0-0.222,0.029-0.32,0.083c-0.321,0.177-0.439,0.582-0.263,0.903
		c0.117,0.212,0.341,0.344,0.583,0.344c0.111,0,0.222-0.029,0.32-0.083c0.156-0.086,0.269-0.227,0.318-0.397
		c0.049-0.17,0.029-0.35-0.056-0.506C14.886,11.578,14.663,11.446,14.42,11.446L14.42,11.446z M14.421,12.882
		c-0.281,0-0.54-0.153-0.676-0.399c-0.205-0.372-0.068-0.842,0.304-1.047c0.114-0.063,0.242-0.096,0.371-0.096
		c0.282,0,0.541,0.153,0.676,0.4c0.099,0.18,0.122,0.388,0.065,0.586c-0.057,0.198-0.188,0.361-0.369,0.461
		C14.678,12.849,14.55,12.882,14.421,12.882L14.421,12.882z"/>
	<path id="XMLID_81_" style="fill:#FFFFFF;" d="M25.75,3.328c0,0.234,0.189,0.423,0.423,0.423c0.234,0,0.424-0.189,0.424-0.423
		c0-0.234-0.189-0.423-0.424-0.423C25.939,2.904,25.75,3.094,25.75,3.328L25.75,3.328z"/>
	<path style="fill:#00539F;" d="M26.173,2.957c-0.204,0-0.37,0.166-0.37,0.37c0,0.204,0.166,0.37,0.37,0.37
		c0.204,0,0.371-0.166,0.371-0.37C26.544,3.123,26.377,2.957,26.173,2.957L26.173,2.957z M26.173,3.804
		c-0.262,0-0.476-0.213-0.476-0.476c0-0.263,0.213-0.476,0.476-0.476c0.263,0,0.477,0.214,0.477,0.476
		C26.65,3.59,26.436,3.804,26.173,3.804L26.173,3.804z"/>
	<path id="XMLID_78_" style="fill:#FFFFFF;" d="M26.959,3.538c0,0.234,0.189,0.423,0.423,0.423c0.234,0,0.424-0.189,0.424-0.423
		c0-0.234-0.19-0.423-0.424-0.423C27.147,3.115,26.959,3.305,26.959,3.538L26.959,3.538z"/>
	<path style="fill:#00539F;" d="M27.381,3.169c-0.204,0-0.37,0.166-0.37,0.37c0,0.204,0.166,0.37,0.37,0.37
		c0.204,0,0.371-0.166,0.371-0.37C27.752,3.334,27.586,3.169,27.381,3.169L27.381,3.169z M27.381,4.014
		c-0.262,0-0.476-0.213-0.476-0.476c0-0.263,0.213-0.476,0.476-0.476c0.263,0,0.477,0.213,0.477,0.476
		C27.858,3.801,27.644,4.014,27.381,4.014L27.381,4.014z"/>
	<path id="XMLID_75_" style="fill:#FFFFFF;" d="M28.137,3.976c0,0.234,0.189,0.423,0.423,0.423c0.234,0,0.423-0.189,0.423-0.423
		c0-0.234-0.189-0.423-0.423-0.423C28.326,3.553,28.137,3.742,28.137,3.976L28.137,3.976z"/>
	<path style="fill:#00539F;" d="M28.559,3.606c-0.204,0-0.37,0.166-0.37,0.37c0,0.204,0.166,0.37,0.37,0.37
		c0.204,0,0.37-0.166,0.37-0.37C28.93,3.772,28.764,3.606,28.559,3.606L28.559,3.606z M28.559,4.452
		c-0.263,0-0.476-0.213-0.476-0.476c0-0.263,0.213-0.476,0.476-0.476c0.263,0,0.476,0.214,0.476,0.476
		C29.036,4.239,28.822,4.452,28.559,4.452L28.559,4.452z"/>
	<path id="XMLID_72_" style="fill:#FFFFFF;" d="M29.272,4.731c0,0.234,0.189,0.423,0.422,0.423c0.235,0,0.424-0.19,0.424-0.423
		c0-0.234-0.189-0.423-0.424-0.423C29.461,4.308,29.272,4.497,29.272,4.731L29.272,4.731z"/>
	<path style="fill:#00539F;" d="M29.694,4.361c-0.204,0-0.369,0.166-0.369,0.37c0,0.204,0.166,0.37,0.369,0.37
		c0.204,0,0.371-0.166,0.371-0.37C30.065,4.527,29.899,4.361,29.694,4.361L29.694,4.361z M29.694,5.207
		c-0.262,0-0.475-0.214-0.475-0.476c0-0.263,0.213-0.476,0.475-0.476c0.263,0,0.477,0.214,0.477,0.476
		C30.171,4.994,29.957,5.207,29.694,5.207L29.694,5.207z"/>
	<path id="XMLID_69_" style="fill:#FFFFFF;" d="M30.138,5.73c0,0.234,0.19,0.423,0.424,0.423c0.233,0,0.422-0.189,0.422-0.423
		c0-0.234-0.189-0.423-0.422-0.423C30.328,5.307,30.138,5.496,30.138,5.73L30.138,5.73z"/>
	<path style="fill:#00539F;" d="M30.562,5.36c-0.205,0-0.371,0.166-0.371,0.37c0,0.204,0.166,0.37,0.371,0.37
		c0.204,0,0.369-0.166,0.369-0.37C30.932,5.526,30.766,5.36,30.562,5.36L30.562,5.36z M30.562,6.206
		c-0.263,0-0.477-0.213-0.477-0.476c0-0.263,0.214-0.476,0.477-0.476c0.262,0,0.475,0.214,0.475,0.476
		C31.038,5.993,30.824,6.206,30.562,6.206L30.562,6.206z"/>
	<path id="XMLID_66_" style="fill:#FFFFFF;" d="M31.323,5.631c0,0.234,0.189,0.424,0.423,0.424c0.234,0,0.423-0.189,0.423-0.424
		c0-0.233-0.189-0.423-0.423-0.423C31.512,5.208,31.323,5.398,31.323,5.631L31.323,5.631z"/>
	<path style="fill:#00539F;" d="M31.746,5.261c-0.204,0-0.37,0.166-0.37,0.37c0,0.204,0.166,0.371,0.37,0.371
		c0.204,0,0.37-0.166,0.37-0.371C32.116,5.427,31.95,5.261,31.746,5.261L31.746,5.261z M31.746,6.107
		c-0.263,0-0.476-0.214-0.476-0.477c0-0.262,0.214-0.476,0.476-0.476c0.263,0,0.476,0.213,0.476,0.476
		C32.222,5.894,32.009,6.107,31.746,6.107L31.746,6.107z"/>
	<path id="XMLID_63_" style="fill:#FFFFFF;" d="M32.484,6.085c0,0.234,0.189,0.423,0.423,0.423c0.233,0,0.424-0.19,0.424-0.423
		c0-0.234-0.19-0.423-0.424-0.423C32.672,5.662,32.484,5.851,32.484,6.085L32.484,6.085z"/>
	<path style="fill:#00539F;" d="M32.907,5.715c-0.204,0-0.37,0.166-0.37,0.37c0,0.204,0.166,0.37,0.37,0.37
		c0.204,0,0.371-0.166,0.371-0.37C33.277,5.881,33.111,5.715,32.907,5.715L32.907,5.715z M32.907,6.562
		c-0.263,0-0.476-0.214-0.476-0.476c0-0.263,0.213-0.476,0.476-0.476c0.263,0,0.477,0.214,0.477,0.476
		C33.383,6.348,33.169,6.562,32.907,6.562L32.907,6.562z"/>
	<path id="XMLID_60_" style="fill:#FFFFFF;" d="M33.563,6.869c0,0.234,0.189,0.424,0.423,0.424c0.234,0,0.423-0.189,0.423-0.424
		c0-0.234-0.189-0.423-0.423-0.423C33.752,6.446,33.563,6.635,33.563,6.869L33.563,6.869z"/>
	<path style="fill:#00539F;" d="M33.986,6.499c-0.204,0-0.37,0.166-0.37,0.37c0,0.204,0.166,0.371,0.37,0.371
		c0.204,0,0.37-0.166,0.37-0.371C34.356,6.665,34.19,6.499,33.986,6.499L33.986,6.499z M33.986,7.346
		c-0.263,0-0.476-0.214-0.476-0.477c0-0.263,0.214-0.476,0.476-0.476c0.263,0,0.476,0.213,0.476,0.476
		C34.462,7.132,34.249,7.346,33.986,7.346L33.986,7.346z"/>
	<path id="XMLID_57_" style="fill:#FFFFFF;" d="M34.441,7.901c0,0.234,0.19,0.423,0.424,0.423c0.234,0,0.423-0.189,0.423-0.423
		c0-0.234-0.189-0.423-0.423-0.423C34.631,7.478,34.441,7.668,34.441,7.901L34.441,7.901z"/>
	<path style="fill:#00539F;" d="M34.864,7.531c-0.204,0-0.371,0.166-0.371,0.37c0,0.204,0.166,0.37,0.371,0.37
		c0.204,0,0.37-0.166,0.37-0.37C35.234,7.697,35.068,7.531,34.864,7.531L34.864,7.531z M34.864,8.378
		c-0.263,0-0.477-0.214-0.477-0.476c0-0.263,0.214-0.476,0.477-0.476c0.263,0,0.476,0.214,0.476,0.476
		C35.34,8.164,35.127,8.378,34.864,8.378L34.864,8.378z"/>
	<path id="XMLID_54_" style="fill:#FFFFFF;" d="M34.993,9.061c0,0.234,0.189,0.424,0.423,0.424c0.234,0,0.423-0.19,0.423-0.424
		c0-0.233-0.189-0.423-0.423-0.423C35.183,8.639,34.993,8.828,34.993,9.061L34.993,9.061z"/>
	<path style="fill:#00539F;" d="M35.416,8.692c-0.204,0-0.37,0.166-0.37,0.37c0,0.205,0.166,0.371,0.37,0.371s0.37-0.166,0.37-0.371
		C35.787,8.858,35.62,8.692,35.416,8.692L35.416,8.692z M35.416,9.538c-0.263,0-0.476-0.214-0.476-0.477
		c0-0.262,0.213-0.476,0.476-0.476c0.263,0,0.476,0.213,0.476,0.476C35.893,9.324,35.679,9.538,35.416,9.538L35.416,9.538z"/>
	<path id="XMLID_51_" style="fill:#FFFFFF;" d="M35.299,10.384c0,0.234,0.189,0.424,0.424,0.424c0.233,0,0.423-0.189,0.423-0.424
		c0-0.234-0.189-0.423-0.423-0.423C35.489,9.962,35.299,10.151,35.299,10.384L35.299,10.384z"/>
	<path style="fill:#00539F;" d="M35.723,10.015c-0.204,0-0.371,0.166-0.371,0.37c0,0.204,0.166,0.371,0.371,0.371
		c0.204,0,0.37-0.166,0.37-0.371C36.093,10.18,35.927,10.015,35.723,10.015L35.723,10.015z M35.723,10.861
		c-0.263,0-0.477-0.214-0.477-0.477c0-0.262,0.214-0.476,0.477-0.476c0.262,0,0.476,0.213,0.476,0.476
		C36.199,10.647,35.985,10.861,35.723,10.861L35.723,10.861z"/>
	<path id="XMLID_48_" style="fill:#FFFFFF;" d="M30.72,6.895c0,0.234,0.19,0.423,0.424,0.423c0.233,0,0.423-0.189,0.423-0.423
		c0-0.234-0.19-0.423-0.423-0.423C30.91,6.472,30.72,6.661,30.72,6.895L30.72,6.895z"/>
	<path style="fill:#00539F;" d="M31.143,6.525c-0.204,0-0.371,0.166-0.371,0.37c0,0.204,0.166,0.37,0.371,0.37
		c0.204,0,0.37-0.166,0.37-0.37C31.513,6.691,31.347,6.525,31.143,6.525L31.143,6.525z M31.143,7.371
		c-0.263,0-0.477-0.214-0.477-0.476c0-0.263,0.214-0.476,0.477-0.476c0.263,0,0.476,0.214,0.476,0.476
		C31.619,7.158,31.406,7.371,31.143,7.371L31.143,7.371z"/>
	<path id="XMLID_45_" style="fill:#FFFFFF;" d="M31.027,8.218c0,0.234,0.19,0.423,0.424,0.423c0.234,0,0.423-0.189,0.423-0.423
		c0-0.233-0.189-0.423-0.423-0.423C31.216,7.795,31.027,7.985,31.027,8.218L31.027,8.218z"/>
	<path style="fill:#00539F;" d="M31.45,7.848c-0.204,0-0.371,0.166-0.371,0.37c0,0.204,0.166,0.37,0.371,0.37
		c0.204,0,0.37-0.166,0.37-0.37C31.82,8.014,31.654,7.848,31.45,7.848L31.45,7.848z M31.45,8.694c-0.263,0-0.477-0.213-0.477-0.476
		c0-0.263,0.214-0.476,0.477-0.476c0.263,0,0.476,0.214,0.476,0.476C31.926,8.481,31.713,8.694,31.45,8.694L31.45,8.694z"/>
	<path id="XMLID_42_" style="fill:#FFFFFF;" d="M29.985,9.62c-0.099,0.384,0.132,0.775,0.516,0.874
		c0.385,0.098,0.775-0.133,0.874-0.517c0.099-0.384-0.133-0.775-0.517-0.874C30.475,9.004,30.083,9.236,29.985,9.62L29.985,9.62z"/>
	<path style="fill:#00539F;" d="M30.68,9.133c-0.303,0-0.568,0.205-0.643,0.499c-0.045,0.172-0.019,0.351,0.071,0.504
		c0.09,0.153,0.235,0.262,0.407,0.306c0.054,0.014,0.11,0.021,0.166,0.021c0.303,0,0.568-0.205,0.644-0.5
		c0.044-0.172,0.019-0.351-0.071-0.504c-0.09-0.153-0.235-0.261-0.407-0.306C30.791,9.14,30.735,9.133,30.68,9.133L30.68,9.133z
		 M30.681,10.57L30.681,10.57c-0.065,0-0.129-0.008-0.192-0.024c-0.2-0.051-0.367-0.177-0.472-0.355
		c-0.105-0.177-0.134-0.385-0.083-0.584c0.087-0.341,0.394-0.579,0.746-0.579c0.065,0,0.129,0.008,0.193,0.025
		c0.199,0.051,0.367,0.177,0.472,0.354c0.105,0.177,0.134,0.385,0.083,0.584C31.339,10.331,31.032,10.57,30.681,10.57L30.681,10.57z
		"/>
	<path id="XMLID_39_" style="fill:#FFFFFF;" d="M34.951,11.765c-0.192,0.347-0.065,0.784,0.282,0.975
		c0.348,0.192,0.784,0.065,0.976-0.283c0.191-0.347,0.065-0.784-0.283-0.975C35.579,11.291,35.142,11.417,34.951,11.765
		L34.951,11.765z"/>
	<path style="fill:#00539F;" d="M35.581,11.446c-0.243,0-0.466,0.132-0.583,0.345c-0.086,0.155-0.106,0.335-0.057,0.505
		c0.049,0.171,0.162,0.312,0.318,0.397c0.098,0.054,0.209,0.083,0.32,0.083h0c0.242,0,0.466-0.132,0.583-0.345
		c0.086-0.156,0.106-0.335,0.056-0.506c-0.049-0.17-0.162-0.311-0.318-0.397C35.803,11.474,35.692,11.446,35.581,11.446
		L35.581,11.446z M35.58,12.882C35.579,12.882,35.579,12.882,35.58,12.882c-0.129,0-0.258-0.033-0.372-0.096
		c-0.18-0.099-0.312-0.263-0.369-0.461c-0.057-0.198-0.034-0.406,0.066-0.586c0.135-0.246,0.394-0.4,0.676-0.4
		c0.129,0,0.258,0.033,0.371,0.096c0.18,0.099,0.311,0.262,0.369,0.46c0.058,0.198,0.034,0.406-0.065,0.587
		C36.12,12.729,35.861,12.882,35.58,12.882L35.58,12.882z"/>
	<polygon id="XMLID_36_" style="fill:#EE334E;" points="25,13.48 26.336,12.982 25,12.483 23.664,12.982 25,13.48 	"/>
	<path style="fill:#00539F;" d="M23.816,12.982L25,13.423l1.185-0.442L25,12.54L23.816,12.982L23.816,12.982z M25,13.533
		c-0.006,0-0.013-0.001-0.019-0.003l-1.336-0.498c-0.021-0.008-0.034-0.028-0.034-0.05s0.014-0.042,0.034-0.05l1.336-0.498
		c0.012-0.005,0.025-0.005,0.037,0l1.336,0.498c0.021,0.008,0.034,0.028,0.034,0.05s-0.014,0.042-0.034,0.05l-1.336,0.498
		C25.012,13.532,25.006,13.533,25,13.533L25,13.533z"/>
	<polygon id="XMLID_33_" style="fill:#00539F;" points="20.435,14.055 21.604,13.24 20.186,13.09 19.017,13.905 20.435,14.055 	"/>
	<path style="fill:#00539F;" d="M19.164,13.867L20.42,14l1.036-0.723L20.2,13.145L19.164,13.867L19.164,13.867z M20.435,14.108
		c-0.002,0-0.004,0-0.006,0l-1.418-0.15c-0.022-0.002-0.04-0.018-0.046-0.04c-0.006-0.021,0.003-0.044,0.021-0.057l1.17-0.815
		c0.01-0.007,0.023-0.011,0.036-0.009l1.418,0.149c0.022,0.002,0.04,0.018,0.046,0.04c0.006,0.021-0.003,0.044-0.021,0.057
		l-1.169,0.816C20.456,14.105,20.445,14.108,20.435,14.108L20.435,14.108z"/>
	<polygon id="XMLID_30_" style="fill:#EE334E;" points="17.16,15.233 17.334,14.552 16.735,14.331 16.592,14.917 17.16,15.233 	"/>
	<path style="fill:#00539F;" d="M16.653,14.89l0.473,0.263l0.145-0.568l-0.499-0.183L16.653,14.89L16.653,14.89z M17.16,15.286
		c-0.009,0-0.018-0.002-0.026-0.007l-0.569-0.316c-0.021-0.012-0.031-0.036-0.026-0.059l0.143-0.585
		c0.004-0.015,0.013-0.027,0.027-0.034c0.013-0.007,0.029-0.008,0.043-0.003l0.599,0.22c0.026,0.009,0.04,0.037,0.033,0.063
		l-0.174,0.681c-0.004,0.016-0.015,0.029-0.03,0.036C17.175,15.284,17.167,15.286,17.16,15.286L17.16,15.286z"/>
	<path id="XMLID_27_" style="fill:#FFFFFF;" d="M26.951,13.101c0,0.234,0.189,0.424,0.423,0.424c0.234,0,0.424-0.19,0.424-0.424
		c0-0.233-0.189-0.423-0.424-0.423C27.14,12.678,26.951,12.868,26.951,13.101L26.951,13.101z"/>
	<path style="fill:#00539F;" d="M27.374,12.731c-0.204,0-0.37,0.166-0.37,0.37c0,0.204,0.166,0.371,0.37,0.371
		c0.204,0,0.371-0.166,0.371-0.371C27.744,12.897,27.578,12.731,27.374,12.731L27.374,12.731z M27.374,13.578
		c-0.262,0-0.476-0.214-0.476-0.477c0-0.263,0.213-0.476,0.476-0.476c0.263,0,0.477,0.213,0.477,0.476
		C27.85,13.364,27.637,13.578,27.374,13.578L27.374,13.578z"/>
	<path id="XMLID_24_" style="fill:#FFFFFF;" d="M31.528,14.338c0,0.234,0.189,0.423,0.423,0.423c0.234,0,0.423-0.189,0.423-0.423
		c0-0.234-0.189-0.423-0.423-0.423C31.717,13.915,31.528,14.104,31.528,14.338L31.528,14.338z"/>
	<path style="fill:#00539F;" d="M31.95,13.968c-0.204,0-0.37,0.166-0.37,0.37s0.166,0.37,0.37,0.37c0.204,0,0.37-0.166,0.37-0.37
		S32.154,13.968,31.95,13.968L31.95,13.968z M31.95,14.815c-0.262,0-0.476-0.214-0.476-0.476c0-0.263,0.213-0.476,0.476-0.476
		c0.263,0,0.476,0.214,0.476,0.476C32.426,14.601,32.213,14.815,31.95,14.815L31.95,14.815z"/>
	<polygon id="XMLID_21_" style="fill:#00539F;" points="29.566,14.055 28.396,13.24 29.814,13.09 30.984,13.905 29.566,14.055 	"/>
	<path style="fill:#00539F;" d="M28.543,13.277L29.58,14l1.257-0.133L29.8,13.145L28.543,13.277L28.543,13.277z M29.566,14.108
		c-0.011,0-0.021-0.003-0.03-0.009l-1.17-0.816c-0.018-0.013-0.027-0.035-0.021-0.057c0.006-0.021,0.024-0.037,0.046-0.04
		l1.418-0.149c0.013-0.001,0.025,0.002,0.036,0.009l1.17,0.815c0.018,0.013,0.027,0.035,0.021,0.057
		c-0.006,0.021-0.024,0.037-0.046,0.04l-1.418,0.15C29.569,14.108,29.568,14.108,29.566,14.108L29.566,14.108z"/>
	<polygon id="XMLID_18_" style="fill:#EE334E;" points="32.84,15.233 32.666,14.552 33.266,14.331 33.408,14.917 32.84,15.233 	"/>
	<path style="fill:#00539F;" d="M32.729,14.585l0.146,0.568l0.472-0.263l-0.119-0.488L32.729,14.585L32.729,14.585z M32.84,15.286
		c-0.007,0-0.014-0.001-0.021-0.004c-0.015-0.007-0.027-0.02-0.031-0.036l-0.174-0.681c-0.007-0.026,0.007-0.054,0.033-0.063
		l0.6-0.22c0.014-0.006,0.03-0.004,0.043,0.003c0.013,0.007,0.023,0.019,0.027,0.034l0.142,0.585
		c0.006,0.023-0.005,0.047-0.026,0.059l-0.568,0.316C32.858,15.283,32.849,15.286,32.84,15.286L32.84,15.286z"/>
	<path id="XMLID_15_" style="fill:#FEBE10;" d="M25,14.54c9.561,0,17.344,7.801,17.344,17.361c0,9.542-7.783,17.343-17.344,17.343
		S7.657,41.444,7.657,31.902C7.657,22.341,15.439,14.54,25,14.54L25,14.54z"/>
	<path style="fill:#00539F;" d="M25,14.796c-9.422,0-17.088,7.674-17.088,17.106c0,9.422,7.666,17.088,17.088,17.088
		c9.423,0,17.089-7.666,17.089-17.088C42.088,22.469,34.423,14.796,25,14.796L25,14.796z M25,49.5
		c-9.704,0-17.598-7.894-17.598-17.598c0-9.714,7.895-17.617,17.598-17.617c9.704,0,17.599,7.903,17.599,17.617
		C42.598,41.606,34.704,49.5,25,49.5L25,49.5z"/>
	<path id="XMLID_12_" style="fill:#FFFFFF;" d="M25,16.745c8.338,0,15.157,6.8,15.157,15.157c0,8.338-6.819,15.157-15.157,15.157
		c-8.338,0-15.157-6.819-15.157-15.157C9.843,23.546,16.662,16.745,25,16.745L25,16.745L25,16.745z"/>
	<path style="fill:#00539F;" d="M25,17c-8.217,0-14.902,6.685-14.902,14.901c0,8.217,6.685,14.902,14.902,14.902
		c8.217,0,14.902-6.685,14.902-14.902C39.902,23.685,33.217,17,25,17L25,17z M25,47.314c-8.498,0-15.412-6.914-15.412-15.412
		c0-8.498,6.914-15.412,15.412-15.412s15.412,6.914,15.412,15.412C40.412,40.4,33.498,47.314,25,47.314L25,47.314z"/>
	<path id="XMLID_9_" style="fill:#00539F;" d="M11.847,25.774c6.435,6.562,12.584,12.821,19.013,19.397
		c2.719-1.207,5.002-3.226,6.537-5.745L17.852,19.265C15.237,20.754,13.127,23.033,11.847,25.774L11.847,25.774z"/>
	<path style="fill:#FEBE10;" d="M31.856,19.339l-3.317,3.446H28.52l-0.074,0.074c-1.019-0.39-2.168-0.631-3.446-0.649
		c-0.019,0-0.055,0-0.074,0c-1.168,0-2.446,0.222-3.521,0.649l-3.336-3.484c-4.372,2.446-7.356,7.134-7.356,12.47
		c0,3.576,1.316,6.689,3.539,9.19l1.705-1.741c-1.093-1.037-3.095-3.928-2.984-7.579c0.13-3.724,1.649-6.856,4.614-9.283
		l1.631,1.686c-2.261,1.705-3.854,4.373-3.891,7.356c-0.056,4.354,2.946,8.356,7.264,9.431v2.428h2.334h0.037v-2.15
		c3.002-0.019,5.744-1.501,7.374-3.502l-1.797-1.816c-1.649,1.964-4.15,2.891-5.577,2.817v-1.853h2.908v-2.15h-2.908v-1.353h2.946
		v-1.946h-2.983h-2.334v6.875c-3.168-1.056-4.874-3.762-4.818-6.578c0.056-2.557,1.334-4.614,3.113-5.855l4.039,4.169l0.055,0.055
		l3.947-4.169c0.982,0.668,1.742,1.538,2.243,2.52l1.909-1.649c-0.575-0.964-1.39-1.89-2.428-2.668l1.612-1.65
		c2.224,1.538,4.559,5.226,4.559,9.283c0,3.353-1.15,5.411-2.928,7.541l1.889,1.89c2.169-2.502,3.465-5.744,3.465-9.302
		C39.249,26.473,36.266,21.785,31.856,19.339L31.856,19.339z M24.981,26.547l-0.055-0.037l-1.668-1.723
		c0.575-0.13,1.205-0.204,1.612-0.186c0.018,0,0.037,0,0.056,0c0.574,0.019,1.131,0.112,1.668,0.241L24.981,26.547L24.981,26.547z"
		/>
	<path style="fill:#00539F;" d="M23.771,24.947l1.207,1.233l1.124-1.188c-0.389-0.076-0.798-0.121-1.241-0.134
		C24.558,24.844,24.18,24.879,23.771,24.947L23.771,24.947z M24.984,26.915l-2.228-2.276l0.446-0.101
		c0.601-0.136,1.251-0.213,1.68-0.192c0.644,0.02,1.226,0.102,1.778,0.25l0.414,0.111L24.984,26.915L24.984,26.915z M22.847,43.08
		h1.861v-2.149l0.254-0.001c2.651-0.017,5.323-1.25,7.031-3.233l-1.44-1.455c-1.666,1.845-4.11,2.772-5.602,2.696l-0.242-0.012
		v-2.35h2.909v-1.64h-2.909v-1.863h2.946v-1.436h-4.807v6.974L22.511,38.5c-3.094-1.032-5.054-3.711-4.992-6.825
		c0.053-2.46,1.228-4.668,3.222-6.059l0.178-0.124l4.06,4.189l3.913-4.133l0.18,0.122c0.902,0.613,1.648,1.414,2.172,2.331
		l1.504-1.299c-0.572-0.904-1.347-1.735-2.25-2.413l-0.233-0.174l1.966-2.012l0.177,0.122c2.32,1.605,4.669,5.381,4.669,9.493
		c0,3.329-1.128,5.437-2.839,7.525l1.53,1.53c2.082-2.499,3.225-5.658,3.225-8.925c0-5.028-2.712-9.68-7.091-12.188l-3.393,3.499
		l-0.155-0.059c-1.054-0.403-2.184-0.615-3.359-0.632c-1.177,0-2.454,0.23-3.5,0.632l-0.158,0.061l-3.316-3.463
		c-4.356,2.516-7.054,7.154-7.054,12.15c0,3.255,1.138,6.297,3.295,8.814l1.335-1.364c-1.138-1.186-2.988-4.046-2.88-7.588
		c0.134-3.838,1.718-7.025,4.708-9.473l0.182-0.149l1.994,2.063l-0.23,0.174c-2.339,1.764-3.756,4.439-3.79,7.156
		c-0.055,4.286,2.919,8.147,7.07,9.18l0.193,0.048V43.08L22.847,43.08z M25.218,43.59h-2.882v-2.486
		c-4.277-1.16-7.32-5.178-7.264-9.632c0.035-2.784,1.437-5.522,3.765-7.38l-1.268-1.312c-2.754,2.33-4.215,5.339-4.341,8.945
		c-0.108,3.559,1.853,6.387,2.904,7.385l0.188,0.178l-2.078,2.122l-0.182-0.204c-2.357-2.652-3.604-5.889-3.604-9.36
		c0-5.246,2.869-10.11,7.486-12.693l0.172-0.096l3.356,3.505c1.082-0.391,2.327-0.606,3.526-0.606
		c1.18,0.017,2.316,0.221,3.381,0.608l0.049-0.033l3.377-3.51l0.172,0.095c4.641,2.574,7.524,7.452,7.524,12.731
		c0,3.483-1.253,6.845-3.527,9.469l-0.179,0.207l-2.248-2.249l0.149-0.179c1.771-2.122,2.869-4.096,2.869-7.378
		c0-3.833-2.122-7.354-4.274-8.948l-1.259,1.288c0.917,0.729,1.696,1.611,2.264,2.564l0.109,0.184l-2.317,2.001l-0.148-0.29
		c-0.457-0.897-1.139-1.688-1.981-2.3l-3.978,4.202l-4.126-4.257c-1.752,1.302-2.78,3.304-2.828,5.525
		c-0.055,2.772,1.624,5.174,4.308,6.21v-6.767h5.828v2.456h-2.946v0.843h2.908v2.66h-2.908v1.345
		c1.457-0.038,3.654-0.974,5.127-2.728l0.18-0.215l2.155,2.178l-0.145,0.178c-1.741,2.136-4.525,3.497-7.317,3.591V43.59
		L25.218,43.59z"/>
</g>
</svg>
