<?xml version="1.0" encoding="utf-8"?>
<!-- Generator: Adobe Illustrator 21.1.0, SVG Export Plug-In . SVG Version: 6.00 Build 0)  -->
<svg version="1.1" id="Livello_1" xmlns="http://www.w3.org/2000/svg" xmlns:xlink="http://www.w3.org/1999/xlink" x="0px" y="0px"
	 viewBox="0 0 566.9 850.4" style="enable-background:new 0 0 566.9 850.4;" xml:space="preserve">
<style type="text/css">
	.st0{fill:#008ECF;}
	.st1{fill:#FFFFFF;}
	.st2{fill:url(#SVGID_1_);}
	.st3{fill:#FFFFFF;stroke:#000000;stroke-width:0.5375;stroke-miterlimit:10;}
	.st4{fill:url(#SVGID_2_);}
	.st5{fill:url(#SVGID_3_);}
	.st6{fill:url(#SVGID_4_);}
	.st7{fill:url(#SVGID_5_);}
	.st8{fill:url(#SVGID_6_);}
	.st9{fill:url(#SVGID_7_);}
	.st10{fill:url(#SVGID_8_);}
	.st11{fill:url(#SVGID_9_);}
	.st12{fill:url(#SVGID_10_);}
</style>
<ellipse class="st0" cx="283.3" cy="425.1" rx="235.9" ry="336.9"/>
<path class="st1" d="M283.3,434.5c-45.3,0-89.1-5.6-130.1-16.8c-19.7-5.3-38.5-12-56-19.6c-17.4-7.6-33.5-16.3-48-25.9l-1.3-0.8
	l0.2-1.5c3-26.4,8.3-52.2,15.6-76.8c7.2-24.1,16.3-47,27.2-68.2l1.1-2.1l2.2,1c54.8,25.1,120.3,38.4,189.5,38.4
	c68.9,0,134.3-13.2,189-38.2l2.2-1l1.1,2.1c10.9,21.1,20,44.1,27.1,68.1c7.3,24.6,12.5,50.4,15.6,76.7l0.2,1.5l-1.3,0.8
	c-14.5,9.6-30.6,18.3-48,25.9c-17.5,7.7-36.4,14.3-56,19.6C372.4,428.9,328.6,434.5,283.3,434.5z"/>
<linearGradient id="SVGID_1_" gradientUnits="userSpaceOnUse" x1="283.3197" y1="775.7961" x2="283.3197" y2="74.476">
	<stop  offset="0" style="stop-color:#A18550"/>
	<stop  offset="0.1177" style="stop-color:#AC8E57"/>
	<stop  offset="0.3216" style="stop-color:#CBA96C"/>
	<stop  offset="0.5134" style="stop-color:#F9CF87"/>
	<stop  offset="0.5188" style="stop-color:#F6CD86"/>
	<stop  offset="0.7279" style="stop-color:#C3A266"/>
	<stop  offset="0.8956" style="stop-color:#AA8C56"/>
	<stop  offset="1" style="stop-color:#A18550"/>
</linearGradient>
<path class="st2" d="M283.3,74.5c-137.3,0-248.6,157-248.6,350.7S146,775.8,283.3,775.8S532,618.8,532,425.1S420.6,74.5,283.3,74.5z
	 M516.1,370.1c-57.5,38-140.5,61.9-232.8,61.9c-92.3,0-175.3-23.9-232.8-61.9c6.1-53.3,21-102.4,42.5-144.2
	c52.9,24.2,118.9,38.6,190.5,38.6c71.4,0,137.3-14.3,190.1-38.4C495.1,267.8,510,316.9,516.1,370.1z M283.3,88.3
	c74.5,0,141,49.3,184.2,126.4c-51.8,22.5-115.4,35.8-184.2,35.8c-68.8,0-132.5-13.3-184.2-35.8C142.4,137.6,208.8,88.3,283.3,88.3z
	 M283.3,762C153,762,47.4,611.2,47.4,425.1c0-14.2,0.6-28.3,1.8-42.1c57.6,38.6,141.2,63,234.4,63c92.8,0,176.3-24.2,233.8-62.6
	c1.2,13.7,1.8,27.6,1.8,41.7C519.2,611.2,413.6,762,283.3,762z"/>
<path class="st3" d="M191,599.3c2.7,11.1,5.9,21.8,9.7,31.9c8.7,23.3,20.3,43.9,34.5,61.2c10.3,12.6,21.7,23.1,33.8,31.4
	c6.2,4.3,11.1,6.8,13.9,8.2c23.1-12.7,42.7-30.5,58.4-53c13.3-19,23.8-41.3,31.3-66.4c1.3-4.5,2.5-8.9,3.6-13.3H191z"/>
<path d="M376.8,597.1c5.9-24.9,7.6-46.2,8-57H182.2c1.3,20.1,4.1,39.1,8.3,57H376.8z"/>
<linearGradient id="SVGID_2_" gradientUnits="userSpaceOnUse" x1="283.3692" y1="740.5658" x2="283.3692" y2="532.3063">
	<stop  offset="0" style="stop-color:#A18550"/>
	<stop  offset="0.3206" style="stop-color:#A48752"/>
	<stop  offset="0.5302" style="stop-color:#AD8F58"/>
	<stop  offset="0.7081" style="stop-color:#BD9C62"/>
	<stop  offset="0.8672" style="stop-color:#D5B172"/>
	<stop  offset="1" style="stop-color:#F9CF87"/>
</linearGradient>
<path class="st4" d="M392.7,532.3H174c8,169.7,109.4,208.6,109.4,208.3C395.8,681.7,392.7,532.3,392.7,532.3z M341.4,678.9
	c-15.7,22.5-35.3,40.3-58.4,53c-2.8-1.3-7.7-3.9-13.9-8.2c-12.1-8.3-23.5-18.9-33.8-31.4c-14.2-17.3-25.8-37.9-34.5-61.2
	c-3.5-9.4-6.5-19.2-9.1-29.4h183.9c-0.9,3.5-1.9,7.1-3,10.8C365.1,637.6,354.6,660,341.4,678.9z M377.5,594.1H189.8
	c-3.8-16.9-6.3-35-7.6-54h202.6C384.4,550.5,382.9,570.4,377.5,594.1z"/>
<g>
	<linearGradient id="SVGID_3_" gradientUnits="userSpaceOnUse" x1="133.6774" y1="524.0563" x2="133.6774" y2="211.0163">
		<stop  offset="0" style="stop-color:#A18550"/>
		<stop  offset="3.004478e-02" style="stop-color:#A78A54"/>
		<stop  offset="0.2365" style="stop-color:#CEAB6D"/>
		<stop  offset="0.405" style="stop-color:#E9C37F"/>
		<stop  offset="0.5134" style="stop-color:#F9CF87"/>
		<stop  offset="0.6224" style="stop-color:#E2BD7A"/>
		<stop  offset="0.8243" style="stop-color:#BA9A60"/>
		<stop  offset="0.943" style="stop-color:#A18550"/>
	</linearGradient>
	<path class="st5" d="M141.9,316.6c-2.2-2.3-6-5.5-10-10c-5.5-7.1-3-12.2-1.8-14.2c3.1-4,10.1-3,13.9-2
		c12.5,3.5,20.2,12.5,20.2,12.5l8.2-12.5c-8.5-7.6-15.4-10.4-20.6-12.4c-18-7.1-28.1-3.8-33.8-0.6c-11.9,7.4-9.9,20.1-9,24.6
		c2.4,11.5,13.2,19.2,23,27.8c14.6,11.8,15.4,18.2,15.6,20.2c0.8,14.2-10.5,12.6-15.8,11.8c-14.1-2.2-26.1-16.5-26.1-16.5l-11,13.6
		c19.5,22.1,46.5,21.1,51.3,20.6c23-4.6,22.4-19.8,22.4-28.2C168.1,336.1,144.6,319.4,141.9,316.6z"/>
	<linearGradient id="SVGID_4_" gradientUnits="userSpaceOnUse" x1="239.5432" y1="524.0563" x2="239.5432" y2="211.0163">
		<stop  offset="0" style="stop-color:#A18550"/>
		<stop  offset="3.004478e-02" style="stop-color:#A78A54"/>
		<stop  offset="0.2365" style="stop-color:#CEAB6D"/>
		<stop  offset="0.405" style="stop-color:#E9C37F"/>
		<stop  offset="0.5134" style="stop-color:#F9CF87"/>
		<stop  offset="0.6224" style="stop-color:#E2BD7A"/>
		<stop  offset="0.8243" style="stop-color:#BA9A60"/>
		<stop  offset="0.943" style="stop-color:#A18550"/>
	</linearGradient>
	<path class="st6" d="M275.9,319.9c-2.8-24.2-39.8-27-39.8-27l-25-1.5l-8.2,105l18,1.5c0,0,3-38.3,3-38.5c10.7,2,22.7,1.5,27.7,0.5
		C278.1,355.1,276.6,325.4,275.9,319.9z M257,333.3c-1.1,2.9-4,10.3-14.2,11.3c-3.6,0.5-17.2-1.5-17.2-1.5l2.5-34.2
		c0,0,18.9,0.5,25.6,7.5C257.1,320.9,259.1,326.1,257,333.3z"/>
	<linearGradient id="SVGID_5_" gradientUnits="userSpaceOnUse" x1="335.8024" y1="524.0563" x2="335.8024" y2="211.0163">
		<stop  offset="0" style="stop-color:#A18550"/>
		<stop  offset="3.004478e-02" style="stop-color:#A78A54"/>
		<stop  offset="0.2365" style="stop-color:#CEAB6D"/>
		<stop  offset="0.405" style="stop-color:#E9C37F"/>
		<stop  offset="0.5134" style="stop-color:#F9CF87"/>
		<stop  offset="0.6224" style="stop-color:#E2BD7A"/>
		<stop  offset="0.8243" style="stop-color:#BA9A60"/>
		<stop  offset="0.943" style="stop-color:#A18550"/>
	</linearGradient>
	<path class="st7" d="M325.2,295.8c-3.1,0.6-28.2,5.9-29.8,36.2c0.4,8.4,4.9,71.1,4.9,71.1l15.2-1l-2.4-27.9l44.6-4.9l3.2,27.8
		l15-2.2l-10.2-71.6C365.9,323.3,358.9,291.7,325.2,295.8z M311.5,354.2c0,0-1.6-21.6-1.6-23.1c3.4-14.4,16.4-16.8,20.1-17
		c18.9,0.2,22.2,13.6,22.2,13.6l3,21.6L311.5,354.2z"/>
	<linearGradient id="SVGID_6_" gradientUnits="userSpaceOnUse" x1="437.7399" y1="524.0563" x2="437.7399" y2="211.0163">
		<stop  offset="0" style="stop-color:#A18550"/>
		<stop  offset="3.004478e-02" style="stop-color:#A78A54"/>
		<stop  offset="0.2365" style="stop-color:#CEAB6D"/>
		<stop  offset="0.405" style="stop-color:#E9C37F"/>
		<stop  offset="0.5134" style="stop-color:#F9CF87"/>
		<stop  offset="0.6224" style="stop-color:#E2BD7A"/>
		<stop  offset="0.8243" style="stop-color:#BA9A60"/>
		<stop  offset="0.943" style="stop-color:#A18550"/>
	</linearGradient>
	<polygon class="st8" points="434.6,360.2 414.6,278.8 399.7,284.2 423.5,382.8 475.7,362.3 471.4,346.2 	"/>
	<linearGradient id="SVGID_7_" gradientUnits="userSpaceOnUse" x1="493.8649" y1="524.0563" x2="493.8649" y2="211.0163">
		<stop  offset="0" style="stop-color:#A18550"/>
		<stop  offset="3.004478e-02" style="stop-color:#A78A54"/>
		<stop  offset="0.2365" style="stop-color:#CEAB6D"/>
		<stop  offset="0.405" style="stop-color:#E9C37F"/>
		<stop  offset="0.5134" style="stop-color:#F9CF87"/>
		<stop  offset="0.6224" style="stop-color:#E2BD7A"/>
		<stop  offset="0.8243" style="stop-color:#BA9A60"/>
		<stop  offset="0.943" style="stop-color:#A18550"/>
	</linearGradient>
	<circle class="st9" cx="493.9" cy="341.3" r="10.5"/>
	<linearGradient id="SVGID_8_" gradientUnits="userSpaceOnUse" x1="396.2002" y1="524.0563" x2="396.2002" y2="211.0163">
		<stop  offset="0" style="stop-color:#A18550"/>
		<stop  offset="3.004478e-02" style="stop-color:#A78A54"/>
		<stop  offset="0.2365" style="stop-color:#CEAB6D"/>
		<stop  offset="0.405" style="stop-color:#E9C37F"/>
		<stop  offset="0.5134" style="stop-color:#F9CF87"/>
		<stop  offset="0.6224" style="stop-color:#E2BD7A"/>
		<stop  offset="0.8243" style="stop-color:#BA9A60"/>
		<stop  offset="0.943" style="stop-color:#A18550"/>
	</linearGradient>
	<circle class="st10" cx="396.2" cy="378.7" r="10.5"/>
	<linearGradient id="SVGID_9_" gradientUnits="userSpaceOnUse" x1="269.1435" y1="524.0563" x2="269.1435" y2="211.0163">
		<stop  offset="0" style="stop-color:#A18550"/>
		<stop  offset="3.004478e-02" style="stop-color:#A78A54"/>
		<stop  offset="0.2365" style="stop-color:#CEAB6D"/>
		<stop  offset="0.405" style="stop-color:#E9C37F"/>
		<stop  offset="0.5134" style="stop-color:#F9CF87"/>
		<stop  offset="0.6224" style="stop-color:#E2BD7A"/>
		<stop  offset="0.8243" style="stop-color:#BA9A60"/>
		<stop  offset="0.943" style="stop-color:#A18550"/>
	</linearGradient>
	<circle class="st11" cx="269.1" cy="391.3" r="10.5"/>
	<linearGradient id="SVGID_10_" gradientUnits="userSpaceOnUse" x1="179.6886" y1="524.0563" x2="179.6886" y2="211.0163">
		<stop  offset="0" style="stop-color:#A18550"/>
		<stop  offset="3.004478e-02" style="stop-color:#A78A54"/>
		<stop  offset="0.2365" style="stop-color:#CEAB6D"/>
		<stop  offset="0.405" style="stop-color:#E9C37F"/>
		<stop  offset="0.5134" style="stop-color:#F9CF87"/>
		<stop  offset="0.6224" style="stop-color:#E2BD7A"/>
		<stop  offset="0.8243" style="stop-color:#BA9A60"/>
		<stop  offset="0.943" style="stop-color:#A18550"/>
	</linearGradient>
	<circle class="st12" cx="179.7" cy="380.8" r="10.5"/>
</g>
</svg>
