<?xml version="1.0" encoding="utf-8"?>
<!-- Generator: Adobe Illustrator 18.1.1, SVG Export Plug-In . SVG Version: 6.00 Build 0)  -->
<!DOCTYPE svg PUBLIC "-//W3C//DTD SVG 1.1//EN" "http://www.w3.org/Graphics/SVG/1.1/DTD/svg11.dtd">
<svg version="1.1" id="Ebene_1" xmlns="http://www.w3.org/2000/svg" xmlns:xlink="http://www.w3.org/1999/xlink" x="0px" y="0px"
	 width="100px" height="100px" viewBox="-699 201 100 100" enable-background="new -699 201 100 100" xml:space="preserve">
<path fill="#175791" d="M-666.2,240.5v19.4c0,20,17,22.6,17.1,22.6h0.1h0.1c0.2,0,17.1-2.7,17.1-22.6v-19.4H-666.2z"/>
<path fill="#009EE0" d="M-649.2,282.1c0,0-16.8-2.4-16.8-22.3v-19h33.6v19C-632.2,279.7-649.2,282.1-649.2,282.1z"/>
<path fill="#175791" d="M-664.8,242v17.8c0,17.7,14,20.8,15.6,21.1h0.1h0.1c1.6-0.3,15.6-3.4,15.6-21.1V242L-664.8,242L-664.8,242z"
	/>
<path fill="#FFFFFF" d="M-633.8,242.4c0,2.6,0,17.5,0,17.5c0,17.3-13.3,20.3-15.3,20.7c-1.9-0.4-15.3-3.4-15.3-20.7
	c0,0,0-14.9,0-17.5C-661.8,242.4-636.5,242.4-633.8,242.4z"/>
<path fill="#175791" d="M-661.3,252.2v6.9c0,13.6,9.3,16.9,12.1,17.5h0.1h0.1c2.8-0.7,12.1-4,12.1-17.5v-6.9L-661.3,252.2
	L-661.3,252.2z"/>
<path fill="#009EE0" d="M-645,252.6v22l0,0V252.6C-644.8,252.6-645,252.6-645,252.6z"/>
<path fill="#009EE0" d="M-653,252.6v22.1l0,0V252.6L-653,252.6z"/>
<path fill="#009EE0" d="M-661,252.6c0,3.1,0,6.5,0,6.5c0,9.1,4.3,13.5,7.8,15.6v-22.1C-656,252.6-658.8,252.6-661,252.6z"/>
<path fill="#FFFFFF" d="M-653,252.6v22.1c1.6,0.9,3.1,1.4,3.9,1.6c0.9-0.2,2.5-0.7,4.2-1.7v-22C-647.5,252.6-650.3,252.6-653,252.6z
	"/>
<path fill="#009EE0" d="M-637.2,259.1c0,0,0-3.4,0-6.5c-2,0-4.7,0-7.6,0v21.9C-641.3,272.4-637.2,268-637.2,259.1z"/>
<path fill="#175791" d="M-658.5,246.2l-0.3,1.3h-0.1c0-0.2-0.1-0.4-0.1-0.5c-0.1-0.2-0.2-0.3-0.3-0.4c-0.1-0.1-0.3-0.1-0.4-0.1
	s-0.3,0.1-0.4,0.2c-0.1,0.1-0.2,0.2-0.2,0.4c0,0.1,0,0.3,0.1,0.4c0.1,0.1,0.2,0.3,0.5,0.6c0.2,0.2,0.4,0.4,0.4,0.6
	c0.1,0.2,0.1,0.3,0.1,0.5s-0.1,0.4-0.2,0.6c-0.1,0.2-0.3,0.3-0.5,0.4c-0.2,0.1-0.4,0.1-0.7,0.1c-0.2,0-0.4,0-0.6-0.1
	c-0.2,0-0.4-0.1-0.5-0.1c-0.1,0-0.1,0-0.2,0c0,0-0.1,0.1-0.2,0.1h-0.1l0.3-1.5h0.1c0,0.3,0.1,0.5,0.1,0.7c0.1,0.2,0.2,0.3,0.3,0.4
	c0.1,0.1,0.3,0.2,0.5,0.2s0.3-0.1,0.4-0.2c0.1-0.1,0.2-0.3,0.2-0.4c0-0.1,0-0.3-0.1-0.4c-0.1-0.1-0.2-0.3-0.5-0.6
	c-0.2-0.2-0.4-0.5-0.5-0.7c-0.1-0.1-0.1-0.3-0.1-0.5c0-0.3,0.1-0.5,0.3-0.7c0.2-0.2,0.5-0.3,0.8-0.3c0.2,0,0.4,0,0.6,0.1
	c0.1,0,0.3,0.1,0.3,0.1c0.1,0,0.1,0,0.1,0l0.1-0.1L-658.5,246.2L-658.5,246.2z"/>
<path fill="#175791" d="M-658.2,249.3c0.1,0,0.2,0,0.3,0.1c0.1,0.1,0.1,0.2,0.1,0.3s0,0.2-0.1,0.3c-0.1,0.1-0.2,0.1-0.3,0.1
	c-0.1,0-0.2,0-0.3-0.1s-0.1-0.2-0.1-0.3s0-0.2,0.1-0.3C-658.5,249.3-658.3,249.3-658.2,249.3z"/>
<path fill="#175791" d="M-654,246.2l-0.3,1.3h-0.1c0-0.2-0.1-0.4-0.1-0.5c-0.1-0.2-0.2-0.3-0.3-0.4c-0.1-0.1-0.3-0.1-0.4-0.1
	s-0.3,0.1-0.4,0.2c-0.1,0.1-0.2,0.2-0.2,0.4c0,0.1,0,0.3,0.1,0.4c0.1,0.1,0.2,0.3,0.5,0.6c0.2,0.2,0.4,0.4,0.4,0.6
	c0.1,0.2,0.1,0.3,0.1,0.5s-0.1,0.4-0.2,0.6c-0.1,0.2-0.3,0.3-0.5,0.4c-0.2,0.1-0.4,0.1-0.7,0.1c-0.2,0-0.4,0-0.6-0.1
	c-0.2,0-0.4-0.1-0.5-0.1c-0.1,0-0.1,0-0.2,0c0,0-0.1,0.1-0.2,0.1h-0.1l0.3-1.5h0.1c0,0.3,0.1,0.5,0.1,0.7c0.1,0.2,0.2,0.3,0.3,0.4
	c0.1,0.1,0.3,0.2,0.5,0.2s0.3-0.1,0.4-0.2c0.1-0.1,0.2-0.3,0.2-0.4c0-0.1,0-0.3-0.1-0.4c-0.1-0.1-0.2-0.3-0.5-0.6
	c-0.2-0.2-0.4-0.5-0.5-0.7c-0.1-0.1-0.1-0.3-0.1-0.5c0-0.3,0.1-0.5,0.3-0.7c0.2-0.2,0.5-0.3,0.8-0.3c0.2,0,0.4,0,0.6,0.1
	c0.1,0,0.3,0.1,0.3,0.1c0.1,0,0.1,0,0.1,0l0.1-0.1L-654,246.2L-654,246.2z"/>
<path fill="#175791" d="M-653.8,249.3c0.1,0,0.2,0,0.3,0.1c0.1,0.1,0.1,0.2,0.1,0.3s0,0.2-0.1,0.3c-0.1,0.1-0.2,0.1-0.3,0.1
	s-0.2,0-0.3-0.1c-0.1-0.1-0.1-0.2-0.1-0.3s0-0.2,0.1-0.3C-654,249.3-653.8,249.3-653.8,249.3z"/>
<path fill="#175791" d="M-650,250.1h-2.9V250c0.2,0,0.3,0,0.4-0.1c0.1-0.1,0.2-0.2,0.2-0.5l0.7-2.5c0-0.1,0.1-0.2,0.1-0.3
	s0-0.1-0.1-0.2c-0.1,0-0.2-0.1-0.3-0.1v-0.1h1.8v0.1c-0.2,0-0.3,0-0.4,0.1c-0.1,0.1-0.2,0.2-0.2,0.5l-0.6,2.2
	c-0.1,0.3-0.1,0.5-0.1,0.5s0,0.1,0.1,0.1c0,0,0.1,0,0.2,0c0.3,0,0.6-0.1,0.9-0.2s0.5-0.4,0.7-0.6h0.1L-650,250.1z"/>
<path fill="#175791" d="M-648,248.6l1-1.2l-0.1,1.2H-648z M-647.2,249.4c0,0.2,0,0.4-0.1,0.4c0,0.1-0.1,0.1-0.1,0.2c0,0-0.1,0-0.3,0
	v0.1h1.6V250c-0.1,0-0.2,0-0.2-0.1s-0.1-0.2-0.1-0.3c0,0,0-0.1,0-0.3l0.1-3.1h-0.1l-2.6,3.2c-0.2,0.2-0.3,0.4-0.4,0.5
	c-0.1,0.1-0.2,0.1-0.3,0.1v0.1h1.1V250c-0.1,0-0.2,0-0.2-0.1l-0.1-0.1v-0.1c0-0.1,0.1-0.1,0.1-0.2l0.3-0.3l0.2-0.3h1.1V249.4z"/>
<path fill="#175791" d="M-642,246.4l-2.8,3.5h0.2c0.4,0,0.8-0.1,1.1-0.2c0.3-0.1,0.5-0.4,0.7-0.7h0.1l-0.4,1.1h-2.8V250l2.8-3.5
	h-0.3c-0.4,0-0.8,0.1-1,0.2c-0.2,0.1-0.4,0.3-0.5,0.6h-0.1l0.3-1h2.8L-642,246.4L-642,246.4z"/>
<path fill="#175791" d="M-641.5,246.4L-641.5,246.4l1.8-0.1v0.1c-0.2,0-0.3,0-0.4,0.1c-0.1,0.1-0.2,0.2-0.2,0.5l-0.7,2.4
	c0,0.2-0.1,0.3-0.1,0.3c0,0.1,0,0.1,0.1,0.2c0.1,0,0.2,0.1,0.4,0.1v0.1h-1.8V250c0.2,0,0.3,0,0.4-0.1c0.1-0.1,0.2-0.2,0.2-0.5
	l0.7-2.4c0-0.2,0.1-0.3,0.1-0.3c0-0.1,0-0.1-0.1-0.2C-641.2,246.4-641.3,246.4-641.5,246.4z"/>
<path fill="#175791" d="M-637.2,246.6c0.1,0.1,0.1,0.3,0.1,0.6c0,0.4-0.1,0.9-0.3,1.4c-0.2,0.5-0.4,0.9-0.7,1.2
	c-0.1,0.1-0.3,0.2-0.5,0.2c-0.1,0-0.3-0.1-0.4-0.2c-0.1-0.1-0.1-0.3-0.1-0.5c0-0.3,0-0.6,0.1-1c0.1-0.4,0.2-0.7,0.3-0.9
	c0.1-0.2,0.2-0.4,0.3-0.5c0.1-0.1,0.2-0.2,0.3-0.3s0.2-0.1,0.4-0.1C-637.5,246.4-637.2,246.5-637.2,246.6z M-637.5,249.9
	c0.4-0.2,0.7-0.6,1-1c0.3-0.5,0.4-0.9,0.4-1.4c0-0.2-0.1-0.4-0.2-0.6c-0.1-0.2-0.3-0.4-0.5-0.5c-0.2-0.1-0.4-0.2-0.6-0.2
	c-0.4,0-0.8,0.1-1.1,0.4c-0.4,0.3-0.7,0.6-0.9,1s-0.3,0.8-0.3,1.3c0,0.2,0,0.4,0.1,0.6c0.1,0.2,0.2,0.4,0.4,0.5
	c0.2,0.1,0.4,0.2,0.7,0.2C-638.2,250.2-637.8,250.1-637.5,249.9z"/>
<path fill="#D9B300" d="M-696,219.5c0,0,2.7,4.1,7.2,4.1c0,0,1.1,2.6,5.2,2.6c0,0,0.6,2.3,4,2.3c0,0,0.6,1.7,3.7,1.7
	c0,0,0.3,1.2,2.9,1.2c0,0,1.5,1.7,4.1,1.7c0,0,0.6,1.2,2.6,1.2c0,0,0.9,1.2,2.3,1.2c0,0,0.8,1.2,2,1.2c0,0,1,1.8,4.9,1.8
	c0,0-0.9,1.1-2.5,1.1c0,0,0.1,0.6,0.8,0.8c0,0-0.5,0.6-1.4,0.6c0,0,0.6,1.4,2.3,1.4c1.7,0,1.3-0.5,2.6,0c0,0,0.9,0.7-0.3,1.4
	c0,0,0.8,0.2,1.7-1.1c0,0,0.5,0.5-0.1,1.1c0,0,1,0.1,1.7-1.4c0,0,1.2,0.5,0,1.4c0,0,1.2,0.1,1.8-1.4c0,0,1-0.4,1.7,0
	c0.6,0.4-0.6,1.4-0.6,1.4s1.4,0.5,1.8-1.4c0,0,1.3,0,0.5,1.4c0,0,1.2,0,1.2-1.4c0,0,1.9,0,0.8,1.3c0,0,1.6,0,1.5-2.3
	c0,0-0.1-0.9-1.1-0.9c0,0,1.8-0.4,2.6-2.1c0,0,1.4,0.7,2.8,0c0,0,1.8,0.2,2.6-1.4c0,0,1.5,0.2,2.3-1.4c0,0,1.7,0.1,2.9-1.4
	c0,0,1.5,0.1,2.4-1.2c0,0,2.8,0.2,3.6-1.4c0,0,2.5,0.4,3.5-1.4c0,0,2.3,0.3,3.5-1.7c0,0,2.7,0.3,4.3-2c0,0,3.3,0.3,4.9-2.3
	c0,0,4.7,0.5,7.2-4.4H-635c0,0-3.9-0.1-6.6,2.6c0,0-4.2,4.9-7.6,4.9c0,0-1.7,0.5-5.6-3.5c0,0-3.5-4-8.3-4L-696,219.5L-696,219.5z"/>
<path fill="#FFFFFF" d="M-655.5,241.4c0,0,0.7,0.2,0.7,0.8c0,0,0.4-0.6-0.2-1.1L-655.5,241.4z"/>
<path fill="#FFFFFF" d="M-654,241.4c0,0,1,0.3,1,0.9c0,0,0.2-0.7-0.5-1.2L-654,241.4z"/>
<path fill="#FFFFFF" d="M-648.7,241.4c0,0,0.6,0.2,0.6,0.7c0,0,0.5-0.6-0.1-1L-648.7,241.4z"/>
<path fill="#FFFFFF" d="M-652.2,241.4c0,0,1.1,0.4,0.7,0.8c0,0,1.2-0.6-0.1-1.1L-652.2,241.4z"/>
<path fill="#FFFFFF" d="M-647,241.4c0,0,0.6,0.2,0.6,0.7c0,0,0.6-0.6,0-1.3C-646.3,240.8-647,241-647,241.4z"/>
<path fill="#FFFFFF" d="M-645.5,241.4c0,0,0.9,0.2,0.8,0.5c0,0,0.5-0.4,0-1.1C-644.7,240.8-645.3,240.7-645.5,241.4z"/>
<path fill="#FFFFFF" d="M-651.2,240.8l0.9-0.8c0,0,0.4,0.3,2,0.3C-648.5,240.2-648.3,240.8-651.2,240.8z"/>
<path fill="#FFFFFF" d="M-658.5,240.8l0.7-0.7c0,0-0.1,0.1,2.1,0.1C-655.7,240.3-655.8,240.8-658.5,240.8z"/>
<path fill="#FFFFFF" d="M-657.3,239.6l2.3-1.4c0,0,2.1-1.2,3.2-1.2c0,0,1.6,0,1.6,1.2c0,0,0,1.4-3.4,1.4
	C-653.8,239.6-657.2,239.8-657.3,239.6z"/>
<path fill="#FFFFFF" d="M-649.5,239.6l4-2.9c0,0,0.5-0.3,1.3-0.3c0,0,0.8,0,0.8,0.6c0,0,0.2,2.3-4.2,2.7
	C-647.5,239.8-648.8,239.9-649.5,239.6z"/>
<path fill="#FFFFFF" d="M-649,236.8c0,0,2,0.1,2.3-1.2c0,0-0.1,0.4-1.6,0.4L-649,236.8z"/>
<path fill="#FFFFFF" d="M-652.2,236.5l0.3-0.5c0,0,1.2,0.1,1.4-0.6l1.1,0.6C-649.2,235.9-649.2,237.4-652.2,236.5z"/>
<path fill="#FFFFFF" d="M-655.7,236.5l0.6-0.8h1.1c0,0,0.1,0.3,0.9,0.3C-653,235.9-653,236.8-655.7,236.5z"/>
<path fill="#FFFFFF" d="M-645.8,235.9c0,0,0.9-0.6,0.9-1.7c0,0,0,0-0.8,0.3C-645.8,234.5-646.5,235.8-645.8,235.9z"/>
<path fill="#FFFFFF" d="M-649.2,234.8c0,0,0.2,1.3,2.6,0.3l-0.2-0.6L-649.2,234.8z"/>
<path fill="#FFFFFF" d="M-653.7,233.6c0,0,0,0.3,0.6,0.3c0,0-0.2,0.9-1.7,0.8C-654.8,234.8-654.5,234-653.7,233.6z"/>
<path fill="#FFFFFF" d="M-653.3,235.1c0,0,0.6,0.6,2.6,0l-0.6-0.8C-651.3,234.2-652.8,234.3-653.3,235.1z"/>
<path fill="#FFFFFF" d="M-651.5,232.8c0,0,0.3,0.3,1,0.3c0,0-1.3,1.4-2.2,0.3L-651.5,232.8z"/>
<path fill="#FFFFFF" d="M-650.2,234.2c0,0,1.9,0.2,2.6-0.8l-0.9-0.6C-648.5,232.8-650.2,233.4-650.2,234.2z"/>
<path fill="#FFFFFF" d="M-645,235.9c0,0,1.2,0,2.3-1.2c0,0,0-0.4-0.6-0.6c0,0-0.5,0-0.8,0.3C-644,234.5-644.8,235.6-645,235.9z"/>
<path fill="#FFFFFF" d="M-644.7,232.5c0,0,0.3,0.3,0.3,1.4h1.1c0,0-0.8-0.5-0.9-1.4H-644.7z"/>
<path fill="#FFFFFF" d="M-645.2,232.5c0,0,0,0.6,0.3,0.8c0,0-0.4,0.8-2,0.6l0.6-0.8L-645.2,232.5z"/>
<path fill="#FFFFFF" d="M-647.2,232.5l0.6-0.8c0,0,0.8,0.1,1.7-0.3C-645,231.3-645.2,232.5-647.2,232.5z"/>
<path fill="#FFFFFF" d="M-647,230.5l0.6-0.6c0,0,0.1,0.3,1.4,0.3C-645,230.2-646.3,231.9-647,230.5z"/>
<path fill="#FFFFFF" d="M-648.2,231l0.6,0.6c0,0-0.3,0.9-2.9,0.9l0.3-0.8C-650.2,231.6-648.3,231.8-648.2,231z"/>
<path fill="#FFFFFF" d="M-660.8,229.9c0,0,0.2,0.6,0.8,0.8h8.9c0,0,0.8,0.7,2.9,0c0,0,0.6-0.1,0.9-1.1c0,0-0.3,0.1-0.6-0.6
	c0,0-1.3,0-2.3,0.9L-660.8,229.9L-660.8,229.9z"/>
<path fill="#FFFFFF" d="M-662.2,229.9c0.4,0.6,0.9,0.8,0.9,0.8h-11.2c0,0-1,0-1.7-0.8H-662.2z"/>
<path fill="#FFFFFF" d="M-660,231.3c0.1,0.7,0.6,0.8,0.6,0.8h-10.3c0,0-0.6,0-1.2-0.8H-660z"/>
<path fill="#FFFFFF" d="M-658.5,231.3c0,0,0.2,0.6,0.8,0.8h4.7l-0.3,0.6c0,0,1.8,0.2,2.3-1.4L-658.5,231.3L-658.5,231.3z"/>
<path fill="#FFFFFF" d="M-667.5,232.8c0,0,0.6,0.7,1.2,0.8h9.2c0,0-0.5-0.1-0.8-0.8H-667.5z"/>
<path fill="#FFFFFF" d="M-656.8,232.8c0,0,0.1,0.5,0.8,0.8h1.2c0.6-0.2,0.6-0.8,0.6-0.8H-656.8z"/>
<path fill="#FFFFFF" d="M-664.8,234.2c0,0,0.1,0.3,0.6,0.6h8.9c0,0,0.3-0.1,0.3-0.6H-664.8z"/>
<path fill="#FFFFFF" d="M-662.8,235.4c0,0,0,0.2,0.3,0.5h6.3c0.3,0,0.3-0.6,0.3-0.6L-662.8,235.4z"/>
<path fill="#FFFFFF" d="M-660.8,236.5c0,0,0.3,0.5,0.9,0.6h2.5c0.4-0.2,0.3-0.6,0.3-0.6H-660.8z"/>
<path fill="#FFFFFF" d="M-646.2,227.3h14.4c0,0,1-0.3,1.5-1.1h-12.4l1.5-1.5h13.5c0,0,1.1-0.1,1.7-1.1h-13.5c0,0,1.5-1.5,2.5-1.5
	h14.8c0,0,1.1-0.2,1.7-1.4H-636c0,0-2.7,0.2-5.4,2.9C-641.5,223.6-643.8,226.3-646.2,227.3z"/>
<path fill="#FFFFFF" d="M-619,220.7c0,0-0.2,0.9-1.4,1.4h13.5c0,0,1.5-0.4,2-1.4H-619z"/>
<path fill="#FFFFFF" d="M-624.5,223.6c0,0,0,0.6-1.2,1.1h12.9c0,0,1.3-0.1,1.7-1.1H-624.5z"/>
<path fill="#FFFFFF" d="M-628.8,226.1c0,0,0,0.6-1.1,1.1h11.8c0,0,1.3,0.1,2.3-1.1H-628.8z"/>
<path fill="#FFFFFF" d="M-634.3,227.9c0,0,0.3,0.5,0.3,1.2h11.5c0,0,1.7,0.2,2.6-1.2H-634.3z"/>
<path fill="#FFFFFF" d="M-677.8,228.2c0,0,0.2,0.7,1.2,0.8h11.5c0,0-0.5-0.2-0.9-0.8H-677.8z"/>
<path fill="#FFFFFF" d="M-681.8,226.2c0,0,0.5,1.1,1.7,1.1h12.1c0,0-0.9-0.4-1.1-1.1H-681.8z"/>
<path fill="#FFFFFF" d="M-687,223.5c0,0,0.7,1.2,1.7,1.2h12.9c0,0-0.8-0.3-1.2-1.1L-687,223.5z"/>
<path fill="#FFFFFF" d="M-692.8,220.7c0,0,0.6,1.4,2,1.4h13.2c0,0-1-0.6-1.2-1.4C-678.7,220.7-692.8,220.7-692.8,220.7z"/>
<path fill="#FFFFFF" d="M-648.2,227.9v0.8c0,0-1.7,0-2,0.6h-0.4c0,0-0.4,0.1-0.5-0.3h-12c0,0-0.8,0-1.2-0.8h11.5l-0.9-0.9H-666
	c0,0-1.1-0.2-1.5-1.1h12.4l-1.5-1.5H-670c0,0-1.1-0.1-1.5-1.1h13.3c0,0-1.3-1.5-2.5-1.5h-14.7c0,0-1.4-0.1-1.7-1.4h15.3
	c0,0,2.8,0,6.3,3.5c0,0,3.5,3.7,5.5,3.7H-648.2L-648.2,227.9z"/>
<path fill="#FFFFFF" d="M-630.2,229.9c0,0,0.3,0.2,0.3,0.8h5.2c0,0,0.7,0,1.2-0.8H-630.2z"/>
<path fill="#FFFFFF" d="M-630.2,232.2c0,0,0.5-0.3,0.6-0.8h2.8c0,0,0,0.7-0.9,0.8H-630.2z"/>
<path fill="#FFFFFF" d="M-640.3,233.6c0,0,0.7-0.2,1.2-0.8h8.6c0,0-0.5,0.8-1.5,0.8H-640.3z"/>
<path fill="#FFFFFF" d="M-641.8,234.8c0,0,0.4-0.1,0.6-0.6h8.1c0,0-0.1,0.6-0.6,0.6H-641.8z"/>
<path fill="#FFFFFF" d="M-643,235.9c0,0,0.3,0,0.6-0.6h7.2c0,0-0.1,0.5-0.6,0.6H-643z"/>
<path fill="#FFFFFF" d="M-641.2,236.5c0,0,0.2,0.2,0.3,0.6h3.1c0,0,0-0.3,0.3-0.6H-641.2z"/>
<path fill="#FFFFFF" d="M-635,229.6c0,0,0.2-1.7-1.7-1.7h-10.6c0,0,0.2,1.7,2.3,1.7h2c0,0-1.2,0.4-1.4,1.2h0.6c0,0-0.6,0.5-0.6,1.2
	h1.1c0,0-0.6,0.6,0,1.2c0,0,0.9,1,3.2-0.6c0,0,1-0.6,1.5-0.6c0,0,0.4,0,0.6,0.3h6.9c0,0-0.4-0.8-1.7-1.1h-4.4v-0.4h5.2
	c0,0,0.9,0,1.2,0.6c0,0-0.1-1.7-1.6-1.7L-635,229.6c0,0-0.9,0.9-1.7,0.9c0,0-0.9,0-0.9-0.6h-2.3c0,0,0.1-0.3,0.6-0.3L-635,229.6
	L-635,229.6z"/>
</svg>
