<?xml version="1.0" encoding="iso-8859-1"?>
<!-- Generator: Adobe Illustrator 19.0.0, SVG Export Plug-In . SVG Version: 6.00 Build 0)  -->
<svg version="1.1" id="Layer_1" xmlns="http://www.w3.org/2000/svg" xmlns:xlink="http://www.w3.org/1999/xlink" x="0px" y="0px"
	 viewBox="0 0 50 50" style="enable-background:new 0 0 50 50;" xml:space="preserve">
<g id="XMLID_1_">
	<path id="XMLID_171_" style="fill:#0056A0;" d="M49.668,25c0,13.625-11.043,24.668-24.684,24.668
		C11.375,49.668,0.332,38.625,0.332,25c0-13.625,11.043-24.668,24.652-24.668C38.625,0.332,49.668,11.375,49.668,25L49.668,25z"/>
	<path id="XMLID_170_" style="fill:#6F9BC6;" d="M17.005,2.758L2.758,17.006c1.166-3.235,3.033-6.206,5.537-8.71l0,0
		C10.8,5.791,13.77,3.925,17.005,2.758L17.005,2.758z"/>
	<path id="XMLID_169_" style="fill:#6C99C5;" d="M4.329,13.553l9.223-9.223c1.913-1.073,3.982-1.851,6.128-2.349l-17.7,17.7
		C2.478,17.534,3.272,15.466,4.329,13.553L4.329,13.553z"/>
	<path id="XMLID_168_" style="fill:#6A97C4;" d="M2.758,17.006L17.005,2.758c1.602-0.575,3.266-0.964,4.977-1.182L1.576,21.983
		C1.794,20.272,2.183,18.608,2.758,17.006L2.758,17.006z"/>
	<path id="XMLID_167_" style="fill:#6895C3;" d="M1.981,19.681l17.7-17.7c1.415-0.327,2.877-0.529,4.355-0.575l-22.63,22.63
		C1.452,22.558,1.654,21.096,1.981,19.681L1.981,19.681z"/>
	<path id="XMLID_166_" style="fill:#6695C3;" d="M1.576,21.983L21.983,1.576c0.995-0.14,2.006-0.202,3.002-0.202
		c0.311,0,0.622,0.016,0.933,0.016L1.405,25.918c-0.016-0.311-0.031-0.607-0.031-0.902V25C1.374,23.973,1.452,22.978,1.576,21.983
		L1.576,21.983z"/>
	<path id="XMLID_165_" style="fill:#6393C2;" d="M1.405,24.036l22.63-22.63c0.327-0.016,0.653-0.031,0.949-0.031
		c0.918,0,1.804,0.062,2.691,0.155L1.53,27.675c-0.093-0.887-0.156-1.773-0.156-2.66V25C1.374,24.673,1.39,24.362,1.405,24.036
		L1.405,24.036z"/>
	<path id="XMLID_164_" style="fill:#6191C2;" d="M1.405,25.918L25.918,1.39c1.151,0.047,2.286,0.171,3.406,0.389L1.778,29.324
		C1.576,28.204,1.436,27.069,1.405,25.918L1.405,25.918z"/>
	<path id="XMLID_163_" style="fill:#6290C1;" d="M1.53,27.675L27.675,1.53c1.089,0.124,2.147,0.311,3.204,0.591L2.121,30.864
		C1.841,29.822,1.654,28.764,1.53,27.675L1.53,27.675z"/>
	<path id="XMLID_162_" style="fill:#5F8EC0;" d="M1.778,29.324L29.324,1.779c1.027,0.187,2.022,0.436,3.018,0.762L2.541,32.341
		C2.214,31.346,1.965,30.35,1.778,29.324L1.778,29.324z"/>
	<path id="XMLID_161_" style="fill:#5D8CBF;" d="M2.121,30.864L30.879,2.121c0.964,0.233,1.913,0.544,2.846,0.918L3.038,33.726
		C2.665,32.792,2.369,31.844,2.121,30.864L2.121,30.864z"/>
	<path id="XMLID_160_" style="fill:#5B8ABE;" d="M2.541,32.341L32.341,2.541c0.918,0.296,1.82,0.653,2.706,1.073L3.614,35.048
		C3.194,34.161,2.836,33.259,2.541,32.341L2.541,32.341z"/>
	<path id="XMLID_159_" style="fill:#5988BD;" d="M3.038,33.726L33.725,3.038c0.887,0.358,1.742,0.762,2.566,1.213l-32.04,32.04
		C3.8,35.468,3.396,34.612,3.038,33.726L3.038,33.726z"/>
	<path id="XMLID_158_" style="fill:#5688BD;" d="M3.614,35.048L35.048,3.614c0.84,0.389,1.649,0.84,2.442,1.338L4.951,37.49
		C4.454,36.696,4.003,35.888,3.614,35.048L3.614,35.048z"/>
	<path id="XMLID_157_" style="fill:#5486BC;" d="M4.251,36.292l32.04-32.04c0.809,0.436,1.586,0.918,2.333,1.446L5.698,38.625
		C5.169,37.878,4.687,37.101,4.251,36.292L4.251,36.292z"/>
	<path id="XMLID_156_" style="fill:#5284BB;" d="M4.951,37.49L37.49,4.952c0.762,0.467,1.508,0.995,2.208,1.555L6.522,39.698
		C5.947,38.983,5.418,38.252,4.951,37.49L4.951,37.49z"/>
	<path id="XMLID_155_" style="fill:#4F82BA;" d="M5.698,38.625L38.625,5.698c0.731,0.513,1.431,1.073,2.1,1.68L7.378,40.725
		C6.787,40.056,6.227,39.356,5.698,38.625L5.698,38.625z"/>
	<path id="XMLID_154_" style="fill:#4D81B9;" d="M6.522,39.698L39.698,6.507c0.7,0.56,1.369,1.151,2.006,1.789l0,0L8.295,41.689
		C7.658,41.067,7.067,40.398,6.522,39.698L6.522,39.698z"/>
	<path id="XMLID_153_" style="fill:#4E7FB8;" d="M7.378,40.725L40.725,7.378c0.327,0.295,0.653,0.607,0.98,0.918
		c0.311,0.327,0.622,0.638,0.918,0.98L9.275,42.607c-0.327-0.295-0.653-0.591-0.98-0.918C7.984,41.378,7.673,41.052,7.378,40.725
		L7.378,40.725z"/>
	<path id="XMLID_152_" style="fill:#487EB8;" d="M8.295,41.689L41.704,8.295c0.622,0.638,1.229,1.307,1.773,2.006L10.302,43.478
		C9.602,42.933,8.933,42.327,8.295,41.689L8.295,41.689L8.295,41.689z"/>
	<path id="XMLID_151_" style="fill:#497CB7;" d="M9.275,42.607L42.622,9.275c0.591,0.669,1.151,1.369,1.664,2.1L11.375,44.286
		C10.644,43.773,9.944,43.213,9.275,42.607L9.275,42.607z"/>
	<path id="XMLID_150_" style="fill:#467CB7;" d="M10.302,43.478l33.176-33.176c0.575,0.7,1.089,1.447,1.571,2.209L12.51,45.049
		C11.748,44.566,11.002,44.053,10.302,43.478L10.302,43.478z"/>
	<path id="XMLID_149_" style="fill:#437AB6;" d="M11.375,44.286l32.912-32.911c0.544,0.747,1.026,1.524,1.462,2.317L13.692,45.748
		C12.899,45.313,12.122,44.831,11.375,44.286L11.375,44.286z"/>
	<path id="XMLID_148_" style="fill:#4179B5;" d="M12.51,45.049l32.538-32.538c0.498,0.793,0.949,1.602,1.338,2.442L14.952,46.386
		C14.112,45.982,13.304,45.546,12.51,45.049L12.51,45.049z"/>
	<path id="XMLID_147_" style="fill:#3E77B4;" d="M13.692,45.748l32.056-32.056c0.451,0.84,0.855,1.695,1.213,2.582L16.274,46.962
		C15.388,46.604,14.532,46.2,13.692,45.748L13.692,45.748z"/>
	<path id="XMLID_146_" style="fill:#3B76B3;" d="M14.952,46.386l31.434-31.434c0.42,0.871,0.778,1.789,1.073,2.706L17.659,47.46
		C16.741,47.148,15.839,46.791,14.952,46.386L14.952,46.386z"/>
	<path id="XMLID_145_" style="fill:#3D74B2;" d="M16.274,46.962l30.687-30.687c0.358,0.918,0.669,1.882,0.918,2.846L19.121,47.879
		C18.156,47.63,17.208,47.319,16.274,46.962L16.274,46.962z"/>
	<path id="XMLID_144_" style="fill:#3672B1;" d="M17.659,47.46l29.801-29.801c0.327,0.98,0.575,1.991,0.762,3.017L20.676,48.222
		C19.65,48.035,18.639,47.77,17.659,47.46L17.659,47.46z"/>
	<path id="XMLID_143_" style="fill:#3771B1;" d="M19.121,47.879l28.759-28.759c0.264,1.042,0.467,2.115,0.591,3.204L22.325,48.47
		C21.236,48.346,20.163,48.144,19.121,47.879L19.121,47.879z"/>
	<path id="XMLID_142_" style="fill:#3570B0;" d="M20.676,48.222l27.545-27.545c0.202,1.12,0.327,2.255,0.373,3.406L24.082,48.595
		C22.931,48.548,21.796,48.424,20.676,48.222L20.676,48.222z"/>
	<path id="XMLID_141_" style="fill:#306FB0;" d="M22.325,48.47L48.47,22.325c0.093,0.887,0.14,1.773,0.14,2.675
		c0,0.311,0,0.638-0.016,0.949L25.949,48.595C25.638,48.61,25.311,48.61,25,48.61h-0.016C24.098,48.61,23.211,48.564,22.325,48.47
		L22.325,48.47z"/>
	<path id="XMLID_140_" style="fill:#2D6EAF;" d="M24.082,48.595l24.512-24.512C48.61,24.393,48.61,24.689,48.61,25
		c0,1.011-0.062,2.022-0.187,3.018L28.017,48.424C27.022,48.548,26.011,48.61,25,48.61h-0.016
		C24.689,48.61,24.378,48.61,24.082,48.595L24.082,48.595z"/>
	<path id="XMLID_139_" style="fill:#2A6DAE;" d="M25.949,48.595l22.646-22.646c-0.062,1.493-0.249,2.94-0.575,4.371l-17.7,17.7
		C28.904,48.346,27.442,48.532,25.949,48.595L25.949,48.595z"/>
	<path id="XMLID_138_" style="fill:#276BAD;" d="M28.017,48.424l20.406-20.406c-0.218,1.711-0.622,3.375-1.182,4.977L32.994,47.242
		C31.392,47.802,29.728,48.206,28.017,48.424L28.017,48.424z"/>
	<path id="XMLID_137_" style="fill:#236AAC;" d="M30.319,48.019l17.7-17.7c-0.498,2.146-1.291,4.199-2.348,6.128l-9.223,9.223
		C34.534,46.728,32.466,47.522,30.319,48.019L30.319,48.019z"/>
	<path id="XMLID_136_" style="fill:#2068AB;" d="M32.994,47.242l14.247-14.247c-1.167,3.235-3.033,6.19-5.537,8.694
		C39.201,44.193,36.23,46.075,32.994,47.242L32.994,47.242z"/>
	<path id="XMLID_135_" style="fill:#2267AB;" d="M36.448,45.671l9.223-9.223c-1.058,1.898-2.395,3.671-3.966,5.242
		C40.118,43.275,38.345,44.613,36.448,45.671L36.448,45.671z"/>
	<path id="XMLID_134_" style="fill:#FFFFFF;" d="M6.896,25c0,9.985,8.119,18.104,18.089,18.104c10.001,0,18.12-8.119,18.12-18.104
		c0-9.985-8.119-18.12-18.12-18.12C15.015,6.88,6.896,15.015,6.896,25L6.896,25z"/>
	<path id="XMLID_133_" style="fill:#1893D2;" d="M7.58,25c0,9.597,7.823,17.404,17.404,17.404c9.612,0,17.42-7.808,17.42-17.404
		c0-9.597-7.808-17.42-17.42-17.42C15.403,7.58,7.58,15.403,7.58,25L7.58,25z"/>
	<path id="XMLID_132_" style="fill:#2A98D4;" d="M16.819,10.333l-6.486,6.486C11.857,14.113,14.112,11.857,16.819,10.333
		L16.819,10.333z"/>
	<path id="XMLID_131_" style="fill:#2899D5;" d="M19.307,9.198l-10.11,10.11C10.893,14.61,14.61,10.893,19.307,9.198L19.307,9.198z"
		/>
	<path id="XMLID_130_" style="fill:#2E99D5;" d="M10.333,16.819l6.486-6.486c1.369-0.762,2.831-1.338,4.402-1.695L8.638,21.205
		C8.995,19.65,9.571,18.188,10.333,16.819L10.333,16.819z"/>
	<path id="XMLID_129_" style="fill:#2C9BD6;" d="M9.197,19.307l10.11-10.11c1.12-0.404,2.318-0.7,3.546-0.855L8.342,22.854
		C8.498,21.625,8.793,20.427,9.197,19.307L9.197,19.307z"/>
	<path id="XMLID_128_" style="fill:#2C9BD6;" d="M8.638,21.205L21.22,8.638c0.995-0.233,2.037-0.373,3.095-0.42L8.218,24.316
		C8.264,23.258,8.404,22.216,8.638,21.205L8.638,21.205z"/>
	<path id="XMLID_127_" style="fill:#329BD6;" d="M8.342,22.854L22.854,8.342c0.7-0.093,1.415-0.14,2.131-0.14
		c0.233,0,0.451,0,0.669,0.016L8.218,25.653c-0.016-0.218-0.016-0.435-0.016-0.637V25C8.202,24.269,8.249,23.554,8.342,22.854
		L8.342,22.854z"/>
	<path id="XMLID_126_" style="fill:#309DD8;" d="M8.218,24.316L24.316,8.218c0.233-0.016,0.467-0.016,0.669-0.016
		c0.653,0,1.291,0.031,1.913,0.109L8.311,26.898c-0.078-0.622-0.109-1.26-0.109-1.882V25C8.202,24.767,8.202,24.549,8.218,24.316
		L8.218,24.316z"/>
	<path id="XMLID_125_" style="fill:#309DD8;" d="M8.218,25.653L25.653,8.218c0.824,0.031,1.633,0.124,2.411,0.264L8.482,28.064
		C8.342,27.271,8.249,26.478,8.218,25.653L8.218,25.653z"/>
	<path id="XMLID_124_" style="fill:#359DD8;" d="M8.311,26.898L26.898,8.311c0.777,0.078,1.54,0.218,2.271,0.42L8.731,29.168
		C8.529,28.437,8.389,27.675,8.311,26.898L8.311,26.898z"/>
	<path id="XMLID_123_" style="fill:#349ED9;" d="M8.482,28.064L28.064,8.482c0.731,0.14,1.446,0.327,2.146,0.544L9.026,30.21
		C8.809,29.511,8.622,28.795,8.482,28.064L8.482,28.064z"/>
	<path id="XMLID_122_" style="fill:#349ED9;" d="M8.731,29.168L29.168,8.731c0.7,0.171,1.369,0.389,2.022,0.653L9.384,31.19
		C9.12,30.537,8.902,29.868,8.731,29.168L8.731,29.168z"/>
	<path id="XMLID_121_" style="fill:#37A0DA;" d="M9.026,30.21L30.21,9.027c0.653,0.218,1.307,0.482,1.929,0.762L9.789,32.139
		C9.509,31.517,9.244,30.864,9.026,30.21L9.026,30.21z"/>
	<path id="XMLID_120_" style="fill:#37A0DA;" d="M9.384,31.19L31.19,9.384c0.638,0.249,1.244,0.544,1.836,0.855L10.255,33.026
		C9.929,32.435,9.633,31.828,9.384,31.19L9.384,31.19z"/>
	<path id="XMLID_119_" style="fill:#3CA1DA;" d="M9.789,32.139l22.35-22.351c0.591,0.296,1.182,0.607,1.742,0.949L10.753,33.866
		C10.395,33.321,10.084,32.73,9.789,32.139L9.789,32.139z"/>
	<path id="XMLID_118_" style="fill:#3BA2DB;" d="M10.255,33.026L33.026,10.24c0.575,0.327,1.12,0.669,1.649,1.042L11.282,34.674
		C10.908,34.146,10.566,33.601,10.255,33.026L10.255,33.026z"/>
	<path id="XMLID_117_" style="fill:#3BA2DB;" d="M10.753,33.866l23.128-23.128c0.544,0.342,1.057,0.715,1.571,1.12L11.857,35.452
		C11.453,34.939,11.08,34.426,10.753,33.866L10.753,33.866z"/>
	<path id="XMLID_116_" style="fill:#3EA4DC;" d="M11.282,34.674l23.393-23.393c0.529,0.373,1.026,0.762,1.508,1.198L12.479,36.183
		C12.044,35.701,11.655,35.203,11.282,34.674L11.282,34.674z"/>
	<path id="XMLID_115_" style="fill:#3EA4DC;" d="M11.857,35.452l23.595-23.595c0.498,0.404,0.964,0.824,1.415,1.275L13.133,36.867
		C12.681,36.416,12.262,35.95,11.857,35.452L11.857,35.452z"/>
	<path id="XMLID_114_" style="fill:#43A5DC;" d="M12.479,36.183l23.704-23.704c0.467,0.42,0.918,0.871,1.338,1.338L13.817,37.521
		C13.35,37.101,12.899,36.65,12.479,36.183L12.479,36.183z"/>
	<path id="XMLID_113_" style="fill:#41A6DD;" d="M13.133,36.867l23.735-23.735c0.451,0.436,0.871,0.918,1.275,1.415L14.548,38.143
		C14.05,37.739,13.584,37.318,13.133,36.867L13.133,36.867z"/>
	<path id="XMLID_112_" style="fill:#41A6DD;" d="M13.817,37.521l23.704-23.704c0.42,0.482,0.825,0.98,1.198,1.493L15.31,38.718
		C14.797,38.345,14.299,37.941,13.817,37.521L13.817,37.521z"/>
	<path id="XMLID_111_" style="fill:#40A8DE;" d="M14.548,38.143l23.595-23.595c0.389,0.498,0.762,1.027,1.104,1.571L16.119,39.247
		C15.574,38.905,15.046,38.532,14.548,38.143L14.548,38.143z"/>
	<path id="XMLID_110_" style="fill:#44A8DF;" d="M15.31,38.718L38.718,15.31c0.374,0.529,0.716,1.089,1.027,1.664l-22.77,22.77
		C16.399,39.434,15.839,39.092,15.31,38.718L15.31,38.718z"/>
	<path id="XMLID_109_" style="fill:#44A8DF;" d="M16.119,39.247l23.128-23.128c0.358,0.56,0.669,1.135,0.949,1.742L17.861,40.196
		C17.27,39.916,16.679,39.605,16.119,39.247L16.119,39.247z"/>
	<path id="XMLID_108_" style="fill:#47AAE0;" d="M16.974,39.745l22.77-22.77c0.327,0.591,0.607,1.198,0.871,1.82L18.794,40.6
		C18.172,40.351,17.565,40.071,16.974,39.745L16.974,39.745z"/>
	<path id="XMLID_107_" style="fill:#47AAE0;" d="M17.861,40.196l22.335-22.335c0.296,0.622,0.56,1.26,0.778,1.929L19.79,40.958
		C19.121,40.756,18.483,40.491,17.861,40.196L17.861,40.196z"/>
	<path id="XMLID_106_" style="fill:#46ACE1;" d="M18.794,40.6l21.822-21.806c0.249,0.653,0.482,1.338,0.653,2.038L20.832,41.269
		C20.132,41.098,19.463,40.864,18.794,40.6L18.794,40.6z"/>
	<path id="XMLID_105_" style="fill:#4AACE1;" d="M19.79,40.958L40.973,19.79c0.218,0.684,0.405,1.4,0.544,2.131L21.936,41.518
		C21.205,41.378,20.489,41.191,19.79,40.958L19.79,40.958z"/>
	<path id="XMLID_104_" style="fill:#4CACDE;" d="M20.832,41.269l20.438-20.437c0.186,0.731,0.327,1.493,0.42,2.271L23.102,41.689
		C22.325,41.596,21.563,41.456,20.832,41.269L20.832,41.269z"/>
	<path id="XMLID_103_" style="fill:#4AADDF;" d="M21.936,41.518L41.518,21.92c0.14,0.793,0.233,1.602,0.265,2.426L24.347,41.782
		C23.522,41.751,22.714,41.658,21.936,41.518L21.936,41.518z"/>
	<path id="XMLID_102_" style="fill:#4EAEDF;" d="M23.102,41.689l18.587-18.587c0.078,0.622,0.109,1.26,0.109,1.898
		c0,0.218,0,0.451-0.015,0.684L25.684,41.782c-0.233,0.016-0.467,0.016-0.684,0.016h-0.016
		C24.362,41.798,23.725,41.751,23.102,41.689L23.102,41.689z"/>
	<path id="XMLID_101_" style="fill:#4EAEDF;" d="M24.347,41.782l17.436-17.436c0.015,0.218,0.015,0.436,0.015,0.653
		c0,0.715-0.047,1.431-0.14,2.146L27.146,41.658c-0.7,0.093-1.431,0.14-2.146,0.14h-0.016
		C24.782,41.798,24.564,41.798,24.347,41.782L24.347,41.782z"/>
	<path id="XMLID_100_" style="fill:#4DAFE0;" d="M25.684,41.782l16.098-16.098c-0.047,1.058-0.187,2.1-0.42,3.095L28.779,41.362
		C27.784,41.596,26.742,41.736,25.684,41.782L25.684,41.782z"/>
	<path id="XMLID_99_" style="fill:#51B0E0;" d="M27.146,41.658l14.512-14.512c-0.156,1.229-0.451,2.411-0.855,3.546l-10.11,10.11
		C29.557,41.207,28.375,41.502,27.146,41.658L27.146,41.658z"/>
	<path id="XMLID_98_" style="fill:#50B1E1;" d="M28.779,41.362L41.362,28.78c-0.358,1.555-0.933,3.033-1.695,4.386l-6.502,6.501
		C31.812,40.429,30.335,41.005,28.779,41.362L28.779,41.362z"/>
	<path id="XMLID_97_" style="fill:#50B1E1;" d="M30.693,40.802l10.11-10.11C39.107,35.374,35.374,39.107,30.693,40.802
		L30.693,40.802z"/>
	<path id="XMLID_96_" style="fill:#54B2E2;" d="M33.166,39.667l6.502-6.501C38.143,35.888,35.888,38.143,33.166,39.667
		L33.166,39.667z"/>
	<polygon id="XMLID_95_" style="fill:#D4DCEC;" points="15.528,14.641 14.719,15.45 14.719,14.641 15.528,14.641 	"/>
	<path id="XMLID_94_" style="fill:#D4DCEC;" d="M16.352,14.641l-0.933,0.933c-0.124-0.047-0.264-0.078-0.42-0.078h-0.28v-0.855
		H16.352L16.352,14.641z"/>
	<path id="XMLID_93_" style="fill:#D6DFED;" d="M14.719,15.45l0.809-0.809h1.649l-1.244,1.244c-0.249-0.249-0.576-0.389-0.933-0.389
		h-0.28V15.45L14.719,15.45z"/>
	<path id="XMLID_92_" style="fill:#DEE3F0;" d="M15.419,15.575l0.933-0.933h1.649l-1.695,1.695l-0.296-0.358
		C15.854,15.792,15.652,15.652,15.419,15.575L15.419,15.575z"/>
	<path id="XMLID_91_" style="fill:#E0E4F0;" d="M15.932,15.886l1.244-1.244h1.649l-2.146,2.131l-0.311-0.373l-0.358-0.42
		C15.979,15.948,15.963,15.917,15.932,15.886L15.932,15.886z"/>
	<polygon id="XMLID_90_" style="fill:#E5E7F1;" points="16.306,16.337 18.001,14.641 19.65,14.641 17.052,17.223 16.368,16.399 
		16.306,16.337 	"/>
	<polygon id="XMLID_89_" style="fill:#EAEBF4;" points="16.679,16.772 18.825,14.641 20.474,14.641 17.332,17.768 17.332,17.55 
		16.679,16.772 	"/>
	<polygon id="XMLID_88_" style="fill:#F0EFF6;" points="17.052,17.223 19.65,14.641 21.08,14.641 21.174,14.75 17.332,18.592 
		17.332,17.55 17.052,17.223 	"/>
	<polygon id="XMLID_87_" style="fill:#F6F4F9;" points="17.332,17.768 20.474,14.641 21.08,14.641 21.547,15.201 17.332,19.416 
		17.332,17.768 	"/>
	<polygon id="XMLID_86_" style="fill:#FEF9FB;" points="17.332,18.592 21.174,14.75 21.92,15.652 17.332,20.241 17.332,18.592 	"/>
	<path id="XMLID_85_" style="fill:#FEF9FB;" d="M17.332,19.416l4.215-4.215l0.747,0.902l-3.36,3.36l-0.093-0.109
		c-0.047-0.047-0.109-0.016-0.109,0.047v0.28l-1.4,1.384V19.416L17.332,19.416z"/>
	<path id="XMLID_84_" style="fill:#FEF9FB;" d="M17.332,20.241l4.588-4.588l0.762,0.902l-3.375,3.36l-0.467-0.56
		c-0.047-0.047-0.109-0.016-0.109,0.047v1.089l-1.4,1.4V20.241L17.332,20.241z"/>
	<path style="fill:#FEF9FB;" d="M18.934,19.463l3.36-3.36l0.762,0.887l-3.375,3.375L18.934,19.463L18.934,19.463z M17.332,21.065
		l1.4-1.384v1.633l-1.4,1.4V21.065L17.332,21.065L17.332,21.065z"/>
	<path style="fill:#FFFBFD;" d="M19.307,19.914l3.375-3.36l0.747,0.887l-3.375,3.375L19.307,19.914L19.307,19.914z M17.332,21.889
		l1.4-1.4v1.649l-1.4,1.4V21.889L17.332,21.889L17.332,21.889z"/>
	<path style="fill:#FFFBFD;" d="M19.681,20.365l3.375-3.375l0.747,0.902l-3.375,3.36L19.681,20.365L19.681,20.365z M17.332,22.714
		l1.4-1.4v1.649l-1.4,1.4V22.714L17.332,22.714L17.332,22.714z"/>
	<path style="fill:#FFFBFD;" d="M20.054,20.816l3.375-3.375l0.747,0.902l-3.375,3.36L20.054,20.816L20.054,20.816z M17.332,23.538
		l1.4-1.4v1.649l-1.4,1.384V23.538L17.332,23.538L17.332,23.538z"/>
	<path style="fill:#FFFBFD;" d="M20.427,21.252l3.375-3.36l0.747,0.902l-3.36,3.36L20.427,21.252L20.427,21.252z M17.332,24.362
		l1.4-1.4v1.649l-1.4,1.384V24.362L17.332,24.362L17.332,24.362z"/>
	<path style="fill:#FFFFFF;" d="M29.51,14.641l-0.684,0.684v-0.684H29.51L29.51,14.641z M20.8,21.703l3.375-3.36l0.747,0.887
		l-3.36,3.375L20.8,21.703L20.8,21.703L20.8,21.703z M17.332,25.171l1.4-1.384v1.633l-1.4,1.4V25.171L17.332,25.171L17.332,25.171z"
		/>
	<path style="fill:#FFFFFF;" d="M30.335,14.641l-0.871,0.855h-0.638v-0.855H30.335L30.335,14.641z M21.189,22.154l3.36-3.36
		l0.731,0.887l-3.344,3.375L21.189,22.154L21.189,22.154L21.189,22.154z M17.332,25.995l1.4-1.384v1.633l-1.4,1.384V25.995
		L17.332,25.995L17.332,25.995z"/>
	<path style="fill:#FFFFFF;" d="M28.826,15.326l0.684-0.684h1.649l-0.98,0.98c-0.233-0.078-0.466-0.124-0.7-0.124h-0.653V15.326
		L28.826,15.326z M21.563,22.605l3.36-3.375l0.731,0.902l-3.344,3.375L21.563,22.605L21.563,22.605L21.563,22.605z M17.332,26.82
		l1.4-1.4v1.649l-1.4,1.384V26.82L17.332,26.82L17.332,26.82z"/>
	<path style="fill:#FFFFFF;" d="M29.464,15.497l0.871-0.855h1.648l-1.275,1.26c-0.342-0.249-0.777-0.404-1.229-0.404H29.464
		L29.464,15.497z M21.936,23.056l3.344-3.375l0.747,0.902l-3.344,3.36L21.936,23.056L21.936,23.056L21.936,23.056z M17.332,27.629
		l1.4-1.384v1.649l-1.4,1.384V27.629L17.332,27.629L17.332,27.629z"/>
	<path style="fill:#FBFDFF;" d="M30.179,15.621l0.98-0.98h1.649l-1.664,1.664C30.895,15.994,30.553,15.746,30.179,15.621
		L30.179,15.621z M22.309,23.507l3.344-3.375l0.762,0.902l-3.36,3.36L22.309,23.507L22.309,23.507L22.309,23.507z M17.332,28.453
		l1.4-1.384v1.649l-1.4,1.384V28.453L17.332,28.453L17.332,28.453z"/>
	<path style="fill:#F7F8FC;" d="M30.708,15.901l1.275-1.26h1.649l-2.177,2.177C31.299,16.446,31.035,16.134,30.708,15.901
		L30.708,15.901z M22.682,23.942l3.344-3.36l0.762,0.902l-3.36,3.36L22.682,23.942L22.682,23.942L22.682,23.942z M17.332,29.277
		l1.4-1.384v1.648l-1.4,1.384V29.277L17.332,29.277L17.332,29.277z"/>
	<path style="fill:#F7F8FC;" d="M15.201,33.881l-0.482,0.498v-0.498H15.201L15.201,33.881z M31.144,16.306l1.664-1.664h1.649
		l-2.847,2.831C31.579,17.037,31.408,16.632,31.144,16.306L31.144,16.306L31.144,16.306z M23.056,24.393l3.36-3.36l0.747,0.887
		l-3.36,3.36L23.056,24.393L23.056,24.393L23.056,24.393z M17.332,30.102l1.4-1.384v1.649l-1.4,1.384V30.102L17.332,30.102
		L17.332,30.102z"/>
	<path style="fill:#F4F7FC;" d="M16.197,33.726l-0.964,0.949h-0.513l0,0v-0.793h0.684C15.683,33.881,15.948,33.819,16.197,33.726
		L16.197,33.726z M31.455,16.819l2.177-2.177h1.649l-0.949,0.933c-0.638,0.171-1.151,0.684-1.338,1.338l-1.384,1.384v-0.653
		C31.61,17.348,31.548,17.068,31.455,16.819L31.455,16.819L31.455,16.819z M23.429,24.844l3.36-3.36l0.747,0.887l-3.36,3.36
		L23.429,24.844L23.429,24.844L23.429,24.844z M17.332,30.926l1.4-1.384v1.633l-1.571,1.571c0.109-0.249,0.171-0.513,0.171-0.793
		V30.926L17.332,30.926L17.332,30.926z"/>
	<path style="fill:#F1F4FA;" d="M31.61,17.472l2.847-2.831h0.824l0,0v0.809l-0.047,0.047h-0.389c-1.058,0-1.913,0.871-1.913,1.929
		v0.373l-1.322,1.322v-1.478C31.61,17.581,31.61,17.534,31.61,17.472L31.61,17.472z M23.802,25.28l3.36-3.36l0.747,0.902
		l-3.344,3.344L23.802,25.28L23.802,25.28L23.802,25.28z M14.719,34.379l0.482-0.498h0.202c1.073,0,1.929-0.855,1.929-1.929V31.75
		l1.4-1.384v1.244c0,0.125,0,0.249,0.031,0.358l-2.706,2.706h-1.338l0,0V34.379L14.719,34.379L14.719,34.379z"/>
	<path style="fill:#F1F4FA;" d="M34.332,15.575l0.949-0.933l0,0l0,0v0.855h-0.435C34.674,15.497,34.503,15.528,34.332,15.575
		L34.332,15.575z M31.61,18.296l1.384-1.384c-0.047,0.156-0.062,0.342-0.062,0.513v1.198l-1.322,1.322V18.296L31.61,18.296
		L31.61,18.296z M24.176,25.731l3.36-3.36l0.747,0.902l-3.344,3.344L24.176,25.731L24.176,25.731L24.176,25.731z M15.232,34.674
		l0.964-0.949c0.435-0.202,0.778-0.544,0.964-0.98l1.571-1.571v0.435c0,0.358,0.078,0.684,0.218,0.995l-2.069,2.069H15.232
		L15.232,34.674L15.232,34.674z"/>
	<path style="fill:#EEF3FA;" d="M35.234,15.497l0.047-0.047v0.047H35.234L35.234,15.497z M31.61,19.121l1.322-1.322v1.649
		l-1.322,1.322V19.121L31.61,19.121L31.61,19.121z M24.564,26.167l3.344-3.344l0.747,0.902l-3.36,3.344L24.564,26.167L24.564,26.167
		L24.564,26.167z M16.057,34.674l2.706-2.706c0.062,0.436,0.249,0.824,0.513,1.135l-1.571,1.571H16.057L16.057,34.674L16.057,34.674
		z"/>
	<path style="fill:#EEF3FA;" d="M31.61,19.945l1.322-1.322v1.649l-1.322,1.322V19.945L31.61,19.945z M24.938,26.618l3.344-3.344
		l0.746,0.887l-3.36,3.36L24.938,26.618L24.938,26.618L24.938,26.618z M16.881,34.674l2.069-2.069
		c0.171,0.358,0.436,0.653,0.762,0.887l-1.182,1.182H16.881L16.881,34.674L16.881,34.674z"/>
	<path style="fill:#ECF0F9;" d="M31.61,20.769l1.322-1.322v1.649l-1.322,1.306V20.769L31.61,20.769z M25.295,27.069l3.36-3.344
		l0.747,0.887l-3.359,3.36L25.295,27.069L25.295,27.069L25.295,27.069z M17.705,34.674l1.571-1.571
		c0.264,0.296,0.607,0.529,0.98,0.653l-0.902,0.918H17.705L17.705,34.674L17.705,34.674z"/>
	<path style="fill:#ECF0F9;" d="M31.61,21.594l1.322-1.322v1.649l-1.322,1.306V21.594L31.61,21.594z M25.669,27.52l3.36-3.36
		l0.762,0.902l-3.375,3.36L25.669,27.52L25.669,27.52L25.669,27.52z M18.53,34.674l1.182-1.182c0.358,0.233,0.793,0.389,1.244,0.389
		l-0.778,0.793H18.53L18.53,34.674L18.53,34.674z"/>
	<path style="fill:#E9EFF8;" d="M31.61,22.403l1.322-1.306v1.649l-1.322,1.306V22.403L31.61,22.403z M26.042,27.971l3.359-3.36
		l0.762,0.887l-3.375,3.359L26.042,27.971L26.042,27.971L26.042,27.971z M19.354,34.674l0.902-0.918
		c0.233,0.078,0.482,0.124,0.746,0.124h0.513v0.264l-0.513,0.529H19.354L19.354,34.674L19.354,34.674z"/>
	<path style="fill:#E9EDF7;" d="M31.61,23.227l1.322-1.306v1.649l-1.322,1.307V23.227L31.61,23.227z M26.415,28.422l3.375-3.36
		l0.747,0.887l-3.375,3.36L26.415,28.422L26.415,28.422L26.415,28.422z M20.178,34.674l0.778-0.793h0.047h0.513v0.793H20.178
		L20.178,34.674L20.178,34.674z"/>
	<path style="fill:#E6ECF7;" d="M31.61,24.051l1.322-1.306v1.649l-1.322,1.291V24.051L31.61,24.051z M26.789,28.857l3.375-3.359
		L30.91,26.4l-3.375,3.36L26.789,28.857L26.789,28.857L26.789,28.857z M21.003,34.674l0.513-0.529v0.529H21.003L21.003,34.674
		L21.003,34.674z"/>
	<path style="fill:#E4EBF7;" d="M31.61,24.876l1.322-1.307v1.633l-1.322,1.307V24.876L31.61,24.876z M27.162,29.308l3.375-3.36
		l0.747,0.887l-3.375,3.375L27.162,29.308L27.162,29.308L27.162,29.308z"/>
	<path id="XMLID_16_" style="fill:#E4EBF7;" d="M27.535,29.759l3.375-3.36l0.513,0.607c0.062,0.078,0.186,0.031,0.186-0.078v-1.244
		l1.322-1.291v1.633l-4.635,4.635L27.535,29.759L27.535,29.759z"/>
	<path id="XMLID_15_" style="fill:#E1E8F6;" d="M27.908,30.21l3.375-3.375l0.14,0.171c0.062,0.078,0.186,0.031,0.186-0.078v-0.42
		l1.322-1.307v1.633l-4.261,4.262L27.908,30.21L27.908,30.21z"/>
	<polygon id="XMLID_14_" style="fill:#DEE7F5;" points="28.297,30.662 32.932,26.027 32.932,27.66 29.044,31.548 28.297,30.662 	"/>
	<polygon id="XMLID_13_" style="fill:#DEE7F5;" points="28.671,31.097 32.932,26.835 32.932,28.484 29.417,31.999 28.671,31.097 	
		"/>
	<polygon id="XMLID_12_" style="fill:#DCE6F5;" points="29.044,31.548 32.932,27.66 32.932,29.308 29.79,32.45 29.044,31.548 	"/>
	<polygon id="XMLID_11_" style="fill:#DCE4F4;" points="29.417,31.999 32.932,28.484 32.932,30.133 30.164,32.901 29.417,31.999 	
		"/>
	<polygon id="XMLID_10_" style="fill:#DEE7F5;" points="29.79,32.45 32.932,29.308 32.932,30.957 30.537,33.352 29.79,32.45 	"/>
	<polygon id="XMLID_9_" style="fill:#E1E8F6;" points="30.164,32.901 32.932,30.133 32.932,31.781 30.91,33.788 30.164,32.901 	"/>
	<polygon id="XMLID_8_" style="fill:#E4EBF7;" points="30.537,33.352 32.932,30.957 32.932,32.606 31.284,34.239 30.537,33.352 	"/>
	<polygon id="XMLID_7_" style="fill:#E9EDF7;" points="30.91,33.788 32.932,31.781 32.932,33.43 31.672,34.69 30.91,33.788 	"/>
	<polygon id="XMLID_6_" style="fill:#E9EFF8;" points="31.284,34.239 32.932,32.606 32.932,34.254 32.046,35.141 31.284,34.239 	"/>
	<polygon id="XMLID_5_" style="fill:#EEF1F9;" points="31.672,34.69 32.932,33.43 32.932,35.079 32.808,35.188 32.092,35.188 
		31.672,34.69 	"/>
	<polygon id="XMLID_4_" style="fill:#F1F4FA;" points="32.046,35.141 32.932,34.254 32.932,35.188 32.092,35.188 32.046,35.141 	"/>
	<polygon id="XMLID_3_" style="fill:#F1F4FA;" points="32.808,35.188 32.932,35.079 32.932,35.188 32.808,35.188 	"/>
</g>
</svg>
