<?xml version="1.0" encoding="utf-8"?>
<!-- Generator: Adobe Illustrator 18.1.1, SVG Export Plug-In . SVG Version: 6.00 Build 0)  -->
<!DOCTYPE svg PUBLIC "-//W3C//DTD SVG 1.1//EN" "http://www.w3.org/Graphics/SVG/1.1/DTD/svg11.dtd">
<svg version="1.1"
	 id="svg2" xmlns:cc="http://creativecommons.org/ns#" xmlns:svg="http://www.w3.org/2000/svg" xmlns:inkscape="http://www.inkscape.org/namespaces/inkscape" xmlns:sodipodi="http://sodipodi.sourceforge.net/DTD/sodipodi-0.dtd" xmlns:dc="http://purl.org/dc/elements/1.1/" xmlns:rdf="http://www.w3.org/1999/02/22-rdf-syntax-ns#" inkscape:version="0.48.1 " sodipodi:docname="Torino_FC_Logo.svg" sodipodi:version="0.32"
	 xmlns="http://www.w3.org/2000/svg" xmlns:xlink="http://www.w3.org/1999/xlink" x="0px" y="0px" width="100px" height="100px"
	 viewBox="-699 201 100 100" enable-background="new -699 201 100 100" xml:space="preserve">
<sodipodi:namedview  id="base" inkscape:cx="388.72832" pagecolor="#ffffff" inkscape:zoom="0.865" showgrid="false" inkscape:cy="300" borderopacity="1.0" bordercolor="#666666" inkscape:current-layer="svg2" inkscape:window-maximized="1" inkscape:window-y="-8" inkscape:window-x="-8" inkscape:pageshadow="2" inkscape:pageopacity="0.0" inkscape:window-width="1280" inkscape:window-height="738">
	</sodipodi:namedview>
<g id="layer4" transform="translate(0,-366)" inkscape:label="bottom" inkscape:groupmode="layer">
</g>
<g id="layer2" transform="translate(0,-366)" inkscape:label="1906" inkscape:groupmode="layer">
</g>
<g id="g3835">
	<g id="layer1" transform="matrix(3.8885388,0,0,3.8721884,-1807.8448,-1739.203)" inkscape:label="top1">
		<path id="path5762" inkscape:connector-curvature="0" fill="#ECB215" d="M297.7,502.8c-0.6,0-1.2,0.1-2.3,0.2
			c-2.3,0.2-3,0.3-4.2,0.1c-0.8-0.1-1.9-0.3-2-0.3c0,0.1-0.2,1.5-0.2,1.5c-0.1,0.4-0.1,0.9-0.2,1.8c-0.3,3.1,0.1,6.3,1,9
			s2.3,5.1,4.1,7c0.8,0.9,2,1.8,2.8,2.4c0.1,0,1.1,0.6,1.3,0.7c0.3,0,1.3-0.6,1.3-0.7c0.9-0.7,2-1.6,2.8-2.4c1.8-1.9,3.2-4.3,4.1-7
			s1.3-6,1-9c-0.1-0.9-0.1-1.5-0.2-1.8c0,0-0.2-1.3-0.2-1.5c-0.1,0-1.2,0.2-2,0.3c-1.3,0.2-1.9,0.1-4.2-0.1
			c-1.1-0.1-1.8-0.2-2.3-0.2c-0.1,0-0.1,0-0.2,0C297.8,502.8,297.8,502.8,297.7,502.8L297.7,502.8L297.7,502.8z"/>
	</g>
	<path id="path5755" inkscape:connector-curvature="0" sodipodi:nodetypes="cccssscccc" fill="#881F19" d="M-651,209.4
		c-10.4,0.9-21.1,2.6-31.3,0.3c-1.3,8.9-2.4,17.9-1.3,27c1.8,20.4,11.5,40.9,28.6,53c1.1,0.8,4.8,3.1,5.5,3.1c0.8,0,4.4-2.2,5.4-2.9
		c21-14.6,30.5-41.2,29.1-66.2c-0.3-4.7-0.6-9.6-1.8-14c-9.3,2.1-18.9,0.9-28.3-0.1C-647.2,209.5-649.1,209.4-651,209.4z"/>
	<g id="g13797" transform="matrix(3.8885388,0,0,3.8721884,-1189.333,-1739.203)">
		<g id="rect8439">
			<path inkscape:connector-curvature="0" sodipodi:nodetypes="cccccccccccc" fill="#F8FBFD" d="M141.6,509.8v2.7h0.8v-1h0.7v-0.6
				h-0.7v-0.4h1.3v-0.6h-1.4h-0.7V509.8z"/>
			<path fill="#E9AA0F" d="M142.3,512.5h-0.8v-2.7h2.1v0.7h-1.3v0.4h0.7v0.6h-0.7V512.5z M141.6,512.5h0.7v-1h0.7v-0.6h-0.7v-0.5
				h1.3v-0.6h-2V512.5z"/>
		</g>
		<g id="path11112">
			<path inkscape:connector-curvature="0" sodipodi:nodetypes="csscccsssccssc" fill="#F8FBFD" d="M145.1,509.9
				c-0.6,0.1-1.1,0.6-1.1,1.3c0,0.7,0.5,1.3,1.2,1.3c0.4,0,0.8-0.3,1-0.6l-0.6-0.1c0,0,0,0-0.1,0.1c-0.9,0.5-1.1-1.2-0.4-1.3l0,0
				l0,0c0.2,0,0.3,0,0.4,0.1l0.6-0.2C145.9,510.1,145.5,509.9,145.1,509.9C145.2,509.9,145.2,509.9,145.1,509.9L145.1,509.9
				L145.1,509.9z"/>
			<path fill="#E9AA0F" d="M145.2,512.5c-0.7,0-1.2-0.6-1.2-1.3c0-0.7,0.5-1.3,1.1-1.3l0,0l0,0l0,0l0,0c0,0,0,0,0.1,0l0,0
				c0.4,0,0.8,0.2,1,0.6l0,0l-0.6,0.2l0,0c-0.1-0.1-0.2-0.1-0.4-0.1l0,0l0,0l0,0l0,0l0,0c-0.3,0-0.4,0.4-0.4,0.7
				c0,0.3,0.2,0.6,0.5,0.6c0.1,0,0.2,0,0.3-0.1l0,0c0,0,0,0,0.1,0l0,0l0.6,0.2l0,0C146,512.3,145.6,512.5,145.2,512.5z M145.1,509.9
				L145.1,509.9c-0.6,0.1-1.1,0.6-1.1,1.3c0,0.7,0.5,1.3,1.2,1.3c0.4,0,0.8-0.2,1-0.6l-0.6-0.1l0,0l0,0c-0.1,0.1-0.2,0.1-0.3,0.1
				c-0.3,0-0.5-0.3-0.5-0.7c0-0.3,0.1-0.7,0.4-0.7l0,0l0,0l0,0l0,0c0,0,0,0,0.1,0c0.2,0,0.3,0,0.4,0.1l0.6-0.2
				C146,510.1,145.6,509.9,145.1,509.9C145.2,509.9,145.2,509.9,145.1,509.9C145.2,509.9,145.2,509.9,145.1,509.9L145.1,509.9
				L145.1,509.9L145.1,509.9z"/>
		</g>
	</g>
	<g id="g3831">
		<path id="path5774" inkscape:connector-curvature="0" fill="#FFFBFF" d="M-650.5,211.6c-0.3,0-0.6,0-0.9,0c-0.1,0-0.3,0-0.4,0
			c-9.5,0.8-19.4,2.1-28.8,0.6c-1,5.8-1.4,11.7-1.2,17.7h64.6c0.1-6-0.4-12-1.5-17.8c-6.1,1.5-12.7,0.6-19,0.2
			C-642,212-646.2,211.5-650.5,211.6L-650.5,211.6z"/>
		<rect id="rect3050" x="-681.8" y="229.9" opacity="0.96" fill="#518AC3" enable-background="new    " width="64.6" height="1.1"/>
	</g>
	<g id="g3042" transform="translate(-0.00125414,-2.3151225)">
		<g id="rect6660">
			<path inkscape:connector-curvature="0" sodipodi:nodetypes="ccccccccc" fill="#881F19" d="M-677.8,217.7v3.1h2.8v8.9h2.8v-8.9
				h2.9v-3.1H-677.8L-677.8,217.7z"/>
			<path fill="#E9AA0F" d="M-671.9,230h-3.4v-8.9h-2.8v-3.7h9.1v3.7h-2.9L-671.9,230L-671.9,230z M-674.7,229.4h2.2v-8.9h2.9V218
				h-7.9v2.5h2.8V229.4z"/>
		</g>
		<g id="rect7540">
			<rect x="-646.6" y="217.6" fill="#881F19" width="2.8" height="12.1"/>
			<path fill="#E9AA0F" d="M-643.5,230h-3.3v-12.7h3.3V230z M-646.3,229.5h2.2v-11.6h-2.2V229.5z"/>
		</g>
		<g id="rect7543">
			<path inkscape:connector-curvature="0" sodipodi:nodetypes="ccccccccccccccc" fill="#881F19" d="M-642,217.6L-642,217.6v12.1h2.7
				v-5.4l4.1,5.4l0.1,0.1h2.7v-12.2h-2.8v6.1l-4.5-6l0,0l0,0h-2.3V217.6z"/>
			<path fill="#E9AA0F" d="M-632.1,230h-3.1l-0.2-0.2l-3.6-4.7v4.9h-3.3v-12.7h2.8v0.2l3.9,5.3v-5.5h3.4L-632.1,230L-632.1,230z
				 M-635,229.5h2.3v-11.6h-2.3v6.6l-4.9-6.6h-1.8v11.6h2.2v-6L-635,229.5z"/>
		</g>
		<g id="rect7547">
			<path inkscape:connector-curvature="0" sodipodi:nodetypes="ccccccccscccccccccscccc" fill="#881F19" d="M-657.4,217.5v12.2h2.8
				v-4.5h1.8l1.7,4.5h3.2l-2-5.2c1.3-0.4,1.6-1.8,1.6-3.4c0-1.9-1.3-3.4-2.9-3.5h-0.5h-3.5h-2.2V217.5z M-654.6,220.2L-654.6,220.2
				h0.3h2.4h0.2c0.6,0,1.1,0.4,1.1,1.2s-0.5,1.2-1.1,1.2h-0.2h-2.8L-654.6,220.2L-654.6,220.2z"/>
			<path fill="#E9AA0F" d="M-647.5,230h-3.8l-1.7-4.5h-1.3v4.5h-3.3v-12.8h6.5c1.7,0.2,3.1,1.8,3.1,3.8c0,1.4-0.2,3-1.6,3.6
				L-647.5,230z M-650.9,229.5h2.6l-2-5.1l0.3-0.1c1-0.3,1.4-1.3,1.4-3.2c0-1.7-1.1-3.1-2.6-3.3h-5.9v11.6h2.2v-4.5h2.3
				L-650.9,229.5z M-651.8,222.9h-3.1v-3h3.2c0.9,0,1.4,0.6,1.4,1.5S-650.9,222.9-651.8,222.9L-651.8,222.9z M-654.3,222.3h2.7
				c0.5,0,0.8-0.4,0.8-0.9c0-0.8-0.6-0.9-0.8-0.9h-2.6L-654.3,222.3L-654.3,222.3z"/>
		</g>
		<g id="path9329">
			<path inkscape:connector-curvature="0" sodipodi:nodetypes="csssssccccc" fill="#881F19" d="M-663.9,217.5
				c-2.6,0.2-4.8,2.9-4.8,6.1c0,3.4,2.3,6.1,5.1,6.1c2.8,0,5-2.7,5-6.1c0-3.4-2.3-6.1-5-6.1h-0.1
				C-663.7,217.5-663.8,217.5-663.9,217.5L-663.9,217.5z M-663.7,220.7L-663.7,220.7c2.9-0.1,3.2,5.6,0.4,6.2
				C-666.3,227.2-666.7,221.1-663.7,220.7L-663.7,220.7z"/>
			<path fill="#E9AA0F" d="M-663.5,230c-3,0-5.4-2.9-5.4-6.4c0-3.4,2.2-6.2,5-6.4h0.1h0.1h0.1h0.1c2.9,0,5.3,2.9,5.3,6.4
				S-660.6,230-663.5,230z M-663.8,217.8L-663.8,217.8c-2.5,0.2-4.5,2.7-4.5,5.8c0,3.2,2.1,5.8,4.8,5.8c2.6,0,4.7-2.6,4.7-5.8
				s-2.1-5.8-4.7-5.8h-0.1H-663.8C-663.7,217.8-663.7,217.8-663.8,217.8L-663.8,217.8z M-663.5,227.2c-1.2,0-2.4-0.9-2.6-3.1
				c-0.2-2.3,1.1-3.5,2.3-3.7h0.1h0.1c1.3,0,2.3,1.1,2.5,2.8s-0.5,3.6-2.1,4l0,0C-663.4,227.2-663.4,227.2-663.5,227.2z M-663.7,221
				c-1.4,0.2-1.9,1.8-1.8,3.1c0.1,1.3,0.7,2.5,2,2.5c0.1,0,0.1,0,0.2,0c1.3-0.3,1.8-1.9,1.6-3.3C-661.9,222.2-662.5,220.9-663.7,221
				L-663.7,221z"/>
		</g>
		<g id="path2385">
			<path inkscape:connector-curvature="0" sodipodi:nodetypes="csssssccccc" fill="#881F19" d="M-626.5,217.5
				c-2.6,0.2-4.8,2.9-4.8,6.1c0,3.4,2.3,6.1,5.1,6.1s5-2.7,5-6.1c0-3.4-2.3-6.1-5-6.1h-0.1C-626.4,217.5-626.5,217.5-626.5,217.5
				L-626.5,217.5z M-626.4,220.7L-626.4,220.7c2.9-0.1,3.2,5.6,0.4,6.2C-629,227.2-629.4,221.1-626.4,220.7L-626.4,220.7z"/>
			<path fill="#E9AA0F" d="M-626.2,230c-3,0-5.4-2.9-5.4-6.4c0-3.4,2.2-6.2,5-6.4h0.1h0.1h0.1h0.1c2.9,0,5.3,2.9,5.3,6.4
				C-620.9,227.1-623.3,230-626.2,230z M-626.5,217.8L-626.5,217.8c-2.5,0.2-4.5,2.7-4.5,5.8c0,3.2,2.1,5.8,4.8,5.8
				c2.6,0,4.7-2.6,4.7-5.8s-2.1-5.8-4.7-5.8h-0.1H-626.5C-626.4,217.8-626.4,217.8-626.5,217.8L-626.5,217.8z M-626.2,227.2
				c-1.2,0-2.4-0.9-2.6-3.1c-0.2-2.3,1.1-3.5,2.3-3.7h0.1h0.1c1.3,0,2.3,1.1,2.5,2.8s-0.5,3.6-2.1,4l0,0
				C-626,227.2-626.1,227.2-626.2,227.2z M-626.4,221c-1.4,0.2-1.9,1.8-1.8,3.1c0.1,1.3,0.7,2.5,2,2.5c0.1,0,0.1,0,0.2,0
				c1.3-0.3,1.8-1.9,1.6-3.3C-624.5,222.2-625.1,220.9-626.4,221L-626.4,221z"/>
		</g>
	</g>
	<g id="g12989" transform="matrix(0.81949578,0,0,0.81604999,655.58718,-133.04292)">
		<path id="path9346" inkscape:connector-curvature="0" sodipodi:nodetypes="csssssssssssssssssscsssc" fill="#FFFFFF" d="
			M-1622.7,450.6c-0.5,0-0.7,0.1-1,0.2c-0.2,0.1-0.5,0.2-0.7,0.5c-0.4,0.5-0.5,0.7-0.5,1.4c0,0.4,0.2,0.8,0.4,1
			c0.3,0.3,0.7,0.5,1.4,0.6c0.5,0,1,0,1.2-0.1c0.1,0,0.2-0.1,0.2-0.1c0.1,0,0.1-0.1,0.1-0.1v0.2c0,0.1-0.2,0.4-0.5,0.6
			c-0.3,0.3-0.7,0.6-1.2,0.7c-0.2,0.1-0.6,0.2-0.7,0.2l0,0l0.1,0.7c0,0,0.2,0,0.5-0.1c1.3-0.2,2.4-1.2,2.7-2.3
			c0.3-1.3,0.4-2.7-1.1-3.3C-1622.1,450.6-1622.4,450.6-1622.7,450.6L-1622.7,450.6z M-1622.7,451.5c0.3,0,0.6,0.1,0.9,0.3
			c0.4,0.3,0.4,1,0.1,1.3c-0.8,0.7-2.2,0.3-2.2-0.6C-1624,451.9-1623.4,451.5-1622.7,451.5z"/>
		<path id="path9342" inkscape:connector-curvature="0" fill="#FFFFFF" d="M-1617.5,450.6c-0.7,0-1.5,0.4-1.8,1.1
			c-0.3,0.6-0.4,2.3-0.2,3c0.2,0.7,0.7,1.3,1.3,1.5c0.9,0.4,2.1,0,2.7-1c0.4-0.7,0.4-2.8,0-3.5
			C-1616.1,451-1616.8,450.6-1617.5,450.6L-1617.5,450.6z M-1617.5,451.6c0.4,0,0.7,0.1,0.9,0.4c0.6,0.8,0.5,2.6-0.1,3.2
			c-0.5,0.5-1.1,0.5-1.6,0c-0.7-0.7-0.7-2.4-0.1-3.2C-1618.3,451.7-1617.9,451.6-1617.5,451.6z"/>
		<rect id="rect8447" x="-1626.8" y="450.6" fill="#FFFFFF" width="0.9" height="5.7"/>
		<path id="path12940" inkscape:connector-curvature="0" sodipodi:nodetypes="csssssssssssssssssscsssc" fill="#FFFFFF" d="
			M-1612.4,456.5c0.5,0,0.7-0.1,1-0.2c0.2-0.1,0.5-0.2,0.7-0.5c0.4-0.5,0.5-0.7,0.5-1.4c0-0.4-0.2-0.8-0.4-1
			c-0.3-0.3-0.7-0.5-1.4-0.6c-0.5,0-1,0-1.2,0.1c-0.1,0-0.2,0.1-0.2,0.1c-0.1,0-0.1,0.1-0.1,0.1v-0.2c0-0.1,0.2-0.4,0.5-0.6
			c0.3-0.3,0.7-0.6,1.2-0.7c0.2-0.1,0.6-0.2,0.7-0.2l0,0l-0.1-0.7c0,0-0.2,0-0.5,0.1c-1.3,0.2-2.4,1.2-2.7,2.3
			c-0.3,1.3-0.4,2.7,1.1,3.3C-1613,456.4-1612.7,456.5-1612.4,456.5L-1612.4,456.5z M-1612.4,455.6c-0.3,0-0.6-0.1-0.9-0.3
			c-0.4-0.3-0.4-1-0.1-1.3c0.8-0.7,2.2-0.3,2.2,0.6C-1611.1,455.2-1611.7,455.5-1612.4,455.6z"/>
	</g>
	<path id="path2987" inkscape:connector-curvature="0" fill="#FFFFFF" d="M-646,283.4l-0.3-0.3l1.1-1.7c0.6-0.9,1.2-1.9,1.3-2.2
		c0.1-0.3,0.5-0.8,0.9-1.1c0.7-0.7,1.4-2.1,1.5-2.9c0.1-0.7-0.1-1.1-1.9-3.2c-2.2-2.6-2.9-3.9-3.2-5.3c-0.3-1.3,0.2-3,1.2-4.4
		l0.6-0.8l-0.7,0.7c-1.3,1.3-1.9,2.9-1.5,4.6c0.3,1.5,0.3,1.5-0.4,1.5c-1,0.1-1.7-0.6-1.9-1.7c-0.1-0.5-0.1-0.4-0.1,0.4
		c0,1.7-0.5,1.9-4.8,1.9h-2.5l-0.4,0.3c-0.2,0.2-0.4,0.4-0.4,0.6c0,0.5-0.1,0.6-0.9,0.6s-1.1,0.2-1.3,0.9c-0.2,0.9-1.4,1.5-2.8,1.5
		c-0.6,0-1.3-0.3-1.4-0.5c-0.1-0.2,1-1.7,2.3-3c0.5-0.5,1.3-1.3,1.7-1.7c1.2-1.2,1.3-1.3,4-1.3h2.2l-0.1-0.6c-0.2-1-0.1-3.9,0.1-4.8
		c0.3-1.3,0.7-1.5,2.5-1.3c0.6,0.1,1.1,0.2,1.2,0.1s-0.8-1.6-1.6-2.6c-1-1.4-1.6-2.3-1.7-3c-0.1-0.4-0.1-0.4,0.1-0.3
		c0.5,0.2,2.4,0.4,3.4,0.4c1.4,0,2.2-0.2,2.7-0.7l0.4-0.4l-0.5,0.3c-0.5,0.3-0.6,0.3-2,0.3c-1.8,0-2.2-0.1-6.1-1.7
		c-3-1.2-5.4-2.1-5.9-2.1c-0.4,0-0.8,0.2-1.1,0.5c-0.1,0.2-0.3,0.3-0.6,0.3h-0.4v0.8c0,1.1-0.1,1.3-0.8,1.6c-1.3,0.6-2.6,0.8-3,0.4
		c-0.3-0.3-0.3-0.2,0.7-1.8c0.5-0.8,1-1.6,1.2-1.9c0.4-0.8,1.2-1.5,1.9-1.7c0.3-0.1,1.2-0.2,1.9-0.2c1.6-0.1,2.5,0.1,5.3,0.9
		c1.1,0.3,2,0.6,2,0.5c0.1-0.1-1-0.5-2.2-0.9c-0.6-0.2-1.3-0.4-1.6-0.4l-0.5-0.2h0.9c0.8,0,3.4,0.2,4.2,0.4c0.3,0.1,0.3,0.1,0.1-0.2
		c-0.3-0.4-0.4-0.8-0.1-1.5c0.1-0.4,0.3-0.7,0.4-0.7c0.3,0,1-0.8,1.1-1.4c0.3-1,0.2-1-0.2-0.2c-0.5,1-0.9,1.3-2.2,1.5
		c-1.2,0.2-1.6,0.4-1.6,0.8c0,0.6-1.2,0.7-1.8,0.2c-0.4-0.3-0.3-0.6,0.2-0.7c0.4-0.1,0.5-0.4,0.2-0.6c-0.4-0.4-1,0.3-0.9,0.9
		c0.1,0.3,0,0.3-0.1,0.3c-0.9,0-1-1.5-0.3-4.5c0.2-1.1,0.3-1.5,0.2-1.7c-0.2-0.4-0.2-1.1,0.2-2l0.3-0.9l-0.4-0.5
		c-0.2-0.3-0.5-0.7-0.6-0.9c-0.2-0.6-0.2-2,0.1-2.9c0.2-0.8,0.4-1.1,0.4-0.5c0,0.7,0.4,1.6,0.9,2.2c0.3,0.3,0.6,0.6,0.6,0.6
		s0.1-0.3,0.2-0.7c0.1-0.4,0.2-1,0.3-1.4l0.2-0.7l0.2,0.8c0.2,1,0.5,1.5,1.1,2.1c0.8,0.7,1.1,0.8,3.4,1.1c3.9,0.4,5.5,1,7,2.5
		s1.9,2.5,2.2,6.5c0.3,3.3,0.8,7.3,1.1,8.4c0.7,3.3,4.9,7.6,6.4,6.5c0.6-0.4,0.2-1.6-1.2-3.5c-0.9-1.2-2.1-3.4-2.1-3.6
		c0-0.4,3,3.6,4.3,5.7c1.2,2,1.5,3,1.1,4c-0.3,0.9-1.6,1.7-2.6,1.5l-0.4-0.1l-0.1,1.2c-0.3,2.1-0.6,2.7-2.9,4.8
		c-0.8,0.7-0.7,1.1,0.5,2.2l0.6,0.5l-0.1,0.6c-0.1,0.7-0.5,1.3-1,1.6c-0.8,0.4-1.5,1.6-1.7,2.8c-0.2,1-0.3,1.2-0.9,1.5
		c-0.3,0.1-0.6,0.3-0.6,0.3s0,0.5,0,1c0,1,0,1-1.4,1.6C-644.5,283.7-645.6,283.8-646,283.4L-646,283.4z M-639,273
		c-0.6-0.6-0.9-1.3-0.8-1.7c0.1-0.3-0.1-0.3-0.5,0.1l-0.3,0.4l0.3,0.4c0.2,0.3,1.6,1.4,1.8,1.4C-638.5,273.6-638.7,273.3-639,273z
		 M-637.2,268.9c0.5-0.6,0.9-1.7,1-3l0.1-0.9l-0.4,0.4c-0.4,0.4-0.4,0.4-0.4,1.3c0,1.1-0.3,1.8-1.1,2.8l-0.6,0.7l0.5-0.4
		C-637.8,269.5-637.4,269.1-637.2,268.9z M-638.2,260.9c-0.7-0.8-1.5-2-2.4-3.8c-0.9-1.8-1.1-2.8-1.4-5.4c-0.1-0.7-0.2-1.3-0.3-1.3
		c-0.2,0,0,4.2,0.2,4.9c0.6,1.9,2.3,4.6,3.7,5.7C-637.6,261.5-637.6,261.5-638.2,260.9L-638.2,260.9z M-656.7,241.6
		c0.6-0.1,0.8-0.3,0.8-0.8v-0.5l-0.3,0.4c-0.2,0.2-0.5,0.5-0.8,0.6s-0.5,0.3-0.6,0.4c0,0.1,0,0.1,0.1,0.1
		C-657.2,241.7-656.9,241.6-656.7,241.6L-656.7,241.6z M-652.4,239.6c1.6-0.2,2.2-0.5,1.8-1.1c-0.1-0.1-0.2-0.1-0.4,0.1
		c-0.3,0.3-0.9,0.6-2,0.7c-0.2,0-0.5,0.2-0.7,0.3c-0.1,0.1-0.2,0.2-0.1,0.1C-653.6,239.7-653,239.6-652.4,239.6L-652.4,239.6z
		 M-654.5,238.2c0-0.1-0.1-0.2-0.5-0.2c-0.6,0-1.5-0.3-2.1-0.5c-0.2-0.1-0.4-0.2-0.3-0.1c0.1,0.2,0.9,0.6,1.5,0.8
		C-655.2,238.4-654.5,238.4-654.5,238.2L-654.5,238.2z M-660.5,257c-0.2-0.7-0.5-1.7-0.7-2.3c-0.6-1.6-0.4-2.9,0.6-3.8l0.3-0.3
		l0.6,0.2c0.4,0.1,0.8,0.3,1,0.4l0.3,0.2l-0.3,0.3c-0.2,0.2-0.2,0.5-0.2,0.9s0,0.6-0.2,0.6c-0.3,0.2-0.3,0.7,0.1,0.9
		c0.2,0.1,0.5,0.4,0.7,0.6c0.3,0.4,0.3,0.5,0.2,0.9c-0.4,1.5-1.2,2.6-1.8,2.6C-660.2,258.3-660.2,258.2-660.5,257L-660.5,257z
		 M-633.2,256.3c-0.2-0.4-0.6-0.8-1.1-1.3c-1.3-1.1-1.6-2.2-0.8-2.9c0.5-0.5,0.7-1,0.6-1.4c-0.2-0.6-1.3-1.4-2.5-1.7
		c-0.9-0.2-1.4-0.2-2,0.3l-0.4,0.3l0.3-0.5c0.6-1.2,2.1-1.4,4.5-0.6c2.7,0.9,3.4,2.5,2.2,5.2c-0.4,0.8-0.4,1.1-0.4,2.1
		c0,0.6,0,1.1-0.1,1.1C-632.9,256.9-633.1,256.7-633.2,256.3L-633.2,256.3z M-633.3,254.3c0.1-0.2,0.3-0.8,0.5-1.2
		c0.7-1.7,0.3-2.9-1.2-3.7c-0.7-0.4-0.7-0.3-0.1,0.1c1,0.8,1.2,1.9,0.6,3.3c-0.4,1-0.5,1.5-0.2,1.8
		C-633.5,254.9-633.5,254.9-633.3,254.3L-633.3,254.3z"/>
</g>
<rect x="-699" y="201" fill="none" width="100" height="100"/>
</svg>
