<?xml version="1.0" encoding="utf-8"?>
<!-- Generator: Adobe Illustrator 19.0.0, SVG Export Plug-In . SVG Version: 6.00 Build 0)  -->
<svg version="1.1" id="Livello_1" xmlns="http://www.w3.org/2000/svg" xmlns:xlink="http://www.w3.org/1999/xlink" x="0px" y="0px"
	 viewBox="0 0 570 570" style="enable-background:new 0 0 570 570;" xml:space="preserve">
<path d="M285,2.4H65.5v274.8c0,58.2,8.8,91.4,26.5,131.5c30.8,71.5,118.1,144.9,193,159c74.9-14.1,162.2-87.5,193-159
	c17.7-40.1,26.5-73.3,26.5-131.5V2.4H285z"/>
<path style="fill:#FFFFFF;" d="M493.8,277.1c0,28.6-2.1,50.6-6.4,70.3c-4.2,19.7-10.5,37.2-19.2,56.9l0,0.1
	c-14.5,33.7-43,68.9-77,97c-33.3,27.6-71.8,48.4-106.2,55.3c-34.4-6.9-72.9-27.7-106.2-55.3c-34-28.1-62.5-63.4-77-97l0,0l0,0
	c-8.7-19.7-15-37.2-19.2-56.9c-4.2-19.7-6.4-41.7-6.4-70.3V13H285h208.8V277.1z"/>
<path style="display:none;fill:#1B5497;" d="M208.7,497.1l-5,2.7l-0.9-1.7l-0.1,0c-0.2,1.9-1.2,3.3-3.3,4.5c-2.4,1.3-5.5,1.1-7.2-2
	l-5.1-9.3l5.2-2.8l3.9,7.1c0.9,1.6,1.6,2.6,3.2,1.7c0.9-0.5,1.8-1.6,0.6-3.7l-3.9-7.2l5.2-2.8"/>
<polyline style="display:none;fill:#1B5497;" points="208.9,490.2 214.4,487.3 217.2,492.4 211.8,495.4 "/>
<polyline style="display:none;fill:#1B5497;" points="233.6,476.7 239.1,473.7 241.9,478.9 236.5,481.9 "/>
<path style="display:none;fill:#1B5497;" d="M224.4,477.6c-0.4-0.5-0.8-0.9-1.3-1c-0.5-0.1-1,0-1.6,0.3c-2,1.1-1.3,3-0.4,4.6
	c0.9,1.6,2.1,3.2,4.1,2.1c1.1-0.6,1.4-2,0.9-3.1l4.9-2.7c1.5,4-0.3,7.6-3.9,9.6c-4.1,2.2-8.9,1.2-11.2-3.1
	c-2.3-4.3-0.6-8.9,3.4-11.2c3.6-1.9,7.6-1.8,9.9,1.7"/>
<path style="display:none;fill:#1B5497;" d="M256.2,458.5c-0.3-0.4-0.7-0.7-1.2-0.7c-0.5-0.1-1,0-1.4,0.2c-0.7,0.4-1.5,1-1,1.9
	c0.2,0.4,0.6,0.4,1,0.4c1.1-0.1,3.1-1.1,5.1-1.4c2-0.4,4.1-0.2,5.3,2c2,3.8-1,6.7-4.3,8.6c-3.2,1.7-7.4,2.4-9.4-1.1l4.9-2.7
	c0.3,0.5,0.7,0.7,1.3,0.9c0.4,0.1,1,0,1.6-0.4c0.7-0.4,1.6-1.2,1.2-2c-0.4-0.8-1-0.8-3.6,0.1c-4.3,1.5-6.6,1.1-7.9-1.2
	c-1.9-3.4,1.3-6.3,4-7.8c2.9-1.6,6.9-2.7,8.9,0.7"/>
<path style="display:none;fill:#1B5497;" d="M273.6,453.6c-0.5,0.7-1.1,1.2-1.7,1.8c-1,0.9-1.5,1.5-0.9,2.4c0.3,0.6,1.4,0.9,2.3,0.4
	c1.2-0.7,1.7-1.8,1-3.3L273.6,453.6 M280.2,453.9c0.6,1,1.2,2.1,2.3,2.7l-5.3,2.9c-0.3-0.3-0.7-0.8-0.9-1.2l-0.1,0
	c-0.4,1.8-1.8,3.1-3.5,4c-2.6,1.4-5.5,1.4-7-1.5c-2.4-4.3,2.7-6.9,5.1-8.8c0.6-0.5,1.2-1.1,0.7-2c-0.5-0.9-1.5-0.8-2.4-0.3
	c-1.6,0.9-1.5,1.9-1.2,2.5l-4.8,2.6c-1.9-3.9,1.3-6.5,4.5-8.3c6.5-3.6,7.9-0.8,9.3,1.8L280.2,453.9z"/>
<path style="display:none;fill:#1B5497;" d="M277.2,441.9l5-2.7l1,1.8l0,0c0.2-2.1,1.4-3.5,3.3-4.6c1.5-0.8,3.5-0.9,4.8,0.1
	c0.1-0.3,0.1-2.8,3.5-4.6c3.5-1.9,6-0.1,7.2,2l5.1,9.3l-5.2,2.8l-4-7.3c-0.7-1.3-1.5-2.4-3-1.5c-1.3,0.7-1.2,2-0.4,3.4l4,7.3
	l-5.2,2.8l-4-7.3c-0.7-1.3-1.5-2.4-3-1.5c-1.3,0.7-1.2,2-0.4,3.4l4,7.3l-5.2,2.8"/>
<path style="display:none;fill:#1B5497;" d="M315.2,434.3c1.8-1,1.3-3,0.4-4.6c-0.9-1.6-2.3-3.1-4.1-2.1c-1.9,1-1.3,3-0.4,4.6
	C311.9,433.8,313.3,435.3,315.2,434.3 M302.4,428.1l5-2.7l0.8,1.5l0.1,0c0.2-1.2,0.4-2.6,3-4c3.8-2.1,7.8,0.7,9.6,4.1
	c1.7,3.2,2.6,7.7-1.9,10.2c-1.5,0.9-3.3,0.9-4.7,0.2l-0.1,0l3.2,5.9l-5.2,2.8L302.4,428.1z"/>
<path style="display:none;fill:#1B5497;" d="M328,418.5c-1.9,1-1.3,3-0.4,4.6c0.9,1.6,2.3,3.2,4.1,2.1c1.9-1,1.3-3,0.4-4.6
	C331.2,419,329.9,417.5,328,418.5 M340.8,424.7l-5,2.7l-0.8-1.5l-0.1,0c-0.2,1.2-0.4,2.6-3,4c-3.8,2.1-7.8-0.7-9.6-4.1
	c-1.8-3.2-2.6-7.7,1.9-10.2c1.5-0.9,3.3-0.9,4.7-0.2l0.1,0l-3.6-6.6l5.2-2.8L340.8,424.7z"/>
<path style="display:none;fill:#1B5497;" d="M344.9,409.2c-1.9,1.1-1.2,3.1-0.4,4.5c0.8,1.4,2.1,3.2,4.1,2.2c2-1.1,1.2-3.2,0.4-4.6
	C348.2,409.9,346.9,408.2,344.9,409.2 M350.7,419.7c-5.1,2.8-9.2,0.7-11.3-3.1c-2.1-3.8-1.6-8.4,3.5-11.2c5.1-2.8,9.2-0.7,11.3,3.1
	C356.2,412.3,355.7,416.9,350.7,419.7z"/>
<path style="display:none;fill:#1B5497;" d="M352.7,400.5l5-2.7l1.2,2.2l0,0c0-2.1,0.6-3.6,2.4-4.6c0.5-0.3,1.1-0.5,1.6-0.6l2.5,4.6
	c-0.6,0.1-1.2,0.2-2.2,0.8c-2,1.1-2.5,2.9-0.9,5.8l2.9,5.4l-5.2,2.8"/>
<path style="display:none;fill:#1B5497;" d="M364.4,394.1l5.2-2.8l7.4,13.6l-5.2,2.9L364.4,394.1 M368.7,389.8l-5.2,2.8l-2-3.6
	l5.2-2.8L368.7,389.8z"/>
<path style="display:none;fill:#1B5497;" d="M384.8,392.6c-0.5,0.7-1.1,1.2-1.7,1.8c-1,0.9-1.5,1.5-1,2.4c0.3,0.6,1.4,0.9,2.3,0.4
	c1.2-0.7,1.7-1.9,1-3.3L384.8,392.6 M391.5,393c0.6,1,1.2,2.1,2.3,2.7l-5.3,2.9c-0.3-0.3-0.7-0.8-0.9-1.2l-0.1,0
	c-0.4,1.8-1.8,3.1-3.5,4c-2.6,1.4-5.5,1.4-7-1.5c-2.3-4.3,2.8-6.9,5.1-8.8c0.6-0.5,1.2-1.1,0.8-2c-0.5-0.9-1.6-0.8-2.4-0.3
	c-1.6,0.9-1.5,1.9-1.2,2.5l-4.8,2.6c-1.9-3.9,1.3-6.5,4.5-8.3c6.5-3.6,7.9-0.8,9.3,1.8L391.5,393z"/>
<path style="display:none;fill:#1B5497;" d="M401.9,387c0.1,0.3,0.3,0.4,0.5,0.6c0.5,0.5,1.3,0.2,1.8-0.1c0.5-0.3,1.1-0.8,0.8-1.6
	c-0.3-0.5-0.8-0.4-2.7,0c-1.8,0.4-3.7,0.9-4.8-1c-1.2-2.2,0.2-4.2,2.1-5.3c2.1-1.1,4.4-1.4,5.8,0.9l-2.8,1.5
	c-0.2-0.4-0.4-0.5-0.8-0.6c-0.3,0-0.7,0.1-1,0.2c-0.4,0.2-1,0.7-0.7,1.2c0.4,0.7,1.9,0.1,3.5-0.3c1.6-0.4,3.3-0.5,4.2,1.3
	c1.4,2.5-0.5,4.6-2.6,5.8c-1.1,0.6-4.4,1.9-6.2-1.1"/>
<polyline style="display:none;fill:#1B5497;" points="408.9,383.9 411.7,382.3 413.2,385 410.4,386.5 "/>
<path style="display:none;fill:#1B5497;" d="M417.6,380.3c1-0.5,0.7-1.6,0.2-2.4c-0.5-0.8-1.2-1.6-2.1-1.1c-1,0.5-0.7,1.6-0.2,2.4
	C415.9,380,416.6,380.8,417.6,380.3 M410.9,377.1l2.6-1.4l0.4,0.8l0,0c0.1-0.6,0.2-1.4,1.5-2.1c2-1.1,4,0.3,5,2.1
	c0.9,1.7,1.4,4-1,5.3c-0.8,0.4-1.7,0.5-2.4,0.1l0,0l1.7,3l-2.7,1.5L410.9,377.1z"/>
<polyline style="display:none;fill:#1B5497;" points="422.2,376.6 425,375 426.5,377.7 423.7,379.2 "/>
<path style="display:none;fill:#1B5497;" d="M431.2,370.6l-2.5-2.5l0,0l0.7,3.5L431.2,370.6 M425.5,365.7l2.9-1.6l8.8,7.7l-3.1,1.7
	l-1.2-1.2l-3.1,1.7l0.3,1.6l-3,1.6L425.5,365.7z"/>
<polyline style="display:none;fill:#1B5497;" points="437.9,371.4 440.7,369.9 439.3,367.2 436.5,368.8 "/>
<path style="fill:#1B5497;" d="M493.8,13H369l-292.8,162v76.6l49.2-27.1c-2.8-1.3-5-3.8-5.8-6.8c-0.9-3.6,0.2-7.5,2.9-10.1
	c2.9-2.7,5.9-4.5,8.5-6c2.6-1.5,4.9-2.7,6.5-3.8l0.2-0.1c18.5-11.6,34.3-31.3,52.1-48.8c1.4-1.4,3.1-2.3,5-2.7
	c4.1-0.9,8-1.3,11.7-1.7c0.6-1.3,1.4-2.5,2.5-3.5c2-1.8,4.5-5.6,7.3-10.3c2.1-3.4,4.5-7.4,8-11.1c0-0.7,0.1-1.3,0.2-2
	c1.2-4.8,3.5-7.8,5.8-10.5c2.2-2.5,4.6-4.6,6.8-6.3c12.8-11,27.6-16.4,42.1-19.6c0.7-0.2,1.5-0.2,2.2-0.2c1.1,0,2.4-0.1,4-0.1
	c2,0,4.4,0.1,7.2,0.7c2.5,0.6,5.5,1.9,8,4.1c1.7,1.2,3.2,3,4.1,4.9c0.2,0.4,0.3,0.7,0.5,1.1c0.3,0,0.5,0,0.8,0
	c5.7,0,11.5,1.4,16.8,5c0.5,0.4,1.1,0.9,1.5,1.3c1.4,1.5,3.4,3.4,5.3,6.2c1.1,1.6,2.3,3.6,3.1,6.1l160.8-88.6V13z"/>
<path style="fill:#C21718;" d="M146.6,316c-2,0.4-4.1,0.7-6.3,0.7c-3.1,0-6.1-1.4-8-3.9c-1.9-2.4-2.7-5.7-2-8.7
	c0.4-1.9,1-3.5,1.7-4.9c-1.3,0.1-2.5-0.1-3.8-0.4l-49.3,26.8c1,7.7,2.2,15,3.7,21.9c0.5,2.4,1.1,4.8,1.7,7.2l59.7-32.5
	C144.8,320,145.7,318,146.6,316z"/>
<path style="fill:#C21718;" d="M399.6,154.7c-5.8,4.3-11.7,7.9-16.9,11.4c-2.3,1.5-4.4,3-6.4,4.6c0.4,0.4,0.8,0.8,1.2,1.1
	c0.5-0.2,1.1-0.3,1.7-0.5c2.6-0.8,5.9-1.6,9.8-1.6c2.4,0,5,0.3,7.6,1c4.2,0.5,8.6,0.9,12.9,0.9c5,0,9.8-0.5,14-1.5l70.4-38.3v-32
	l-77.5,42.1c-5.8,4.7-11.6,8.7-16.5,12.6L399.6,154.7z"/>
<path d="M430.1,167.7c1.4-0.7,3.1-1.1,4.7-1.1h3c4.3,0,8.1,2.6,9.6,6.6c1.5,4,0.4,8.5-2.8,11.3c-2.6,2.3-5.2,4.5-7.9,6.6l57-31.6
	v-27.7l-70.4,38.3C425.9,169.5,428.2,168.7,430.1,167.7z"/>
<path d="M146.3,344.8c1.2-1.1,2.4-2.2,3.6-3.3c-1.5-0.4-2.9-1.2-4.1-2.2c-2.2-2-3.4-4.7-3.4-7.7v-3.6c0-1.3,0.2-2.5,0.7-3.7
	c0.3-0.7,0.6-1.4,0.8-2.1l-59.7,32.5c0,0.1,0.1,0.2,0.1,0.3c2.3,9.3,5.1,18.1,8.4,27.1l50.2-27.9
	C142.4,350.7,143.6,347.2,146.3,344.8z"/>
<path style="fill:#1B5497;" d="M443.4,258c-0.7,3-2.8,5.5-5.5,6.8c-2.1,1-4.3,1.4-6.2,1.4c-3.5-0.1-5.8-1-7.6-1.8
	c-5.5,16.1-8.1,33.7-8.1,52.7c0,3.6-1.9,7-5.1,8.9c-3.1,1.8-7,1.9-10.2,0.1c-4.7-2.6-7.9-6.2-10.6-9.4c-2.4-3-4.4-5.9-6.1-8.2
	c-3.7-3.8-5.2-7.7-6.5-10.4c-0.9-2.3-1.8-3.9-2.2-4.5l-0.9-0.1c-1.1-0.2-2.2-0.3-3.2-0.3l-20.5,11.4c-0.1,0.6-0.2,1.2-0.2,1.8
	c0,1.8,0.4,2.6,0.8,3.1l0.8,1c2.4,3.6,5.4,6.1,9.2,8.4c3.8,2.3,8.3,4.2,13.3,6.2c2.9,1.2,5.2,3.7,6,6.7c0.9,3,0.3,6.3-1.6,8.9
	c-1.4,2-3.3,3.3-4.9,4.1c-1.6,0.8-3,1.1-4,1.4c-2,0.4-3.4,0.5-3.9,0.6c-0.6,0.3-1.2,0.5-1.8,0.7c-12.4,3.5-23.8,7.7-34,13.8
	l-0.2,0.1c-22.9,13.2-46.6,31.1-62.3,53c-0.5,0.7-1,1.3-1.7,1.8c-0.4,0.5-1.2,1.4-2.9,2.6c-1.4,1-3.8,1.9-6.2,1.9c0,0-0.1,0-0.1,0
	c-1.3,0-2.3-0.2-3.2-0.4c-5.4-1.5-8.6-7.1-7.2-12.5c2.4-9.1,3.9-19.5,3.9-29.6c0-5.9-0.5-11.6-1.6-17l-4.4,2.4c-0.1,1-0.3,2-0.4,3.1
	c-0.4,4.4-3.5,8-7.8,9.1c-1.8,0.5-3.7,0.6-5.3,0.6c-3.1,0-5.6-0.6-7.6-1.1L117.8,434c11.9,18.4,27.3,36.6,44.7,53.1L492.9,306
	c0.6-8.9,0.9-18.4,0.9-28.8v-52l-50.4,28C443.7,254.7,443.8,256.4,443.4,258z"/>
<path d="M402,203.9c12.2-8.5,24.8-17.3,35.9-27.1h-3c-11.5,6-27.5,5.8-40.6,4.1c-7.7-2.3-12.2,0.6-19.4,2.6
	c-4.9-4.3-9.4-8.8-13.2-13.2c9-9.8,21.1-15.8,31.8-23.7c10-7.9,21.8-15.4,29.7-25.6c1.3-1.9-1.3-3.4-3.2-3.6
	c-11.5,1.7-22.6,4.9-33.7,7.7c-26,7.9-44.2-1.3-71.3-1.9c-5.3-1.3-9.8,2.6-14.3,0.4c1.1-4.5,6-6.4,9.8-7.7c4.5-1.5,9.2,0.2,12.8,2.6
	c1.7-5.3-2.6-9.4-6.2-13.2c-5.1-3.6-13.2-4.1-19-1.5c-5.6-1.5,0.6-7.3-3.6-9.8c-3.2-3.2-8.1-2.6-12.8-2.6
	c-13.7,3-26.7,7.9-37.8,17.5c-3.8,3-8.3,7.3-9.2,11.1c4.3-0.6,9.8-3,13.7,0c0,0.6,0.2,1.3-0.4,1.7c-18.6-3.4-21.4,17.5-31.8,27.1
	c9-2.8,16.2-9.4,26.7-8.3c0.9,1.1,3.6,0.9,2.6,3.2c-12.8,12.6-31.2,9.2-48.3,12.8c-17.3,16.9-33.3,37.1-53.8,50.2
	c-4.5,3-9.8,5.1-13.7,8.8c15.8,4.1,35.4,5.1,53.2,3l2.1,1.5c-1.9,5.1-0.2,12.2-3.6,16c-9.2-1.3-19.6-1.7-27.1,5.1
	c-1.9,3.6,3,6,4.1,9.2c-3.4,4.4-5.3,11.4-7.6,16.3c-4.1,0.2-8.5,0.5-12.9,0.9c-5.9,0.4-11.5,1.1-17.2,3.2c-0.1,0-0.3,0.1-0.4,0.1
	c-5.1-2.8-0.3-9.4-1.8-15c-2.1-1.9-4.9-2.3-7.3-3.4c-2.2-0.4-4.5-0.6-6.7-0.6c-4.9,0.1-9.6,1.4-13.2,4.6c1.3,10.5,3.4,20.5,4.1,31.2
	c5.1,3,13,2.6,19,1.1c1-0.3,1.7-0.8,2.1-1.4c2.1-2.6,0.6-7.3,1.3-10.1c2.8-3.4,6.7-4.2,10.5-5.7c5.1-0.6,14.1-3.4,18.6-0.8
	c-3.4,6.6-14.8,12-15.6,18.4c4.9-4.3,10.7-6.8,17.3-7c4.7,2.1-0.4,6.2-0.9,9.2c-1.5,5.6-6,9.8-7.3,15.4c5.5,0,10.5-2.3,14.9-5.1
	c2.8-0.4,6-3.4,8.5-1.5c-2.1,10-7.5,18.8-11.1,28.2v3.6c9.4-1.1,17.3-6,26.5-7.7l1.7,1.5c-9,8.8-18.6,19-27.8,27.1
	c21.2,3.6,42.3,7.3,63.6,10.7c6,0.2,11.3,4.1,17.3,2.6c0.9-10,4.1-19.2,9.2-27.6c1.7-1.7,2.6-4.7,5.1-5.1
	c15.2,20.7,14.7,52.7,8.3,77.3c1.5,0.4,1.9-1.3,3-1.9c17.1-23.7,41.8-42.3,65.5-55.9c11.3-6.8,23.7-11.3,36.5-14.9
	c2.8-1.7,7.5-0.6,9.2-3c-10-4.1-20.3-8.3-27.1-18.4c-4.9-5.6-3.8-14.1-1.1-20.1c7.9-11.1,20.3-14.7,33.3-12.8
	c10.5,0.4,9.6,12.8,15.8,18.4c4.1,5.3,8.1,12.2,13.9,15.4c0-21.6,3.2-41.8,10.3-60.4c3-12.2,11.7,1.7,17.5-1.1
	c-8.3-11.3-13.7-23.9-14.9-38.4C414.2,211.2,401.8,212.9,402,203.9z"/>
</svg>
