<?xml version="1.0" encoding="utf-8"?>
<!-- Generator: Adobe Illustrator 19.0.0, SVG Export Plug-In . SVG Version: 6.00 Build 0)  -->
<svg version="1.1" id="Livello_1" xmlns="http://www.w3.org/2000/svg" xmlns:xlink="http://www.w3.org/1999/xlink" x="0px" y="0px"
	 viewBox="0 0 226.8 226.8" style="enable-background:new 0 0 226.8 226.8;" xml:space="preserve">
<path style="fill:#B2B2B2;" d="M149.1,2.2L151,0c3.1,4.4,6.7,11.7,11.4,14.4c4.2,2.5,12.6,5,30.3,5l2.8,0L206.3,34
	c-6.7,11.5-12.9,26.4-12.9,40c0,3.6,0.6,8.6,2.5,14.8l11.4,3.2l-2.6,5.2l8.4,3.8l-4.2,5.7l8,6l-8.1,6.1c3.1,8,7,20.7,7,31
	c0,36.1-29.3,49-85,58.4l3.9,13.7l-14.8-6.4l-10.4,11.3l-4.5-11.6l-17.6,5.3l4.7-13C39,198.1,11,185,11,149.8c0-10.3,3.9-22.9,7-31
	l-8.1-6.1l8-6l-4.2-5.7l8.4-3.8L19.5,92l11.4-3.2c1.9-6.3,2.5-11.2,2.5-14.8c0-13.6-6.2-28.6-12.9-40l10.9-14.5l2.8,0
	c9.6,0,28.2-0.3,34.5-8.7c2.6-3.4,4.7-7.2,7.2-10.7c10.6,12.4,19.5,20.6,36.9,20.9l1.5,0C129.7,20.7,139.1,13.8,149.1,2.2z"/>
<path d="M114.2,27c14.9-0.2,27-6.5,36.4-17.3c4.1,5.9,6,15.8,42.1,15.9l7.1,9.4c0,0-11.8,20.4-11.8,39.7c0,4.8,1,11.3,3.6,19.3
	l7.9,2.2l-2.1,4.4l7.3,3.3l-3.4,4.6l6.5,4.9l-5.6,4.2c3,7.2,8.1,21.8,8.1,32.8c0,32.1-25.7,44.3-86.5,54l2.4,8.4l-7.7-3.3l-7,7.7
	l-3.2-8.1l-11.9,3.6l3.2-8.9c-58.3-9.6-83-21.9-83-53.4c0-11,5.1-25.6,8.1-32.8l-5.6-4.2l6.5-4.9l-3.4-4.6l7.3-3.3l-2.1-4.4l7.9-2.2
	c2.7-8,3.6-14.5,3.6-19.3C38.9,55.3,27,35,27,35l7.1-9.4c36.1-0.1,38-10,42.1-15.9c9.4,10.9,21.5,17.2,36.4,17.4
	C112.6,27,114.2,27,114.2,27z"/>
<polygon style="fill:#FFFFFF;" points="119.9,180.5 126.6,177.4 126.4,160.4 120.1,156.9 105.6,165.8 106.1,172.1 "/>
<path style="fill:#FFFFFF;" d="M92.8,159.1l0.5-16.9l-3.6-2c-4.4,5.3-7,12-7,19.4c0,0.6,0,1.3,0.1,1.9l7.2,0.8L92.8,159.1z"/>
<polygon style="fill:#FFFFFF;" points="105.2,138.8 97.8,141.7 97.3,157.9 103.2,162.2 117.3,153.4 116.7,145 "/>
<path style="fill:#FFFFFF;" d="M93,182.3l1.8-6.8l-5.7-8.9l-5.6-0.7C84.8,172.5,88.2,178.1,93,182.3z"/>
<path style="fill:#FFFFFF;" d="M143.7,159.6c0-1.1-0.1-2.2-0.2-3.3l-6.6-0.8l-6.1,4.6l0.2,17.3l5,2.3
	C140.8,174.4,143.7,167.3,143.7,159.6z"/>
<path style="fill:#FFFFFF;" d="M129.2,133.8c-4.7-2.9-10.2-4.5-16-4.5c-0.8,0-1.6,0-2.4,0.1l-2,6.3l11.3,6.2h7.8L129.2,133.8z"/>
<path style="fill:#FFFFFF;" d="M142.7,151.8c-1.6-5.9-4.9-11.2-9.5-15.1l-1.2,6.9l5,7.5L142.7,151.8z"/>
<path style="fill:#FFFFFF;" d="M117.6,189.6l0.3-5.2l-14.3-8.6l-4.6,0.9l-2.2,8.6c4.7,3,10.3,4.7,16.4,4.7
	C114.7,190,116.2,189.8,117.6,189.6z"/>
<path style="fill:none;" d="M196.5,125.6c-0.9-2.2-1.8-4.4-2.8-6.6H34.7c-1,2.2-1.9,4.4-2.8,6.6h16.9v55.4
	c8.1,3.8,17.8,6.4,27.8,8.8v-64.2h72.3v64.9c9.9-2.2,19.6-4.7,27.9-8.2v-56.7H196.5z"/>
<path style="fill:none;" d="M181.7,89.2h-11.1V33.5c-5.1-0.9-10.1-2.4-14.2-4.8v60.5h-10.9V28.3c-4.3,2.8-8.9,4.8-13.7,6.1v54.7
	h-10.9V36.3c-2.1,0.2-4.2,0.3-6.4,0.3h-0.5c-2.2,0-4.4-0.1-6.6-0.3c0,12,0,52.5,0,52.5H46.8c-0.6,2.4-1.3,4.7-2.1,7h139
	C182.9,93.6,182.2,91.4,181.7,89.2z"/>
<path style="fill:#FFFFFF;" d="M66.8,53.3c1,0,1.9-0.8,1.9-1.8c0-1-0.8-1.8-1.9-1.8c-1,0-1.9,0.8-1.9,1.8
	C64.9,52.4,65.8,53.3,66.8,53.3z"/>
<path style="fill:#FFFFFF;" d="M62.7,41.4c-1,0-1.9,0.8-1.9,1.8c0,1,0.8,1.8,1.7,1.8c0.3-1,1-1.8,1.9-2.3
	C64.3,42,63.6,41.4,62.7,41.4z"/>
<path style="fill:#FFFFFF;" d="M98.4,54c0,1,0.8,1.8,1.9,1.8c1,0,1.9-0.8,1.9-1.8c0-1-0.8-1.8-1.9-1.8C99.2,52.1,98.4,53,98.4,54z"
	/>
<path style="fill:#FFFFFF;" d="M58.9,80.7h11.6c-0.1-4.1-1-13.7-6-13.7C59.7,67,59,75.3,58.9,80.7z"/>
<path style="fill:#FFFFFF;" d="M99.3,45.5c-1,0-1.9,0.8-1.9,1.8c0,1,0.8,1.8,1.9,1.8c1,0,1.9-0.8,1.9-1.8
	C101.1,46.3,100.3,45.5,99.3,45.5z"/>
<ellipse style="fill:#FFFFFF;" cx="57.4" cy="46.3" rx="1.9" ry="1.8"/>
<path style="fill:#FFFFFF;" d="M70.5,81.8H58.9c0,0.8,0,1.4,0,2c0,2.5,0.1,4.1,0.2,5h11.5V81.8z"/>
<path style="fill:#FFFFFF;" d="M54.7,53c0,1,0.8,1.8,1.9,1.8c1,0,1.9-0.8,1.9-1.8c0-1-0.8-1.8-1.9-1.8C55.5,51.2,54.7,52,54.7,53z"
	/>
<ellipse style="fill:#FFFFFF;" cx="62" cy="55" rx="1.9" ry="1.8"/>
<path style="fill:#FFFFFF;" d="M60.1,51.7c0.6-0.3,1.2-0.5,1.9-0.5c0.4,0,0.7,0,1,0.1c0-0.9,0.3-1.6,0.8-2.3c-0.6-0.5-1.1-1.2-1.3-2
	c-0.5,0-0.9-0.1-1.3-0.3c-0.2,1.5-1.2,2.7-2.5,3.2C59.3,50.4,59.8,51,60.1,51.7z"/>
<path style="fill:#FFFFFF;" d="M66.2,48c1,0,1.9-0.8,1.9-1.8c0-1-0.8-1.8-1.9-1.8c-1,0-1.9,0.8-1.9,1.8C64.4,47.2,65.2,48,66.2,48z"
	/>
<path style="fill:#FFFFFF;" d="M95.5,47.7c-0.4,0.2-0.9,0.3-1.3,0.3c-0.2,0.8-0.6,1.5-1.3,2c0.5,0.6,0.8,1.4,0.8,2.3
	c0.3-0.1,0.7-0.1,1-0.1c0.7,0,1.3,0.2,1.9,0.5c0.3-0.7,0.8-1.4,1.4-1.8C96.7,50.4,95.7,49.2,95.5,47.7z"/>
<path style="fill:#FFFFFF;" d="M86.4,88.8H99l0-4.9c0-0.5,0-1.3,0-2.1H86.6L86.4,88.8z"/>
<path style="fill:#FFFFFF;" d="M78.4,59.3c-4.7,0-6,8.8-6.1,12.5l-0.1,2.8c0.4,2.2,0.5,4.3,0.6,6h11.7c0-1,0.1-2.1,0.2-3.3
	C84.4,71.9,83.1,59.3,78.4,59.3z"/>
<polygon style="fill:#FFFFFF;" points="84.4,81.8 72.7,81.8 72.7,88.8 84.2,88.8 "/>
<path style="fill:#FFFFFF;" d="M77.6,24.3c-8.5,9.3-25.6,10.5-38,10.9c0,0,9.2,21.3,9.2,38.3c0,5.4-0.8,10.4-2,15.3h10.1
	c-0.1-1.1-0.2-2.7-0.2-5c0-5.5-0.3-19,7.8-19c0.3,0,0.6,0,0.9,0.1l-0.6-1.4l-5.7-1l0.1-2.1l5.3-0.4l-0.4-1.9
	c-0.6,0.4-1.3,0.7-2.1,0.7c-1.6,0-3-1-3.6-2.5c-0.6,0.3-1.2,0.5-1.9,0.5c-2.1,0-3.8-1.7-3.8-3.8c0-1.6,1.1-3.1,2.5-3.6
	c-1-0.7-1.6-1.8-1.6-3.1c0-2.1,1.7-3.8,3.8-3.8c0.5,0,1.1,0.1,1.5,0.3c0.2-1.9,1.8-3.4,3.8-3.4c1.8,0,3.3,1.2,3.7,2.9
	c2,0.1,3.6,1.8,3.6,3.8c0,0.9-0.3,1.7-0.8,2.3c0.8,0.7,1.4,1.7,1.4,2.9c0,1.8-1.2,3.3-2.9,3.7l2.5,3.2l1.6-3.7l2,0.3l-0.6,5.8
	c1.2-1.6,2.8-3.6,5.1-3.6c2.2,0,3.8,2.2,5,4.3l-0.6-5.6l2-0.3l1.6,3.7L89,56c-1.7-0.4-2.9-1.9-2.9-3.7c0-1.2,0.5-2.2,1.4-2.9
	c-0.5-0.6-0.8-1.4-0.8-2.3c0-2,1.6-3.7,3.6-3.8c0.4-1.7,1.9-2.9,3.7-2.9c2,0,3.6,1.5,3.8,3.4c0.5-0.2,1-0.3,1.5-0.3
	c2.1,0,3.8,1.7,3.8,3.8c0,1.3-0.6,2.4-1.6,3.1c1.5,0.5,2.5,1.9,2.5,3.6c0,2.1-1.7,3.8-3.8,3.8c-0.7,0-1.3-0.2-1.9-0.5
	c-0.5,1.5-1.9,2.5-3.6,2.5c-0.8,0-1.5-0.2-2.1-0.7L92.2,61l5.3,0.4l0.1,2.1l-5.7,1l-0.6,1.3c0.7-0.2,1.4-0.3,2.2-0.3
	c7.9,0,7.6,13.1,7.6,18.5l0,4.9h6.1c0,0,0-40.5,0-52.5C96.2,35.3,86.2,31.9,77.6,24.3z"/>
<path style="fill:#FFFFFF;" d="M99,80.7c-0.1-5.2-0.8-13.1-5.4-13.1c-5.5,0-6.9,8.8-7,13.1H99z"/>
<path style="fill:#FFFFFF;" d="M92.9,56c0,1,0.8,1.8,1.8,1.8c1,0,1.9-0.8,1.9-1.8c0-1-0.8-1.8-1.9-1.8C93.7,54.1,92.9,54.9,92.9,56z
	"/>
<path style="fill:#FFFFFF;" d="M94,42.4c-0.9,0-1.6,0.6-1.8,1.4c0.9,0.5,1.6,1.3,1.9,2.3c1-0.1,1.7-0.9,1.7-1.8
	C95.8,43.2,95,42.4,94,42.4z"/>
<path style="fill:#FFFFFF;" d="M88.1,52.4c0,1,0.8,1.8,1.9,1.8c1,0,1.8-0.8,1.8-1.8c0-1-0.8-1.8-1.8-1.8
	C88.9,50.5,88.1,51.4,88.1,52.4z"/>
<path style="fill:#FFFFFF;" d="M90.5,45.3c-1,0-1.9,0.8-1.9,1.8c0,0.6,0.3,1.1,0.8,1.5c0.2,0,0.4,0,0.5,0c0.5,0,0.9,0.1,1.3,0.2
	c0.6-0.3,1.1-0.9,1.1-1.7C92.3,46.1,91.5,45.3,90.5,45.3z"/>
<path style="fill:#00A754;" d="M181.7,89.2c-1.3-5-2.1-10.2-2.1-15.7c0-17,9.2-38.3,9.2-38.3c-5.5-0.2-11.9-0.5-18.1-1.7v55.7H181.7
	z"/>
<path style="fill:#00A754;" d="M202,150c0-8.6-2.3-16.6-5.5-24.4h-19.8v56.7C191.5,176.2,202,167,202,150z"/>
<path style="fill:#00A754;" d="M183.7,95.8h-139c-2.8,8.1-6.6,15.7-10,23.3h159.1C190.3,111.4,186.5,103.8,183.7,95.8z"/>
<path style="fill:#00A754;" d="M31.8,125.7c-3.1,7.8-5.5,15.8-5.5,24.4c0,15.8,9.2,24.9,22.3,31v-55.4H31.8z"/>
<path style="fill:#00A754;" d="M156.4,89.2V28.7c-2.1-1.2-4-2.7-5.6-4.4c-1.7,1.5-3.5,2.9-5.3,4.1v60.8H156.4z"/>
<path style="fill:#00A754;" d="M131.7,89.2V34.4c-3.5,0.9-7.2,1.5-10.9,1.9v52.9H131.7z"/>
<path style="fill:#00A754;" d="M76.5,125.6v64.2c7.4,1.7,15,3.3,22.2,5.1l1.3-5.6c-11.5-5-19.5-16.4-19.5-29.7
	c0-17.9,14.6-32.4,32.6-32.4c18,0,32.6,14.5,32.6,32.4c0,14.2-9.2,26.2-21.9,30.6l1.7,5.6c7.5-1.9,15.4-3.6,23.2-5.4v-64.9H76.5z"/>
<path style="fill-rule:evenodd;clip-rule:evenodd;fill:#FFFFFF;" d="M63.5,100h-3.4v10.1h-1.3c-0.7,0-2.5,0-2.5-2.5
	c0-2.7,1.7-6,2.5-7.6H55c-1.2,2.4-2.3,5-2.3,7.7c0,3,1.4,5.4,5.2,5.4h5.6V100z M65.5,110.1h2.9v2.9h-2.9V110.1z M77,100h-3.7
	c-2.9,0-3.5,1.9-3.5,3c0,1.3,0.8,2.2,1.6,3.1l2.3,2.6c0.2,0.3,0.6,0.5,0.6,0.9c0,0.5-0.9,0.4-1.3,0.4h-3.1l0.8,2.9h4
	c2.9,0,3.5-1.9,3.5-3c0-1.3-0.8-2.2-1.6-3.1l-2.4-2.6c-0.2-0.3-0.6-0.5-0.6-0.9c0-0.5,0.9-0.4,1.3-0.4h2.9L77,100z M79.3,110.1h2.9
	v2.9h-2.9V110.1z M96.4,100h-3.7c-2.9,0-3.5,1.9-3.5,3c0,1.3,0.8,2.2,1.6,3.1l2.3,2.6c0.2,0.3,0.6,0.5,0.6,0.9
	c0,0.5-0.9,0.4-1.3,0.4h-3.1l0.8,2.9h4c2.9,0,3.5-1.9,3.5-3c0-1.3-0.8-2.2-1.6-3.1l-2.4-2.6c-0.2-0.3-0.6-0.5-0.6-0.9
	c0-0.5,0.9-0.4,1.3-0.4h2.9L96.4,100z M108.9,103.9h-3.4v2.1H102c0.4-1.1,1.1-3,4.7-3h2.7l-0.8-2.9h-1.7c-2.5,0-4.6,0.3-6.4,2.1
	c-1.6,1.6-2.4,4-2.4,6.3c0,2.3,0.8,4.6,2,6.5l2.8-1.8c-0.8-1.2-1.3-2.7-1.3-4.1h3.8v4.1h3.4V103.9z M117.6,100h-3.7
	c-2.9,0-3.5,1.9-3.5,3c0,1.3,0.8,2.2,1.6,3.1l2.3,2.6c0.2,0.3,0.6,0.5,0.6,0.9c0,0.5-0.9,0.4-1.3,0.4h-3.1l0.8,2.9h4
	c2.9,0,3.5-1.9,3.5-3c0-1.3-0.8-2.2-1.6-3.1l-2.4-2.6c-0.2-0.3-0.6-0.5-0.6-0.9c0-0.5,0.9-0.4,1.3-0.4h2.9L117.6,100z M126.6,100
	h-3.7c-2.9,0-3.5,1.9-3.5,3c0,1.3,0.8,2.2,1.6,3.1l2.3,2.6c0.2,0.3,0.6,0.5,0.6,0.9c0,0.5-0.9,0.4-1.3,0.4h-3.1l0.8,2.9h4
	c2.9,0,3.5-1.9,3.5-3c0-1.3-0.8-2.2-1.6-3.1l-2.4-2.6c-0.2-0.3-0.6-0.5-0.6-0.9c0-0.5,0.9-0.4,1.3-0.4h2.9L126.6,100z M139.1,100
	h-3.4v10.1h-1.3c-0.7,0-2.5,0-2.5-2.5c0-2.7,1.7-6,2.5-7.6h-3.7c-1.2,2.4-2.3,5-2.3,7.7c0,3,1.4,5.4,5.2,5.4h5.6V100z M146.5,113.3
	c4,0,6-5,6-8.4c0-2.8-1.4-5.2-6-5.2c-4.6,0-6,2.4-6,5.2C140.6,108.4,142.5,113.3,146.5,113.3z M146.5,110.3c-1.3,0-2.4-2.8-2.4-5.2
	c0-1.7,0.7-2.3,2.4-2.3c1.7,0,2.4,0.6,2.4,2.3C148.9,107.4,147.8,110.3,146.5,110.3z M157.5,100h-3.4v13h7.1l0.8-2.9h-4.5V100z
	 M168,113.3c4,0,6-5,6-8.4c0-2.8-1.4-5.2-6-5.2c-4.6,0-6,2.4-6,5.2C162.1,108.4,164,113.3,168,113.3z M168,110.3
	c-1.3,0-2.4-2.8-2.4-5.2c0-1.7,0.7-2.3,2.4-2.3c1.7,0,2.4,0.6,2.4,2.3C170.4,107.4,169.3,110.3,168,110.3z"/>
</svg>
